solid model
  facet normal -1 0 0
    outer loop
      vertex 0 -11 11.75
      vertex 0 -9.9957 11.9091
      vertex 0 0 0
    endloop
  endfacet
  facet normal 0 -0.156468 0.987683
    outer loop
      vertex 0 -11 11.75
      vertex 2 -11 11.75
      vertex 0 -9.9957 11.9091
    endloop
  endfacet
  facet normal -0 0.156468 0.987683
    outer loop
      vertex 0 -11 11.75
      vertex 2 -12.0043 11.9091
      vertex 2 -11 11.75
    endloop
  endfacet
  facet normal -0 -0.156468 -0.987683
    outer loop
      vertex 0 -11 18.25
      vertex 0 -9.9957 18.0909
      vertex 2 -9.9957 18.0909
    endloop
  endfacet
  facet normal -1 0 0
    outer loop
      vertex 0 -11 18.25
      vertex 0 0 30
      vertex 0 -9.9957 18.0909
    endloop
  endfacet
  facet normal 0 -0.156468 -0.987683
    outer loop
      vertex 0 -11 18.25
      vertex 2 -9.9957 18.0909
      vertex 2 -11 18.25
    endloop
  endfacet
  facet normal -1 0 0
    outer loop
      vertex 0 -12.0043 11.9091
      vertex 0 -11 11.75
      vertex 0 0 0
    endloop
  endfacet
  facet normal 0 0.156468 0.987683
    outer loop
      vertex 0 -12.0043 11.9091
      vertex 2 -12.0043 11.9091
      vertex 0 -11 11.75
    endloop
  endfacet
  facet normal -0 0.453967 0.891018
    outer loop
      vertex 0 -12.0043 11.9091
      vertex 2 -12.9103 12.3707
      vertex 2 -12.0043 11.9091
    endloop
  endfacet
  facet normal 0 0.156468 -0.987683
    outer loop
      vertex 0 -12.0043 18.0909
      vertex 0 -11 18.25
      vertex 2 -11 18.25
    endloop
  endfacet
  facet normal -1 0 0
    outer loop
      vertex 0 -12.0043 18.0909
      vertex 0 0 30
      vertex 0 -11 18.25
    endloop
  endfacet
  facet normal 0 0.156468 -0.987683
    outer loop
      vertex 0 -12.0043 18.0909
      vertex 2 -11 18.25
      vertex 2 -12.0043 18.0909
    endloop
  endfacet
  facet normal 0 0.453967 0.891018
    outer loop
      vertex 0 -12.9103 12.3707
      vertex 2 -12.9103 12.3707
      vertex 0 -12.0043 11.9091
    endloop
  endfacet
  facet normal 0 0.453967 -0.891018
    outer loop
      vertex 0 -12.9103 17.6293
      vertex 0 -12.0043 18.0909
      vertex 2 -12.0043 18.0909
    endloop
  endfacet
  facet normal 0 0.453967 -0.891018
    outer loop
      vertex 0 -12.9103 17.6293
      vertex 2 -12.0043 18.0909
      vertex 2 -12.9103 17.6293
    endloop
  endfacet
  facet normal 0 0.707107 -0.707107
    outer loop
      vertex 0 -12.9103 17.6293
      vertex 2 -12.9103 17.6293
      vertex 2 -13.6293 16.9103
    endloop
  endfacet
  facet normal 0 0.707107 0.707107
    outer loop
      vertex 0 -13.6293 13.0897
      vertex 2 -12.9103 12.3707
      vertex 0 -12.9103 12.3707
    endloop
  endfacet
  facet normal 0 0.707107 0.707107
    outer loop
      vertex 0 -13.6293 13.0897
      vertex 2 -13.6293 13.0897
      vertex 2 -12.9103 12.3707
    endloop
  endfacet
  facet normal 0 0.707107 -0.707107
    outer loop
      vertex 0 -13.6293 16.9103
      vertex 0 -12.9103 17.6293
      vertex 2 -13.6293 16.9103
    endloop
  endfacet
  facet normal 0 0.891018 -0.453967
    outer loop
      vertex 0 -13.6293 16.9103
      vertex 2 -13.6293 16.9103
      vertex 2 -14.0909 16.0043
    endloop
  endfacet
  facet normal 0 0.891018 0.453967
    outer loop
      vertex 0 -14.0909 13.9957
      vertex 2 -13.6293 13.0897
      vertex 0 -13.6293 13.0897
    endloop
  endfacet
  facet normal 0 0.891018 0.453967
    outer loop
      vertex 0 -14.0909 13.9957
      vertex 2 -14.0909 13.9957
      vertex 2 -13.6293 13.0897
    endloop
  endfacet
  facet normal 0 0.891018 -0.453967
    outer loop
      vertex 0 -14.0909 16.0043
      vertex 0 -13.6293 16.9103
      vertex 2 -14.0909 16.0043
    endloop
  endfacet
  facet normal 0 0.987683 -0.156468
    outer loop
      vertex 0 -14.0909 16.0043
      vertex 2 -14.0909 16.0043
      vertex 2 -14.25 15
    endloop
  endfacet
  facet normal 0 0.987683 -0.156468
    outer loop
      vertex 0 -14.25 15
      vertex 0 -14.0909 16.0043
      vertex 2 -14.25 15
    endloop
  endfacet
  facet normal 0 0.987683 0.156468
    outer loop
      vertex 0 -14.25 15
      vertex 2 -14.0909 13.9957
      vertex 0 -14.0909 13.9957
    endloop
  endfacet
  facet normal 0 0.987683 0.156468
    outer loop
      vertex 0 -14.25 15
      vertex 2 -14.25 15
      vertex 2 -14.0909 13.9957
    endloop
  endfacet
  facet normal -1 0 0
    outer loop
      vertex 0 -22.75 15
      vertex 0 -14.0909 16.0043
      vertex 0 -14.25 15
    endloop
  endfacet
  facet normal -1 0 0
    outer loop
      vertex 0 -22.75 15
      vertex 0 -14.25 15
      vertex 0 -14.0909 13.9957
    endloop
  endfacet
  facet normal 0 -0.987683 -0.156468
    outer loop
      vertex 0 -22.75 15
      vertex 2 -22.75 15
      vertex 2 -22.9091 16.0043
    endloop
  endfacet
  facet normal -1 0 0
    outer loop
      vertex 0 -22.9091 13.9957
      vertex 0 -14.0909 13.9957
      vertex 0 -13.6293 13.0897
    endloop
  endfacet
  facet normal -1 0 0
    outer loop
      vertex 0 -22.9091 13.9957
      vertex 0 -22.75 15
      vertex 0 -14.0909 13.9957
    endloop
  endfacet
  facet normal 0 -0.987683 0.156468
    outer loop
      vertex 0 -22.9091 13.9957
      vertex 2 -22.75 15
      vertex 0 -22.75 15
    endloop
  endfacet
  facet normal 0 -0.987683 0.156468
    outer loop
      vertex 0 -22.9091 13.9957
      vertex 2 -22.9091 13.9957
      vertex 2 -22.75 15
    endloop
  endfacet
  facet normal -1 0 0
    outer loop
      vertex 0 -22.9091 16.0043
      vertex 0 -13.6293 16.9103
      vertex 0 -14.0909 16.0043
    endloop
  endfacet
  facet normal -1 0 0
    outer loop
      vertex 0 -22.9091 16.0043
      vertex 0 -14.0909 16.0043
      vertex 0 -22.75 15
    endloop
  endfacet
  facet normal 0 -0.987683 -0.156468
    outer loop
      vertex 0 -22.9091 16.0043
      vertex 0 -22.75 15
      vertex 2 -22.9091 16.0043
    endloop
  endfacet
  facet normal 0 -0.891018 -0.453967
    outer loop
      vertex 0 -22.9091 16.0043
      vertex 2 -22.9091 16.0043
      vertex 2 -23.3707 16.9103
    endloop
  endfacet
  facet normal -1 0 0
    outer loop
      vertex 0 -23.3707 13.0897
      vertex 0 -13.6293 13.0897
      vertex 0 -12.9103 12.3707
    endloop
  endfacet
  facet normal -1 0 0
    outer loop
      vertex 0 -23.3707 13.0897
      vertex 0 -22.9091 13.9957
      vertex 0 -13.6293 13.0897
    endloop
  endfacet
  facet normal 0 -0.891018 0.453967
    outer loop
      vertex 0 -23.3707 13.0897
      vertex 2 -22.9091 13.9957
      vertex 0 -22.9091 13.9957
    endloop
  endfacet
  facet normal 0 -0.891018 0.453967
    outer loop
      vertex 0 -23.3707 13.0897
      vertex 2 -23.3707 13.0897
      vertex 2 -22.9091 13.9957
    endloop
  endfacet
  facet normal -1 0 0
    outer loop
      vertex 0 -23.3707 16.9103
      vertex 0 -12.9103 17.6293
      vertex 0 -13.6293 16.9103
    endloop
  endfacet
  facet normal -1 0 0
    outer loop
      vertex 0 -23.3707 16.9103
      vertex 0 -13.6293 16.9103
      vertex 0 -22.9091 16.0043
    endloop
  endfacet
  facet normal 0 -0.891018 -0.453967
    outer loop
      vertex 0 -23.3707 16.9103
      vertex 0 -22.9091 16.0043
      vertex 2 -23.3707 16.9103
    endloop
  endfacet
  facet normal 0 -0.707107 -0.707107
    outer loop
      vertex 0 -23.3707 16.9103
      vertex 2 -23.3707 16.9103
      vertex 2 -24.0897 17.6293
    endloop
  endfacet
  facet normal -1 0 0
    outer loop
      vertex 0 -24.0897 12.3707
      vertex 0 -23.3707 13.0897
      vertex 0 -12.9103 12.3707
    endloop
  endfacet
  facet normal 0 -0.707107 0.707107
    outer loop
      vertex 0 -24.0897 12.3707
      vertex 2 -23.3707 13.0897
      vertex 0 -23.3707 13.0897
    endloop
  endfacet
  facet normal 0 -0.707107 0.707107
    outer loop
      vertex 0 -24.0897 12.3707
      vertex 2 -24.0897 12.3707
      vertex 2 -23.3707 13.0897
    endloop
  endfacet
  facet normal 0 -0.453967 0.891018
    outer loop
      vertex 0 -24.0897 12.3707
      vertex 2 -24.9957 11.9091
      vertex 2 -24.0897 12.3707
    endloop
  endfacet
  facet normal -1 0 0
    outer loop
      vertex 0 -24.0897 17.6293
      vertex 0 -12.9103 17.6293
      vertex 0 -23.3707 16.9103
    endloop
  endfacet
  facet normal 0 -0.707107 -0.707107
    outer loop
      vertex 0 -24.0897 17.6293
      vertex 0 -23.3707 16.9103
      vertex 2 -24.0897 17.6293
    endloop
  endfacet
  facet normal -1 0 0
    outer loop
      vertex 0 -24.9957 11.9091
      vertex 0 -12.9103 12.3707
      vertex 0 -12.0043 11.9091
    endloop
  endfacet
  facet normal -1 -0 0
    outer loop
      vertex 0 -24.9957 11.9091
      vertex 0 -24.0897 12.3707
      vertex 0 -12.9103 12.3707
    endloop
  endfacet
  facet normal 0 -0.453967 0.891018
    outer loop
      vertex 0 -24.9957 11.9091
      vertex 2 -24.9957 11.9091
      vertex 0 -24.0897 12.3707
    endloop
  endfacet
  facet normal 0 -0.156468 0.987683
    outer loop
      vertex 0 -24.9957 11.9091
      vertex 2 -26 11.75
      vertex 2 -24.9957 11.9091
    endloop
  endfacet
  facet normal -1 0 0
    outer loop
      vertex 0 -24.9957 18.0909
      vertex 0 -12.0043 18.0909
      vertex 0 -12.9103 17.6293
    endloop
  endfacet
  facet normal -1 0 0
    outer loop
      vertex 0 -24.9957 18.0909
      vertex 0 -12.9103 17.6293
      vertex 0 -24.0897 17.6293
    endloop
  endfacet
  facet normal -0 -0.453967 -0.891018
    outer loop
      vertex 0 -24.9957 18.0909
      vertex 0 -24.0897 17.6293
      vertex 2 -24.0897 17.6293
    endloop
  endfacet
  facet normal 0 -0.453967 -0.891018
    outer loop
      vertex 0 -24.9957 18.0909
      vertex 2 -24.0897 17.6293
      vertex 2 -24.9957 18.0909
    endloop
  endfacet
  facet normal 0 -0.156468 0.987683
    outer loop
      vertex 0 -26 11.75
      vertex 2 -26 11.75
      vertex 0 -24.9957 11.9091
    endloop
  endfacet
  facet normal -0 0.156468 0.987683
    outer loop
      vertex 0 -26 11.75
      vertex 2 -27.0043 11.9091
      vertex 2 -26 11.75
    endloop
  endfacet
  facet normal -0 -0.156468 -0.987683
    outer loop
      vertex 0 -26 18.25
      vertex 0 -24.9957 18.0909
      vertex 2 -24.9957 18.0909
    endloop
  endfacet
  facet normal 0 -0.156468 -0.987683
    outer loop
      vertex 0 -26 18.25
      vertex 2 -24.9957 18.0909
      vertex 2 -26 18.25
    endloop
  endfacet
  facet normal 0 0.156468 0.987683
    outer loop
      vertex 0 -27.0043 11.9091
      vertex 2 -27.0043 11.9091
      vertex 0 -26 11.75
    endloop
  endfacet
  facet normal -0 0.453967 0.891018
    outer loop
      vertex 0 -27.0043 11.9091
      vertex 2 -27.9103 12.3707
      vertex 2 -27.0043 11.9091
    endloop
  endfacet
  facet normal 0 0.156468 -0.987683
    outer loop
      vertex 0 -27.0043 18.0909
      vertex 0 -26 18.25
      vertex 2 -26 18.25
    endloop
  endfacet
  facet normal 0 0.156468 -0.987683
    outer loop
      vertex 0 -27.0043 18.0909
      vertex 2 -26 18.25
      vertex 2 -27.0043 18.0909
    endloop
  endfacet
  facet normal 0 0.453967 0.891018
    outer loop
      vertex 0 -27.9103 12.3707
      vertex 2 -27.9103 12.3707
      vertex 0 -27.0043 11.9091
    endloop
  endfacet
  facet normal 0 0.453967 -0.891018
    outer loop
      vertex 0 -27.9103 17.6293
      vertex 0 -27.0043 18.0909
      vertex 2 -27.0043 18.0909
    endloop
  endfacet
  facet normal 0 0.453967 -0.891018
    outer loop
      vertex 0 -27.9103 17.6293
      vertex 2 -27.0043 18.0909
      vertex 2 -27.9103 17.6293
    endloop
  endfacet
  facet normal 0 0.707107 -0.707107
    outer loop
      vertex 0 -27.9103 17.6293
      vertex 2 -27.9103 17.6293
      vertex 2 -28.6293 16.9103
    endloop
  endfacet
  facet normal 0 0.707107 0.707107
    outer loop
      vertex 0 -28.6293 13.0897
      vertex 2 -27.9103 12.3707
      vertex 0 -27.9103 12.3707
    endloop
  endfacet
  facet normal 0 0.707107 0.707107
    outer loop
      vertex 0 -28.6293 13.0897
      vertex 2 -28.6293 13.0897
      vertex 2 -27.9103 12.3707
    endloop
  endfacet
  facet normal 0 0.707107 -0.707107
    outer loop
      vertex 0 -28.6293 16.9103
      vertex 0 -27.9103 17.6293
      vertex 2 -28.6293 16.9103
    endloop
  endfacet
  facet normal 0 0.891018 -0.453967
    outer loop
      vertex 0 -28.6293 16.9103
      vertex 2 -28.6293 16.9103
      vertex 2 -29.0909 16.0043
    endloop
  endfacet
  facet normal 0 0.891018 0.453967
    outer loop
      vertex 0 -29.0909 13.9957
      vertex 2 -28.6293 13.0897
      vertex 0 -28.6293 13.0897
    endloop
  endfacet
  facet normal 0 0.891018 0.453967
    outer loop
      vertex 0 -29.0909 13.9957
      vertex 2 -29.0909 13.9957
      vertex 2 -28.6293 13.0897
    endloop
  endfacet
  facet normal 0 0.891018 -0.453967
    outer loop
      vertex 0 -29.0909 16.0043
      vertex 0 -28.6293 16.9103
      vertex 2 -29.0909 16.0043
    endloop
  endfacet
  facet normal 0 0.987683 -0.156468
    outer loop
      vertex 0 -29.0909 16.0043
      vertex 2 -29.0909 16.0043
      vertex 2 -29.25 15
    endloop
  endfacet
  facet normal 0 0.987683 -0.156468
    outer loop
      vertex 0 -29.25 15
      vertex 0 -29.0909 16.0043
      vertex 2 -29.25 15
    endloop
  endfacet
  facet normal 0 0.987683 0.156468
    outer loop
      vertex 0 -29.25 15
      vertex 2 -29.0909 13.9957
      vertex 0 -29.0909 13.9957
    endloop
  endfacet
  facet normal 0 0.987683 0.156468
    outer loop
      vertex 0 -29.25 15
      vertex 2 -29.25 15
      vertex 2 -29.0909 13.9957
    endloop
  endfacet
  facet normal -1 0 0
    outer loop
      vertex 0 -34 0
      vertex 0 -12.0043 11.9091
      vertex 0 0 0
    endloop
  endfacet
  facet normal -1 0 -0
    outer loop
      vertex 0 -34 0
      vertex 0 -24.9957 11.9091
      vertex 0 -12.0043 11.9091
    endloop
  endfacet
  facet normal -1 0 0
    outer loop
      vertex 0 -34 0
      vertex 0 -26 11.75
      vertex 0 -24.9957 11.9091
    endloop
  endfacet
  facet normal -1 -0 0
    outer loop
      vertex 0 -34 0
      vertex 0 -27.0043 11.9091
      vertex 0 -26 11.75
    endloop
  endfacet
  facet normal -1 -0 0
    outer loop
      vertex 0 -34 0
      vertex 0 -27.9103 12.3707
      vertex 0 -27.0043 11.9091
    endloop
  endfacet
  facet normal -1 -0 0
    outer loop
      vertex 0 -34 0
      vertex 0 -28.6293 13.0897
      vertex 0 -27.9103 12.3707
    endloop
  endfacet
  facet normal -1 -0 0
    outer loop
      vertex 0 -34 0
      vertex 0 -29.0909 13.9957
      vertex 0 -28.6293 13.0897
    endloop
  endfacet
  facet normal -1 -0 0
    outer loop
      vertex 0 -34 0
      vertex 0 -29.25 15
      vertex 0 -29.0909 13.9957
    endloop
  endfacet
  facet normal -1 0 0
    outer loop
      vertex 0 -34 0
      vertex 0 -34 30
      vertex 0 -29.25 15
    endloop
  endfacet
  facet normal 0 0 -1
    outer loop
      vertex 0 -34 0
      vertex 0 0 0
      vertex 2 -4 0
    endloop
  endfacet
  facet normal 0 -1 -0
    outer loop
      vertex 0 -34 0
      vertex 2 -34 0
      vertex 2 -34 30
    endloop
  endfacet
  facet normal 0 -1 0
    outer loop
      vertex 0 -34 0
      vertex 2 -34 30
      vertex 0 -34 30
    endloop
  endfacet
  facet normal 0 0 -1
    outer loop
      vertex 0 -34 0
      vertex 2 -4 0
      vertex 2 -34 0
    endloop
  endfacet
  facet normal -1 0 0
    outer loop
      vertex 0 -34 30
      vertex 0 -12.0043 18.0909
      vertex 0 -24.9957 18.0909
    endloop
  endfacet
  facet normal -1 0 0
    outer loop
      vertex 0 -34 30
      vertex 0 -24.9957 18.0909
      vertex 0 -26 18.25
    endloop
  endfacet
  facet normal -1 0 0
    outer loop
      vertex 0 -34 30
      vertex 0 -26 18.25
      vertex 0 -27.0043 18.0909
    endloop
  endfacet
  facet normal -1 0 0
    outer loop
      vertex 0 -34 30
      vertex 0 -27.0043 18.0909
      vertex 0 -27.9103 17.6293
    endloop
  endfacet
  facet normal -1 0 0
    outer loop
      vertex 0 -34 30
      vertex 0 -27.9103 17.6293
      vertex 0 -28.6293 16.9103
    endloop
  endfacet
  facet normal -1 0 0
    outer loop
      vertex 0 -34 30
      vertex 0 -28.6293 16.9103
      vertex 0 -29.0909 16.0043
    endloop
  endfacet
  facet normal -1 0 0
    outer loop
      vertex 0 -34 30
      vertex 0 -29.0909 16.0043
      vertex 0 -29.25 15
    endloop
  endfacet
  facet normal -1 0 0
    outer loop
      vertex 0 -34 30
      vertex 0 0 30
      vertex 0 -12.0043 18.0909
    endloop
  endfacet
  facet normal 0 0 1
    outer loop
      vertex 0 -34 30
      vertex 2 -34 30
      vertex 2 -4 30
    endloop
  endfacet
  facet normal 0 0 1
    outer loop
      vertex 0 -34 30
      vertex 2 -4 30
      vertex 0 0 30
    endloop
  endfacet
  facet normal -1 0 0
    outer loop
      vertex 0 -7.75 15
      vertex 0 0 30
      vertex 0 0 0
    endloop
  endfacet
  facet normal 0 -0.987688 -0.156439
    outer loop
      vertex 0 -7.75 15
      vertex 2 -7.75 15
      vertex 2 -7.90907 16.0043
    endloop
  endfacet
  facet normal -1 0 0
    outer loop
      vertex 0 -7.90907 13.9957
      vertex 0 -7.75 15
      vertex 0 0 0
    endloop
  endfacet
  facet normal 0 -0.987688 0.156439
    outer loop
      vertex 0 -7.90907 13.9957
      vertex 2 -7.75 15
      vertex 0 -7.75 15
    endloop
  endfacet
  facet normal 0 -0.987688 0.156439
    outer loop
      vertex 0 -7.90907 13.9957
      vertex 2 -7.90907 13.9957
      vertex 2 -7.75 15
    endloop
  endfacet
  facet normal 0 -0.987688 -0.156439
    outer loop
      vertex 0 -7.90907 16.0043
      vertex 0 -7.75 15
      vertex 2 -7.90907 16.0043
    endloop
  endfacet
  facet normal -1 0 0
    outer loop
      vertex 0 -7.90907 16.0043
      vertex 0 0 30
      vertex 0 -7.75 15
    endloop
  endfacet
  facet normal 0 -0.891007 -0.45399
    outer loop
      vertex 0 -7.90907 16.0043
      vertex 2 -7.90907 16.0043
      vertex 2 -8.3707 16.9103
    endloop
  endfacet
  facet normal -1 0 0
    outer loop
      vertex 0 -8.3707 13.0897
      vertex 0 -7.90907 13.9957
      vertex 0 0 0
    endloop
  endfacet
  facet normal 0 -0.891007 0.45399
    outer loop
      vertex 0 -8.3707 13.0897
      vertex 2 -7.90907 13.9957
      vertex 0 -7.90907 13.9957
    endloop
  endfacet
  facet normal 0 -0.891007 0.45399
    outer loop
      vertex 0 -8.3707 13.0897
      vertex 2 -8.3707 13.0897
      vertex 2 -7.90907 13.9957
    endloop
  endfacet
  facet normal 0 -0.891007 -0.45399
    outer loop
      vertex 0 -8.3707 16.9103
      vertex 0 -7.90907 16.0043
      vertex 2 -8.3707 16.9103
    endloop
  endfacet
  facet normal -1 0 0
    outer loop
      vertex 0 -8.3707 16.9103
      vertex 0 0 30
      vertex 0 -7.90907 16.0043
    endloop
  endfacet
  facet normal 0 -0.707107 -0.707107
    outer loop
      vertex 0 -8.3707 16.9103
      vertex 2 -8.3707 16.9103
      vertex 2 -9.0897 17.6293
    endloop
  endfacet
  facet normal -1 0 0
    outer loop
      vertex 0 -9.0897 12.3707
      vertex 0 -8.3707 13.0897
      vertex 0 0 0
    endloop
  endfacet
  facet normal 0 -0.707107 0.707107
    outer loop
      vertex 0 -9.0897 12.3707
      vertex 2 -8.3707 13.0897
      vertex 0 -8.3707 13.0897
    endloop
  endfacet
  facet normal 0 -0.707107 0.707107
    outer loop
      vertex 0 -9.0897 12.3707
      vertex 2 -9.0897 12.3707
      vertex 2 -8.3707 13.0897
    endloop
  endfacet
  facet normal 0 -0.453967 0.891018
    outer loop
      vertex 0 -9.0897 12.3707
      vertex 2 -9.9957 11.9091
      vertex 2 -9.0897 12.3707
    endloop
  endfacet
  facet normal 0 -0.707107 -0.707107
    outer loop
      vertex 0 -9.0897 17.6293
      vertex 0 -8.3707 16.9103
      vertex 2 -9.0897 17.6293
    endloop
  endfacet
  facet normal -1 0 0
    outer loop
      vertex 0 -9.0897 17.6293
      vertex 0 0 30
      vertex 0 -8.3707 16.9103
    endloop
  endfacet
  facet normal -1 0 0
    outer loop
      vertex 0 -9.9957 11.9091
      vertex 0 -9.0897 12.3707
      vertex 0 0 0
    endloop
  endfacet
  facet normal 0 -0.156468 0.987683
    outer loop
      vertex 0 -9.9957 11.9091
      vertex 2 -11 11.75
      vertex 2 -9.9957 11.9091
    endloop
  endfacet
  facet normal 0 -0.453967 0.891018
    outer loop
      vertex 0 -9.9957 11.9091
      vertex 2 -9.9957 11.9091
      vertex 0 -9.0897 12.3707
    endloop
  endfacet
  facet normal -0 -0.453967 -0.891018
    outer loop
      vertex 0 -9.9957 18.0909
      vertex 0 -9.0897 17.6293
      vertex 2 -9.0897 17.6293
    endloop
  endfacet
  facet normal -1 0 0
    outer loop
      vertex 0 -9.9957 18.0909
      vertex 0 0 30
      vertex 0 -9.0897 17.6293
    endloop
  endfacet
  facet normal 0 -0.453967 -0.891018
    outer loop
      vertex 0 -9.9957 18.0909
      vertex 2 -9.0897 17.6293
      vertex 2 -9.9957 18.0909
    endloop
  endfacet
  facet normal 0 1 0
    outer loop
      vertex 0 0 0
      vertex 0 0 30
      vertex 9.9 0 0
    endloop
  endfacet
  facet normal 0 0 -1
    outer loop
      vertex 0 0 0
      vertex 9.9 0 0
      vertex 2 -4 0
    endloop
  endfacet
  facet normal -0 0 1
    outer loop
      vertex 0 0 30
      vertex 2 -4 30
      vertex 9.9 0 30
    endloop
  endfacet
  facet normal 0 1 -0
    outer loop
      vertex 0 0 30
      vertex 9.9 0 30
      vertex 9.9 0 0
    endloop
  endfacet
  facet normal 1 -0 0
    outer loop
      vertex 2 -11 11.75
      vertex 2 -4 0
      vertex 2 -9.9957 11.9091
    endloop
  endfacet
  facet normal 1 0 0
    outer loop
      vertex 2 -11 18.25
      vertex 2 -9.9957 18.0909
      vertex 2 -4 30
    endloop
  endfacet
  facet normal 1 0 0
    outer loop
      vertex 2 -12.0043 11.9091
      vertex 2 -4 0
      vertex 2 -11 11.75
    endloop
  endfacet
  facet normal 1 0 0
    outer loop
      vertex 2 -12.0043 18.0909
      vertex 2 -11 18.25
      vertex 2 -4 30
    endloop
  endfacet
  facet normal 1 -0 0
    outer loop
      vertex 2 -22.75 15
      vertex 2 -14.0909 13.9957
      vertex 2 -14.25 15
    endloop
  endfacet
  facet normal 1 0 0
    outer loop
      vertex 2 -22.75 15
      vertex 2 -14.25 15
      vertex 2 -14.0909 16.0043
    endloop
  endfacet
  facet normal 1 0 0
    outer loop
      vertex 2 -22.9091 13.9957
      vertex 2 -13.6293 13.0897
      vertex 2 -14.0909 13.9957
    endloop
  endfacet
  facet normal 1 0 0
    outer loop
      vertex 2 -22.9091 13.9957
      vertex 2 -14.0909 13.9957
      vertex 2 -22.75 15
    endloop
  endfacet
  facet normal 1 0 0
    outer loop
      vertex 2 -22.9091 16.0043
      vertex 2 -14.0909 16.0043
      vertex 2 -13.6293 16.9103
    endloop
  endfacet
  facet normal 1 0 0
    outer loop
      vertex 2 -22.9091 16.0043
      vertex 2 -22.75 15
      vertex 2 -14.0909 16.0043
    endloop
  endfacet
  facet normal 1 0 0
    outer loop
      vertex 2 -23.3707 13.0897
      vertex 2 -13.6293 13.0897
      vertex 2 -22.9091 13.9957
    endloop
  endfacet
  facet normal 1 0 0
    outer loop
      vertex 2 -23.3707 16.9103
      vertex 2 -22.9091 16.0043
      vertex 2 -13.6293 16.9103
    endloop
  endfacet
  facet normal 1 0 0
    outer loop
      vertex 2 -24.0897 12.3707
      vertex 2 -12.9103 12.3707
      vertex 2 -13.6293 13.0897
    endloop
  endfacet
  facet normal 1 0 0
    outer loop
      vertex 2 -24.0897 12.3707
      vertex 2 -13.6293 13.0897
      vertex 2 -23.3707 13.0897
    endloop
  endfacet
  facet normal 1 0 0
    outer loop
      vertex 2 -24.0897 17.6293
      vertex 2 -13.6293 16.9103
      vertex 2 -12.9103 17.6293
    endloop
  endfacet
  facet normal 1 0 0
    outer loop
      vertex 2 -24.0897 17.6293
      vertex 2 -23.3707 16.9103
      vertex 2 -13.6293 16.9103
    endloop
  endfacet
  facet normal 1 0 0
    outer loop
      vertex 2 -24.9957 11.9091
      vertex 2 -12.0043 11.9091
      vertex 2 -12.9103 12.3707
    endloop
  endfacet
  facet normal 1 0 0
    outer loop
      vertex 2 -24.9957 11.9091
      vertex 2 -12.9103 12.3707
      vertex 2 -24.0897 12.3707
    endloop
  endfacet
  facet normal 1 0 0
    outer loop
      vertex 2 -24.9957 11.9091
      vertex 2 -4 0
      vertex 2 -12.0043 11.9091
    endloop
  endfacet
  facet normal 1 0 0
    outer loop
      vertex 2 -24.9957 18.0909
      vertex 2 -12.0043 18.0909
      vertex 2 -4 30
    endloop
  endfacet
  facet normal 1 0 0
    outer loop
      vertex 2 -24.9957 18.0909
      vertex 2 -12.9103 17.6293
      vertex 2 -12.0043 18.0909
    endloop
  endfacet
  facet normal 1 0 0
    outer loop
      vertex 2 -24.9957 18.0909
      vertex 2 -24.0897 17.6293
      vertex 2 -12.9103 17.6293
    endloop
  endfacet
  facet normal 1 0 0
    outer loop
      vertex 2 -34 0
      vertex 2 -24.9957 11.9091
      vertex 2 -26 11.75
    endloop
  endfacet
  facet normal 1 0 0
    outer loop
      vertex 2 -34 0
      vertex 2 -26 11.75
      vertex 2 -27.0043 11.9091
    endloop
  endfacet
  facet normal 1 0 0
    outer loop
      vertex 2 -34 0
      vertex 2 -27.0043 11.9091
      vertex 2 -27.9103 12.3707
    endloop
  endfacet
  facet normal 1 0 0
    outer loop
      vertex 2 -34 0
      vertex 2 -27.9103 12.3707
      vertex 2 -28.6293 13.0897
    endloop
  endfacet
  facet normal 1 0 0
    outer loop
      vertex 2 -34 0
      vertex 2 -28.6293 13.0897
      vertex 2 -29.0909 13.9957
    endloop
  endfacet
  facet normal 1 0 0
    outer loop
      vertex 2 -34 0
      vertex 2 -29.0909 13.9957
      vertex 2 -29.25 15
    endloop
  endfacet
  facet normal 1 0 0
    outer loop
      vertex 2 -34 0
      vertex 2 -29.25 15
      vertex 2 -34 30
    endloop
  endfacet
  facet normal 1 0 0
    outer loop
      vertex 2 -34 0
      vertex 2 -4 0
      vertex 2 -24.9957 11.9091
    endloop
  endfacet
  facet normal 1 -0 0
    outer loop
      vertex 2 -34 30
      vertex 2 -24.9957 18.0909
      vertex 2 -4 30
    endloop
  endfacet
  facet normal 1 0 0
    outer loop
      vertex 2 -34 30
      vertex 2 -26 18.25
      vertex 2 -24.9957 18.0909
    endloop
  endfacet
  facet normal 1 0 0
    outer loop
      vertex 2 -34 30
      vertex 2 -27.0043 18.0909
      vertex 2 -26 18.25
    endloop
  endfacet
  facet normal 1 0 0
    outer loop
      vertex 2 -34 30
      vertex 2 -27.9103 17.6293
      vertex 2 -27.0043 18.0909
    endloop
  endfacet
  facet normal 1 0 0
    outer loop
      vertex 2 -34 30
      vertex 2 -28.6293 16.9103
      vertex 2 -27.9103 17.6293
    endloop
  endfacet
  facet normal 1 0 0
    outer loop
      vertex 2 -34 30
      vertex 2 -29.0909 16.0043
      vertex 2 -28.6293 16.9103
    endloop
  endfacet
  facet normal 1 0 0
    outer loop
      vertex 2 -34 30
      vertex 2 -29.25 15
      vertex 2 -29.0909 16.0043
    endloop
  endfacet
  facet normal 0 -1 -0
    outer loop
      vertex 2 -4 0
      vertex 32 -4 0
      vertex 32 -4 30
    endloop
  endfacet
  facet normal 0 -1 0
    outer loop
      vertex 2 -4 0
      vertex 32 -4 30
      vertex 2 -4 30
    endloop
  endfacet
  facet normal 0 0 -1
    outer loop
      vertex 2 -4 0
      vertex 9.9 0 0
      vertex 32 -4 0
    endloop
  endfacet
  facet normal 0 0 1
    outer loop
      vertex 2 -4 30
      vertex 32 -4 30
      vertex 9.9 0 30
    endloop
  endfacet
  facet normal 1 0 0
    outer loop
      vertex 2 -7.75 15
      vertex 2 -4 0
      vertex 2 -4 30
    endloop
  endfacet
  facet normal 1 -0 0
    outer loop
      vertex 2 -7.90907 13.9957
      vertex 2 -4 0
      vertex 2 -7.75 15
    endloop
  endfacet
  facet normal 1 0 0
    outer loop
      vertex 2 -7.90907 16.0043
      vertex 2 -7.75 15
      vertex 2 -4 30
    endloop
  endfacet
  facet normal 1 -0 0
    outer loop
      vertex 2 -8.3707 13.0897
      vertex 2 -4 0
      vertex 2 -7.90907 13.9957
    endloop
  endfacet
  facet normal 1 0 0
    outer loop
      vertex 2 -8.3707 16.9103
      vertex 2 -7.90907 16.0043
      vertex 2 -4 30
    endloop
  endfacet
  facet normal 1 -0 0
    outer loop
      vertex 2 -9.0897 12.3707
      vertex 2 -4 0
      vertex 2 -8.3707 13.0897
    endloop
  endfacet
  facet normal 1 0 0
    outer loop
      vertex 2 -9.0897 17.6293
      vertex 2 -8.3707 16.9103
      vertex 2 -4 30
    endloop
  endfacet
  facet normal 1 -0 0
    outer loop
      vertex 2 -9.9957 11.9091
      vertex 2 -4 0
      vertex 2 -9.0897 12.3707
    endloop
  endfacet
  facet normal 1 0 0
    outer loop
      vertex 2 -9.9957 18.0909
      vertex 2 -9.0897 17.6293
      vertex 2 -4 30
    endloop
  endfacet
  facet normal 0 1 0
    outer loop
      vertex 24.1 0 0
      vertex 24.1 0 30
      vertex 34 0 0
    endloop
  endfacet
  facet normal 1 0 0
    outer loop
      vertex 24.1 0 0
      vertex 24.1 13 15
      vertex 24.1 0 30
    endloop
  endfacet
  facet normal 1 0 0
    outer loop
      vertex 24.1 0 0
      vertex 24.1 13.2105 13.6712
      vertex 24.1 13 15
    endloop
  endfacet
  facet normal 1 0 0
    outer loop
      vertex 24.1 0 0
      vertex 24.1 5 0
      vertex 24.1 13.2105 13.6712
    endloop
  endfacet
  facet normal 0 0 -1
    outer loop
      vertex 24.1 0 0
      vertex 34 0 0
      vertex 32 -4 0
    endloop
  endfacet
  facet normal 1 0 0
    outer loop
      vertex 24.1 0 30
      vertex 24.1 13 15
      vertex 24.1 13.2105 16.3288
    endloop
  endfacet
  facet normal 1 -0 0
    outer loop
      vertex 24.1 0 30
      vertex 24.1 13.2105 16.3288
      vertex 24.1 5 30
    endloop
  endfacet
  facet normal -0 0 1
    outer loop
      vertex 24.1 0 30
      vertex 32 -4 30
      vertex 34 0 30
    endloop
  endfacet
  facet normal 0 1 -0
    outer loop
      vertex 24.1 0 30
      vertex 34 0 30
      vertex 34 0 0
    endloop
  endfacet
  facet normal 1 0 0
    outer loop
      vertex 24.1 15.9712 10.9105
      vertex 24.1 21.0826 6.50403
      vertex 24.1 17.3 10.7
    endloop
  endfacet
  facet normal 1 0 0
    outer loop
      vertex 24.1 15.9712 19.0895
      vertex 24.1 17.3 19.3
      vertex 24.1 21.0826 23.496
    endloop
  endfacet
  facet normal 1 -0 0
    outer loop
      vertex 24.1 17.3 10.7
      vertex 24.1 21.0826 6.50403
      vertex 24.1 18.6288 10.9105
    endloop
  endfacet
  facet normal 1 0 0
    outer loop
      vertex 24.1 17.3 19.3
      vertex 24.1 18.6288 19.0895
      vertex 24.1 21.0826 23.496
    endloop
  endfacet
  facet normal 1 -0 0
    outer loop
      vertex 24.1 18.6288 10.9105
      vertex 24.1 21.0826 6.50403
      vertex 24.1 19.8275 11.5212
    endloop
  endfacet
  facet normal 1 0 0
    outer loop
      vertex 24.1 18.6288 19.0895
      vertex 24.1 19.8275 18.4788
      vertex 24.1 21.0826 23.496
    endloop
  endfacet
  facet normal 1 0 0
    outer loop
      vertex 24.1 19.8275 11.5212
      vertex 24.1 21.0826 6.50403
      vertex 24.1 21.95 6.94596
    endloop
  endfacet
  facet normal 1 0 0
    outer loop
      vertex 24.1 19.8275 11.5212
      vertex 24.1 21.95 6.94596
      vertex 24.1 22.7664 7.47614
    endloop
  endfacet
  facet normal 1 0 0
    outer loop
      vertex 24.1 19.8275 11.5212
      vertex 24.1 22.7664 7.47614
      vertex 24.1 23.5229 8.08875
    endloop
  endfacet
  facet normal 1 -0 0
    outer loop
      vertex 24.1 19.8275 11.5212
      vertex 24.1 23.5229 8.08875
      vertex 24.1 20.7788 12.4725
    endloop
  endfacet
  facet normal 1 0 0
    outer loop
      vertex 24.1 19.8275 18.4788
      vertex 24.1 20.7788 17.5275
      vertex 24.1 23.5229 21.9112
    endloop
  endfacet
  facet normal 1 0 0
    outer loop
      vertex 24.1 19.8275 18.4788
      vertex 24.1 21.95 23.054
      vertex 24.1 21.0826 23.496
    endloop
  endfacet
  facet normal 1 0 0
    outer loop
      vertex 24.1 19.8275 18.4788
      vertex 24.1 22.7664 22.5239
      vertex 24.1 21.95 23.054
    endloop
  endfacet
  facet normal 1 0 0
    outer loop
      vertex 24.1 19.8275 18.4788
      vertex 24.1 23.5229 21.9112
      vertex 24.1 22.7664 22.5239
    endloop
  endfacet
  facet normal 1 0 0
    outer loop
      vertex 24.1 20.7788 12.4725
      vertex 24.1 23.5229 8.08875
      vertex 24.1 24.2112 8.77709
    endloop
  endfacet
  facet normal 1 0 0
    outer loop
      vertex 24.1 20.7788 12.4725
      vertex 24.1 24.2112 8.77709
      vertex 24.1 24.8239 9.5336
    endloop
  endfacet
  facet normal 1 0 0
    outer loop
      vertex 24.1 20.7788 12.4725
      vertex 24.1 24.8239 9.5336
      vertex 24.1 25.354 10.35
    endloop
  endfacet
  facet normal 1 -0 0
    outer loop
      vertex 24.1 20.7788 12.4725
      vertex 24.1 25.354 10.35
      vertex 24.1 21.3895 13.6712
    endloop
  endfacet
  facet normal 1 0 0
    outer loop
      vertex 24.1 20.7788 17.5275
      vertex 24.1 21.3895 16.3288
      vertex 24.1 25.354 19.65
    endloop
  endfacet
  facet normal 1 0 0
    outer loop
      vertex 24.1 20.7788 17.5275
      vertex 24.1 24.2112 21.2229
      vertex 24.1 23.5229 21.9112
    endloop
  endfacet
  facet normal 1 0 0
    outer loop
      vertex 24.1 20.7788 17.5275
      vertex 24.1 24.8239 20.4664
      vertex 24.1 24.2112 21.2229
    endloop
  endfacet
  facet normal 1 0 0
    outer loop
      vertex 24.1 20.7788 17.5275
      vertex 24.1 25.354 19.65
      vertex 24.1 24.8239 20.4664
    endloop
  endfacet
  facet normal 1 0 0
    outer loop
      vertex 24.1 21.3895 13.6712
      vertex 24.1 25.354 10.35
      vertex 24.1 25.796 11.2173
    endloop
  endfacet
  facet normal 1 0 0
    outer loop
      vertex 24.1 21.3895 13.6712
      vertex 24.1 25.796 11.2173
      vertex 24.1 26.1448 12.1261
    endloop
  endfacet
  facet normal 1 0 0
    outer loop
      vertex 24.1 21.3895 13.6712
      vertex 24.1 26.1448 12.1261
      vertex 24.1 26.3968 13.0664
    endloop
  endfacet
  facet normal 1 -0 0
    outer loop
      vertex 24.1 21.3895 13.6712
      vertex 24.1 26.3968 13.0664
      vertex 24.1 21.6 15
    endloop
  endfacet
  facet normal 1 0 0
    outer loop
      vertex 24.1 21.3895 16.3288
      vertex 24.1 21.6 15
      vertex 24.1 26.3968 16.9336
    endloop
  endfacet
  facet normal 1 0 0
    outer loop
      vertex 24.1 21.3895 16.3288
      vertex 24.1 25.796 18.7826
      vertex 24.1 25.354 19.65
    endloop
  endfacet
  facet normal 1 0 0
    outer loop
      vertex 24.1 21.3895 16.3288
      vertex 24.1 26.1448 17.8739
      vertex 24.1 25.796 18.7826
    endloop
  endfacet
  facet normal 1 0 0
    outer loop
      vertex 24.1 21.3895 16.3288
      vertex 24.1 26.3968 16.9336
      vertex 24.1 26.1448 17.8739
    endloop
  endfacet
  facet normal 1 0 0
    outer loop
      vertex 24.1 21.6 15
      vertex 24.1 26.3968 13.0664
      vertex 24.1 26.5491 14.0279
    endloop
  endfacet
  facet normal 1 0 0
    outer loop
      vertex 24.1 21.6 15
      vertex 24.1 26.5491 14.0279
      vertex 24.1 26.6 15
    endloop
  endfacet
  facet normal 1 0 0
    outer loop
      vertex 24.1 21.6 15
      vertex 24.1 26.5491 15.9721
      vertex 24.1 26.3968 16.9336
    endloop
  endfacet
  facet normal 1 0 0
    outer loop
      vertex 24.1 21.6 15
      vertex 24.1 26.6 15
      vertex 24.1 26.5491 15.9721
    endloop
  endfacet
  facet normal 1 0 0
    outer loop
      vertex 24.1 5 0
      vertex 24.1 13.8212 12.4725
      vertex 24.1 13.2105 13.6712
    endloop
  endfacet
  facet normal 1 0 0
    outer loop
      vertex 24.1 5 0
      vertex 24.1 14.7725 11.5212
      vertex 24.1 13.8212 12.4725
    endloop
  endfacet
  facet normal 1 0 0
    outer loop
      vertex 24.1 5 0
      vertex 24.1 15.9712 10.9105
      vertex 24.1 14.7725 11.5212
    endloop
  endfacet
  facet normal 1 0 0
    outer loop
      vertex 24.1 5 0
      vertex 24.1 21.0826 6.50403
      vertex 24.1 15.9712 10.9105
    endloop
  endfacet
  facet normal 1 0 0
    outer loop
      vertex 24.1 5 30
      vertex 24.1 13.2105 16.3288
      vertex 24.1 13.8212 17.5275
    endloop
  endfacet
  facet normal 1 0 0
    outer loop
      vertex 24.1 5 30
      vertex 24.1 13.8212 17.5275
      vertex 24.1 14.7725 18.4788
    endloop
  endfacet
  facet normal 1 0 0
    outer loop
      vertex 24.1 5 30
      vertex 24.1 14.7725 18.4788
      vertex 24.1 15.9712 19.0895
    endloop
  endfacet
  facet normal 1 0 0
    outer loop
      vertex 24.1 5 30
      vertex 24.1 15.9712 19.0895
      vertex 24.1 21.0826 23.496
    endloop
  endfacet
  facet normal -1 0 0
    outer loop
      vertex 32 -11 11.75
      vertex 32 -9.9957 11.9091
      vertex 32 -4 0
    endloop
  endfacet
  facet normal 0 -0.156468 0.987683
    outer loop
      vertex 32 -11 11.75
      vertex 34 -11 11.75
      vertex 32 -9.9957 11.9091
    endloop
  endfacet
  facet normal -0 0.156468 0.987683
    outer loop
      vertex 32 -11 11.75
      vertex 34 -12.0043 11.9091
      vertex 34 -11 11.75
    endloop
  endfacet
  facet normal -1 0 0
    outer loop
      vertex 32 -11 18.25
      vertex 32 -4 30
      vertex 32 -9.9957 18.0909
    endloop
  endfacet
  facet normal -0 -0.156468 -0.987683
    outer loop
      vertex 32 -11 18.25
      vertex 32 -9.9957 18.0909
      vertex 34 -9.9957 18.0909
    endloop
  endfacet
  facet normal 0 -0.156468 -0.987683
    outer loop
      vertex 32 -11 18.25
      vertex 34 -9.9957 18.0909
      vertex 34 -11 18.25
    endloop
  endfacet
  facet normal -1 0 0
    outer loop
      vertex 32 -12.0043 11.9091
      vertex 32 -11 11.75
      vertex 32 -4 0
    endloop
  endfacet
  facet normal 0 0.156468 0.987683
    outer loop
      vertex 32 -12.0043 11.9091
      vertex 34 -12.0043 11.9091
      vertex 32 -11 11.75
    endloop
  endfacet
  facet normal -0 0.453967 0.891018
    outer loop
      vertex 32 -12.0043 11.9091
      vertex 34 -12.9103 12.3707
      vertex 34 -12.0043 11.9091
    endloop
  endfacet
  facet normal 0 0.156468 -0.987683
    outer loop
      vertex 32 -12.0043 18.0909
      vertex 32 -11 18.25
      vertex 34 -11 18.25
    endloop
  endfacet
  facet normal -1 0 0
    outer loop
      vertex 32 -12.0043 18.0909
      vertex 32 -4 30
      vertex 32 -11 18.25
    endloop
  endfacet
  facet normal 0 0.156468 -0.987683
    outer loop
      vertex 32 -12.0043 18.0909
      vertex 34 -11 18.25
      vertex 34 -12.0043 18.0909
    endloop
  endfacet
  facet normal 0 0.453967 0.891018
    outer loop
      vertex 32 -12.9103 12.3707
      vertex 34 -12.9103 12.3707
      vertex 32 -12.0043 11.9091
    endloop
  endfacet
  facet normal 0 0.453967 -0.891018
    outer loop
      vertex 32 -12.9103 17.6293
      vertex 32 -12.0043 18.0909
      vertex 34 -12.0043 18.0909
    endloop
  endfacet
  facet normal 0 0.453967 -0.891018
    outer loop
      vertex 32 -12.9103 17.6293
      vertex 34 -12.0043 18.0909
      vertex 34 -12.9103 17.6293
    endloop
  endfacet
  facet normal 0 0.707107 -0.707107
    outer loop
      vertex 32 -12.9103 17.6293
      vertex 34 -12.9103 17.6293
      vertex 34 -13.6293 16.9103
    endloop
  endfacet
  facet normal 0 0.707107 0.707107
    outer loop
      vertex 32 -13.6293 13.0897
      vertex 34 -12.9103 12.3707
      vertex 32 -12.9103 12.3707
    endloop
  endfacet
  facet normal 0 0.707107 0.707107
    outer loop
      vertex 32 -13.6293 13.0897
      vertex 34 -13.6293 13.0897
      vertex 34 -12.9103 12.3707
    endloop
  endfacet
  facet normal 0 0.707107 -0.707107
    outer loop
      vertex 32 -13.6293 16.9103
      vertex 32 -12.9103 17.6293
      vertex 34 -13.6293 16.9103
    endloop
  endfacet
  facet normal 0 0.891018 -0.453967
    outer loop
      vertex 32 -13.6293 16.9103
      vertex 34 -13.6293 16.9103
      vertex 34 -14.0909 16.0043
    endloop
  endfacet
  facet normal 0 0.891018 0.453967
    outer loop
      vertex 32 -14.0909 13.9957
      vertex 34 -13.6293 13.0897
      vertex 32 -13.6293 13.0897
    endloop
  endfacet
  facet normal 0 0.891018 0.453967
    outer loop
      vertex 32 -14.0909 13.9957
      vertex 34 -14.0909 13.9957
      vertex 34 -13.6293 13.0897
    endloop
  endfacet
  facet normal 0 0.891018 -0.453967
    outer loop
      vertex 32 -14.0909 16.0043
      vertex 32 -13.6293 16.9103
      vertex 34 -14.0909 16.0043
    endloop
  endfacet
  facet normal 0 0.987683 -0.156468
    outer loop
      vertex 32 -14.0909 16.0043
      vertex 34 -14.0909 16.0043
      vertex 34 -14.25 15
    endloop
  endfacet
  facet normal 0 0.987683 -0.156468
    outer loop
      vertex 32 -14.25 15
      vertex 32 -14.0909 16.0043
      vertex 34 -14.25 15
    endloop
  endfacet
  facet normal 0 0.987683 0.156468
    outer loop
      vertex 32 -14.25 15
      vertex 34 -14.0909 13.9957
      vertex 32 -14.0909 13.9957
    endloop
  endfacet
  facet normal 0 0.987683 0.156468
    outer loop
      vertex 32 -14.25 15
      vertex 34 -14.25 15
      vertex 34 -14.0909 13.9957
    endloop
  endfacet
  facet normal -1 0 0
    outer loop
      vertex 32 -22.75 15
      vertex 32 -14.0909 16.0043
      vertex 32 -14.25 15
    endloop
  endfacet
  facet normal -1 0 0
    outer loop
      vertex 32 -22.75 15
      vertex 32 -14.25 15
      vertex 32 -14.0909 13.9957
    endloop
  endfacet
  facet normal 0 -0.987683 -0.156468
    outer loop
      vertex 32 -22.75 15
      vertex 34 -22.75 15
      vertex 34 -22.9091 16.0043
    endloop
  endfacet
  facet normal -1 0 0
    outer loop
      vertex 32 -22.9091 13.9957
      vertex 32 -14.0909 13.9957
      vertex 32 -13.6293 13.0897
    endloop
  endfacet
  facet normal -1 0 0
    outer loop
      vertex 32 -22.9091 13.9957
      vertex 32 -22.75 15
      vertex 32 -14.0909 13.9957
    endloop
  endfacet
  facet normal 0 -0.987683 0.156468
    outer loop
      vertex 32 -22.9091 13.9957
      vertex 34 -22.75 15
      vertex 32 -22.75 15
    endloop
  endfacet
  facet normal 0 -0.987683 0.156468
    outer loop
      vertex 32 -22.9091 13.9957
      vertex 34 -22.9091 13.9957
      vertex 34 -22.75 15
    endloop
  endfacet
  facet normal -1 0 0
    outer loop
      vertex 32 -22.9091 16.0043
      vertex 32 -13.6293 16.9103
      vertex 32 -14.0909 16.0043
    endloop
  endfacet
  facet normal -1 0 0
    outer loop
      vertex 32 -22.9091 16.0043
      vertex 32 -14.0909 16.0043
      vertex 32 -22.75 15
    endloop
  endfacet
  facet normal 0 -0.987683 -0.156468
    outer loop
      vertex 32 -22.9091 16.0043
      vertex 32 -22.75 15
      vertex 34 -22.9091 16.0043
    endloop
  endfacet
  facet normal 0 -0.891018 -0.453967
    outer loop
      vertex 32 -22.9091 16.0043
      vertex 34 -22.9091 16.0043
      vertex 34 -23.3707 16.9103
    endloop
  endfacet
  facet normal -1 0 0
    outer loop
      vertex 32 -23.3707 13.0897
      vertex 32 -22.9091 13.9957
      vertex 32 -13.6293 13.0897
    endloop
  endfacet
  facet normal 0 -0.891018 0.453967
    outer loop
      vertex 32 -23.3707 13.0897
      vertex 34 -22.9091 13.9957
      vertex 32 -22.9091 13.9957
    endloop
  endfacet
  facet normal 0 -0.891018 0.453967
    outer loop
      vertex 32 -23.3707 13.0897
      vertex 34 -23.3707 13.0897
      vertex 34 -22.9091 13.9957
    endloop
  endfacet
  facet normal -1 0 0
    outer loop
      vertex 32 -23.3707 16.9103
      vertex 32 -13.6293 16.9103
      vertex 32 -22.9091 16.0043
    endloop
  endfacet
  facet normal 0 -0.891018 -0.453967
    outer loop
      vertex 32 -23.3707 16.9103
      vertex 32 -22.9091 16.0043
      vertex 34 -23.3707 16.9103
    endloop
  endfacet
  facet normal 0 -0.707107 -0.707107
    outer loop
      vertex 32 -23.3707 16.9103
      vertex 34 -23.3707 16.9103
      vertex 34 -24.0897 17.6293
    endloop
  endfacet
  facet normal -1 0 0
    outer loop
      vertex 32 -24.0897 12.3707
      vertex 32 -13.6293 13.0897
      vertex 32 -12.9103 12.3707
    endloop
  endfacet
  facet normal -1 -0 0
    outer loop
      vertex 32 -24.0897 12.3707
      vertex 32 -23.3707 13.0897
      vertex 32 -13.6293 13.0897
    endloop
  endfacet
  facet normal 0 -0.707107 0.707107
    outer loop
      vertex 32 -24.0897 12.3707
      vertex 34 -23.3707 13.0897
      vertex 32 -23.3707 13.0897
    endloop
  endfacet
  facet normal 0 -0.707107 0.707107
    outer loop
      vertex 32 -24.0897 12.3707
      vertex 34 -24.0897 12.3707
      vertex 34 -23.3707 13.0897
    endloop
  endfacet
  facet normal 0 -0.453967 0.891018
    outer loop
      vertex 32 -24.0897 12.3707
      vertex 34 -24.9957 11.9091
      vertex 34 -24.0897 12.3707
    endloop
  endfacet
  facet normal -1 0 0
    outer loop
      vertex 32 -24.0897 17.6293
      vertex 32 -12.9103 17.6293
      vertex 32 -13.6293 16.9103
    endloop
  endfacet
  facet normal -1 0 0
    outer loop
      vertex 32 -24.0897 17.6293
      vertex 32 -13.6293 16.9103
      vertex 32 -23.3707 16.9103
    endloop
  endfacet
  facet normal 0 -0.707107 -0.707107
    outer loop
      vertex 32 -24.0897 17.6293
      vertex 32 -23.3707 16.9103
      vertex 34 -24.0897 17.6293
    endloop
  endfacet
  facet normal -1 0 0
    outer loop
      vertex 32 -24.9957 11.9091
      vertex 32 -12.0043 11.9091
      vertex 32 -4 0
    endloop
  endfacet
  facet normal -1 0 0
    outer loop
      vertex 32 -24.9957 11.9091
      vertex 32 -12.9103 12.3707
      vertex 32 -12.0043 11.9091
    endloop
  endfacet
  facet normal -1 -0 0
    outer loop
      vertex 32 -24.9957 11.9091
      vertex 32 -24.0897 12.3707
      vertex 32 -12.9103 12.3707
    endloop
  endfacet
  facet normal 0 -0.453967 0.891018
    outer loop
      vertex 32 -24.9957 11.9091
      vertex 34 -24.9957 11.9091
      vertex 32 -24.0897 12.3707
    endloop
  endfacet
  facet normal 0 -0.156468 0.987683
    outer loop
      vertex 32 -24.9957 11.9091
      vertex 34 -26 11.75
      vertex 34 -24.9957 11.9091
    endloop
  endfacet
  facet normal -1 0 0
    outer loop
      vertex 32 -24.9957 18.0909
      vertex 32 -12.0043 18.0909
      vertex 32 -12.9103 17.6293
    endloop
  endfacet
  facet normal -1 0 0
    outer loop
      vertex 32 -24.9957 18.0909
      vertex 32 -12.9103 17.6293
      vertex 32 -24.0897 17.6293
    endloop
  endfacet
  facet normal -0 -0.453967 -0.891018
    outer loop
      vertex 32 -24.9957 18.0909
      vertex 32 -24.0897 17.6293
      vertex 34 -24.0897 17.6293
    endloop
  endfacet
  facet normal -1 0 0
    outer loop
      vertex 32 -24.9957 18.0909
      vertex 32 -4 30
      vertex 32 -12.0043 18.0909
    endloop
  endfacet
  facet normal 0 -0.453967 -0.891018
    outer loop
      vertex 32 -24.9957 18.0909
      vertex 34 -24.0897 17.6293
      vertex 34 -24.9957 18.0909
    endloop
  endfacet
  facet normal 0 -0.156468 0.987683
    outer loop
      vertex 32 -26 11.75
      vertex 34 -26 11.75
      vertex 32 -24.9957 11.9091
    endloop
  endfacet
  facet normal -0 0.156468 0.987683
    outer loop
      vertex 32 -26 11.75
      vertex 34 -27.0043 11.9091
      vertex 34 -26 11.75
    endloop
  endfacet
  facet normal -0 -0.156468 -0.987683
    outer loop
      vertex 32 -26 18.25
      vertex 32 -24.9957 18.0909
      vertex 34 -24.9957 18.0909
    endloop
  endfacet
  facet normal 0 -0.156468 -0.987683
    outer loop
      vertex 32 -26 18.25
      vertex 34 -24.9957 18.0909
      vertex 34 -26 18.25
    endloop
  endfacet
  facet normal 0 0.156468 0.987683
    outer loop
      vertex 32 -27.0043 11.9091
      vertex 34 -27.0043 11.9091
      vertex 32 -26 11.75
    endloop
  endfacet
  facet normal -0 0.453967 0.891018
    outer loop
      vertex 32 -27.0043 11.9091
      vertex 34 -27.9103 12.3707
      vertex 34 -27.0043 11.9091
    endloop
  endfacet
  facet normal 0 0.156468 -0.987683
    outer loop
      vertex 32 -27.0043 18.0909
      vertex 32 -26 18.25
      vertex 34 -26 18.25
    endloop
  endfacet
  facet normal 0 0.156468 -0.987683
    outer loop
      vertex 32 -27.0043 18.0909
      vertex 34 -26 18.25
      vertex 34 -27.0043 18.0909
    endloop
  endfacet
  facet normal 0 0.453967 0.891018
    outer loop
      vertex 32 -27.9103 12.3707
      vertex 34 -27.9103 12.3707
      vertex 32 -27.0043 11.9091
    endloop
  endfacet
  facet normal 0 0.453967 -0.891018
    outer loop
      vertex 32 -27.9103 17.6293
      vertex 32 -27.0043 18.0909
      vertex 34 -27.0043 18.0909
    endloop
  endfacet
  facet normal 0 0.453967 -0.891018
    outer loop
      vertex 32 -27.9103 17.6293
      vertex 34 -27.0043 18.0909
      vertex 34 -27.9103 17.6293
    endloop
  endfacet
  facet normal 0 0.707107 -0.707107
    outer loop
      vertex 32 -27.9103 17.6293
      vertex 34 -27.9103 17.6293
      vertex 34 -28.6293 16.9103
    endloop
  endfacet
  facet normal 0 0.707107 0.707107
    outer loop
      vertex 32 -28.6293 13.0897
      vertex 34 -27.9103 12.3707
      vertex 32 -27.9103 12.3707
    endloop
  endfacet
  facet normal 0 0.707107 0.707107
    outer loop
      vertex 32 -28.6293 13.0897
      vertex 34 -28.6293 13.0897
      vertex 34 -27.9103 12.3707
    endloop
  endfacet
  facet normal 0 0.707107 -0.707107
    outer loop
      vertex 32 -28.6293 16.9103
      vertex 32 -27.9103 17.6293
      vertex 34 -28.6293 16.9103
    endloop
  endfacet
  facet normal 0 0.891018 -0.453967
    outer loop
      vertex 32 -28.6293 16.9103
      vertex 34 -28.6293 16.9103
      vertex 34 -29.0909 16.0043
    endloop
  endfacet
  facet normal 0 0.891018 0.453967
    outer loop
      vertex 32 -29.0909 13.9957
      vertex 34 -28.6293 13.0897
      vertex 32 -28.6293 13.0897
    endloop
  endfacet
  facet normal 0 0.891018 0.453967
    outer loop
      vertex 32 -29.0909 13.9957
      vertex 34 -29.0909 13.9957
      vertex 34 -28.6293 13.0897
    endloop
  endfacet
  facet normal 0 0.891018 -0.453967
    outer loop
      vertex 32 -29.0909 16.0043
      vertex 32 -28.6293 16.9103
      vertex 34 -29.0909 16.0043
    endloop
  endfacet
  facet normal 0 0.987683 -0.156468
    outer loop
      vertex 32 -29.0909 16.0043
      vertex 34 -29.0909 16.0043
      vertex 34 -29.25 15
    endloop
  endfacet
  facet normal 0 0.987683 -0.156468
    outer loop
      vertex 32 -29.25 15
      vertex 32 -29.0909 16.0043
      vertex 34 -29.25 15
    endloop
  endfacet
  facet normal 0 0.987683 0.156468
    outer loop
      vertex 32 -29.25 15
      vertex 34 -29.0909 13.9957
      vertex 32 -29.0909 13.9957
    endloop
  endfacet
  facet normal 0 0.987683 0.156468
    outer loop
      vertex 32 -29.25 15
      vertex 34 -29.25 15
      vertex 34 -29.0909 13.9957
    endloop
  endfacet
  facet normal -1 0 0
    outer loop
      vertex 32 -34 0
      vertex 32 -24.9957 11.9091
      vertex 32 -4 0
    endloop
  endfacet
  facet normal -1 0 0
    outer loop
      vertex 32 -34 0
      vertex 32 -26 11.75
      vertex 32 -24.9957 11.9091
    endloop
  endfacet
  facet normal -1 -0 0
    outer loop
      vertex 32 -34 0
      vertex 32 -27.0043 11.9091
      vertex 32 -26 11.75
    endloop
  endfacet
  facet normal -1 -0 0
    outer loop
      vertex 32 -34 0
      vertex 32 -27.9103 12.3707
      vertex 32 -27.0043 11.9091
    endloop
  endfacet
  facet normal -1 -0 0
    outer loop
      vertex 32 -34 0
      vertex 32 -28.6293 13.0897
      vertex 32 -27.9103 12.3707
    endloop
  endfacet
  facet normal -1 -0 0
    outer loop
      vertex 32 -34 0
      vertex 32 -29.0909 13.9957
      vertex 32 -28.6293 13.0897
    endloop
  endfacet
  facet normal -1 -0 0
    outer loop
      vertex 32 -34 0
      vertex 32 -29.25 15
      vertex 32 -29.0909 13.9957
    endloop
  endfacet
  facet normal -1 0 0
    outer loop
      vertex 32 -34 0
      vertex 32 -34 30
      vertex 32 -29.25 15
    endloop
  endfacet
  facet normal 0 0 -1
    outer loop
      vertex 32 -34 0
      vertex 32 -4 0
      vertex 34 -34 0
    endloop
  endfacet
  facet normal 0 -1 -0
    outer loop
      vertex 32 -34 0
      vertex 34 -34 0
      vertex 34 -34 30
    endloop
  endfacet
  facet normal 0 -1 0
    outer loop
      vertex 32 -34 0
      vertex 34 -34 30
      vertex 32 -34 30
    endloop
  endfacet
  facet normal -1 0 0
    outer loop
      vertex 32 -34 30
      vertex 32 -24.9957 18.0909
      vertex 32 -26 18.25
    endloop
  endfacet
  facet normal -1 0 0
    outer loop
      vertex 32 -34 30
      vertex 32 -26 18.25
      vertex 32 -27.0043 18.0909
    endloop
  endfacet
  facet normal -1 0 0
    outer loop
      vertex 32 -34 30
      vertex 32 -27.0043 18.0909
      vertex 32 -27.9103 17.6293
    endloop
  endfacet
  facet normal -1 0 0
    outer loop
      vertex 32 -34 30
      vertex 32 -27.9103 17.6293
      vertex 32 -28.6293 16.9103
    endloop
  endfacet
  facet normal -1 0 0
    outer loop
      vertex 32 -34 30
      vertex 32 -28.6293 16.9103
      vertex 32 -29.0909 16.0043
    endloop
  endfacet
  facet normal -1 0 0
    outer loop
      vertex 32 -34 30
      vertex 32 -29.0909 16.0043
      vertex 32 -29.25 15
    endloop
  endfacet
  facet normal -1 0 0
    outer loop
      vertex 32 -34 30
      vertex 32 -4 30
      vertex 32 -24.9957 18.0909
    endloop
  endfacet
  facet normal 0 0 1
    outer loop
      vertex 32 -34 30
      vertex 34 -34 30
      vertex 32 -4 30
    endloop
  endfacet
  facet normal 0 0 -1
    outer loop
      vertex 32 -4 0
      vertex 34 0 0
      vertex 34 -34 0
    endloop
  endfacet
  facet normal 0 0 1
    outer loop
      vertex 32 -4 30
      vertex 34 -34 30
      vertex 34 0 30
    endloop
  endfacet
  facet normal -1 0 0
    outer loop
      vertex 32 -7.75 15
      vertex 32 -4 30
      vertex 32 -4 0
    endloop
  endfacet
  facet normal 0 -0.987688 -0.156439
    outer loop
      vertex 32 -7.75 15
      vertex 34 -7.75 15
      vertex 34 -7.90907 16.0043
    endloop
  endfacet
  facet normal -1 0 0
    outer loop
      vertex 32 -7.90907 13.9957
      vertex 32 -7.75 15
      vertex 32 -4 0
    endloop
  endfacet
  facet normal 0 -0.987688 0.156439
    outer loop
      vertex 32 -7.90907 13.9957
      vertex 34 -7.75 15
      vertex 32 -7.75 15
    endloop
  endfacet
  facet normal 0 -0.987688 0.156439
    outer loop
      vertex 32 -7.90907 13.9957
      vertex 34 -7.90907 13.9957
      vertex 34 -7.75 15
    endloop
  endfacet
  facet normal -1 0 0
    outer loop
      vertex 32 -7.90907 16.0043
      vertex 32 -4 30
      vertex 32 -7.75 15
    endloop
  endfacet
  facet normal 0 -0.987688 -0.156439
    outer loop
      vertex 32 -7.90907 16.0043
      vertex 32 -7.75 15
      vertex 34 -7.90907 16.0043
    endloop
  endfacet
  facet normal 0 -0.891007 -0.45399
    outer loop
      vertex 32 -7.90907 16.0043
      vertex 34 -7.90907 16.0043
      vertex 34 -8.3707 16.9103
    endloop
  endfacet
  facet normal -1 0 0
    outer loop
      vertex 32 -8.3707 13.0897
      vertex 32 -7.90907 13.9957
      vertex 32 -4 0
    endloop
  endfacet
  facet normal 0 -0.891007 0.45399
    outer loop
      vertex 32 -8.3707 13.0897
      vertex 34 -7.90907 13.9957
      vertex 32 -7.90907 13.9957
    endloop
  endfacet
  facet normal 0 -0.891007 0.45399
    outer loop
      vertex 32 -8.3707 13.0897
      vertex 34 -8.3707 13.0897
      vertex 34 -7.90907 13.9957
    endloop
  endfacet
  facet normal -1 0 0
    outer loop
      vertex 32 -8.3707 16.9103
      vertex 32 -4 30
      vertex 32 -7.90907 16.0043
    endloop
  endfacet
  facet normal 0 -0.891007 -0.45399
    outer loop
      vertex 32 -8.3707 16.9103
      vertex 32 -7.90907 16.0043
      vertex 34 -8.3707 16.9103
    endloop
  endfacet
  facet normal 0 -0.707107 -0.707107
    outer loop
      vertex 32 -8.3707 16.9103
      vertex 34 -8.3707 16.9103
      vertex 34 -9.0897 17.6293
    endloop
  endfacet
  facet normal -1 0 0
    outer loop
      vertex 32 -9.0897 12.3707
      vertex 32 -8.3707 13.0897
      vertex 32 -4 0
    endloop
  endfacet
  facet normal 0 -0.707107 0.707107
    outer loop
      vertex 32 -9.0897 12.3707
      vertex 34 -8.3707 13.0897
      vertex 32 -8.3707 13.0897
    endloop
  endfacet
  facet normal 0 -0.707107 0.707107
    outer loop
      vertex 32 -9.0897 12.3707
      vertex 34 -9.0897 12.3707
      vertex 34 -8.3707 13.0897
    endloop
  endfacet
  facet normal 0 -0.453967 0.891018
    outer loop
      vertex 32 -9.0897 12.3707
      vertex 34 -9.9957 11.9091
      vertex 34 -9.0897 12.3707
    endloop
  endfacet
  facet normal -1 0 0
    outer loop
      vertex 32 -9.0897 17.6293
      vertex 32 -4 30
      vertex 32 -8.3707 16.9103
    endloop
  endfacet
  facet normal 0 -0.707107 -0.707107
    outer loop
      vertex 32 -9.0897 17.6293
      vertex 32 -8.3707 16.9103
      vertex 34 -9.0897 17.6293
    endloop
  endfacet
  facet normal -1 0 0
    outer loop
      vertex 32 -9.9957 11.9091
      vertex 32 -9.0897 12.3707
      vertex 32 -4 0
    endloop
  endfacet
  facet normal 0 -0.156468 0.987683
    outer loop
      vertex 32 -9.9957 11.9091
      vertex 34 -11 11.75
      vertex 34 -9.9957 11.9091
    endloop
  endfacet
  facet normal 0 -0.453967 0.891018
    outer loop
      vertex 32 -9.9957 11.9091
      vertex 34 -9.9957 11.9091
      vertex 32 -9.0897 12.3707
    endloop
  endfacet
  facet normal -1 0 0
    outer loop
      vertex 32 -9.9957 18.0909
      vertex 32 -4 30
      vertex 32 -9.0897 17.6293
    endloop
  endfacet
  facet normal -0 -0.453967 -0.891018
    outer loop
      vertex 32 -9.9957 18.0909
      vertex 32 -9.0897 17.6293
      vertex 34 -9.0897 17.6293
    endloop
  endfacet
  facet normal 0 -0.453967 -0.891018
    outer loop
      vertex 32 -9.9957 18.0909
      vertex 34 -9.0897 17.6293
      vertex 34 -9.9957 18.0909
    endloop
  endfacet
  facet normal 1 -0 0
    outer loop
      vertex 34 -11 11.75
      vertex 34 0 0
      vertex 34 -9.9957 11.9091
    endloop
  endfacet
  facet normal 1 0 0
    outer loop
      vertex 34 -11 18.25
      vertex 34 -9.9957 18.0909
      vertex 34 0 30
    endloop
  endfacet
  facet normal 1 0 0
    outer loop
      vertex 34 -12.0043 11.9091
      vertex 34 0 0
      vertex 34 -11 11.75
    endloop
  endfacet
  facet normal 1 0 0
    outer loop
      vertex 34 -12.0043 18.0909
      vertex 34 -11 18.25
      vertex 34 0 30
    endloop
  endfacet
  facet normal 1 -0 0
    outer loop
      vertex 34 -22.75 15
      vertex 34 -14.0909 13.9957
      vertex 34 -14.25 15
    endloop
  endfacet
  facet normal 1 0 0
    outer loop
      vertex 34 -22.75 15
      vertex 34 -14.25 15
      vertex 34 -14.0909 16.0043
    endloop
  endfacet
  facet normal 1 0 0
    outer loop
      vertex 34 -22.9091 13.9957
      vertex 34 -13.6293 13.0897
      vertex 34 -14.0909 13.9957
    endloop
  endfacet
  facet normal 1 0 0
    outer loop
      vertex 34 -22.9091 13.9957
      vertex 34 -14.0909 13.9957
      vertex 34 -22.75 15
    endloop
  endfacet
  facet normal 1 0 0
    outer loop
      vertex 34 -22.9091 16.0043
      vertex 34 -14.0909 16.0043
      vertex 34 -13.6293 16.9103
    endloop
  endfacet
  facet normal 1 0 0
    outer loop
      vertex 34 -22.9091 16.0043
      vertex 34 -22.75 15
      vertex 34 -14.0909 16.0043
    endloop
  endfacet
  facet normal 1 0 0
    outer loop
      vertex 34 -23.3707 13.0897
      vertex 34 -12.9103 12.3707
      vertex 34 -13.6293 13.0897
    endloop
  endfacet
  facet normal 1 0 0
    outer loop
      vertex 34 -23.3707 13.0897
      vertex 34 -13.6293 13.0897
      vertex 34 -22.9091 13.9957
    endloop
  endfacet
  facet normal 1 0 0
    outer loop
      vertex 34 -23.3707 16.9103
      vertex 34 -13.6293 16.9103
      vertex 34 -12.9103 17.6293
    endloop
  endfacet
  facet normal 1 0 0
    outer loop
      vertex 34 -23.3707 16.9103
      vertex 34 -22.9091 16.0043
      vertex 34 -13.6293 16.9103
    endloop
  endfacet
  facet normal 1 0 0
    outer loop
      vertex 34 -24.0897 12.3707
      vertex 34 -12.9103 12.3707
      vertex 34 -23.3707 13.0897
    endloop
  endfacet
  facet normal 1 0 0
    outer loop
      vertex 34 -24.0897 17.6293
      vertex 34 -23.3707 16.9103
      vertex 34 -12.9103 17.6293
    endloop
  endfacet
  facet normal 1 0 0
    outer loop
      vertex 34 -24.9957 11.9091
      vertex 34 -12.0043 11.9091
      vertex 34 -12.9103 12.3707
    endloop
  endfacet
  facet normal 1 0 0
    outer loop
      vertex 34 -24.9957 11.9091
      vertex 34 -12.9103 12.3707
      vertex 34 -24.0897 12.3707
    endloop
  endfacet
  facet normal 1 0 0
    outer loop
      vertex 34 -24.9957 18.0909
      vertex 34 -12.9103 17.6293
      vertex 34 -12.0043 18.0909
    endloop
  endfacet
  facet normal 1 0 0
    outer loop
      vertex 34 -24.9957 18.0909
      vertex 34 -24.0897 17.6293
      vertex 34 -12.9103 17.6293
    endloop
  endfacet
  facet normal 1 0 0
    outer loop
      vertex 34 -34 0
      vertex 34 -12.0043 11.9091
      vertex 34 -24.9957 11.9091
    endloop
  endfacet
  facet normal 1 0 0
    outer loop
      vertex 34 -34 0
      vertex 34 -24.9957 11.9091
      vertex 34 -26 11.75
    endloop
  endfacet
  facet normal 1 0 0
    outer loop
      vertex 34 -34 0
      vertex 34 -26 11.75
      vertex 34 -27.0043 11.9091
    endloop
  endfacet
  facet normal 1 0 0
    outer loop
      vertex 34 -34 0
      vertex 34 -27.0043 11.9091
      vertex 34 -27.9103 12.3707
    endloop
  endfacet
  facet normal 1 0 0
    outer loop
      vertex 34 -34 0
      vertex 34 -27.9103 12.3707
      vertex 34 -28.6293 13.0897
    endloop
  endfacet
  facet normal 1 0 0
    outer loop
      vertex 34 -34 0
      vertex 34 -28.6293 13.0897
      vertex 34 -29.0909 13.9957
    endloop
  endfacet
  facet normal 1 0 0
    outer loop
      vertex 34 -34 0
      vertex 34 -29.0909 13.9957
      vertex 34 -29.25 15
    endloop
  endfacet
  facet normal 1 0 0
    outer loop
      vertex 34 -34 0
      vertex 34 -29.25 15
      vertex 34 -34 30
    endloop
  endfacet
  facet normal 1 0 0
    outer loop
      vertex 34 -34 0
      vertex 34 0 0
      vertex 34 -12.0043 11.9091
    endloop
  endfacet
  facet normal 1 -0 0
    outer loop
      vertex 34 -34 30
      vertex 34 -12.0043 18.0909
      vertex 34 0 30
    endloop
  endfacet
  facet normal 1 0 -0
    outer loop
      vertex 34 -34 30
      vertex 34 -24.9957 18.0909
      vertex 34 -12.0043 18.0909
    endloop
  endfacet
  facet normal 1 0 0
    outer loop
      vertex 34 -34 30
      vertex 34 -26 18.25
      vertex 34 -24.9957 18.0909
    endloop
  endfacet
  facet normal 1 0 0
    outer loop
      vertex 34 -34 30
      vertex 34 -27.0043 18.0909
      vertex 34 -26 18.25
    endloop
  endfacet
  facet normal 1 0 0
    outer loop
      vertex 34 -34 30
      vertex 34 -27.9103 17.6293
      vertex 34 -27.0043 18.0909
    endloop
  endfacet
  facet normal 1 0 0
    outer loop
      vertex 34 -34 30
      vertex 34 -28.6293 16.9103
      vertex 34 -27.9103 17.6293
    endloop
  endfacet
  facet normal 1 0 0
    outer loop
      vertex 34 -34 30
      vertex 34 -29.0909 16.0043
      vertex 34 -28.6293 16.9103
    endloop
  endfacet
  facet normal 1 0 0
    outer loop
      vertex 34 -34 30
      vertex 34 -29.25 15
      vertex 34 -29.0909 16.0043
    endloop
  endfacet
  facet normal 1 0 0
    outer loop
      vertex 34 -7.75 15
      vertex 34 0 0
      vertex 34 0 30
    endloop
  endfacet
  facet normal 1 -0 0
    outer loop
      vertex 34 -7.90907 13.9957
      vertex 34 0 0
      vertex 34 -7.75 15
    endloop
  endfacet
  facet normal 1 0 0
    outer loop
      vertex 34 -7.90907 16.0043
      vertex 34 -7.75 15
      vertex 34 0 30
    endloop
  endfacet
  facet normal 1 -0 0
    outer loop
      vertex 34 -8.3707 13.0897
      vertex 34 0 0
      vertex 34 -7.90907 13.9957
    endloop
  endfacet
  facet normal 1 0 0
    outer loop
      vertex 34 -8.3707 16.9103
      vertex 34 -7.90907 16.0043
      vertex 34 0 30
    endloop
  endfacet
  facet normal 1 -0 0
    outer loop
      vertex 34 -9.0897 12.3707
      vertex 34 0 0
      vertex 34 -8.3707 13.0897
    endloop
  endfacet
  facet normal 1 0 0
    outer loop
      vertex 34 -9.0897 17.6293
      vertex 34 -8.3707 16.9103
      vertex 34 0 30
    endloop
  endfacet
  facet normal 1 -0 0
    outer loop
      vertex 34 -9.9957 11.9091
      vertex 34 0 0
      vertex 34 -9.0897 12.3707
    endloop
  endfacet
  facet normal 1 0 0
    outer loop
      vertex 34 -9.9957 18.0909
      vertex 34 -9.0897 17.6293
      vertex 34 0 30
    endloop
  endfacet
  facet normal 0 0 -1
    outer loop
      vertex 9.9 0 0
      vertex 24.1 0 0
      vertex 32 -4 0
    endloop
  endfacet
  facet normal 0 0 -1
    outer loop
      vertex 9.9 0 0
      vertex 24.1 5 0
      vertex 24.1 0 0
    endloop
  endfacet
  facet normal -1 0 0
    outer loop
      vertex 9.9 0 0
      vertex 9.9 0 30
      vertex 9.9 13 15
    endloop
  endfacet
  facet normal -1 -0 0
    outer loop
      vertex 9.9 0 0
      vertex 9.9 13 15
      vertex 9.9 13.2105 13.6712
    endloop
  endfacet
  facet normal -1 0 0
    outer loop
      vertex 9.9 0 0
      vertex 9.9 13.2105 13.6712
      vertex 9.9 5 0
    endloop
  endfacet
  facet normal -0 0 -1
    outer loop
      vertex 9.9 0 0
      vertex 9.9 5 0
      vertex 24.1 5 0
    endloop
  endfacet
  facet normal 0 0 1
    outer loop
      vertex 9.9 0 30
      vertex 24.1 0 30
      vertex 9.9 5 30
    endloop
  endfacet
  facet normal 0 0 1
    outer loop
      vertex 9.9 0 30
      vertex 32 -4 30
      vertex 24.1 0 30
    endloop
  endfacet
  facet normal -1 0 0
    outer loop
      vertex 9.9 0 30
      vertex 9.9 13.2105 16.3288
      vertex 9.9 13 15
    endloop
  endfacet
  facet normal -1 0 0
    outer loop
      vertex 9.9 0 30
      vertex 9.9 5 30
      vertex 9.9 13.2105 16.3288
    endloop
  endfacet
  facet normal 0 0.987684 0.156463
    outer loop
      vertex 9.9 13 15
      vertex 24.1 13 15
      vertex 24.1 13.2105 13.6712
    endloop
  endfacet
  facet normal 0 0.987684 0.156463
    outer loop
      vertex 9.9 13 15
      vertex 24.1 13.2105 13.6712
      vertex 9.9 13.2105 13.6712
    endloop
  endfacet
  facet normal 0 0.987684 -0.156463
    outer loop
      vertex 9.9 13 15
      vertex 9.9 13.2105 16.3288
      vertex 24.1 13 15
    endloop
  endfacet
  facet normal 0 0.891027 0.45395
    outer loop
      vertex 9.9 13.2105 13.6712
      vertex 24.1 13.2105 13.6712
      vertex 24.1 13.8212 12.4725
    endloop
  endfacet
  facet normal 0 0.891027 0.45395
    outer loop
      vertex 9.9 13.2105 13.6712
      vertex 24.1 13.8212 12.4725
      vertex 9.9 13.8212 12.4725
    endloop
  endfacet
  facet normal 0 0.987684 -0.156463
    outer loop
      vertex 9.9 13.2105 16.3288
      vertex 24.1 13.2105 16.3288
      vertex 24.1 13 15
    endloop
  endfacet
  facet normal 0 0.891027 -0.45395
    outer loop
      vertex 9.9 13.2105 16.3288
      vertex 9.9 13.8212 17.5275
      vertex 24.1 13.2105 16.3288
    endloop
  endfacet
  facet normal 0 0.707107 0.707107
    outer loop
      vertex 9.9 13.8212 12.4725
      vertex 24.1 13.8212 12.4725
      vertex 9.9 14.7725 11.5212
    endloop
  endfacet
  facet normal 0 0.891027 -0.45395
    outer loop
      vertex 9.9 13.8212 17.5275
      vertex 24.1 13.8212 17.5275
      vertex 24.1 13.2105 16.3288
    endloop
  endfacet
  facet normal 0 0.707107 -0.707107
    outer loop
      vertex 9.9 13.8212 17.5275
      vertex 24.1 14.7725 18.4788
      vertex 24.1 13.8212 17.5275
    endloop
  endfacet
  facet normal 0 0.707107 -0.707107
    outer loop
      vertex 9.9 13.8212 17.5275
      vertex 9.9 14.7725 18.4788
      vertex 24.1 14.7725 18.4788
    endloop
  endfacet
  facet normal -0 0.707107 0.707107
    outer loop
      vertex 9.9 14.7725 11.5212
      vertex 24.1 13.8212 12.4725
      vertex 24.1 14.7725 11.5212
    endloop
  endfacet
  facet normal 0 0.45395 0.891027
    outer loop
      vertex 9.9 14.7725 11.5212
      vertex 24.1 14.7725 11.5212
      vertex 9.9 15.9712 10.9105
    endloop
  endfacet
  facet normal 0 0.45395 -0.891027
    outer loop
      vertex 9.9 14.7725 18.4788
      vertex 24.1 15.9712 19.0895
      vertex 24.1 14.7725 18.4788
    endloop
  endfacet
  facet normal 0 0.45395 -0.891027
    outer loop
      vertex 9.9 14.7725 18.4788
      vertex 9.9 15.9712 19.0895
      vertex 24.1 15.9712 19.0895
    endloop
  endfacet
  facet normal -0 0.45395 0.891027
    outer loop
      vertex 9.9 15.9712 10.9105
      vertex 24.1 14.7725 11.5212
      vertex 24.1 15.9712 10.9105
    endloop
  endfacet
  facet normal 0 0.156463 0.987684
    outer loop
      vertex 9.9 15.9712 10.9105
      vertex 24.1 15.9712 10.9105
      vertex 9.9 17.3 10.7
    endloop
  endfacet
  facet normal -1 0 0
    outer loop
      vertex 9.9 15.9712 10.9105
      vertex 9.9 17.3 10.7
      vertex 9.9 21.0826 6.50403
    endloop
  endfacet
  facet normal 0 0.156463 -0.987684
    outer loop
      vertex 9.9 15.9712 19.0895
      vertex 24.1 17.3 19.3
      vertex 24.1 15.9712 19.0895
    endloop
  endfacet
  facet normal 0 0.156463 -0.987684
    outer loop
      vertex 9.9 15.9712 19.0895
      vertex 9.9 17.3 19.3
      vertex 24.1 17.3 19.3
    endloop
  endfacet
  facet normal -1 0 0
    outer loop
      vertex 9.9 15.9712 19.0895
      vertex 9.9 21.0826 23.496
      vertex 9.9 17.3 19.3
    endloop
  endfacet
  facet normal -0 0.156463 0.987684
    outer loop
      vertex 9.9 17.3 10.7
      vertex 24.1 15.9712 10.9105
      vertex 24.1 17.3 10.7
    endloop
  endfacet
  facet normal 0 -0.156463 0.987684
    outer loop
      vertex 9.9 17.3 10.7
      vertex 24.1 17.3 10.7
      vertex 9.9 18.6288 10.9105
    endloop
  endfacet
  facet normal -1 0 0
    outer loop
      vertex 9.9 17.3 10.7
      vertex 9.9 18.6288 10.9105
      vertex 9.9 21.0826 6.50403
    endloop
  endfacet
  facet normal 0 -0.156463 -0.987684
    outer loop
      vertex 9.9 17.3 19.3
      vertex 24.1 18.6288 19.0895
      vertex 24.1 17.3 19.3
    endloop
  endfacet
  facet normal -0 -0.156463 -0.987684
    outer loop
      vertex 9.9 17.3 19.3
      vertex 9.9 18.6288 19.0895
      vertex 24.1 18.6288 19.0895
    endloop
  endfacet
  facet normal -1 0 0
    outer loop
      vertex 9.9 17.3 19.3
      vertex 9.9 21.0826 23.496
      vertex 9.9 18.6288 19.0895
    endloop
  endfacet
  facet normal 0 -0.156463 0.987684
    outer loop
      vertex 9.9 18.6288 10.9105
      vertex 24.1 17.3 10.7
      vertex 24.1 18.6288 10.9105
    endloop
  endfacet
  facet normal 0 -0.45395 0.891027
    outer loop
      vertex 9.9 18.6288 10.9105
      vertex 24.1 18.6288 10.9105
      vertex 9.9 19.8275 11.5212
    endloop
  endfacet
  facet normal -1 0 0
    outer loop
      vertex 9.9 18.6288 10.9105
      vertex 9.9 19.8275 11.5212
      vertex 9.9 21.0826 6.50403
    endloop
  endfacet
  facet normal 0 -0.45395 -0.891027
    outer loop
      vertex 9.9 18.6288 19.0895
      vertex 24.1 19.8275 18.4788
      vertex 24.1 18.6288 19.0895
    endloop
  endfacet
  facet normal -0 -0.45395 -0.891027
    outer loop
      vertex 9.9 18.6288 19.0895
      vertex 9.9 19.8275 18.4788
      vertex 24.1 19.8275 18.4788
    endloop
  endfacet
  facet normal -1 0 0
    outer loop
      vertex 9.9 18.6288 19.0895
      vertex 9.9 21.0826 23.496
      vertex 9.9 19.8275 18.4788
    endloop
  endfacet
  facet normal 0 -0.45395 0.891027
    outer loop
      vertex 9.9 19.8275 11.5212
      vertex 24.1 18.6288 10.9105
      vertex 24.1 19.8275 11.5212
    endloop
  endfacet
  facet normal 0 -0.707107 0.707107
    outer loop
      vertex 9.9 19.8275 11.5212
      vertex 24.1 19.8275 11.5212
      vertex 24.1 20.7788 12.4725
    endloop
  endfacet
  facet normal 0 -0.707107 0.707107
    outer loop
      vertex 9.9 19.8275 11.5212
      vertex 24.1 20.7788 12.4725
      vertex 9.9 20.7788 12.4725
    endloop
  endfacet
  facet normal -1 0 0
    outer loop
      vertex 9.9 19.8275 11.5212
      vertex 9.9 20.7788 12.4725
      vertex 9.9 23.5229 8.08875
    endloop
  endfacet
  facet normal -1 0 0
    outer loop
      vertex 9.9 19.8275 11.5212
      vertex 9.9 21.95 6.94596
      vertex 9.9 21.0826 6.50403
    endloop
  endfacet
  facet normal -1 0 0
    outer loop
      vertex 9.9 19.8275 11.5212
      vertex 9.9 22.7664 7.47614
      vertex 9.9 21.95 6.94596
    endloop
  endfacet
  facet normal -1 0 0
    outer loop
      vertex 9.9 19.8275 11.5212
      vertex 9.9 23.5229 8.08875
      vertex 9.9 22.7664 7.47614
    endloop
  endfacet
  facet normal 0 -0.707107 -0.707107
    outer loop
      vertex 9.9 19.8275 18.4788
      vertex 24.1 20.7788 17.5275
      vertex 24.1 19.8275 18.4788
    endloop
  endfacet
  facet normal -0 -0.707107 -0.707107
    outer loop
      vertex 9.9 19.8275 18.4788
      vertex 9.9 20.7788 17.5275
      vertex 24.1 20.7788 17.5275
    endloop
  endfacet
  facet normal -1 -0 0
    outer loop
      vertex 9.9 19.8275 18.4788
      vertex 9.9 21.0826 23.496
      vertex 9.9 21.95 23.054
    endloop
  endfacet
  facet normal -1 -0 0
    outer loop
      vertex 9.9 19.8275 18.4788
      vertex 9.9 21.95 23.054
      vertex 9.9 22.7664 22.5239
    endloop
  endfacet
  facet normal -1 -0 0
    outer loop
      vertex 9.9 19.8275 18.4788
      vertex 9.9 22.7664 22.5239
      vertex 9.9 23.5229 21.9112
    endloop
  endfacet
  facet normal -1 0 0
    outer loop
      vertex 9.9 19.8275 18.4788
      vertex 9.9 23.5229 21.9112
      vertex 9.9 20.7788 17.5275
    endloop
  endfacet
  facet normal 0 -0.891027 0.45395
    outer loop
      vertex 9.9 20.7788 12.4725
      vertex 24.1 20.7788 12.4725
      vertex 24.1 21.3895 13.6712
    endloop
  endfacet
  facet normal 0 -0.891027 0.45395
    outer loop
      vertex 9.9 20.7788 12.4725
      vertex 24.1 21.3895 13.6712
      vertex 9.9 21.3895 13.6712
    endloop
  endfacet
  facet normal -1 0 0
    outer loop
      vertex 9.9 20.7788 12.4725
      vertex 9.9 21.3895 13.6712
      vertex 9.9 25.354 10.35
    endloop
  endfacet
  facet normal -1 0 0
    outer loop
      vertex 9.9 20.7788 12.4725
      vertex 9.9 24.2112 8.77709
      vertex 9.9 23.5229 8.08875
    endloop
  endfacet
  facet normal -1 0 0
    outer loop
      vertex 9.9 20.7788 12.4725
      vertex 9.9 24.8239 9.5336
      vertex 9.9 24.2112 8.77709
    endloop
  endfacet
  facet normal -1 0 0
    outer loop
      vertex 9.9 20.7788 12.4725
      vertex 9.9 25.354 10.35
      vertex 9.9 24.8239 9.5336
    endloop
  endfacet
  facet normal 0 -0.891027 -0.45395
    outer loop
      vertex 9.9 20.7788 17.5275
      vertex 9.9 21.3895 16.3288
      vertex 24.1 20.7788 17.5275
    endloop
  endfacet
  facet normal -1 -0 0
    outer loop
      vertex 9.9 20.7788 17.5275
      vertex 9.9 23.5229 21.9112
      vertex 9.9 24.2112 21.2229
    endloop
  endfacet
  facet normal -1 -0 0
    outer loop
      vertex 9.9 20.7788 17.5275
      vertex 9.9 24.2112 21.2229
      vertex 9.9 24.8239 20.4664
    endloop
  endfacet
  facet normal -1 -0 0
    outer loop
      vertex 9.9 20.7788 17.5275
      vertex 9.9 24.8239 20.4664
      vertex 9.9 25.354 19.65
    endloop
  endfacet
  facet normal -1 0 0
    outer loop
      vertex 9.9 20.7788 17.5275
      vertex 9.9 25.354 19.65
      vertex 9.9 21.3895 16.3288
    endloop
  endfacet
  facet normal 0 0.454021 0.890991
    outer loop
      vertex 9.9 21.0826 23.496
      vertex 24.1 21.0826 23.496
      vertex 9.9 21.95 23.054
    endloop
  endfacet
  facet normal -0 0.374914 0.92706
    outer loop
      vertex 9.9 21.0826 23.496
      vertex 24.1 5 30
      vertex 24.1 21.0826 23.496
    endloop
  endfacet
  facet normal 0 0.453964 -0.89102
    outer loop
      vertex 9.9 21.0826 6.50403
      vertex 24.1 21.95 6.94596
      vertex 24.1 21.0826 6.50403
    endloop
  endfacet
  facet normal 0 0.453964 -0.89102
    outer loop
      vertex 9.9 21.0826 6.50403
      vertex 9.9 21.95 6.94596
      vertex 24.1 21.95 6.94596
    endloop
  endfacet
  facet normal 0 -0.987684 0.156463
    outer loop
      vertex 9.9 21.3895 13.6712
      vertex 24.1 21.3895 13.6712
      vertex 24.1 21.6 15
    endloop
  endfacet
  facet normal 0 -0.987684 0.156463
    outer loop
      vertex 9.9 21.3895 13.6712
      vertex 24.1 21.6 15
      vertex 9.9 21.6 15
    endloop
  endfacet
  facet normal -1 0 0
    outer loop
      vertex 9.9 21.3895 13.6712
      vertex 9.9 21.6 15
      vertex 9.9 26.3968 13.0664
    endloop
  endfacet
  facet normal -1 0 0
    outer loop
      vertex 9.9 21.3895 13.6712
      vertex 9.9 25.796 11.2173
      vertex 9.9 25.354 10.35
    endloop
  endfacet
  facet normal -1 0 0
    outer loop
      vertex 9.9 21.3895 13.6712
      vertex 9.9 26.1448 12.1261
      vertex 9.9 25.796 11.2173
    endloop
  endfacet
  facet normal -1 0 0
    outer loop
      vertex 9.9 21.3895 13.6712
      vertex 9.9 26.3968 13.0664
      vertex 9.9 26.1448 12.1261
    endloop
  endfacet
  facet normal 0 -0.891027 -0.45395
    outer loop
      vertex 9.9 21.3895 16.3288
      vertex 24.1 21.3895 16.3288
      vertex 24.1 20.7788 17.5275
    endloop
  endfacet
  facet normal 0 -0.987684 -0.156463
    outer loop
      vertex 9.9 21.3895 16.3288
      vertex 9.9 21.6 15
      vertex 24.1 21.3895 16.3288
    endloop
  endfacet
  facet normal -1 -0 0
    outer loop
      vertex 9.9 21.3895 16.3288
      vertex 9.9 25.354 19.65
      vertex 9.9 25.796 18.7826
    endloop
  endfacet
  facet normal -1 -0 0
    outer loop
      vertex 9.9 21.3895 16.3288
      vertex 9.9 25.796 18.7826
      vertex 9.9 26.1448 17.8739
    endloop
  endfacet
  facet normal -1 -0 0
    outer loop
      vertex 9.9 21.3895 16.3288
      vertex 9.9 26.1448 17.8739
      vertex 9.9 26.3968 16.9336
    endloop
  endfacet
  facet normal -1 0 0
    outer loop
      vertex 9.9 21.3895 16.3288
      vertex 9.9 26.3968 16.9336
      vertex 9.9 21.6 15
    endloop
  endfacet
  facet normal 0 -0.987684 -0.156463
    outer loop
      vertex 9.9 21.6 15
      vertex 24.1 21.6 15
      vertex 24.1 21.3895 16.3288
    endloop
  endfacet
  facet normal -1 -0 0
    outer loop
      vertex 9.9 21.6 15
      vertex 9.9 26.3968 16.9336
      vertex 9.9 26.5491 15.9721
    endloop
  endfacet
  facet normal -1 0 0
    outer loop
      vertex 9.9 21.6 15
      vertex 9.9 26.5491 14.0279
      vertex 9.9 26.3968 13.0664
    endloop
  endfacet
  facet normal -1 0 0
    outer loop
      vertex 9.9 21.6 15
      vertex 9.9 26.5491 15.9721
      vertex 9.9 26.6 15
    endloop
  endfacet
  facet normal -1 0 0
    outer loop
      vertex 9.9 21.6 15
      vertex 9.9 26.6 15
      vertex 9.9 26.5491 14.0279
    endloop
  endfacet
  facet normal -0 0.454021 0.890991
    outer loop
      vertex 9.9 21.95 23.054
      vertex 24.1 21.0826 23.496
      vertex 24.1 21.95 23.054
    endloop
  endfacet
  facet normal 0 0.544584 0.838706
    outer loop
      vertex 9.9 21.95 23.054
      vertex 24.1 21.95 23.054
      vertex 9.9 22.7664 22.5239
    endloop
  endfacet
  facet normal 0 0.544642 -0.838669
    outer loop
      vertex 9.9 21.95 6.94596
      vertex 24.1 22.7664 7.47614
      vertex 24.1 21.95 6.94596
    endloop
  endfacet
  facet normal 0 0.544642 -0.838669
    outer loop
      vertex 9.9 21.95 6.94596
      vertex 9.9 22.7664 7.47614
      vertex 24.1 22.7664 7.47614
    endloop
  endfacet
  facet normal -0 0.544584 0.838706
    outer loop
      vertex 9.9 22.7664 22.5239
      vertex 24.1 21.95 23.054
      vertex 24.1 22.7664 22.5239
    endloop
  endfacet
  facet normal 0 0.629381 0.777097
    outer loop
      vertex 9.9 22.7664 22.5239
      vertex 24.1 22.7664 22.5239
      vertex 9.9 23.5229 21.9112
    endloop
  endfacet
  facet normal 0 0.629326 -0.777142
    outer loop
      vertex 9.9 22.7664 7.47614
      vertex 24.1 23.5229 8.08875
      vertex 24.1 22.7664 7.47614
    endloop
  endfacet
  facet normal 0 0.629326 -0.777142
    outer loop
      vertex 9.9 22.7664 7.47614
      vertex 9.9 23.5229 8.08875
      vertex 24.1 23.5229 8.08875
    endloop
  endfacet
  facet normal -0 0.629381 0.777097
    outer loop
      vertex 9.9 23.5229 21.9112
      vertex 24.1 22.7664 22.5239
      vertex 24.1 23.5229 21.9112
    endloop
  endfacet
  facet normal 0 0.707107 0.707107
    outer loop
      vertex 9.9 23.5229 21.9112
      vertex 24.1 23.5229 21.9112
      vertex 24.1 24.2112 21.2229
    endloop
  endfacet
  facet normal 0 0.707107 0.707107
    outer loop
      vertex 9.9 23.5229 21.9112
      vertex 24.1 24.2112 21.2229
      vertex 9.9 24.2112 21.2229
    endloop
  endfacet
  facet normal 0 0.707127 -0.707086
    outer loop
      vertex 9.9 23.5229 8.08875
      vertex 9.9 24.2112 8.77709
      vertex 24.1 23.5229 8.08875
    endloop
  endfacet
  facet normal 0 0.777097 0.629381
    outer loop
      vertex 9.9 24.2112 21.2229
      vertex 24.1 24.2112 21.2229
      vertex 24.1 24.8239 20.4664
    endloop
  endfacet
  facet normal 0 0.777097 0.629381
    outer loop
      vertex 9.9 24.2112 21.2229
      vertex 24.1 24.8239 20.4664
      vertex 9.9 24.8239 20.4664
    endloop
  endfacet
  facet normal 0 0.707127 -0.707086
    outer loop
      vertex 9.9 24.2112 8.77709
      vertex 24.1 24.2112 8.77709
      vertex 24.1 23.5229 8.08875
    endloop
  endfacet
  facet normal 0 0.777101 -0.629376
    outer loop
      vertex 9.9 24.2112 8.77709
      vertex 9.9 24.8239 9.5336
      vertex 24.1 24.2112 8.77709
    endloop
  endfacet
  facet normal 0 0.838706 0.544584
    outer loop
      vertex 9.9 24.8239 20.4664
      vertex 24.1 24.8239 20.4664
      vertex 24.1 25.354 19.65
    endloop
  endfacet
  facet normal 0 0.838706 0.544584
    outer loop
      vertex 9.9 24.8239 20.4664
      vertex 24.1 25.354 19.65
      vertex 9.9 25.354 19.65
    endloop
  endfacet
  facet normal 0 0.777101 -0.629376
    outer loop
      vertex 9.9 24.8239 9.5336
      vertex 24.1 24.8239 9.5336
      vertex 24.1 24.2112 8.77709
    endloop
  endfacet
  facet normal 0 0.838706 -0.544584
    outer loop
      vertex 9.9 24.8239 9.5336
      vertex 9.9 25.354 10.35
      vertex 24.1 24.8239 9.5336
    endloop
  endfacet
  facet normal 0 0.838706 -0.544584
    outer loop
      vertex 9.9 25.354 10.35
      vertex 24.1 25.354 10.35
      vertex 24.1 24.8239 9.5336
    endloop
  endfacet
  facet normal 0 0.89097 -0.454063
    outer loop
      vertex 9.9 25.354 10.35
      vertex 9.9 25.796 11.2173
      vertex 24.1 25.354 10.35
    endloop
  endfacet
  facet normal 0 0.890991 0.454021
    outer loop
      vertex 9.9 25.354 19.65
      vertex 24.1 25.354 19.65
      vertex 24.1 25.796 18.7826
    endloop
  endfacet
  facet normal 0 0.890991 0.454021
    outer loop
      vertex 9.9 25.354 19.65
      vertex 24.1 25.796 18.7826
      vertex 9.9 25.796 18.7826
    endloop
  endfacet
  facet normal 0 0.89097 -0.454063
    outer loop
      vertex 9.9 25.796 11.2173
      vertex 24.1 25.796 11.2173
      vertex 24.1 25.354 10.35
    endloop
  endfacet
  facet normal 0 0.9336 -0.358318
    outer loop
      vertex 9.9 25.796 11.2173
      vertex 9.9 26.1448 12.1261
      vertex 24.1 25.796 11.2173
    endloop
  endfacet
  facet normal 0 0.933586 0.358353
    outer loop
      vertex 9.9 25.796 18.7826
      vertex 24.1 25.796 18.7826
      vertex 24.1 26.1448 17.8739
    endloop
  endfacet
  facet normal 0 0.933586 0.358353
    outer loop
      vertex 9.9 25.796 18.7826
      vertex 24.1 26.1448 17.8739
      vertex 9.9 26.1448 17.8739
    endloop
  endfacet
  facet normal 0 0.9336 -0.358318
    outer loop
      vertex 9.9 26.1448 12.1261
      vertex 24.1 26.1448 12.1261
      vertex 24.1 25.796 11.2173
    endloop
  endfacet
  facet normal 0 0.965914 -0.258864
    outer loop
      vertex 9.9 26.1448 12.1261
      vertex 9.9 26.3968 13.0664
      vertex 24.1 26.1448 12.1261
    endloop
  endfacet
  facet normal 0 0.965914 0.258864
    outer loop
      vertex 9.9 26.1448 17.8739
      vertex 24.1 26.1448 17.8739
      vertex 24.1 26.3968 16.9336
    endloop
  endfacet
  facet normal 0 0.965914 0.258864
    outer loop
      vertex 9.9 26.1448 17.8739
      vertex 24.1 26.3968 16.9336
      vertex 9.9 26.3968 16.9336
    endloop
  endfacet
  facet normal 0 0.965914 -0.258864
    outer loop
      vertex 9.9 26.3968 13.0664
      vertex 24.1 26.3968 13.0664
      vertex 24.1 26.1448 12.1261
    endloop
  endfacet
  facet normal 0 0.987686 -0.156448
    outer loop
      vertex 9.9 26.3968 13.0664
      vertex 9.9 26.5491 14.0279
      vertex 24.1 26.3968 13.0664
    endloop
  endfacet
  facet normal 0 0.987686 0.156448
    outer loop
      vertex 9.9 26.3968 16.9336
      vertex 24.1 26.3968 16.9336
      vertex 24.1 26.5491 15.9721
    endloop
  endfacet
  facet normal 0 0.987686 0.156448
    outer loop
      vertex 9.9 26.3968 16.9336
      vertex 24.1 26.5491 15.9721
      vertex 9.9 26.5491 15.9721
    endloop
  endfacet
  facet normal 0 0.987686 -0.156448
    outer loop
      vertex 9.9 26.5491 14.0279
      vertex 24.1 26.5491 14.0279
      vertex 24.1 26.3968 13.0664
    endloop
  endfacet
  facet normal 0 0.998632 -0.0522892
    outer loop
      vertex 9.9 26.5491 14.0279
      vertex 9.9 26.6 15
      vertex 24.1 26.5491 14.0279
    endloop
  endfacet
  facet normal 0 0.998632 0.0522892
    outer loop
      vertex 9.9 26.5491 15.9721
      vertex 24.1 26.5491 15.9721
      vertex 24.1 26.6 15
    endloop
  endfacet
  facet normal 0 0.998632 0.0522892
    outer loop
      vertex 9.9 26.5491 15.9721
      vertex 24.1 26.6 15
      vertex 9.9 26.6 15
    endloop
  endfacet
  facet normal 0 0.998632 -0.0522892
    outer loop
      vertex 9.9 26.6 15
      vertex 24.1 26.6 15
      vertex 24.1 26.5491 14.0279
    endloop
  endfacet
  facet normal 0 0.374916 -0.927059
    outer loop
      vertex 9.9 5 0
      vertex 24.1 21.0826 6.50403
      vertex 24.1 5 0
    endloop
  endfacet
  facet normal -1 -0 0
    outer loop
      vertex 9.9 5 0
      vertex 9.9 13.2105 13.6712
      vertex 9.9 13.8212 12.4725
    endloop
  endfacet
  facet normal -1 -0 0
    outer loop
      vertex 9.9 5 0
      vertex 9.9 13.8212 12.4725
      vertex 9.9 14.7725 11.5212
    endloop
  endfacet
  facet normal -1 -0 0
    outer loop
      vertex 9.9 5 0
      vertex 9.9 14.7725 11.5212
      vertex 9.9 15.9712 10.9105
    endloop
  endfacet
  facet normal -1 0 0
    outer loop
      vertex 9.9 5 0
      vertex 9.9 15.9712 10.9105
      vertex 9.9 21.0826 6.50403
    endloop
  endfacet
  facet normal 0 0.374916 -0.927059
    outer loop
      vertex 9.9 5 0
      vertex 9.9 21.0826 6.50403
      vertex 24.1 21.0826 6.50403
    endloop
  endfacet
  facet normal 0 0 1
    outer loop
      vertex 9.9 5 30
      vertex 24.1 0 30
      vertex 24.1 5 30
    endloop
  endfacet
  facet normal 0 0.374914 0.92706
    outer loop
      vertex 9.9 5 30
      vertex 24.1 5 30
      vertex 9.9 21.0826 23.496
    endloop
  endfacet
  facet normal -1 0 0
    outer loop
      vertex 9.9 5 30
      vertex 9.9 13.8212 17.5275
      vertex 9.9 13.2105 16.3288
    endloop
  endfacet
  facet normal -1 0 0
    outer loop
      vertex 9.9 5 30
      vertex 9.9 14.7725 18.4788
      vertex 9.9 13.8212 17.5275
    endloop
  endfacet
  facet normal -1 0 0
    outer loop
      vertex 9.9 5 30
      vertex 9.9 15.9712 19.0895
      vertex 9.9 14.7725 18.4788
    endloop
  endfacet
  facet normal -1 0 0
    outer loop
      vertex 9.9 5 30
      vertex 9.9 21.0826 23.496
      vertex 9.9 15.9712 19.0895
    endloop
  endfacet
endsolid model
