solid model
  facet normal -1 0 0
    outer loop
      vertex 0 -10.1502 12.3846
      vertex 0 -9.38359 12.7752
      vertex 0 0 0
    endloop
  endfacet
  facet normal 0 -0.453984 0.89101
    outer loop
      vertex 0 -10.1502 12.3846
      vertex 2 -10.1502 12.3846
      vertex 0 -9.38359 12.7752
    endloop
  endfacet
  facet normal 0 -0.15644 0.987687
    outer loop
      vertex 0 -10.1502 12.3846
      vertex 2 -11 12.25
      vertex 2 -10.1502 12.3846
    endloop
  endfacet
  facet normal -0 -0.453984 -0.89101
    outer loop
      vertex 0 -10.1502 17.6154
      vertex 0 -9.38359 17.2248
      vertex 2 -9.38359 17.2248
    endloop
  endfacet
  facet normal -1 0 0
    outer loop
      vertex 0 -10.1502 17.6154
      vertex 0 0 30
      vertex 0 -9.38359 17.2248
    endloop
  endfacet
  facet normal 0 -0.453984 -0.89101
    outer loop
      vertex 0 -10.1502 17.6154
      vertex 2 -9.38359 17.2248
      vertex 2 -10.1502 17.6154
    endloop
  endfacet
  facet normal -1 0 0
    outer loop
      vertex 0 -11 12.25
      vertex 0 -10.1502 12.3846
      vertex 0 0 0
    endloop
  endfacet
  facet normal 0 -0.15644 0.987687
    outer loop
      vertex 0 -11 12.25
      vertex 2 -11 12.25
      vertex 0 -10.1502 12.3846
    endloop
  endfacet
  facet normal -0 0.15644 0.987687
    outer loop
      vertex 0 -11 12.25
      vertex 2 -11.8498 12.3846
      vertex 2 -11 12.25
    endloop
  endfacet
  facet normal -0 -0.15644 -0.987687
    outer loop
      vertex 0 -11 17.75
      vertex 0 -10.1502 17.6154
      vertex 2 -10.1502 17.6154
    endloop
  endfacet
  facet normal -1 0 0
    outer loop
      vertex 0 -11 17.75
      vertex 0 0 30
      vertex 0 -10.1502 17.6154
    endloop
  endfacet
  facet normal 0 -0.15644 -0.987687
    outer loop
      vertex 0 -11 17.75
      vertex 2 -10.1502 17.6154
      vertex 2 -11 17.75
    endloop
  endfacet
  facet normal -1 0 0
    outer loop
      vertex 0 -11.8498 12.3846
      vertex 0 -11 12.25
      vertex 0 0 0
    endloop
  endfacet
  facet normal 0 0.15644 0.987687
    outer loop
      vertex 0 -11.8498 12.3846
      vertex 2 -11.8498 12.3846
      vertex 0 -11 12.25
    endloop
  endfacet
  facet normal -0 0.453988 0.891008
    outer loop
      vertex 0 -11.8498 12.3846
      vertex 2 -12.6164 12.7752
      vertex 2 -11.8498 12.3846
    endloop
  endfacet
  facet normal 0 0.15644 -0.987687
    outer loop
      vertex 0 -11.8498 17.6154
      vertex 0 -11 17.75
      vertex 2 -11 17.75
    endloop
  endfacet
  facet normal -1 0 0
    outer loop
      vertex 0 -11.8498 17.6154
      vertex 0 0 30
      vertex 0 -11 17.75
    endloop
  endfacet
  facet normal 0 0.15644 -0.987687
    outer loop
      vertex 0 -11.8498 17.6154
      vertex 2 -11 17.75
      vertex 2 -11.8498 17.6154
    endloop
  endfacet
  facet normal 0 0.453988 0.891008
    outer loop
      vertex 0 -12.6164 12.7752
      vertex 2 -12.6164 12.7752
      vertex 0 -11.8498 12.3846
    endloop
  endfacet
  facet normal 0 0.453988 -0.891008
    outer loop
      vertex 0 -12.6164 17.2248
      vertex 0 -11.8498 17.6154
      vertex 2 -11.8498 17.6154
    endloop
  endfacet
  facet normal 0 0.453988 -0.891008
    outer loop
      vertex 0 -12.6164 17.2248
      vertex 2 -11.8498 17.6154
      vertex 2 -12.6164 17.2248
    endloop
  endfacet
  facet normal 0 0.707107 -0.707107
    outer loop
      vertex 0 -12.6164 17.2248
      vertex 2 -12.6164 17.2248
      vertex 2 -13.2248 16.6164
    endloop
  endfacet
  facet normal 0 0.707107 0.707107
    outer loop
      vertex 0 -13.2248 13.3836
      vertex 2 -12.6164 12.7752
      vertex 0 -12.6164 12.7752
    endloop
  endfacet
  facet normal 0 0.707107 0.707107
    outer loop
      vertex 0 -13.2248 13.3836
      vertex 2 -13.2248 13.3836
      vertex 2 -12.6164 12.7752
    endloop
  endfacet
  facet normal 0 0.707107 -0.707107
    outer loop
      vertex 0 -13.2248 16.6164
      vertex 0 -12.6164 17.2248
      vertex 2 -13.2248 16.6164
    endloop
  endfacet
  facet normal 0 0.891008 -0.453988
    outer loop
      vertex 0 -13.2248 16.6164
      vertex 2 -13.2248 16.6164
      vertex 2 -13.6154 15.8498
    endloop
  endfacet
  facet normal 0 0.891008 0.453988
    outer loop
      vertex 0 -13.6154 14.1502
      vertex 2 -13.2248 13.3836
      vertex 0 -13.2248 13.3836
    endloop
  endfacet
  facet normal 0 0.891008 0.453988
    outer loop
      vertex 0 -13.6154 14.1502
      vertex 2 -13.6154 14.1502
      vertex 2 -13.2248 13.3836
    endloop
  endfacet
  facet normal 0 0.891008 -0.453988
    outer loop
      vertex 0 -13.6154 15.8498
      vertex 0 -13.2248 16.6164
      vertex 2 -13.6154 15.8498
    endloop
  endfacet
  facet normal 0 0.987687 -0.15644
    outer loop
      vertex 0 -13.6154 15.8498
      vertex 2 -13.6154 15.8498
      vertex 2 -13.75 15
    endloop
  endfacet
  facet normal 0 0.987687 -0.15644
    outer loop
      vertex 0 -13.75 15
      vertex 0 -13.6154 15.8498
      vertex 2 -13.75 15
    endloop
  endfacet
  facet normal 0 0.987687 0.15644
    outer loop
      vertex 0 -13.75 15
      vertex 2 -13.6154 14.1502
      vertex 0 -13.6154 14.1502
    endloop
  endfacet
  facet normal 0 0.987687 0.15644
    outer loop
      vertex 0 -13.75 15
      vertex 2 -13.75 15
      vertex 2 -13.6154 14.1502
    endloop
  endfacet
  facet normal -1 0 0
    outer loop
      vertex 0 -23.25 15
      vertex 0 -13.6154 15.8498
      vertex 0 -13.75 15
    endloop
  endfacet
  facet normal -1 0 0
    outer loop
      vertex 0 -23.25 15
      vertex 0 -13.75 15
      vertex 0 -13.6154 14.1502
    endloop
  endfacet
  facet normal 0 -0.987687 -0.15644
    outer loop
      vertex 0 -23.25 15
      vertex 2 -23.25 15
      vertex 2 -23.3846 15.8498
    endloop
  endfacet
  facet normal -1 0 0
    outer loop
      vertex 0 -23.3846 14.1502
      vertex 0 -13.6154 14.1502
      vertex 0 -13.2248 13.3836
    endloop
  endfacet
  facet normal -1 0 0
    outer loop
      vertex 0 -23.3846 14.1502
      vertex 0 -23.25 15
      vertex 0 -13.6154 14.1502
    endloop
  endfacet
  facet normal 0 -0.987687 0.15644
    outer loop
      vertex 0 -23.3846 14.1502
      vertex 2 -23.25 15
      vertex 0 -23.25 15
    endloop
  endfacet
  facet normal 0 -0.987687 0.15644
    outer loop
      vertex 0 -23.3846 14.1502
      vertex 2 -23.3846 14.1502
      vertex 2 -23.25 15
    endloop
  endfacet
  facet normal -1 0 0
    outer loop
      vertex 0 -23.3846 15.8498
      vertex 0 -13.2248 16.6164
      vertex 0 -13.6154 15.8498
    endloop
  endfacet
  facet normal -1 0 0
    outer loop
      vertex 0 -23.3846 15.8498
      vertex 0 -13.6154 15.8498
      vertex 0 -23.25 15
    endloop
  endfacet
  facet normal 0 -0.987687 -0.15644
    outer loop
      vertex 0 -23.3846 15.8498
      vertex 0 -23.25 15
      vertex 2 -23.3846 15.8498
    endloop
  endfacet
  facet normal 0 -0.891008 -0.453988
    outer loop
      vertex 0 -23.3846 15.8498
      vertex 2 -23.3846 15.8498
      vertex 2 -23.7752 16.6164
    endloop
  endfacet
  facet normal -1 0 0
    outer loop
      vertex 0 -23.7752 13.3836
      vertex 0 -23.3846 14.1502
      vertex 0 -13.2248 13.3836
    endloop
  endfacet
  facet normal 0 -0.891008 0.453988
    outer loop
      vertex 0 -23.7752 13.3836
      vertex 2 -23.3846 14.1502
      vertex 0 -23.3846 14.1502
    endloop
  endfacet
  facet normal 0 -0.891008 0.453988
    outer loop
      vertex 0 -23.7752 13.3836
      vertex 2 -23.7752 13.3836
      vertex 2 -23.3846 14.1502
    endloop
  endfacet
  facet normal -1 0 0
    outer loop
      vertex 0 -23.7752 16.6164
      vertex 0 -13.2248 16.6164
      vertex 0 -23.3846 15.8498
    endloop
  endfacet
  facet normal 0 -0.891008 -0.453988
    outer loop
      vertex 0 -23.7752 16.6164
      vertex 0 -23.3846 15.8498
      vertex 2 -23.7752 16.6164
    endloop
  endfacet
  facet normal 0 -0.707107 -0.707107
    outer loop
      vertex 0 -23.7752 16.6164
      vertex 2 -23.7752 16.6164
      vertex 2 -24.3836 17.2248
    endloop
  endfacet
  facet normal -1 0 0
    outer loop
      vertex 0 -24.3836 12.7752
      vertex 0 -13.2248 13.3836
      vertex 0 -12.6164 12.7752
    endloop
  endfacet
  facet normal -1 -0 0
    outer loop
      vertex 0 -24.3836 12.7752
      vertex 0 -23.7752 13.3836
      vertex 0 -13.2248 13.3836
    endloop
  endfacet
  facet normal 0 -0.707107 0.707107
    outer loop
      vertex 0 -24.3836 12.7752
      vertex 2 -23.7752 13.3836
      vertex 0 -23.7752 13.3836
    endloop
  endfacet
  facet normal 0 -0.707107 0.707107
    outer loop
      vertex 0 -24.3836 12.7752
      vertex 2 -24.3836 12.7752
      vertex 2 -23.7752 13.3836
    endloop
  endfacet
  facet normal 0 -0.453988 0.891008
    outer loop
      vertex 0 -24.3836 12.7752
      vertex 2 -25.1502 12.3846
      vertex 2 -24.3836 12.7752
    endloop
  endfacet
  facet normal -1 0 0
    outer loop
      vertex 0 -24.3836 17.2248
      vertex 0 -12.6164 17.2248
      vertex 0 -13.2248 16.6164
    endloop
  endfacet
  facet normal -1 0 0
    outer loop
      vertex 0 -24.3836 17.2248
      vertex 0 -13.2248 16.6164
      vertex 0 -23.7752 16.6164
    endloop
  endfacet
  facet normal 0 -0.707107 -0.707107
    outer loop
      vertex 0 -24.3836 17.2248
      vertex 0 -23.7752 16.6164
      vertex 2 -24.3836 17.2248
    endloop
  endfacet
  facet normal -1 0 0
    outer loop
      vertex 0 -25.1502 12.3846
      vertex 0 -12.6164 12.7752
      vertex 0 -11.8498 12.3846
    endloop
  endfacet
  facet normal -1 0 -0
    outer loop
      vertex 0 -25.1502 12.3846
      vertex 0 -24.3836 12.7752
      vertex 0 -12.6164 12.7752
    endloop
  endfacet
  facet normal 0 -0.453988 0.891008
    outer loop
      vertex 0 -25.1502 12.3846
      vertex 2 -25.1502 12.3846
      vertex 0 -24.3836 12.7752
    endloop
  endfacet
  facet normal 0 -0.15644 0.987687
    outer loop
      vertex 0 -25.1502 12.3846
      vertex 2 -26 12.25
      vertex 2 -25.1502 12.3846
    endloop
  endfacet
  facet normal -1 0 0
    outer loop
      vertex 0 -25.1502 17.6154
      vertex 0 -11.8498 17.6154
      vertex 0 -12.6164 17.2248
    endloop
  endfacet
  facet normal -1 0 0
    outer loop
      vertex 0 -25.1502 17.6154
      vertex 0 -12.6164 17.2248
      vertex 0 -24.3836 17.2248
    endloop
  endfacet
  facet normal -0 -0.453988 -0.891008
    outer loop
      vertex 0 -25.1502 17.6154
      vertex 0 -24.3836 17.2248
      vertex 2 -24.3836 17.2248
    endloop
  endfacet
  facet normal 0 -0.453988 -0.891008
    outer loop
      vertex 0 -25.1502 17.6154
      vertex 2 -24.3836 17.2248
      vertex 2 -25.1502 17.6154
    endloop
  endfacet
  facet normal 0 -0.15644 0.987687
    outer loop
      vertex 0 -26 12.25
      vertex 2 -26 12.25
      vertex 0 -25.1502 12.3846
    endloop
  endfacet
  facet normal -0 0.15644 0.987687
    outer loop
      vertex 0 -26 12.25
      vertex 2 -26.8498 12.3846
      vertex 2 -26 12.25
    endloop
  endfacet
  facet normal -0 -0.15644 -0.987687
    outer loop
      vertex 0 -26 17.75
      vertex 0 -25.1502 17.6154
      vertex 2 -25.1502 17.6154
    endloop
  endfacet
  facet normal 0 -0.15644 -0.987687
    outer loop
      vertex 0 -26 17.75
      vertex 2 -25.1502 17.6154
      vertex 2 -26 17.75
    endloop
  endfacet
  facet normal 0 0.15644 0.987687
    outer loop
      vertex 0 -26.8498 12.3846
      vertex 2 -26.8498 12.3846
      vertex 0 -26 12.25
    endloop
  endfacet
  facet normal -0 0.453988 0.891008
    outer loop
      vertex 0 -26.8498 12.3846
      vertex 2 -27.6164 12.7752
      vertex 2 -26.8498 12.3846
    endloop
  endfacet
  facet normal 0 0.15644 -0.987687
    outer loop
      vertex 0 -26.8498 17.6154
      vertex 0 -26 17.75
      vertex 2 -26 17.75
    endloop
  endfacet
  facet normal 0 0.15644 -0.987687
    outer loop
      vertex 0 -26.8498 17.6154
      vertex 2 -26 17.75
      vertex 2 -26.8498 17.6154
    endloop
  endfacet
  facet normal 0 0.453988 0.891008
    outer loop
      vertex 0 -27.6164 12.7752
      vertex 2 -27.6164 12.7752
      vertex 0 -26.8498 12.3846
    endloop
  endfacet
  facet normal 0 0.453988 -0.891008
    outer loop
      vertex 0 -27.6164 17.2248
      vertex 0 -26.8498 17.6154
      vertex 2 -26.8498 17.6154
    endloop
  endfacet
  facet normal 0 0.453988 -0.891008
    outer loop
      vertex 0 -27.6164 17.2248
      vertex 2 -26.8498 17.6154
      vertex 2 -27.6164 17.2248
    endloop
  endfacet
  facet normal 0 0.707107 -0.707107
    outer loop
      vertex 0 -27.6164 17.2248
      vertex 2 -27.6164 17.2248
      vertex 2 -28.2248 16.6164
    endloop
  endfacet
  facet normal 0 0.707107 0.707107
    outer loop
      vertex 0 -28.2248 13.3836
      vertex 2 -27.6164 12.7752
      vertex 0 -27.6164 12.7752
    endloop
  endfacet
  facet normal 0 0.707107 0.707107
    outer loop
      vertex 0 -28.2248 13.3836
      vertex 2 -28.2248 13.3836
      vertex 2 -27.6164 12.7752
    endloop
  endfacet
  facet normal 0 0.707107 -0.707107
    outer loop
      vertex 0 -28.2248 16.6164
      vertex 0 -27.6164 17.2248
      vertex 2 -28.2248 16.6164
    endloop
  endfacet
  facet normal 0 0.891008 -0.453988
    outer loop
      vertex 0 -28.2248 16.6164
      vertex 2 -28.2248 16.6164
      vertex 2 -28.6154 15.8498
    endloop
  endfacet
  facet normal 0 0.891008 0.453988
    outer loop
      vertex 0 -28.6154 14.1502
      vertex 2 -28.2248 13.3836
      vertex 0 -28.2248 13.3836
    endloop
  endfacet
  facet normal 0 0.891008 0.453988
    outer loop
      vertex 0 -28.6154 14.1502
      vertex 2 -28.6154 14.1502
      vertex 2 -28.2248 13.3836
    endloop
  endfacet
  facet normal 0 0.891008 -0.453988
    outer loop
      vertex 0 -28.6154 15.8498
      vertex 0 -28.2248 16.6164
      vertex 2 -28.6154 15.8498
    endloop
  endfacet
  facet normal 0 0.987687 -0.15644
    outer loop
      vertex 0 -28.6154 15.8498
      vertex 2 -28.6154 15.8498
      vertex 2 -28.75 15
    endloop
  endfacet
  facet normal 0 0.987687 -0.15644
    outer loop
      vertex 0 -28.75 15
      vertex 0 -28.6154 15.8498
      vertex 2 -28.75 15
    endloop
  endfacet
  facet normal 0 0.987687 0.15644
    outer loop
      vertex 0 -28.75 15
      vertex 2 -28.6154 14.1502
      vertex 0 -28.6154 14.1502
    endloop
  endfacet
  facet normal 0 0.987687 0.15644
    outer loop
      vertex 0 -28.75 15
      vertex 2 -28.75 15
      vertex 2 -28.6154 14.1502
    endloop
  endfacet
  facet normal -1 0 0
    outer loop
      vertex 0 -34 0
      vertex 0 -11.8498 12.3846
      vertex 0 0 0
    endloop
  endfacet
  facet normal -1 0 -0
    outer loop
      vertex 0 -34 0
      vertex 0 -25.1502 12.3846
      vertex 0 -11.8498 12.3846
    endloop
  endfacet
  facet normal -1 0 0
    outer loop
      vertex 0 -34 0
      vertex 0 -26 12.25
      vertex 0 -25.1502 12.3846
    endloop
  endfacet
  facet normal -1 -0 0
    outer loop
      vertex 0 -34 0
      vertex 0 -26.8498 12.3846
      vertex 0 -26 12.25
    endloop
  endfacet
  facet normal -1 -0 0
    outer loop
      vertex 0 -34 0
      vertex 0 -27.6164 12.7752
      vertex 0 -26.8498 12.3846
    endloop
  endfacet
  facet normal -1 -0 0
    outer loop
      vertex 0 -34 0
      vertex 0 -28.2248 13.3836
      vertex 0 -27.6164 12.7752
    endloop
  endfacet
  facet normal -1 -0 0
    outer loop
      vertex 0 -34 0
      vertex 0 -28.6154 14.1502
      vertex 0 -28.2248 13.3836
    endloop
  endfacet
  facet normal -1 -0 0
    outer loop
      vertex 0 -34 0
      vertex 0 -28.75 15
      vertex 0 -28.6154 14.1502
    endloop
  endfacet
  facet normal -1 0 0
    outer loop
      vertex 0 -34 0
      vertex 0 -34 30
      vertex 0 -28.75 15
    endloop
  endfacet
  facet normal 0 0 -1
    outer loop
      vertex 0 -34 0
      vertex 0 0 0
      vertex 2 -4 0
    endloop
  endfacet
  facet normal 0 -1 -0
    outer loop
      vertex 0 -34 0
      vertex 2 -34 0
      vertex 2 -34 30
    endloop
  endfacet
  facet normal 0 -1 0
    outer loop
      vertex 0 -34 0
      vertex 2 -34 30
      vertex 0 -34 30
    endloop
  endfacet
  facet normal 0 0 -1
    outer loop
      vertex 0 -34 0
      vertex 2 -4 0
      vertex 2 -34 0
    endloop
  endfacet
  facet normal -1 0 0
    outer loop
      vertex 0 -34 30
      vertex 0 -11.8498 17.6154
      vertex 0 -25.1502 17.6154
    endloop
  endfacet
  facet normal -1 0 0
    outer loop
      vertex 0 -34 30
      vertex 0 -25.1502 17.6154
      vertex 0 -26 17.75
    endloop
  endfacet
  facet normal -1 0 0
    outer loop
      vertex 0 -34 30
      vertex 0 -26 17.75
      vertex 0 -26.8498 17.6154
    endloop
  endfacet
  facet normal -1 0 0
    outer loop
      vertex 0 -34 30
      vertex 0 -26.8498 17.6154
      vertex 0 -27.6164 17.2248
    endloop
  endfacet
  facet normal -1 0 0
    outer loop
      vertex 0 -34 30
      vertex 0 -27.6164 17.2248
      vertex 0 -28.2248 16.6164
    endloop
  endfacet
  facet normal -1 0 0
    outer loop
      vertex 0 -34 30
      vertex 0 -28.2248 16.6164
      vertex 0 -28.6154 15.8498
    endloop
  endfacet
  facet normal -1 0 0
    outer loop
      vertex 0 -34 30
      vertex 0 -28.6154 15.8498
      vertex 0 -28.75 15
    endloop
  endfacet
  facet normal -1 0 0
    outer loop
      vertex 0 -34 30
      vertex 0 0 30
      vertex 0 -11.8498 17.6154
    endloop
  endfacet
  facet normal 0 0 1
    outer loop
      vertex 0 -34 30
      vertex 2 -34 30
      vertex 2 -4 30
    endloop
  endfacet
  facet normal 0 0 1
    outer loop
      vertex 0 -34 30
      vertex 2 -4 30
      vertex 0 0 30
    endloop
  endfacet
  facet normal -1 0 0
    outer loop
      vertex 0 -8.25 15
      vertex 0 0 30
      vertex 0 0 0
    endloop
  endfacet
  facet normal 0 -0.987689 -0.156429
    outer loop
      vertex 0 -8.25 15
      vertex 2 -8.25 15
      vertex 2 -8.38459 15.8498
    endloop
  endfacet
  facet normal -1 0 0
    outer loop
      vertex 0 -8.38459 14.1502
      vertex 0 -8.25 15
      vertex 0 0 0
    endloop
  endfacet
  facet normal 0 -0.987689 0.156429
    outer loop
      vertex 0 -8.38459 14.1502
      vertex 2 -8.25 15
      vertex 0 -8.25 15
    endloop
  endfacet
  facet normal 0 -0.987689 0.156429
    outer loop
      vertex 0 -8.38459 14.1502
      vertex 2 -8.38459 14.1502
      vertex 2 -8.25 15
    endloop
  endfacet
  facet normal 0 -0.987689 -0.156429
    outer loop
      vertex 0 -8.38459 15.8498
      vertex 0 -8.25 15
      vertex 2 -8.38459 15.8498
    endloop
  endfacet
  facet normal -1 0 0
    outer loop
      vertex 0 -8.38459 15.8498
      vertex 0 0 30
      vertex 0 -8.25 15
    endloop
  endfacet
  facet normal 0 -0.891003 -0.453998
    outer loop
      vertex 0 -8.38459 15.8498
      vertex 2 -8.38459 15.8498
      vertex 2 -8.7752 16.6164
    endloop
  endfacet
  facet normal -1 0 0
    outer loop
      vertex 0 -8.7752 13.3836
      vertex 0 -8.38459 14.1502
      vertex 0 0 0
    endloop
  endfacet
  facet normal 0 -0.891003 0.453998
    outer loop
      vertex 0 -8.7752 13.3836
      vertex 2 -8.38459 14.1502
      vertex 0 -8.38459 14.1502
    endloop
  endfacet
  facet normal 0 -0.891003 0.453998
    outer loop
      vertex 0 -8.7752 13.3836
      vertex 2 -8.7752 13.3836
      vertex 2 -8.38459 14.1502
    endloop
  endfacet
  facet normal 0 -0.891003 -0.453998
    outer loop
      vertex 0 -8.7752 16.6164
      vertex 0 -8.38459 15.8498
      vertex 2 -8.7752 16.6164
    endloop
  endfacet
  facet normal -1 0 0
    outer loop
      vertex 0 -8.7752 16.6164
      vertex 0 0 30
      vertex 0 -8.38459 15.8498
    endloop
  endfacet
  facet normal 0 -0.707113 -0.707101
    outer loop
      vertex 0 -8.7752 16.6164
      vertex 2 -8.7752 16.6164
      vertex 2 -9.38359 17.2248
    endloop
  endfacet
  facet normal -1 0 0
    outer loop
      vertex 0 -9.38359 12.7752
      vertex 0 -8.7752 13.3836
      vertex 0 0 0
    endloop
  endfacet
  facet normal 0 -0.453984 0.89101
    outer loop
      vertex 0 -9.38359 12.7752
      vertex 2 -10.1502 12.3846
      vertex 2 -9.38359 12.7752
    endloop
  endfacet
  facet normal 0 -0.707113 0.707101
    outer loop
      vertex 0 -9.38359 12.7752
      vertex 2 -8.7752 13.3836
      vertex 0 -8.7752 13.3836
    endloop
  endfacet
  facet normal 0 -0.707113 0.707101
    outer loop
      vertex 0 -9.38359 12.7752
      vertex 2 -9.38359 12.7752
      vertex 2 -8.7752 13.3836
    endloop
  endfacet
  facet normal 0 -0.707113 -0.707101
    outer loop
      vertex 0 -9.38359 17.2248
      vertex 0 -8.7752 16.6164
      vertex 2 -9.38359 17.2248
    endloop
  endfacet
  facet normal -1 0 0
    outer loop
      vertex 0 -9.38359 17.2248
      vertex 0 0 30
      vertex 0 -8.7752 16.6164
    endloop
  endfacet
  facet normal 0 1 0
    outer loop
      vertex 0 0 0
      vertex 0 0 30
      vertex 9.9 0 0
    endloop
  endfacet
  facet normal 0 0 -1
    outer loop
      vertex 0 0 0
      vertex 9.9 0 0
      vertex 2 -4 0
    endloop
  endfacet
  facet normal -0 0 1
    outer loop
      vertex 0 0 30
      vertex 2 -4 30
      vertex 9.9 0 30
    endloop
  endfacet
  facet normal 0 1 -0
    outer loop
      vertex 0 0 30
      vertex 9.9 0 30
      vertex 9.9 0 0
    endloop
  endfacet
  facet normal 1 -0 0
    outer loop
      vertex 2 -10.1502 12.3846
      vertex 2 -4 0
      vertex 2 -9.38359 12.7752
    endloop
  endfacet
  facet normal 1 0 0
    outer loop
      vertex 2 -10.1502 17.6154
      vertex 2 -9.38359 17.2248
      vertex 2 -4 30
    endloop
  endfacet
  facet normal 1 -0 0
    outer loop
      vertex 2 -11 12.25
      vertex 2 -4 0
      vertex 2 -10.1502 12.3846
    endloop
  endfacet
  facet normal 1 0 0
    outer loop
      vertex 2 -11 17.75
      vertex 2 -10.1502 17.6154
      vertex 2 -4 30
    endloop
  endfacet
  facet normal 1 0 0
    outer loop
      vertex 2 -11.8498 12.3846
      vertex 2 -4 0
      vertex 2 -11 12.25
    endloop
  endfacet
  facet normal 1 0 0
    outer loop
      vertex 2 -11.8498 17.6154
      vertex 2 -11 17.75
      vertex 2 -4 30
    endloop
  endfacet
  facet normal 1 -0 0
    outer loop
      vertex 2 -23.25 15
      vertex 2 -13.6154 14.1502
      vertex 2 -13.75 15
    endloop
  endfacet
  facet normal 1 0 0
    outer loop
      vertex 2 -23.25 15
      vertex 2 -13.75 15
      vertex 2 -13.6154 15.8498
    endloop
  endfacet
  facet normal 1 0 0
    outer loop
      vertex 2 -23.3846 14.1502
      vertex 2 -13.2248 13.3836
      vertex 2 -13.6154 14.1502
    endloop
  endfacet
  facet normal 1 0 0
    outer loop
      vertex 2 -23.3846 14.1502
      vertex 2 -13.6154 14.1502
      vertex 2 -23.25 15
    endloop
  endfacet
  facet normal 1 0 0
    outer loop
      vertex 2 -23.3846 15.8498
      vertex 2 -13.6154 15.8498
      vertex 2 -13.2248 16.6164
    endloop
  endfacet
  facet normal 1 0 0
    outer loop
      vertex 2 -23.3846 15.8498
      vertex 2 -23.25 15
      vertex 2 -13.6154 15.8498
    endloop
  endfacet
  facet normal 1 0 0
    outer loop
      vertex 2 -23.7752 13.3836
      vertex 2 -13.2248 13.3836
      vertex 2 -23.3846 14.1502
    endloop
  endfacet
  facet normal 1 0 0
    outer loop
      vertex 2 -23.7752 16.6164
      vertex 2 -23.3846 15.8498
      vertex 2 -13.2248 16.6164
    endloop
  endfacet
  facet normal 1 0 0
    outer loop
      vertex 2 -24.3836 12.7752
      vertex 2 -12.6164 12.7752
      vertex 2 -13.2248 13.3836
    endloop
  endfacet
  facet normal 1 0 0
    outer loop
      vertex 2 -24.3836 12.7752
      vertex 2 -13.2248 13.3836
      vertex 2 -23.7752 13.3836
    endloop
  endfacet
  facet normal 1 0 0
    outer loop
      vertex 2 -24.3836 17.2248
      vertex 2 -13.2248 16.6164
      vertex 2 -12.6164 17.2248
    endloop
  endfacet
  facet normal 1 0 0
    outer loop
      vertex 2 -24.3836 17.2248
      vertex 2 -23.7752 16.6164
      vertex 2 -13.2248 16.6164
    endloop
  endfacet
  facet normal 1 0 0
    outer loop
      vertex 2 -25.1502 12.3846
      vertex 2 -11.8498 12.3846
      vertex 2 -12.6164 12.7752
    endloop
  endfacet
  facet normal 1 0 0
    outer loop
      vertex 2 -25.1502 12.3846
      vertex 2 -12.6164 12.7752
      vertex 2 -24.3836 12.7752
    endloop
  endfacet
  facet normal 1 0 0
    outer loop
      vertex 2 -25.1502 12.3846
      vertex 2 -4 0
      vertex 2 -11.8498 12.3846
    endloop
  endfacet
  facet normal 1 0 0
    outer loop
      vertex 2 -25.1502 17.6154
      vertex 2 -11.8498 17.6154
      vertex 2 -4 30
    endloop
  endfacet
  facet normal 1 0 0
    outer loop
      vertex 2 -25.1502 17.6154
      vertex 2 -12.6164 17.2248
      vertex 2 -11.8498 17.6154
    endloop
  endfacet
  facet normal 1 0 0
    outer loop
      vertex 2 -25.1502 17.6154
      vertex 2 -24.3836 17.2248
      vertex 2 -12.6164 17.2248
    endloop
  endfacet
  facet normal 1 0 0
    outer loop
      vertex 2 -34 0
      vertex 2 -25.1502 12.3846
      vertex 2 -26 12.25
    endloop
  endfacet
  facet normal 1 0 0
    outer loop
      vertex 2 -34 0
      vertex 2 -26 12.25
      vertex 2 -26.8498 12.3846
    endloop
  endfacet
  facet normal 1 0 0
    outer loop
      vertex 2 -34 0
      vertex 2 -26.8498 12.3846
      vertex 2 -27.6164 12.7752
    endloop
  endfacet
  facet normal 1 0 0
    outer loop
      vertex 2 -34 0
      vertex 2 -27.6164 12.7752
      vertex 2 -28.2248 13.3836
    endloop
  endfacet
  facet normal 1 0 0
    outer loop
      vertex 2 -34 0
      vertex 2 -28.2248 13.3836
      vertex 2 -28.6154 14.1502
    endloop
  endfacet
  facet normal 1 0 0
    outer loop
      vertex 2 -34 0
      vertex 2 -28.6154 14.1502
      vertex 2 -28.75 15
    endloop
  endfacet
  facet normal 1 0 0
    outer loop
      vertex 2 -34 0
      vertex 2 -28.75 15
      vertex 2 -34 30
    endloop
  endfacet
  facet normal 1 0 0
    outer loop
      vertex 2 -34 0
      vertex 2 -4 0
      vertex 2 -25.1502 12.3846
    endloop
  endfacet
  facet normal 1 -0 0
    outer loop
      vertex 2 -34 30
      vertex 2 -25.1502 17.6154
      vertex 2 -4 30
    endloop
  endfacet
  facet normal 1 0 0
    outer loop
      vertex 2 -34 30
      vertex 2 -26 17.75
      vertex 2 -25.1502 17.6154
    endloop
  endfacet
  facet normal 1 0 0
    outer loop
      vertex 2 -34 30
      vertex 2 -26.8498 17.6154
      vertex 2 -26 17.75
    endloop
  endfacet
  facet normal 1 0 0
    outer loop
      vertex 2 -34 30
      vertex 2 -27.6164 17.2248
      vertex 2 -26.8498 17.6154
    endloop
  endfacet
  facet normal 1 0 0
    outer loop
      vertex 2 -34 30
      vertex 2 -28.2248 16.6164
      vertex 2 -27.6164 17.2248
    endloop
  endfacet
  facet normal 1 0 0
    outer loop
      vertex 2 -34 30
      vertex 2 -28.6154 15.8498
      vertex 2 -28.2248 16.6164
    endloop
  endfacet
  facet normal 1 0 0
    outer loop
      vertex 2 -34 30
      vertex 2 -28.75 15
      vertex 2 -28.6154 15.8498
    endloop
  endfacet
  facet normal 0 -1 -0
    outer loop
      vertex 2 -4 0
      vertex 32 -4 0
      vertex 32 -4 30
    endloop
  endfacet
  facet normal 0 -1 0
    outer loop
      vertex 2 -4 0
      vertex 32 -4 30
      vertex 2 -4 30
    endloop
  endfacet
  facet normal 0 0 -1
    outer loop
      vertex 2 -4 0
      vertex 9.9 0 0
      vertex 32 -4 0
    endloop
  endfacet
  facet normal 0 0 1
    outer loop
      vertex 2 -4 30
      vertex 32 -4 30
      vertex 9.9 0 30
    endloop
  endfacet
  facet normal 1 0 0
    outer loop
      vertex 2 -8.25 15
      vertex 2 -4 0
      vertex 2 -4 30
    endloop
  endfacet
  facet normal 1 -0 0
    outer loop
      vertex 2 -8.38459 14.1502
      vertex 2 -4 0
      vertex 2 -8.25 15
    endloop
  endfacet
  facet normal 1 0 0
    outer loop
      vertex 2 -8.38459 15.8498
      vertex 2 -8.25 15
      vertex 2 -4 30
    endloop
  endfacet
  facet normal 1 -0 0
    outer loop
      vertex 2 -8.7752 13.3836
      vertex 2 -4 0
      vertex 2 -8.38459 14.1502
    endloop
  endfacet
  facet normal 1 0 0
    outer loop
      vertex 2 -8.7752 16.6164
      vertex 2 -8.38459 15.8498
      vertex 2 -4 30
    endloop
  endfacet
  facet normal 1 -0 0
    outer loop
      vertex 2 -9.38359 12.7752
      vertex 2 -4 0
      vertex 2 -8.7752 13.3836
    endloop
  endfacet
  facet normal 1 0 0
    outer loop
      vertex 2 -9.38359 17.2248
      vertex 2 -8.7752 16.6164
      vertex 2 -4 30
    endloop
  endfacet
  facet normal 0 1 0
    outer loop
      vertex 24.1 0 0
      vertex 24.1 0 30
      vertex 34 0 0
    endloop
  endfacet
  facet normal 1 0 0
    outer loop
      vertex 24.1 0 0
      vertex 24.1 13 15
      vertex 24.1 0 30
    endloop
  endfacet
  facet normal 1 0 0
    outer loop
      vertex 24.1 0 0
      vertex 24.1 13.2105 13.6712
      vertex 24.1 13 15
    endloop
  endfacet
  facet normal 1 0 0
    outer loop
      vertex 24.1 0 0
      vertex 24.1 5 0
      vertex 24.1 13.2105 13.6712
    endloop
  endfacet
  facet normal 0 0 -1
    outer loop
      vertex 24.1 0 0
      vertex 34 0 0
      vertex 32 -4 0
    endloop
  endfacet
  facet normal 1 0 0
    outer loop
      vertex 24.1 0 30
      vertex 24.1 13 15
      vertex 24.1 13.2105 16.3288
    endloop
  endfacet
  facet normal 1 -0 0
    outer loop
      vertex 24.1 0 30
      vertex 24.1 13.2105 16.3288
      vertex 24.1 5 30
    endloop
  endfacet
  facet normal -0 0 1
    outer loop
      vertex 24.1 0 30
      vertex 32 -4 30
      vertex 34 0 30
    endloop
  endfacet
  facet normal 0 1 -0
    outer loop
      vertex 24.1 0 30
      vertex 34 0 30
      vertex 34 0 0
    endloop
  endfacet
  facet normal 1 0 0
    outer loop
      vertex 24.1 15.9712 10.9105
      vertex 24.1 21.0826 6.50403
      vertex 24.1 17.3 10.7
    endloop
  endfacet
  facet normal 1 0 0
    outer loop
      vertex 24.1 15.9712 19.0895
      vertex 24.1 17.3 19.3
      vertex 24.1 21.0826 23.496
    endloop
  endfacet
  facet normal 1 -0 0
    outer loop
      vertex 24.1 17.3 10.7
      vertex 24.1 21.0826 6.50403
      vertex 24.1 18.6288 10.9105
    endloop
  endfacet
  facet normal 1 0 0
    outer loop
      vertex 24.1 17.3 19.3
      vertex 24.1 18.6288 19.0895
      vertex 24.1 21.0826 23.496
    endloop
  endfacet
  facet normal 1 -0 0
    outer loop
      vertex 24.1 18.6288 10.9105
      vertex 24.1 21.0826 6.50403
      vertex 24.1 19.8275 11.5212
    endloop
  endfacet
  facet normal 1 0 0
    outer loop
      vertex 24.1 18.6288 19.0895
      vertex 24.1 19.8275 18.4788
      vertex 24.1 21.0826 23.496
    endloop
  endfacet
  facet normal 1 0 0
    outer loop
      vertex 24.1 19.8275 11.5212
      vertex 24.1 21.0826 6.50403
      vertex 24.1 21.95 6.94596
    endloop
  endfacet
  facet normal 1 0 0
    outer loop
      vertex 24.1 19.8275 11.5212
      vertex 24.1 21.95 6.94596
      vertex 24.1 22.7664 7.47614
    endloop
  endfacet
  facet normal 1 0 0
    outer loop
      vertex 24.1 19.8275 11.5212
      vertex 24.1 22.7664 7.47614
      vertex 24.1 23.5229 8.08875
    endloop
  endfacet
  facet normal 1 -0 0
    outer loop
      vertex 24.1 19.8275 11.5212
      vertex 24.1 23.5229 8.08875
      vertex 24.1 20.7788 12.4725
    endloop
  endfacet
  facet normal 1 0 0
    outer loop
      vertex 24.1 19.8275 18.4788
      vertex 24.1 20.7788 17.5275
      vertex 24.1 23.5229 21.9112
    endloop
  endfacet
  facet normal 1 0 0
    outer loop
      vertex 24.1 19.8275 18.4788
      vertex 24.1 21.95 23.054
      vertex 24.1 21.0826 23.496
    endloop
  endfacet
  facet normal 1 0 0
    outer loop
      vertex 24.1 19.8275 18.4788
      vertex 24.1 22.7664 22.5239
      vertex 24.1 21.95 23.054
    endloop
  endfacet
  facet normal 1 0 0
    outer loop
      vertex 24.1 19.8275 18.4788
      vertex 24.1 23.5229 21.9112
      vertex 24.1 22.7664 22.5239
    endloop
  endfacet
  facet normal 1 0 0
    outer loop
      vertex 24.1 20.7788 12.4725
      vertex 24.1 23.5229 8.08875
      vertex 24.1 24.2112 8.77709
    endloop
  endfacet
  facet normal 1 0 0
    outer loop
      vertex 24.1 20.7788 12.4725
      vertex 24.1 24.2112 8.77709
      vertex 24.1 24.8239 9.5336
    endloop
  endfacet
  facet normal 1 0 0
    outer loop
      vertex 24.1 20.7788 12.4725
      vertex 24.1 24.8239 9.5336
      vertex 24.1 25.354 10.35
    endloop
  endfacet
  facet normal 1 -0 0
    outer loop
      vertex 24.1 20.7788 12.4725
      vertex 24.1 25.354 10.35
      vertex 24.1 21.3895 13.6712
    endloop
  endfacet
  facet normal 1 0 0
    outer loop
      vertex 24.1 20.7788 17.5275
      vertex 24.1 21.3895 16.3288
      vertex 24.1 25.354 19.65
    endloop
  endfacet
  facet normal 1 0 0
    outer loop
      vertex 24.1 20.7788 17.5275
      vertex 24.1 24.2112 21.2229
      vertex 24.1 23.5229 21.9112
    endloop
  endfacet
  facet normal 1 0 0
    outer loop
      vertex 24.1 20.7788 17.5275
      vertex 24.1 24.8239 20.4664
      vertex 24.1 24.2112 21.2229
    endloop
  endfacet
  facet normal 1 0 0
    outer loop
      vertex 24.1 20.7788 17.5275
      vertex 24.1 25.354 19.65
      vertex 24.1 24.8239 20.4664
    endloop
  endfacet
  facet normal 1 0 0
    outer loop
      vertex 24.1 21.3895 13.6712
      vertex 24.1 25.354 10.35
      vertex 24.1 25.796 11.2173
    endloop
  endfacet
  facet normal 1 0 0
    outer loop
      vertex 24.1 21.3895 13.6712
      vertex 24.1 25.796 11.2173
      vertex 24.1 26.1448 12.1261
    endloop
  endfacet
  facet normal 1 0 0
    outer loop
      vertex 24.1 21.3895 13.6712
      vertex 24.1 26.1448 12.1261
      vertex 24.1 26.3968 13.0664
    endloop
  endfacet
  facet normal 1 -0 0
    outer loop
      vertex 24.1 21.3895 13.6712
      vertex 24.1 26.3968 13.0664
      vertex 24.1 21.6 15
    endloop
  endfacet
  facet normal 1 0 0
    outer loop
      vertex 24.1 21.3895 16.3288
      vertex 24.1 21.6 15
      vertex 24.1 26.3968 16.9336
    endloop
  endfacet
  facet normal 1 0 0
    outer loop
      vertex 24.1 21.3895 16.3288
      vertex 24.1 25.796 18.7826
      vertex 24.1 25.354 19.65
    endloop
  endfacet
  facet normal 1 0 0
    outer loop
      vertex 24.1 21.3895 16.3288
      vertex 24.1 26.1448 17.8739
      vertex 24.1 25.796 18.7826
    endloop
  endfacet
  facet normal 1 0 0
    outer loop
      vertex 24.1 21.3895 16.3288
      vertex 24.1 26.3968 16.9336
      vertex 24.1 26.1448 17.8739
    endloop
  endfacet
  facet normal 1 0 0
    outer loop
      vertex 24.1 21.6 15
      vertex 24.1 26.3968 13.0664
      vertex 24.1 26.5491 14.0279
    endloop
  endfacet
  facet normal 1 0 0
    outer loop
      vertex 24.1 21.6 15
      vertex 24.1 26.5491 14.0279
      vertex 24.1 26.6 15
    endloop
  endfacet
  facet normal 1 0 0
    outer loop
      vertex 24.1 21.6 15
      vertex 24.1 26.5491 15.9721
      vertex 24.1 26.3968 16.9336
    endloop
  endfacet
  facet normal 1 0 0
    outer loop
      vertex 24.1 21.6 15
      vertex 24.1 26.6 15
      vertex 24.1 26.5491 15.9721
    endloop
  endfacet
  facet normal 1 0 0
    outer loop
      vertex 24.1 5 0
      vertex 24.1 13.8212 12.4725
      vertex 24.1 13.2105 13.6712
    endloop
  endfacet
  facet normal 1 0 0
    outer loop
      vertex 24.1 5 0
      vertex 24.1 14.7725 11.5212
      vertex 24.1 13.8212 12.4725
    endloop
  endfacet
  facet normal 1 0 0
    outer loop
      vertex 24.1 5 0
      vertex 24.1 15.9712 10.9105
      vertex 24.1 14.7725 11.5212
    endloop
  endfacet
  facet normal 1 0 0
    outer loop
      vertex 24.1 5 0
      vertex 24.1 21.0826 6.50403
      vertex 24.1 15.9712 10.9105
    endloop
  endfacet
  facet normal 1 0 0
    outer loop
      vertex 24.1 5 30
      vertex 24.1 13.2105 16.3288
      vertex 24.1 13.8212 17.5275
    endloop
  endfacet
  facet normal 1 0 0
    outer loop
      vertex 24.1 5 30
      vertex 24.1 13.8212 17.5275
      vertex 24.1 14.7725 18.4788
    endloop
  endfacet
  facet normal 1 0 0
    outer loop
      vertex 24.1 5 30
      vertex 24.1 14.7725 18.4788
      vertex 24.1 15.9712 19.0895
    endloop
  endfacet
  facet normal 1 0 0
    outer loop
      vertex 24.1 5 30
      vertex 24.1 15.9712 19.0895
      vertex 24.1 21.0826 23.496
    endloop
  endfacet
  facet normal -1 0 0
    outer loop
      vertex 32 -10.1502 12.3846
      vertex 32 -9.38359 12.7752
      vertex 32 -4 0
    endloop
  endfacet
  facet normal 0 -0.453984 0.89101
    outer loop
      vertex 32 -10.1502 12.3846
      vertex 34 -10.1502 12.3846
      vertex 32 -9.38359 12.7752
    endloop
  endfacet
  facet normal 0 -0.15644 0.987687
    outer loop
      vertex 32 -10.1502 12.3846
      vertex 34 -11 12.25
      vertex 34 -10.1502 12.3846
    endloop
  endfacet
  facet normal -1 0 0
    outer loop
      vertex 32 -10.1502 17.6154
      vertex 32 -4 30
      vertex 32 -9.38359 17.2248
    endloop
  endfacet
  facet normal -0 -0.453984 -0.89101
    outer loop
      vertex 32 -10.1502 17.6154
      vertex 32 -9.38359 17.2248
      vertex 34 -9.38359 17.2248
    endloop
  endfacet
  facet normal 0 -0.453984 -0.89101
    outer loop
      vertex 32 -10.1502 17.6154
      vertex 34 -9.38359 17.2248
      vertex 34 -10.1502 17.6154
    endloop
  endfacet
  facet normal -1 0 0
    outer loop
      vertex 32 -11 12.25
      vertex 32 -10.1502 12.3846
      vertex 32 -4 0
    endloop
  endfacet
  facet normal 0 -0.15644 0.987687
    outer loop
      vertex 32 -11 12.25
      vertex 34 -11 12.25
      vertex 32 -10.1502 12.3846
    endloop
  endfacet
  facet normal -0 0.15644 0.987687
    outer loop
      vertex 32 -11 12.25
      vertex 34 -11.8498 12.3846
      vertex 34 -11 12.25
    endloop
  endfacet
  facet normal -0 -0.15644 -0.987687
    outer loop
      vertex 32 -11 17.75
      vertex 32 -10.1502 17.6154
      vertex 34 -10.1502 17.6154
    endloop
  endfacet
  facet normal -1 0 0
    outer loop
      vertex 32 -11 17.75
      vertex 32 -4 30
      vertex 32 -10.1502 17.6154
    endloop
  endfacet
  facet normal 0 -0.15644 -0.987687
    outer loop
      vertex 32 -11 17.75
      vertex 34 -10.1502 17.6154
      vertex 34 -11 17.75
    endloop
  endfacet
  facet normal -1 0 0
    outer loop
      vertex 32 -11.8498 12.3846
      vertex 32 -11 12.25
      vertex 32 -4 0
    endloop
  endfacet
  facet normal 0 0.15644 0.987687
    outer loop
      vertex 32 -11.8498 12.3846
      vertex 34 -11.8498 12.3846
      vertex 32 -11 12.25
    endloop
  endfacet
  facet normal -0 0.453988 0.891008
    outer loop
      vertex 32 -11.8498 12.3846
      vertex 34 -12.6164 12.7752
      vertex 34 -11.8498 12.3846
    endloop
  endfacet
  facet normal 0 0.15644 -0.987687
    outer loop
      vertex 32 -11.8498 17.6154
      vertex 32 -11 17.75
      vertex 34 -11 17.75
    endloop
  endfacet
  facet normal -1 0 0
    outer loop
      vertex 32 -11.8498 17.6154
      vertex 32 -4 30
      vertex 32 -11 17.75
    endloop
  endfacet
  facet normal 0 0.15644 -0.987687
    outer loop
      vertex 32 -11.8498 17.6154
      vertex 34 -11 17.75
      vertex 34 -11.8498 17.6154
    endloop
  endfacet
  facet normal 0 0.453988 0.891008
    outer loop
      vertex 32 -12.6164 12.7752
      vertex 34 -12.6164 12.7752
      vertex 32 -11.8498 12.3846
    endloop
  endfacet
  facet normal 0 0.453988 -0.891008
    outer loop
      vertex 32 -12.6164 17.2248
      vertex 32 -11.8498 17.6154
      vertex 34 -11.8498 17.6154
    endloop
  endfacet
  facet normal 0 0.453988 -0.891008
    outer loop
      vertex 32 -12.6164 17.2248
      vertex 34 -11.8498 17.6154
      vertex 34 -12.6164 17.2248
    endloop
  endfacet
  facet normal 0 0.707107 -0.707107
    outer loop
      vertex 32 -12.6164 17.2248
      vertex 34 -12.6164 17.2248
      vertex 34 -13.2248 16.6164
    endloop
  endfacet
  facet normal 0 0.707107 0.707107
    outer loop
      vertex 32 -13.2248 13.3836
      vertex 34 -12.6164 12.7752
      vertex 32 -12.6164 12.7752
    endloop
  endfacet
  facet normal 0 0.707107 0.707107
    outer loop
      vertex 32 -13.2248 13.3836
      vertex 34 -13.2248 13.3836
      vertex 34 -12.6164 12.7752
    endloop
  endfacet
  facet normal 0 0.707107 -0.707107
    outer loop
      vertex 32 -13.2248 16.6164
      vertex 32 -12.6164 17.2248
      vertex 34 -13.2248 16.6164
    endloop
  endfacet
  facet normal 0 0.891008 -0.453988
    outer loop
      vertex 32 -13.2248 16.6164
      vertex 34 -13.2248 16.6164
      vertex 34 -13.6154 15.8498
    endloop
  endfacet
  facet normal 0 0.891008 0.453988
    outer loop
      vertex 32 -13.6154 14.1502
      vertex 34 -13.2248 13.3836
      vertex 32 -13.2248 13.3836
    endloop
  endfacet
  facet normal 0 0.891008 0.453988
    outer loop
      vertex 32 -13.6154 14.1502
      vertex 34 -13.6154 14.1502
      vertex 34 -13.2248 13.3836
    endloop
  endfacet
  facet normal 0 0.891008 -0.453988
    outer loop
      vertex 32 -13.6154 15.8498
      vertex 32 -13.2248 16.6164
      vertex 34 -13.6154 15.8498
    endloop
  endfacet
  facet normal 0 0.987687 -0.15644
    outer loop
      vertex 32 -13.6154 15.8498
      vertex 34 -13.6154 15.8498
      vertex 34 -13.75 15
    endloop
  endfacet
  facet normal 0 0.987687 -0.15644
    outer loop
      vertex 32 -13.75 15
      vertex 32 -13.6154 15.8498
      vertex 34 -13.75 15
    endloop
  endfacet
  facet normal 0 0.987687 0.15644
    outer loop
      vertex 32 -13.75 15
      vertex 34 -13.6154 14.1502
      vertex 32 -13.6154 14.1502
    endloop
  endfacet
  facet normal 0 0.987687 0.15644
    outer loop
      vertex 32 -13.75 15
      vertex 34 -13.75 15
      vertex 34 -13.6154 14.1502
    endloop
  endfacet
  facet normal -1 0 0
    outer loop
      vertex 32 -23.25 15
      vertex 32 -13.6154 15.8498
      vertex 32 -13.75 15
    endloop
  endfacet
  facet normal -1 0 0
    outer loop
      vertex 32 -23.25 15
      vertex 32 -13.75 15
      vertex 32 -13.6154 14.1502
    endloop
  endfacet
  facet normal 0 -0.987687 -0.15644
    outer loop
      vertex 32 -23.25 15
      vertex 34 -23.25 15
      vertex 34 -23.3846 15.8498
    endloop
  endfacet
  facet normal -1 0 0
    outer loop
      vertex 32 -23.3846 14.1502
      vertex 32 -13.6154 14.1502
      vertex 32 -13.2248 13.3836
    endloop
  endfacet
  facet normal -1 0 0
    outer loop
      vertex 32 -23.3846 14.1502
      vertex 32 -23.25 15
      vertex 32 -13.6154 14.1502
    endloop
  endfacet
  facet normal 0 -0.987687 0.15644
    outer loop
      vertex 32 -23.3846 14.1502
      vertex 34 -23.25 15
      vertex 32 -23.25 15
    endloop
  endfacet
  facet normal 0 -0.987687 0.15644
    outer loop
      vertex 32 -23.3846 14.1502
      vertex 34 -23.3846 14.1502
      vertex 34 -23.25 15
    endloop
  endfacet
  facet normal -1 0 0
    outer loop
      vertex 32 -23.3846 15.8498
      vertex 32 -13.2248 16.6164
      vertex 32 -13.6154 15.8498
    endloop
  endfacet
  facet normal -1 0 0
    outer loop
      vertex 32 -23.3846 15.8498
      vertex 32 -13.6154 15.8498
      vertex 32 -23.25 15
    endloop
  endfacet
  facet normal 0 -0.987687 -0.15644
    outer loop
      vertex 32 -23.3846 15.8498
      vertex 32 -23.25 15
      vertex 34 -23.3846 15.8498
    endloop
  endfacet
  facet normal 0 -0.891008 -0.453988
    outer loop
      vertex 32 -23.3846 15.8498
      vertex 34 -23.3846 15.8498
      vertex 34 -23.7752 16.6164
    endloop
  endfacet
  facet normal -1 0 0
    outer loop
      vertex 32 -23.7752 13.3836
      vertex 32 -23.3846 14.1502
      vertex 32 -13.2248 13.3836
    endloop
  endfacet
  facet normal 0 -0.891008 0.453988
    outer loop
      vertex 32 -23.7752 13.3836
      vertex 34 -23.3846 14.1502
      vertex 32 -23.3846 14.1502
    endloop
  endfacet
  facet normal 0 -0.891008 0.453988
    outer loop
      vertex 32 -23.7752 13.3836
      vertex 34 -23.7752 13.3836
      vertex 34 -23.3846 14.1502
    endloop
  endfacet
  facet normal -1 0 0
    outer loop
      vertex 32 -23.7752 16.6164
      vertex 32 -13.2248 16.6164
      vertex 32 -23.3846 15.8498
    endloop
  endfacet
  facet normal 0 -0.891008 -0.453988
    outer loop
      vertex 32 -23.7752 16.6164
      vertex 32 -23.3846 15.8498
      vertex 34 -23.7752 16.6164
    endloop
  endfacet
  facet normal 0 -0.707107 -0.707107
    outer loop
      vertex 32 -23.7752 16.6164
      vertex 34 -23.7752 16.6164
      vertex 34 -24.3836 17.2248
    endloop
  endfacet
  facet normal -1 0 0
    outer loop
      vertex 32 -24.3836 12.7752
      vertex 32 -13.2248 13.3836
      vertex 32 -12.6164 12.7752
    endloop
  endfacet
  facet normal -1 -0 0
    outer loop
      vertex 32 -24.3836 12.7752
      vertex 32 -23.7752 13.3836
      vertex 32 -13.2248 13.3836
    endloop
  endfacet
  facet normal 0 -0.707107 0.707107
    outer loop
      vertex 32 -24.3836 12.7752
      vertex 34 -23.7752 13.3836
      vertex 32 -23.7752 13.3836
    endloop
  endfacet
  facet normal 0 -0.707107 0.707107
    outer loop
      vertex 32 -24.3836 12.7752
      vertex 34 -24.3836 12.7752
      vertex 34 -23.7752 13.3836
    endloop
  endfacet
  facet normal 0 -0.453988 0.891008
    outer loop
      vertex 32 -24.3836 12.7752
      vertex 34 -25.1502 12.3846
      vertex 34 -24.3836 12.7752
    endloop
  endfacet
  facet normal -1 0 0
    outer loop
      vertex 32 -24.3836 17.2248
      vertex 32 -12.6164 17.2248
      vertex 32 -13.2248 16.6164
    endloop
  endfacet
  facet normal -1 0 0
    outer loop
      vertex 32 -24.3836 17.2248
      vertex 32 -13.2248 16.6164
      vertex 32 -23.7752 16.6164
    endloop
  endfacet
  facet normal 0 -0.707107 -0.707107
    outer loop
      vertex 32 -24.3836 17.2248
      vertex 32 -23.7752 16.6164
      vertex 34 -24.3836 17.2248
    endloop
  endfacet
  facet normal -1 0 0
    outer loop
      vertex 32 -25.1502 12.3846
      vertex 32 -11.8498 12.3846
      vertex 32 -4 0
    endloop
  endfacet
  facet normal -1 0 0
    outer loop
      vertex 32 -25.1502 12.3846
      vertex 32 -12.6164 12.7752
      vertex 32 -11.8498 12.3846
    endloop
  endfacet
  facet normal -1 -0 0
    outer loop
      vertex 32 -25.1502 12.3846
      vertex 32 -24.3836 12.7752
      vertex 32 -12.6164 12.7752
    endloop
  endfacet
  facet normal 0 -0.453988 0.891008
    outer loop
      vertex 32 -25.1502 12.3846
      vertex 34 -25.1502 12.3846
      vertex 32 -24.3836 12.7752
    endloop
  endfacet
  facet normal 0 -0.15644 0.987687
    outer loop
      vertex 32 -25.1502 12.3846
      vertex 34 -26 12.25
      vertex 34 -25.1502 12.3846
    endloop
  endfacet
  facet normal -1 0 0
    outer loop
      vertex 32 -25.1502 17.6154
      vertex 32 -11.8498 17.6154
      vertex 32 -12.6164 17.2248
    endloop
  endfacet
  facet normal -1 0 0
    outer loop
      vertex 32 -25.1502 17.6154
      vertex 32 -12.6164 17.2248
      vertex 32 -24.3836 17.2248
    endloop
  endfacet
  facet normal -0 -0.453988 -0.891008
    outer loop
      vertex 32 -25.1502 17.6154
      vertex 32 -24.3836 17.2248
      vertex 34 -24.3836 17.2248
    endloop
  endfacet
  facet normal -1 0 0
    outer loop
      vertex 32 -25.1502 17.6154
      vertex 32 -4 30
      vertex 32 -11.8498 17.6154
    endloop
  endfacet
  facet normal 0 -0.453988 -0.891008
    outer loop
      vertex 32 -25.1502 17.6154
      vertex 34 -24.3836 17.2248
      vertex 34 -25.1502 17.6154
    endloop
  endfacet
  facet normal 0 -0.15644 0.987687
    outer loop
      vertex 32 -26 12.25
      vertex 34 -26 12.25
      vertex 32 -25.1502 12.3846
    endloop
  endfacet
  facet normal -0 0.15644 0.987687
    outer loop
      vertex 32 -26 12.25
      vertex 34 -26.8498 12.3846
      vertex 34 -26 12.25
    endloop
  endfacet
  facet normal -0 -0.15644 -0.987687
    outer loop
      vertex 32 -26 17.75
      vertex 32 -25.1502 17.6154
      vertex 34 -25.1502 17.6154
    endloop
  endfacet
  facet normal 0 -0.15644 -0.987687
    outer loop
      vertex 32 -26 17.75
      vertex 34 -25.1502 17.6154
      vertex 34 -26 17.75
    endloop
  endfacet
  facet normal 0 0.15644 0.987687
    outer loop
      vertex 32 -26.8498 12.3846
      vertex 34 -26.8498 12.3846
      vertex 32 -26 12.25
    endloop
  endfacet
  facet normal -0 0.453988 0.891008
    outer loop
      vertex 32 -26.8498 12.3846
      vertex 34 -27.6164 12.7752
      vertex 34 -26.8498 12.3846
    endloop
  endfacet
  facet normal 0 0.15644 -0.987687
    outer loop
      vertex 32 -26.8498 17.6154
      vertex 32 -26 17.75
      vertex 34 -26 17.75
    endloop
  endfacet
  facet normal 0 0.15644 -0.987687
    outer loop
      vertex 32 -26.8498 17.6154
      vertex 34 -26 17.75
      vertex 34 -26.8498 17.6154
    endloop
  endfacet
  facet normal 0 0.453988 0.891008
    outer loop
      vertex 32 -27.6164 12.7752
      vertex 34 -27.6164 12.7752
      vertex 32 -26.8498 12.3846
    endloop
  endfacet
  facet normal 0 0.453988 -0.891008
    outer loop
      vertex 32 -27.6164 17.2248
      vertex 32 -26.8498 17.6154
      vertex 34 -26.8498 17.6154
    endloop
  endfacet
  facet normal 0 0.453988 -0.891008
    outer loop
      vertex 32 -27.6164 17.2248
      vertex 34 -26.8498 17.6154
      vertex 34 -27.6164 17.2248
    endloop
  endfacet
  facet normal 0 0.707107 -0.707107
    outer loop
      vertex 32 -27.6164 17.2248
      vertex 34 -27.6164 17.2248
      vertex 34 -28.2248 16.6164
    endloop
  endfacet
  facet normal 0 0.707107 0.707107
    outer loop
      vertex 32 -28.2248 13.3836
      vertex 34 -27.6164 12.7752
      vertex 32 -27.6164 12.7752
    endloop
  endfacet
  facet normal 0 0.707107 0.707107
    outer loop
      vertex 32 -28.2248 13.3836
      vertex 34 -28.2248 13.3836
      vertex 34 -27.6164 12.7752
    endloop
  endfacet
  facet normal 0 0.707107 -0.707107
    outer loop
      vertex 32 -28.2248 16.6164
      vertex 32 -27.6164 17.2248
      vertex 34 -28.2248 16.6164
    endloop
  endfacet
  facet normal 0 0.891008 -0.453988
    outer loop
      vertex 32 -28.2248 16.6164
      vertex 34 -28.2248 16.6164
      vertex 34 -28.6154 15.8498
    endloop
  endfacet
  facet normal 0 0.891008 0.453988
    outer loop
      vertex 32 -28.6154 14.1502
      vertex 34 -28.2248 13.3836
      vertex 32 -28.2248 13.3836
    endloop
  endfacet
  facet normal 0 0.891008 0.453988
    outer loop
      vertex 32 -28.6154 14.1502
      vertex 34 -28.6154 14.1502
      vertex 34 -28.2248 13.3836
    endloop
  endfacet
  facet normal 0 0.891008 -0.453988
    outer loop
      vertex 32 -28.6154 15.8498
      vertex 32 -28.2248 16.6164
      vertex 34 -28.6154 15.8498
    endloop
  endfacet
  facet normal 0 0.987687 -0.15644
    outer loop
      vertex 32 -28.6154 15.8498
      vertex 34 -28.6154 15.8498
      vertex 34 -28.75 15
    endloop
  endfacet
  facet normal 0 0.987687 -0.15644
    outer loop
      vertex 32 -28.75 15
      vertex 32 -28.6154 15.8498
      vertex 34 -28.75 15
    endloop
  endfacet
  facet normal 0 0.987687 0.15644
    outer loop
      vertex 32 -28.75 15
      vertex 34 -28.6154 14.1502
      vertex 32 -28.6154 14.1502
    endloop
  endfacet
  facet normal 0 0.987687 0.15644
    outer loop
      vertex 32 -28.75 15
      vertex 34 -28.75 15
      vertex 34 -28.6154 14.1502
    endloop
  endfacet
  facet normal -1 0 0
    outer loop
      vertex 32 -34 0
      vertex 32 -25.1502 12.3846
      vertex 32 -4 0
    endloop
  endfacet
  facet normal -1 0 0
    outer loop
      vertex 32 -34 0
      vertex 32 -26 12.25
      vertex 32 -25.1502 12.3846
    endloop
  endfacet
  facet normal -1 -0 0
    outer loop
      vertex 32 -34 0
      vertex 32 -26.8498 12.3846
      vertex 32 -26 12.25
    endloop
  endfacet
  facet normal -1 -0 0
    outer loop
      vertex 32 -34 0
      vertex 32 -27.6164 12.7752
      vertex 32 -26.8498 12.3846
    endloop
  endfacet
  facet normal -1 -0 0
    outer loop
      vertex 32 -34 0
      vertex 32 -28.2248 13.3836
      vertex 32 -27.6164 12.7752
    endloop
  endfacet
  facet normal -1 -0 0
    outer loop
      vertex 32 -34 0
      vertex 32 -28.6154 14.1502
      vertex 32 -28.2248 13.3836
    endloop
  endfacet
  facet normal -1 -0 0
    outer loop
      vertex 32 -34 0
      vertex 32 -28.75 15
      vertex 32 -28.6154 14.1502
    endloop
  endfacet
  facet normal -1 0 0
    outer loop
      vertex 32 -34 0
      vertex 32 -34 30
      vertex 32 -28.75 15
    endloop
  endfacet
  facet normal 0 0 -1
    outer loop
      vertex 32 -34 0
      vertex 32 -4 0
      vertex 34 -34 0
    endloop
  endfacet
  facet normal 0 -1 -0
    outer loop
      vertex 32 -34 0
      vertex 34 -34 0
      vertex 34 -34 30
    endloop
  endfacet
  facet normal 0 -1 0
    outer loop
      vertex 32 -34 0
      vertex 34 -34 30
      vertex 32 -34 30
    endloop
  endfacet
  facet normal -1 0 0
    outer loop
      vertex 32 -34 30
      vertex 32 -25.1502 17.6154
      vertex 32 -26 17.75
    endloop
  endfacet
  facet normal -1 0 0
    outer loop
      vertex 32 -34 30
      vertex 32 -26 17.75
      vertex 32 -26.8498 17.6154
    endloop
  endfacet
  facet normal -1 0 0
    outer loop
      vertex 32 -34 30
      vertex 32 -26.8498 17.6154
      vertex 32 -27.6164 17.2248
    endloop
  endfacet
  facet normal -1 0 0
    outer loop
      vertex 32 -34 30
      vertex 32 -27.6164 17.2248
      vertex 32 -28.2248 16.6164
    endloop
  endfacet
  facet normal -1 0 0
    outer loop
      vertex 32 -34 30
      vertex 32 -28.2248 16.6164
      vertex 32 -28.6154 15.8498
    endloop
  endfacet
  facet normal -1 0 0
    outer loop
      vertex 32 -34 30
      vertex 32 -28.6154 15.8498
      vertex 32 -28.75 15
    endloop
  endfacet
  facet normal -1 0 0
    outer loop
      vertex 32 -34 30
      vertex 32 -4 30
      vertex 32 -25.1502 17.6154
    endloop
  endfacet
  facet normal 0 0 1
    outer loop
      vertex 32 -34 30
      vertex 34 -34 30
      vertex 32 -4 30
    endloop
  endfacet
  facet normal 0 0 -1
    outer loop
      vertex 32 -4 0
      vertex 34 0 0
      vertex 34 -34 0
    endloop
  endfacet
  facet normal 0 0 1
    outer loop
      vertex 32 -4 30
      vertex 34 -34 30
      vertex 34 0 30
    endloop
  endfacet
  facet normal -1 0 0
    outer loop
      vertex 32 -8.25 15
      vertex 32 -4 30
      vertex 32 -4 0
    endloop
  endfacet
  facet normal 0 -0.987689 -0.156429
    outer loop
      vertex 32 -8.25 15
      vertex 34 -8.25 15
      vertex 34 -8.38459 15.8498
    endloop
  endfacet
  facet normal -1 0 0
    outer loop
      vertex 32 -8.38459 14.1502
      vertex 32 -8.25 15
      vertex 32 -4 0
    endloop
  endfacet
  facet normal 0 -0.987689 0.156429
    outer loop
      vertex 32 -8.38459 14.1502
      vertex 34 -8.25 15
      vertex 32 -8.25 15
    endloop
  endfacet
  facet normal 0 -0.987689 0.156429
    outer loop
      vertex 32 -8.38459 14.1502
      vertex 34 -8.38459 14.1502
      vertex 34 -8.25 15
    endloop
  endfacet
  facet normal -1 0 0
    outer loop
      vertex 32 -8.38459 15.8498
      vertex 32 -4 30
      vertex 32 -8.25 15
    endloop
  endfacet
  facet normal 0 -0.987689 -0.156429
    outer loop
      vertex 32 -8.38459 15.8498
      vertex 32 -8.25 15
      vertex 34 -8.38459 15.8498
    endloop
  endfacet
  facet normal 0 -0.891003 -0.453998
    outer loop
      vertex 32 -8.38459 15.8498
      vertex 34 -8.38459 15.8498
      vertex 34 -8.7752 16.6164
    endloop
  endfacet
  facet normal -1 0 0
    outer loop
      vertex 32 -8.7752 13.3836
      vertex 32 -8.38459 14.1502
      vertex 32 -4 0
    endloop
  endfacet
  facet normal 0 -0.891003 0.453998
    outer loop
      vertex 32 -8.7752 13.3836
      vertex 34 -8.38459 14.1502
      vertex 32 -8.38459 14.1502
    endloop
  endfacet
  facet normal 0 -0.891003 0.453998
    outer loop
      vertex 32 -8.7752 13.3836
      vertex 34 -8.7752 13.3836
      vertex 34 -8.38459 14.1502
    endloop
  endfacet
  facet normal -1 0 0
    outer loop
      vertex 32 -8.7752 16.6164
      vertex 32 -4 30
      vertex 32 -8.38459 15.8498
    endloop
  endfacet
  facet normal 0 -0.891003 -0.453998
    outer loop
      vertex 32 -8.7752 16.6164
      vertex 32 -8.38459 15.8498
      vertex 34 -8.7752 16.6164
    endloop
  endfacet
  facet normal 0 -0.707113 -0.707101
    outer loop
      vertex 32 -8.7752 16.6164
      vertex 34 -8.7752 16.6164
      vertex 34 -9.38359 17.2248
    endloop
  endfacet
  facet normal -1 0 0
    outer loop
      vertex 32 -9.38359 12.7752
      vertex 32 -8.7752 13.3836
      vertex 32 -4 0
    endloop
  endfacet
  facet normal 0 -0.453984 0.89101
    outer loop
      vertex 32 -9.38359 12.7752
      vertex 34 -10.1502 12.3846
      vertex 34 -9.38359 12.7752
    endloop
  endfacet
  facet normal 0 -0.707113 0.707101
    outer loop
      vertex 32 -9.38359 12.7752
      vertex 34 -8.7752 13.3836
      vertex 32 -8.7752 13.3836
    endloop
  endfacet
  facet normal 0 -0.707113 0.707101
    outer loop
      vertex 32 -9.38359 12.7752
      vertex 34 -9.38359 12.7752
      vertex 34 -8.7752 13.3836
    endloop
  endfacet
  facet normal -1 0 0
    outer loop
      vertex 32 -9.38359 17.2248
      vertex 32 -4 30
      vertex 32 -8.7752 16.6164
    endloop
  endfacet
  facet normal 0 -0.707113 -0.707101
    outer loop
      vertex 32 -9.38359 17.2248
      vertex 32 -8.7752 16.6164
      vertex 34 -9.38359 17.2248
    endloop
  endfacet
  facet normal 1 -0 0
    outer loop
      vertex 34 -10.1502 12.3846
      vertex 34 0 0
      vertex 34 -9.38359 12.7752
    endloop
  endfacet
  facet normal 1 0 0
    outer loop
      vertex 34 -10.1502 17.6154
      vertex 34 -9.38359 17.2248
      vertex 34 0 30
    endloop
  endfacet
  facet normal 1 -0 0
    outer loop
      vertex 34 -11 12.25
      vertex 34 0 0
      vertex 34 -10.1502 12.3846
    endloop
  endfacet
  facet normal 1 0 0
    outer loop
      vertex 34 -11 17.75
      vertex 34 -10.1502 17.6154
      vertex 34 0 30
    endloop
  endfacet
  facet normal 1 0 0
    outer loop
      vertex 34 -11.8498 12.3846
      vertex 34 0 0
      vertex 34 -11 12.25
    endloop
  endfacet
  facet normal 1 0 0
    outer loop
      vertex 34 -11.8498 17.6154
      vertex 34 -11 17.75
      vertex 34 0 30
    endloop
  endfacet
  facet normal 1 -0 0
    outer loop
      vertex 34 -23.25 15
      vertex 34 -13.6154 14.1502
      vertex 34 -13.75 15
    endloop
  endfacet
  facet normal 1 0 0
    outer loop
      vertex 34 -23.25 15
      vertex 34 -13.75 15
      vertex 34 -13.6154 15.8498
    endloop
  endfacet
  facet normal 1 0 0
    outer loop
      vertex 34 -23.3846 14.1502
      vertex 34 -13.2248 13.3836
      vertex 34 -13.6154 14.1502
    endloop
  endfacet
  facet normal 1 0 0
    outer loop
      vertex 34 -23.3846 14.1502
      vertex 34 -13.6154 14.1502
      vertex 34 -23.25 15
    endloop
  endfacet
  facet normal 1 0 0
    outer loop
      vertex 34 -23.3846 15.8498
      vertex 34 -13.6154 15.8498
      vertex 34 -13.2248 16.6164
    endloop
  endfacet
  facet normal 1 0 0
    outer loop
      vertex 34 -23.3846 15.8498
      vertex 34 -23.25 15
      vertex 34 -13.6154 15.8498
    endloop
  endfacet
  facet normal 1 0 0
    outer loop
      vertex 34 -23.7752 13.3836
      vertex 34 -13.2248 13.3836
      vertex 34 -23.3846 14.1502
    endloop
  endfacet
  facet normal 1 0 0
    outer loop
      vertex 34 -23.7752 16.6164
      vertex 34 -23.3846 15.8498
      vertex 34 -13.2248 16.6164
    endloop
  endfacet
  facet normal 1 0 0
    outer loop
      vertex 34 -24.3836 12.7752
      vertex 34 -12.6164 12.7752
      vertex 34 -13.2248 13.3836
    endloop
  endfacet
  facet normal 1 0 0
    outer loop
      vertex 34 -24.3836 12.7752
      vertex 34 -13.2248 13.3836
      vertex 34 -23.7752 13.3836
    endloop
  endfacet
  facet normal 1 0 0
    outer loop
      vertex 34 -24.3836 17.2248
      vertex 34 -13.2248 16.6164
      vertex 34 -12.6164 17.2248
    endloop
  endfacet
  facet normal 1 0 0
    outer loop
      vertex 34 -24.3836 17.2248
      vertex 34 -23.7752 16.6164
      vertex 34 -13.2248 16.6164
    endloop
  endfacet
  facet normal 1 0 0
    outer loop
      vertex 34 -25.1502 12.3846
      vertex 34 -11.8498 12.3846
      vertex 34 -12.6164 12.7752
    endloop
  endfacet
  facet normal 1 0 0
    outer loop
      vertex 34 -25.1502 12.3846
      vertex 34 -12.6164 12.7752
      vertex 34 -24.3836 12.7752
    endloop
  endfacet
  facet normal 1 0 0
    outer loop
      vertex 34 -25.1502 17.6154
      vertex 34 -12.6164 17.2248
      vertex 34 -11.8498 17.6154
    endloop
  endfacet
  facet normal 1 0 -0
    outer loop
      vertex 34 -25.1502 17.6154
      vertex 34 -24.3836 17.2248
      vertex 34 -12.6164 17.2248
    endloop
  endfacet
  facet normal 1 0 0
    outer loop
      vertex 34 -34 0
      vertex 34 -11.8498 12.3846
      vertex 34 -25.1502 12.3846
    endloop
  endfacet
  facet normal 1 0 0
    outer loop
      vertex 34 -34 0
      vertex 34 -25.1502 12.3846
      vertex 34 -26 12.25
    endloop
  endfacet
  facet normal 1 0 0
    outer loop
      vertex 34 -34 0
      vertex 34 -26 12.25
      vertex 34 -26.8498 12.3846
    endloop
  endfacet
  facet normal 1 0 0
    outer loop
      vertex 34 -34 0
      vertex 34 -26.8498 12.3846
      vertex 34 -27.6164 12.7752
    endloop
  endfacet
  facet normal 1 0 0
    outer loop
      vertex 34 -34 0
      vertex 34 -27.6164 12.7752
      vertex 34 -28.2248 13.3836
    endloop
  endfacet
  facet normal 1 0 0
    outer loop
      vertex 34 -34 0
      vertex 34 -28.2248 13.3836
      vertex 34 -28.6154 14.1502
    endloop
  endfacet
  facet normal 1 0 0
    outer loop
      vertex 34 -34 0
      vertex 34 -28.6154 14.1502
      vertex 34 -28.75 15
    endloop
  endfacet
  facet normal 1 0 0
    outer loop
      vertex 34 -34 0
      vertex 34 -28.75 15
      vertex 34 -34 30
    endloop
  endfacet
  facet normal 1 0 0
    outer loop
      vertex 34 -34 0
      vertex 34 0 0
      vertex 34 -11.8498 12.3846
    endloop
  endfacet
  facet normal 1 -0 0
    outer loop
      vertex 34 -34 30
      vertex 34 -11.8498 17.6154
      vertex 34 0 30
    endloop
  endfacet
  facet normal 1 0 -0
    outer loop
      vertex 34 -34 30
      vertex 34 -25.1502 17.6154
      vertex 34 -11.8498 17.6154
    endloop
  endfacet
  facet normal 1 0 0
    outer loop
      vertex 34 -34 30
      vertex 34 -26 17.75
      vertex 34 -25.1502 17.6154
    endloop
  endfacet
  facet normal 1 0 0
    outer loop
      vertex 34 -34 30
      vertex 34 -26.8498 17.6154
      vertex 34 -26 17.75
    endloop
  endfacet
  facet normal 1 0 0
    outer loop
      vertex 34 -34 30
      vertex 34 -27.6164 17.2248
      vertex 34 -26.8498 17.6154
    endloop
  endfacet
  facet normal 1 0 0
    outer loop
      vertex 34 -34 30
      vertex 34 -28.2248 16.6164
      vertex 34 -27.6164 17.2248
    endloop
  endfacet
  facet normal 1 0 0
    outer loop
      vertex 34 -34 30
      vertex 34 -28.6154 15.8498
      vertex 34 -28.2248 16.6164
    endloop
  endfacet
  facet normal 1 0 0
    outer loop
      vertex 34 -34 30
      vertex 34 -28.75 15
      vertex 34 -28.6154 15.8498
    endloop
  endfacet
  facet normal 1 0 0
    outer loop
      vertex 34 -8.25 15
      vertex 34 0 0
      vertex 34 0 30
    endloop
  endfacet
  facet normal 1 -0 0
    outer loop
      vertex 34 -8.38459 14.1502
      vertex 34 0 0
      vertex 34 -8.25 15
    endloop
  endfacet
  facet normal 1 0 0
    outer loop
      vertex 34 -8.38459 15.8498
      vertex 34 -8.25 15
      vertex 34 0 30
    endloop
  endfacet
  facet normal 1 -0 0
    outer loop
      vertex 34 -8.7752 13.3836
      vertex 34 0 0
      vertex 34 -8.38459 14.1502
    endloop
  endfacet
  facet normal 1 0 0
    outer loop
      vertex 34 -8.7752 16.6164
      vertex 34 -8.38459 15.8498
      vertex 34 0 30
    endloop
  endfacet
  facet normal 1 -0 0
    outer loop
      vertex 34 -9.38359 12.7752
      vertex 34 0 0
      vertex 34 -8.7752 13.3836
    endloop
  endfacet
  facet normal 1 0 0
    outer loop
      vertex 34 -9.38359 17.2248
      vertex 34 -8.7752 16.6164
      vertex 34 0 30
    endloop
  endfacet
  facet normal 0 0 -1
    outer loop
      vertex 9.9 0 0
      vertex 24.1 0 0
      vertex 32 -4 0
    endloop
  endfacet
  facet normal 0 0 -1
    outer loop
      vertex 9.9 0 0
      vertex 24.1 5 0
      vertex 24.1 0 0
    endloop
  endfacet
  facet normal -1 0 0
    outer loop
      vertex 9.9 0 0
      vertex 9.9 0 30
      vertex 9.9 13 15
    endloop
  endfacet
  facet normal -1 -0 0
    outer loop
      vertex 9.9 0 0
      vertex 9.9 13 15
      vertex 9.9 13.2105 13.6712
    endloop
  endfacet
  facet normal -1 0 0
    outer loop
      vertex 9.9 0 0
      vertex 9.9 13.2105 13.6712
      vertex 9.9 5 0
    endloop
  endfacet
  facet normal -0 0 -1
    outer loop
      vertex 9.9 0 0
      vertex 9.9 5 0
      vertex 24.1 5 0
    endloop
  endfacet
  facet normal 0 0 1
    outer loop
      vertex 9.9 0 30
      vertex 24.1 0 30
      vertex 9.9 5 30
    endloop
  endfacet
  facet normal 0 0 1
    outer loop
      vertex 9.9 0 30
      vertex 32 -4 30
      vertex 24.1 0 30
    endloop
  endfacet
  facet normal -1 0 0
    outer loop
      vertex 9.9 0 30
      vertex 9.9 13.2105 16.3288
      vertex 9.9 13 15
    endloop
  endfacet
  facet normal -1 0 0
    outer loop
      vertex 9.9 0 30
      vertex 9.9 5 30
      vertex 9.9 13.2105 16.3288
    endloop
  endfacet
  facet normal 0 0.987684 0.156463
    outer loop
      vertex 9.9 13 15
      vertex 24.1 13 15
      vertex 24.1 13.2105 13.6712
    endloop
  endfacet
  facet normal 0 0.987684 0.156463
    outer loop
      vertex 9.9 13 15
      vertex 24.1 13.2105 13.6712
      vertex 9.9 13.2105 13.6712
    endloop
  endfacet
  facet normal 0 0.987684 -0.156463
    outer loop
      vertex 9.9 13 15
      vertex 9.9 13.2105 16.3288
      vertex 24.1 13 15
    endloop
  endfacet
  facet normal 0 0.891027 0.45395
    outer loop
      vertex 9.9 13.2105 13.6712
      vertex 24.1 13.2105 13.6712
      vertex 24.1 13.8212 12.4725
    endloop
  endfacet
  facet normal 0 0.891027 0.45395
    outer loop
      vertex 9.9 13.2105 13.6712
      vertex 24.1 13.8212 12.4725
      vertex 9.9 13.8212 12.4725
    endloop
  endfacet
  facet normal 0 0.987684 -0.156463
    outer loop
      vertex 9.9 13.2105 16.3288
      vertex 24.1 13.2105 16.3288
      vertex 24.1 13 15
    endloop
  endfacet
  facet normal 0 0.891027 -0.45395
    outer loop
      vertex 9.9 13.2105 16.3288
      vertex 9.9 13.8212 17.5275
      vertex 24.1 13.2105 16.3288
    endloop
  endfacet
  facet normal 0 0.707107 0.707107
    outer loop
      vertex 9.9 13.8212 12.4725
      vertex 24.1 13.8212 12.4725
      vertex 9.9 14.7725 11.5212
    endloop
  endfacet
  facet normal 0 0.891027 -0.45395
    outer loop
      vertex 9.9 13.8212 17.5275
      vertex 24.1 13.8212 17.5275
      vertex 24.1 13.2105 16.3288
    endloop
  endfacet
  facet normal 0 0.707107 -0.707107
    outer loop
      vertex 9.9 13.8212 17.5275
      vertex 24.1 14.7725 18.4788
      vertex 24.1 13.8212 17.5275
    endloop
  endfacet
  facet normal 0 0.707107 -0.707107
    outer loop
      vertex 9.9 13.8212 17.5275
      vertex 9.9 14.7725 18.4788
      vertex 24.1 14.7725 18.4788
    endloop
  endfacet
  facet normal -0 0.707107 0.707107
    outer loop
      vertex 9.9 14.7725 11.5212
      vertex 24.1 13.8212 12.4725
      vertex 24.1 14.7725 11.5212
    endloop
  endfacet
  facet normal 0 0.45395 0.891027
    outer loop
      vertex 9.9 14.7725 11.5212
      vertex 24.1 14.7725 11.5212
      vertex 9.9 15.9712 10.9105
    endloop
  endfacet
  facet normal 0 0.45395 -0.891027
    outer loop
      vertex 9.9 14.7725 18.4788
      vertex 24.1 15.9712 19.0895
      vertex 24.1 14.7725 18.4788
    endloop
  endfacet
  facet normal 0 0.45395 -0.891027
    outer loop
      vertex 9.9 14.7725 18.4788
      vertex 9.9 15.9712 19.0895
      vertex 24.1 15.9712 19.0895
    endloop
  endfacet
  facet normal -0 0.45395 0.891027
    outer loop
      vertex 9.9 15.9712 10.9105
      vertex 24.1 14.7725 11.5212
      vertex 24.1 15.9712 10.9105
    endloop
  endfacet
  facet normal 0 0.156463 0.987684
    outer loop
      vertex 9.9 15.9712 10.9105
      vertex 24.1 15.9712 10.9105
      vertex 9.9 17.3 10.7
    endloop
  endfacet
  facet normal -1 0 0
    outer loop
      vertex 9.9 15.9712 10.9105
      vertex 9.9 17.3 10.7
      vertex 9.9 21.0826 6.50403
    endloop
  endfacet
  facet normal 0 0.156463 -0.987684
    outer loop
      vertex 9.9 15.9712 19.0895
      vertex 24.1 17.3 19.3
      vertex 24.1 15.9712 19.0895
    endloop
  endfacet
  facet normal 0 0.156463 -0.987684
    outer loop
      vertex 9.9 15.9712 19.0895
      vertex 9.9 17.3 19.3
      vertex 24.1 17.3 19.3
    endloop
  endfacet
  facet normal -1 0 0
    outer loop
      vertex 9.9 15.9712 19.0895
      vertex 9.9 21.0826 23.496
      vertex 9.9 17.3 19.3
    endloop
  endfacet
  facet normal -0 0.156463 0.987684
    outer loop
      vertex 9.9 17.3 10.7
      vertex 24.1 15.9712 10.9105
      vertex 24.1 17.3 10.7
    endloop
  endfacet
  facet normal 0 -0.156463 0.987684
    outer loop
      vertex 9.9 17.3 10.7
      vertex 24.1 17.3 10.7
      vertex 9.9 18.6288 10.9105
    endloop
  endfacet
  facet normal -1 0 0
    outer loop
      vertex 9.9 17.3 10.7
      vertex 9.9 18.6288 10.9105
      vertex 9.9 21.0826 6.50403
    endloop
  endfacet
  facet normal 0 -0.156463 -0.987684
    outer loop
      vertex 9.9 17.3 19.3
      vertex 24.1 18.6288 19.0895
      vertex 24.1 17.3 19.3
    endloop
  endfacet
  facet normal -0 -0.156463 -0.987684
    outer loop
      vertex 9.9 17.3 19.3
      vertex 9.9 18.6288 19.0895
      vertex 24.1 18.6288 19.0895
    endloop
  endfacet
  facet normal -1 0 0
    outer loop
      vertex 9.9 17.3 19.3
      vertex 9.9 21.0826 23.496
      vertex 9.9 18.6288 19.0895
    endloop
  endfacet
  facet normal 0 -0.156463 0.987684
    outer loop
      vertex 9.9 18.6288 10.9105
      vertex 24.1 17.3 10.7
      vertex 24.1 18.6288 10.9105
    endloop
  endfacet
  facet normal 0 -0.45395 0.891027
    outer loop
      vertex 9.9 18.6288 10.9105
      vertex 24.1 18.6288 10.9105
      vertex 9.9 19.8275 11.5212
    endloop
  endfacet
  facet normal -1 0 0
    outer loop
      vertex 9.9 18.6288 10.9105
      vertex 9.9 19.8275 11.5212
      vertex 9.9 21.0826 6.50403
    endloop
  endfacet
  facet normal 0 -0.45395 -0.891027
    outer loop
      vertex 9.9 18.6288 19.0895
      vertex 24.1 19.8275 18.4788
      vertex 24.1 18.6288 19.0895
    endloop
  endfacet
  facet normal -0 -0.45395 -0.891027
    outer loop
      vertex 9.9 18.6288 19.0895
      vertex 9.9 19.8275 18.4788
      vertex 24.1 19.8275 18.4788
    endloop
  endfacet
  facet normal -1 0 0
    outer loop
      vertex 9.9 18.6288 19.0895
      vertex 9.9 21.0826 23.496
      vertex 9.9 19.8275 18.4788
    endloop
  endfacet
  facet normal 0 -0.45395 0.891027
    outer loop
      vertex 9.9 19.8275 11.5212
      vertex 24.1 18.6288 10.9105
      vertex 24.1 19.8275 11.5212
    endloop
  endfacet
  facet normal 0 -0.707107 0.707107
    outer loop
      vertex 9.9 19.8275 11.5212
      vertex 24.1 19.8275 11.5212
      vertex 24.1 20.7788 12.4725
    endloop
  endfacet
  facet normal 0 -0.707107 0.707107
    outer loop
      vertex 9.9 19.8275 11.5212
      vertex 24.1 20.7788 12.4725
      vertex 9.9 20.7788 12.4725
    endloop
  endfacet
  facet normal -1 0 0
    outer loop
      vertex 9.9 19.8275 11.5212
      vertex 9.9 20.7788 12.4725
      vertex 9.9 23.5229 8.08875
    endloop
  endfacet
  facet normal -1 0 0
    outer loop
      vertex 9.9 19.8275 11.5212
      vertex 9.9 21.95 6.94596
      vertex 9.9 21.0826 6.50403
    endloop
  endfacet
  facet normal -1 0 0
    outer loop
      vertex 9.9 19.8275 11.5212
      vertex 9.9 22.7664 7.47614
      vertex 9.9 21.95 6.94596
    endloop
  endfacet
  facet normal -1 0 0
    outer loop
      vertex 9.9 19.8275 11.5212
      vertex 9.9 23.5229 8.08875
      vertex 9.9 22.7664 7.47614
    endloop
  endfacet
  facet normal 0 -0.707107 -0.707107
    outer loop
      vertex 9.9 19.8275 18.4788
      vertex 24.1 20.7788 17.5275
      vertex 24.1 19.8275 18.4788
    endloop
  endfacet
  facet normal -0 -0.707107 -0.707107
    outer loop
      vertex 9.9 19.8275 18.4788
      vertex 9.9 20.7788 17.5275
      vertex 24.1 20.7788 17.5275
    endloop
  endfacet
  facet normal -1 -0 0
    outer loop
      vertex 9.9 19.8275 18.4788
      vertex 9.9 21.0826 23.496
      vertex 9.9 21.95 23.054
    endloop
  endfacet
  facet normal -1 -0 0
    outer loop
      vertex 9.9 19.8275 18.4788
      vertex 9.9 21.95 23.054
      vertex 9.9 22.7664 22.5239
    endloop
  endfacet
  facet normal -1 -0 0
    outer loop
      vertex 9.9 19.8275 18.4788
      vertex 9.9 22.7664 22.5239
      vertex 9.9 23.5229 21.9112
    endloop
  endfacet
  facet normal -1 0 0
    outer loop
      vertex 9.9 19.8275 18.4788
      vertex 9.9 23.5229 21.9112
      vertex 9.9 20.7788 17.5275
    endloop
  endfacet
  facet normal 0 -0.891027 0.45395
    outer loop
      vertex 9.9 20.7788 12.4725
      vertex 24.1 20.7788 12.4725
      vertex 24.1 21.3895 13.6712
    endloop
  endfacet
  facet normal 0 -0.891027 0.45395
    outer loop
      vertex 9.9 20.7788 12.4725
      vertex 24.1 21.3895 13.6712
      vertex 9.9 21.3895 13.6712
    endloop
  endfacet
  facet normal -1 0 0
    outer loop
      vertex 9.9 20.7788 12.4725
      vertex 9.9 21.3895 13.6712
      vertex 9.9 25.354 10.35
    endloop
  endfacet
  facet normal -1 0 0
    outer loop
      vertex 9.9 20.7788 12.4725
      vertex 9.9 24.2112 8.77709
      vertex 9.9 23.5229 8.08875
    endloop
  endfacet
  facet normal -1 0 0
    outer loop
      vertex 9.9 20.7788 12.4725
      vertex 9.9 24.8239 9.5336
      vertex 9.9 24.2112 8.77709
    endloop
  endfacet
  facet normal -1 0 0
    outer loop
      vertex 9.9 20.7788 12.4725
      vertex 9.9 25.354 10.35
      vertex 9.9 24.8239 9.5336
    endloop
  endfacet
  facet normal 0 -0.891027 -0.45395
    outer loop
      vertex 9.9 20.7788 17.5275
      vertex 9.9 21.3895 16.3288
      vertex 24.1 20.7788 17.5275
    endloop
  endfacet
  facet normal -1 -0 0
    outer loop
      vertex 9.9 20.7788 17.5275
      vertex 9.9 23.5229 21.9112
      vertex 9.9 24.2112 21.2229
    endloop
  endfacet
  facet normal -1 -0 0
    outer loop
      vertex 9.9 20.7788 17.5275
      vertex 9.9 24.2112 21.2229
      vertex 9.9 24.8239 20.4664
    endloop
  endfacet
  facet normal -1 -0 0
    outer loop
      vertex 9.9 20.7788 17.5275
      vertex 9.9 24.8239 20.4664
      vertex 9.9 25.354 19.65
    endloop
  endfacet
  facet normal -1 0 0
    outer loop
      vertex 9.9 20.7788 17.5275
      vertex 9.9 25.354 19.65
      vertex 9.9 21.3895 16.3288
    endloop
  endfacet
  facet normal 0 0.454021 0.890991
    outer loop
      vertex 9.9 21.0826 23.496
      vertex 24.1 21.0826 23.496
      vertex 9.9 21.95 23.054
    endloop
  endfacet
  facet normal -0 0.374914 0.92706
    outer loop
      vertex 9.9 21.0826 23.496
      vertex 24.1 5 30
      vertex 24.1 21.0826 23.496
    endloop
  endfacet
  facet normal 0 0.453964 -0.89102
    outer loop
      vertex 9.9 21.0826 6.50403
      vertex 24.1 21.95 6.94596
      vertex 24.1 21.0826 6.50403
    endloop
  endfacet
  facet normal 0 0.453964 -0.89102
    outer loop
      vertex 9.9 21.0826 6.50403
      vertex 9.9 21.95 6.94596
      vertex 24.1 21.95 6.94596
    endloop
  endfacet
  facet normal 0 -0.987684 0.156463
    outer loop
      vertex 9.9 21.3895 13.6712
      vertex 24.1 21.3895 13.6712
      vertex 24.1 21.6 15
    endloop
  endfacet
  facet normal 0 -0.987684 0.156463
    outer loop
      vertex 9.9 21.3895 13.6712
      vertex 24.1 21.6 15
      vertex 9.9 21.6 15
    endloop
  endfacet
  facet normal -1 0 0
    outer loop
      vertex 9.9 21.3895 13.6712
      vertex 9.9 21.6 15
      vertex 9.9 26.3968 13.0664
    endloop
  endfacet
  facet normal -1 0 0
    outer loop
      vertex 9.9 21.3895 13.6712
      vertex 9.9 25.796 11.2173
      vertex 9.9 25.354 10.35
    endloop
  endfacet
  facet normal -1 0 0
    outer loop
      vertex 9.9 21.3895 13.6712
      vertex 9.9 26.1448 12.1261
      vertex 9.9 25.796 11.2173
    endloop
  endfacet
  facet normal -1 0 0
    outer loop
      vertex 9.9 21.3895 13.6712
      vertex 9.9 26.3968 13.0664
      vertex 9.9 26.1448 12.1261
    endloop
  endfacet
  facet normal 0 -0.891027 -0.45395
    outer loop
      vertex 9.9 21.3895 16.3288
      vertex 24.1 21.3895 16.3288
      vertex 24.1 20.7788 17.5275
    endloop
  endfacet
  facet normal 0 -0.987684 -0.156463
    outer loop
      vertex 9.9 21.3895 16.3288
      vertex 9.9 21.6 15
      vertex 24.1 21.3895 16.3288
    endloop
  endfacet
  facet normal -1 -0 0
    outer loop
      vertex 9.9 21.3895 16.3288
      vertex 9.9 25.354 19.65
      vertex 9.9 25.796 18.7826
    endloop
  endfacet
  facet normal -1 -0 0
    outer loop
      vertex 9.9 21.3895 16.3288
      vertex 9.9 25.796 18.7826
      vertex 9.9 26.1448 17.8739
    endloop
  endfacet
  facet normal -1 -0 0
    outer loop
      vertex 9.9 21.3895 16.3288
      vertex 9.9 26.1448 17.8739
      vertex 9.9 26.3968 16.9336
    endloop
  endfacet
  facet normal -1 0 0
    outer loop
      vertex 9.9 21.3895 16.3288
      vertex 9.9 26.3968 16.9336
      vertex 9.9 21.6 15
    endloop
  endfacet
  facet normal 0 -0.987684 -0.156463
    outer loop
      vertex 9.9 21.6 15
      vertex 24.1 21.6 15
      vertex 24.1 21.3895 16.3288
    endloop
  endfacet
  facet normal -1 -0 0
    outer loop
      vertex 9.9 21.6 15
      vertex 9.9 26.3968 16.9336
      vertex 9.9 26.5491 15.9721
    endloop
  endfacet
  facet normal -1 0 0
    outer loop
      vertex 9.9 21.6 15
      vertex 9.9 26.5491 14.0279
      vertex 9.9 26.3968 13.0664
    endloop
  endfacet
  facet normal -1 0 0
    outer loop
      vertex 9.9 21.6 15
      vertex 9.9 26.5491 15.9721
      vertex 9.9 26.6 15
    endloop
  endfacet
  facet normal -1 0 0
    outer loop
      vertex 9.9 21.6 15
      vertex 9.9 26.6 15
      vertex 9.9 26.5491 14.0279
    endloop
  endfacet
  facet normal -0 0.454021 0.890991
    outer loop
      vertex 9.9 21.95 23.054
      vertex 24.1 21.0826 23.496
      vertex 24.1 21.95 23.054
    endloop
  endfacet
  facet normal 0 0.544584 0.838706
    outer loop
      vertex 9.9 21.95 23.054
      vertex 24.1 21.95 23.054
      vertex 9.9 22.7664 22.5239
    endloop
  endfacet
  facet normal 0 0.544642 -0.838669
    outer loop
      vertex 9.9 21.95 6.94596
      vertex 24.1 22.7664 7.47614
      vertex 24.1 21.95 6.94596
    endloop
  endfacet
  facet normal 0 0.544642 -0.838669
    outer loop
      vertex 9.9 21.95 6.94596
      vertex 9.9 22.7664 7.47614
      vertex 24.1 22.7664 7.47614
    endloop
  endfacet
  facet normal -0 0.544584 0.838706
    outer loop
      vertex 9.9 22.7664 22.5239
      vertex 24.1 21.95 23.054
      vertex 24.1 22.7664 22.5239
    endloop
  endfacet
  facet normal 0 0.629381 0.777097
    outer loop
      vertex 9.9 22.7664 22.5239
      vertex 24.1 22.7664 22.5239
      vertex 9.9 23.5229 21.9112
    endloop
  endfacet
  facet normal 0 0.629326 -0.777142
    outer loop
      vertex 9.9 22.7664 7.47614
      vertex 24.1 23.5229 8.08875
      vertex 24.1 22.7664 7.47614
    endloop
  endfacet
  facet normal 0 0.629326 -0.777142
    outer loop
      vertex 9.9 22.7664 7.47614
      vertex 9.9 23.5229 8.08875
      vertex 24.1 23.5229 8.08875
    endloop
  endfacet
  facet normal -0 0.629381 0.777097
    outer loop
      vertex 9.9 23.5229 21.9112
      vertex 24.1 22.7664 22.5239
      vertex 24.1 23.5229 21.9112
    endloop
  endfacet
  facet normal 0 0.707107 0.707107
    outer loop
      vertex 9.9 23.5229 21.9112
      vertex 24.1 23.5229 21.9112
      vertex 24.1 24.2112 21.2229
    endloop
  endfacet
  facet normal 0 0.707107 0.707107
    outer loop
      vertex 9.9 23.5229 21.9112
      vertex 24.1 24.2112 21.2229
      vertex 9.9 24.2112 21.2229
    endloop
  endfacet
  facet normal 0 0.707127 -0.707086
    outer loop
      vertex 9.9 23.5229 8.08875
      vertex 9.9 24.2112 8.77709
      vertex 24.1 23.5229 8.08875
    endloop
  endfacet
  facet normal 0 0.777097 0.629381
    outer loop
      vertex 9.9 24.2112 21.2229
      vertex 24.1 24.2112 21.2229
      vertex 24.1 24.8239 20.4664
    endloop
  endfacet
  facet normal 0 0.777097 0.629381
    outer loop
      vertex 9.9 24.2112 21.2229
      vertex 24.1 24.8239 20.4664
      vertex 9.9 24.8239 20.4664
    endloop
  endfacet
  facet normal 0 0.707127 -0.707086
    outer loop
      vertex 9.9 24.2112 8.77709
      vertex 24.1 24.2112 8.77709
      vertex 24.1 23.5229 8.08875
    endloop
  endfacet
  facet normal 0 0.777101 -0.629376
    outer loop
      vertex 9.9 24.2112 8.77709
      vertex 9.9 24.8239 9.5336
      vertex 24.1 24.2112 8.77709
    endloop
  endfacet
  facet normal 0 0.838706 0.544584
    outer loop
      vertex 9.9 24.8239 20.4664
      vertex 24.1 24.8239 20.4664
      vertex 24.1 25.354 19.65
    endloop
  endfacet
  facet normal 0 0.838706 0.544584
    outer loop
      vertex 9.9 24.8239 20.4664
      vertex 24.1 25.354 19.65
      vertex 9.9 25.354 19.65
    endloop
  endfacet
  facet normal 0 0.777101 -0.629376
    outer loop
      vertex 9.9 24.8239 9.5336
      vertex 24.1 24.8239 9.5336
      vertex 24.1 24.2112 8.77709
    endloop
  endfacet
  facet normal 0 0.838706 -0.544584
    outer loop
      vertex 9.9 24.8239 9.5336
      vertex 9.9 25.354 10.35
      vertex 24.1 24.8239 9.5336
    endloop
  endfacet
  facet normal 0 0.838706 -0.544584
    outer loop
      vertex 9.9 25.354 10.35
      vertex 24.1 25.354 10.35
      vertex 24.1 24.8239 9.5336
    endloop
  endfacet
  facet normal 0 0.89097 -0.454063
    outer loop
      vertex 9.9 25.354 10.35
      vertex 9.9 25.796 11.2173
      vertex 24.1 25.354 10.35
    endloop
  endfacet
  facet normal 0 0.890991 0.454021
    outer loop
      vertex 9.9 25.354 19.65
      vertex 24.1 25.354 19.65
      vertex 24.1 25.796 18.7826
    endloop
  endfacet
  facet normal 0 0.890991 0.454021
    outer loop
      vertex 9.9 25.354 19.65
      vertex 24.1 25.796 18.7826
      vertex 9.9 25.796 18.7826
    endloop
  endfacet
  facet normal 0 0.89097 -0.454063
    outer loop
      vertex 9.9 25.796 11.2173
      vertex 24.1 25.796 11.2173
      vertex 24.1 25.354 10.35
    endloop
  endfacet
  facet normal 0 0.9336 -0.358318
    outer loop
      vertex 9.9 25.796 11.2173
      vertex 9.9 26.1448 12.1261
      vertex 24.1 25.796 11.2173
    endloop
  endfacet
  facet normal 0 0.933586 0.358353
    outer loop
      vertex 9.9 25.796 18.7826
      vertex 24.1 25.796 18.7826
      vertex 24.1 26.1448 17.8739
    endloop
  endfacet
  facet normal 0 0.933586 0.358353
    outer loop
      vertex 9.9 25.796 18.7826
      vertex 24.1 26.1448 17.8739
      vertex 9.9 26.1448 17.8739
    endloop
  endfacet
  facet normal 0 0.9336 -0.358318
    outer loop
      vertex 9.9 26.1448 12.1261
      vertex 24.1 26.1448 12.1261
      vertex 24.1 25.796 11.2173
    endloop
  endfacet
  facet normal 0 0.965914 -0.258864
    outer loop
      vertex 9.9 26.1448 12.1261
      vertex 9.9 26.3968 13.0664
      vertex 24.1 26.1448 12.1261
    endloop
  endfacet
  facet normal 0 0.965914 0.258864
    outer loop
      vertex 9.9 26.1448 17.8739
      vertex 24.1 26.1448 17.8739
      vertex 24.1 26.3968 16.9336
    endloop
  endfacet
  facet normal 0 0.965914 0.258864
    outer loop
      vertex 9.9 26.1448 17.8739
      vertex 24.1 26.3968 16.9336
      vertex 9.9 26.3968 16.9336
    endloop
  endfacet
  facet normal 0 0.965914 -0.258864
    outer loop
      vertex 9.9 26.3968 13.0664
      vertex 24.1 26.3968 13.0664
      vertex 24.1 26.1448 12.1261
    endloop
  endfacet
  facet normal 0 0.987686 -0.156448
    outer loop
      vertex 9.9 26.3968 13.0664
      vertex 9.9 26.5491 14.0279
      vertex 24.1 26.3968 13.0664
    endloop
  endfacet
  facet normal 0 0.987686 0.156448
    outer loop
      vertex 9.9 26.3968 16.9336
      vertex 24.1 26.3968 16.9336
      vertex 24.1 26.5491 15.9721
    endloop
  endfacet
  facet normal 0 0.987686 0.156448
    outer loop
      vertex 9.9 26.3968 16.9336
      vertex 24.1 26.5491 15.9721
      vertex 9.9 26.5491 15.9721
    endloop
  endfacet
  facet normal 0 0.987686 -0.156448
    outer loop
      vertex 9.9 26.5491 14.0279
      vertex 24.1 26.5491 14.0279
      vertex 24.1 26.3968 13.0664
    endloop
  endfacet
  facet normal 0 0.998632 -0.0522892
    outer loop
      vertex 9.9 26.5491 14.0279
      vertex 9.9 26.6 15
      vertex 24.1 26.5491 14.0279
    endloop
  endfacet
  facet normal 0 0.998632 0.0522892
    outer loop
      vertex 9.9 26.5491 15.9721
      vertex 24.1 26.5491 15.9721
      vertex 24.1 26.6 15
    endloop
  endfacet
  facet normal 0 0.998632 0.0522892
    outer loop
      vertex 9.9 26.5491 15.9721
      vertex 24.1 26.6 15
      vertex 9.9 26.6 15
    endloop
  endfacet
  facet normal 0 0.998632 -0.0522892
    outer loop
      vertex 9.9 26.6 15
      vertex 24.1 26.6 15
      vertex 24.1 26.5491 14.0279
    endloop
  endfacet
  facet normal 0 0.374916 -0.927059
    outer loop
      vertex 9.9 5 0
      vertex 24.1 21.0826 6.50403
      vertex 24.1 5 0
    endloop
  endfacet
  facet normal -1 -0 0
    outer loop
      vertex 9.9 5 0
      vertex 9.9 13.2105 13.6712
      vertex 9.9 13.8212 12.4725
    endloop
  endfacet
  facet normal -1 -0 0
    outer loop
      vertex 9.9 5 0
      vertex 9.9 13.8212 12.4725
      vertex 9.9 14.7725 11.5212
    endloop
  endfacet
  facet normal -1 -0 0
    outer loop
      vertex 9.9 5 0
      vertex 9.9 14.7725 11.5212
      vertex 9.9 15.9712 10.9105
    endloop
  endfacet
  facet normal -1 0 0
    outer loop
      vertex 9.9 5 0
      vertex 9.9 15.9712 10.9105
      vertex 9.9 21.0826 6.50403
    endloop
  endfacet
  facet normal 0 0.374916 -0.927059
    outer loop
      vertex 9.9 5 0
      vertex 9.9 21.0826 6.50403
      vertex 24.1 21.0826 6.50403
    endloop
  endfacet
  facet normal 0 0 1
    outer loop
      vertex 9.9 5 30
      vertex 24.1 0 30
      vertex 24.1 5 30
    endloop
  endfacet
  facet normal 0 0.374914 0.92706
    outer loop
      vertex 9.9 5 30
      vertex 24.1 5 30
      vertex 9.9 21.0826 23.496
    endloop
  endfacet
  facet normal -1 0 0
    outer loop
      vertex 9.9 5 30
      vertex 9.9 13.8212 17.5275
      vertex 9.9 13.2105 16.3288
    endloop
  endfacet
  facet normal -1 0 0
    outer loop
      vertex 9.9 5 30
      vertex 9.9 14.7725 18.4788
      vertex 9.9 13.8212 17.5275
    endloop
  endfacet
  facet normal -1 0 0
    outer loop
      vertex 9.9 5 30
      vertex 9.9 15.9712 19.0895
      vertex 9.9 14.7725 18.4788
    endloop
  endfacet
  facet normal -1 0 0
    outer loop
      vertex 9.9 5 30
      vertex 9.9 21.0826 23.496
      vertex 9.9 15.9712 19.0895
    endloop
  endfacet
endsolid model
