solid OpenSCAD_Model
  facet normal -0.866019 -0.500011 0
    outer loop
      vertex 1.65 38 3.6
      vertex 0.825 39.4289 4.6
      vertex 0.825 39.4289 3.6
    endloop
  endfacet
  facet normal -0.866019 -0.500011 0
    outer loop
      vertex 0.825 39.4289 4.6
      vertex 1.65 38 3.6
      vertex 1.65 38 4.6
    endloop
  endfacet
  facet normal 0.866019 -0.500011 0
    outer loop
      vertex -1.65 38 4.6
      vertex -0.825 39.4289 3.6
      vertex -0.825 39.4289 4.6
    endloop
  endfacet
  facet normal 0.866019 -0.500011 0
    outer loop
      vertex -0.825 39.4289 3.6
      vertex -1.65 38 4.6
      vertex -1.65 38 3.6
    endloop
  endfacet
  facet normal 0 -1 0
    outer loop
      vertex -0.825 39.4289 3.6
      vertex 0.825 39.4289 4.6
      vertex -0.825 39.4289 4.6
    endloop
  endfacet
  facet normal 0 -1 -0
    outer loop
      vertex 0.825 39.4289 4.6
      vertex -0.825 39.4289 3.6
      vertex 0.825 39.4289 3.6
    endloop
  endfacet
  facet normal -0.866019 0.500011 0
    outer loop
      vertex 0.825 36.5711 3.6
      vertex 1.65 38 4.6
      vertex 1.65 38 3.6
    endloop
  endfacet
  facet normal -0.866019 0.500011 0
    outer loop
      vertex 1.65 38 4.6
      vertex 0.825 36.5711 3.6
      vertex 0.825 36.5711 4.6
    endloop
  endfacet
  facet normal 0 0 1
    outer loop
      vertex 0.825 39.4289 3.6
      vertex 0.825 36.5711 3.6
      vertex 1.65 38 3.6
    endloop
  endfacet
  facet normal -0 0 1
    outer loop
      vertex -0.825 39.4289 3.6
      vertex 0.825 36.5711 3.6
      vertex 0.825 39.4289 3.6
    endloop
  endfacet
  facet normal 0 0 1
    outer loop
      vertex -0.825 39.4289 3.6
      vertex -0.825 36.5711 3.6
      vertex 0.825 36.5711 3.6
    endloop
  endfacet
  facet normal 0 -0 1
    outer loop
      vertex -0.825 36.5711 3.6
      vertex -0.825 39.4289 3.6
      vertex -1.65 38 3.6
    endloop
  endfacet
  facet normal 0 1 -0
    outer loop
      vertex 0.825 36.5711 3.6
      vertex -0.825 36.5711 4.6
      vertex 0.825 36.5711 4.6
    endloop
  endfacet
  facet normal 0 1 0
    outer loop
      vertex -0.825 36.5711 4.6
      vertex 0.825 36.5711 3.6
      vertex -0.825 36.5711 3.6
    endloop
  endfacet
  facet normal 0.866019 0.500011 0
    outer loop
      vertex -0.825 36.5711 4.6
      vertex -1.65 38 3.6
      vertex -1.65 38 4.6
    endloop
  endfacet
  facet normal 0.866019 0.500011 0
    outer loop
      vertex -1.65 38 3.6
      vertex -0.825 36.5711 4.6
      vertex -0.825 36.5711 3.6
    endloop
  endfacet
  facet normal -0.951055 -0.309022 0
    outer loop
      vertex 3.15 38 0
      vertex 2.5484 39.8515 3.4
      vertex 2.5484 39.8515 0
    endloop
  endfacet
  facet normal -0.951055 -0.309022 0
    outer loop
      vertex 2.5484 39.8515 3.4
      vertex 3.15 38 0
      vertex 3.15 38 3.4
    endloop
  endfacet
  facet normal 0.951055 -0.309022 0
    outer loop
      vertex -3.15 38 3.4
      vertex -2.5484 39.8515 0
      vertex -2.5484 39.8515 3.4
    endloop
  endfacet
  facet normal 0.951055 -0.309022 0
    outer loop
      vertex -2.5484 39.8515 0
      vertex -3.15 38 3.4
      vertex -3.15 38 0
    endloop
  endfacet
  facet normal 0 -1 0
    outer loop
      vertex -0.973403 40.9958 0
      vertex 0.973403 40.9958 3.4
      vertex -0.973403 40.9958 3.4
    endloop
  endfacet
  facet normal 0 -1 -0
    outer loop
      vertex 0.973403 40.9958 3.4
      vertex -0.973403 40.9958 0
      vertex 0.973403 40.9958 0
    endloop
  endfacet
  facet normal -0.587784 -0.809018 0
    outer loop
      vertex 0.973403 40.9958 0
      vertex 2.5484 39.8515 3.4
      vertex 0.973403 40.9958 3.4
    endloop
  endfacet
  facet normal -0.587784 -0.809018 -0
    outer loop
      vertex 2.5484 39.8515 3.4
      vertex 0.973403 40.9958 0
      vertex 2.5484 39.8515 0
    endloop
  endfacet
  facet normal 0 0 -1
    outer loop
      vertex 2.5484 36.1485 3.4
      vertex 2.5484 39.8515 3.4
      vertex 3.15 38 3.4
    endloop
  endfacet
  facet normal 0 0 -1
    outer loop
      vertex 0.973403 35.0042 3.4
      vertex 2.5484 39.8515 3.4
      vertex 2.5484 36.1485 3.4
    endloop
  endfacet
  facet normal 0 0 -1
    outer loop
      vertex 0.973403 35.0042 3.4
      vertex 0.973403 40.9958 3.4
      vertex 2.5484 39.8515 3.4
    endloop
  endfacet
  facet normal 0 0 -1
    outer loop
      vertex -0.973403 35.0042 3.4
      vertex 0.973403 40.9958 3.4
      vertex 0.973403 35.0042 3.4
    endloop
  endfacet
  facet normal 0 0 -1
    outer loop
      vertex -0.973403 35.0042 3.4
      vertex -0.973403 40.9958 3.4
      vertex 0.973403 40.9958 3.4
    endloop
  endfacet
  facet normal 0 0 -1
    outer loop
      vertex -2.5484 36.1485 3.4
      vertex -0.973403 40.9958 3.4
      vertex -0.973403 35.0042 3.4
    endloop
  endfacet
  facet normal 0 0 -1
    outer loop
      vertex -2.5484 36.1485 3.4
      vertex -2.5484 39.8515 3.4
      vertex -0.973403 40.9958 3.4
    endloop
  endfacet
  facet normal 0 -0 -1
    outer loop
      vertex -2.5484 39.8515 3.4
      vertex -2.5484 36.1485 3.4
      vertex -3.15 38 3.4
    endloop
  endfacet
  facet normal 0.587784 -0.809018 0
    outer loop
      vertex -2.5484 39.8515 0
      vertex -0.973403 40.9958 3.4
      vertex -2.5484 39.8515 3.4
    endloop
  endfacet
  facet normal 0.587784 -0.809018 0
    outer loop
      vertex -0.973403 40.9958 3.4
      vertex -2.5484 39.8515 0
      vertex -0.973403 40.9958 0
    endloop
  endfacet
  facet normal 0 1 -0
    outer loop
      vertex 0.973403 35.0042 0
      vertex -0.973403 35.0042 3.4
      vertex 0.973403 35.0042 3.4
    endloop
  endfacet
  facet normal 0 1 0
    outer loop
      vertex -0.973403 35.0042 3.4
      vertex 0.973403 35.0042 0
      vertex -0.973403 35.0042 0
    endloop
  endfacet
  facet normal -0.587784 0.809018 0
    outer loop
      vertex 2.5484 36.1485 0
      vertex 0.973403 35.0042 3.4
      vertex 2.5484 36.1485 3.4
    endloop
  endfacet
  facet normal -0.587784 0.809018 0
    outer loop
      vertex 0.973403 35.0042 3.4
      vertex 2.5484 36.1485 0
      vertex 0.973403 35.0042 0
    endloop
  endfacet
  facet normal -0.951055 0.309022 0
    outer loop
      vertex 2.5484 36.1485 0
      vertex 3.15 38 3.4
      vertex 3.15 38 0
    endloop
  endfacet
  facet normal -0.951055 0.309022 0
    outer loop
      vertex 3.15 38 3.4
      vertex 2.5484 36.1485 0
      vertex 2.5484 36.1485 3.4
    endloop
  endfacet
  facet normal 0.587784 0.809018 -0
    outer loop
      vertex -0.973403 35.0042 0
      vertex -2.5484 36.1485 3.4
      vertex -0.973403 35.0042 3.4
    endloop
  endfacet
  facet normal 0.587784 0.809018 0
    outer loop
      vertex -2.5484 36.1485 3.4
      vertex -0.973403 35.0042 0
      vertex -2.5484 36.1485 0
    endloop
  endfacet
  facet normal 0.951055 0.309022 0
    outer loop
      vertex -2.5484 36.1485 3.4
      vertex -3.15 38 0
      vertex -3.15 38 3.4
    endloop
  endfacet
  facet normal 0.951055 0.309022 0
    outer loop
      vertex -3.15 38 0
      vertex -2.5484 36.1485 3.4
      vertex -2.5484 36.1485 0
    endloop
  endfacet
  facet normal -0.866027 -0.499997 0
    outer loop
      vertex 3.15 38 4.6
      vertex 1.575 40.728 8
      vertex 1.575 40.728 4.6
    endloop
  endfacet
  facet normal -0.866027 -0.499997 0
    outer loop
      vertex 1.575 40.728 8
      vertex 3.15 38 4.6
      vertex 3.15 38 8
    endloop
  endfacet
  facet normal 0.866027 -0.499997 0
    outer loop
      vertex -3.15 38 8
      vertex -1.575 40.728 4.6
      vertex -1.575 40.728 8
    endloop
  endfacet
  facet normal 0.866027 -0.499997 0
    outer loop
      vertex -1.575 40.728 4.6
      vertex -3.15 38 8
      vertex -3.15 38 4.6
    endloop
  endfacet
  facet normal 0 -1 0
    outer loop
      vertex -1.575 40.728 4.6
      vertex 1.575 40.728 8
      vertex -1.575 40.728 8
    endloop
  endfacet
  facet normal 0 -1 -0
    outer loop
      vertex 1.575 40.728 8
      vertex -1.575 40.728 4.6
      vertex 1.575 40.728 4.6
    endloop
  endfacet
  facet normal -0.866027 0.499997 0
    outer loop
      vertex 1.575 35.272 4.6
      vertex 3.15 38 8
      vertex 3.15 38 4.6
    endloop
  endfacet
  facet normal -0.866027 0.499997 0
    outer loop
      vertex 3.15 38 8
      vertex 1.575 35.272 4.6
      vertex 1.575 35.272 8
    endloop
  endfacet
  facet normal 0 0 1
    outer loop
      vertex 1.575 40.728 4.6
      vertex 1.65 38 4.6
      vertex 3.15 38 4.6
    endloop
  endfacet
  facet normal 0 0 1
    outer loop
      vertex 1.575 40.728 4.6
      vertex 0.825 39.4289 4.6
      vertex 1.65 38 4.6
    endloop
  endfacet
  facet normal 0 0 1
    outer loop
      vertex 1.575 40.728 4.6
      vertex -0.825 39.4289 4.6
      vertex 0.825 39.4289 4.6
    endloop
  endfacet
  facet normal -0 0 1
    outer loop
      vertex -1.575 40.728 4.6
      vertex -0.825 39.4289 4.6
      vertex 1.575 40.728 4.6
    endloop
  endfacet
  facet normal 0 0 1
    outer loop
      vertex -1.575 40.728 4.6
      vertex -1.65 38 4.6
      vertex -0.825 39.4289 4.6
    endloop
  endfacet
  facet normal 0 -0 1
    outer loop
      vertex -1.65 38 4.6
      vertex -1.575 40.728 4.6
      vertex -3.15 38 4.6
    endloop
  endfacet
  facet normal -0 0 1
    outer loop
      vertex 1.65 38 4.6
      vertex 1.575 35.272 4.6
      vertex 3.15 38 4.6
    endloop
  endfacet
  facet normal -0 0 1
    outer loop
      vertex 0.825 36.5711 4.6
      vertex 1.575 35.272 4.6
      vertex 1.65 38 4.6
    endloop
  endfacet
  facet normal -0 0 1
    outer loop
      vertex -0.825 36.5711 4.6
      vertex 1.575 35.272 4.6
      vertex 0.825 36.5711 4.6
    endloop
  endfacet
  facet normal 0 0 1
    outer loop
      vertex -0.825 36.5711 4.6
      vertex -1.575 35.272 4.6
      vertex 1.575 35.272 4.6
    endloop
  endfacet
  facet normal 0 0 1
    outer loop
      vertex -1.65 38 4.6
      vertex -1.575 35.272 4.6
      vertex -0.825 36.5711 4.6
    endloop
  endfacet
  facet normal 0 0 1
    outer loop
      vertex -1.575 35.272 4.6
      vertex -1.65 38 4.6
      vertex -3.15 38 4.6
    endloop
  endfacet
  facet normal 0 1 -0
    outer loop
      vertex 1.575 35.272 4.6
      vertex -1.575 35.272 8
      vertex 1.575 35.272 8
    endloop
  endfacet
  facet normal 0 1 0
    outer loop
      vertex -1.575 35.272 8
      vertex 1.575 35.272 4.6
      vertex -1.575 35.272 4.6
    endloop
  endfacet
  facet normal 0.866027 0.499997 0
    outer loop
      vertex -1.575 35.272 8
      vertex -3.15 38 4.6
      vertex -3.15 38 8
    endloop
  endfacet
  facet normal 0.866027 0.499997 0
    outer loop
      vertex -3.15 38 4.6
      vertex -1.575 35.272 8
      vertex -1.575 35.272 4.6
    endloop
  endfacet
  facet normal 0 -0.1403 0.990109
    outer loop
      vertex -7.5 30.1354 4.70259
      vertex 7.5 28 4.4
      vertex 7.5 30.1354 4.70259
    endloop
  endfacet
  facet normal 0 -0.1403 0.990109
    outer loop
      vertex 7.5 28 4.4
      vertex -7.5 30.1354 4.70259
      vertex -7.5 28 4.4
    endloop
  endfacet
  facet normal 0 -0.435927 0.899982
    outer loop
      vertex -7.5 31.9015 5.55804
      vertex 7.5 30.1354 4.70259
      vertex 7.5 31.9015 5.55804
    endloop
  endfacet
  facet normal 0 -0.435927 0.899982
    outer loop
      vertex 7.5 30.1354 4.70259
      vertex -7.5 31.9015 5.55804
      vertex -7.5 30.1354 4.70259
    endloop
  endfacet
  facet normal 0 -0.987797 0.155749
    outer loop
      vertex -7.5 32.993 6.81844
      vertex 7.5 33.1793 8
      vertex -7.5 33.1793 8
    endloop
  endfacet
  facet normal 0 -0.987797 0.155749
    outer loop
      vertex 7.5 33.1793 8
      vertex -7.5 32.993 6.81844
      vertex 7.5 32.993 6.81844
    endloop
  endfacet
  facet normal 0 -0.75594 0.654641
    outer loop
      vertex -7.5 31.9015 5.55804
      vertex 7.5 32.993 6.81844
      vertex -7.5 32.993 6.81844
    endloop
  endfacet
  facet normal 0 -0.75594 0.654641
    outer loop
      vertex 7.5 32.993 6.81844
      vertex -7.5 31.9015 5.55804
      vertex 7.5 31.9015 5.55804
    endloop
  endfacet
  facet normal 0 0.75594 0.654641
    outer loop
      vertex 7.5 24.0985 5.55804
      vertex -7.5 23.007 6.81844
      vertex 7.5 23.007 6.81844
    endloop
  endfacet
  facet normal 0 0.75594 0.654641
    outer loop
      vertex -7.5 23.007 6.81844
      vertex 7.5 24.0985 5.55804
      vertex -7.5 24.0985 5.55804
    endloop
  endfacet
  facet normal -0 0.435927 0.899982
    outer loop
      vertex -7.5 25.8646 4.70259
      vertex 7.5 24.0985 5.55804
      vertex 7.5 25.8646 4.70259
    endloop
  endfacet
  facet normal 0 0.435927 0.899982
    outer loop
      vertex 7.5 24.0985 5.55804
      vertex -7.5 25.8646 4.70259
      vertex -7.5 24.0985 5.55804
    endloop
  endfacet
  facet normal -0 0.1403 0.990109
    outer loop
      vertex -7.5 28 4.4
      vertex 7.5 25.8646 4.70259
      vertex 7.5 28 4.4
    endloop
  endfacet
  facet normal 0 0.1403 0.990109
    outer loop
      vertex 7.5 25.8646 4.70259
      vertex -7.5 28 4.4
      vertex -7.5 25.8646 4.70259
    endloop
  endfacet
  facet normal -1 0 0
    outer loop
      vertex -7.5 32.993 6.81844
      vertex -7.5 43.5 8
      vertex -7.5 43.5 0
    endloop
  endfacet
  facet normal -1 -0 0
    outer loop
      vertex -7.5 43.5 8
      vertex -7.5 32.993 6.81844
      vertex -7.5 33.1793 8
    endloop
  endfacet
  facet normal -1 0 0
    outer loop
      vertex -7.5 43.5 0
      vertex -7.5 31.9015 5.55804
      vertex -7.5 32.993 6.81844
    endloop
  endfacet
  facet normal -1 0 0
    outer loop
      vertex -7.5 43.5 0
      vertex -7.5 30.1354 4.70259
      vertex -7.5 31.9015 5.55804
    endloop
  endfacet
  facet normal -1 0 0
    outer loop
      vertex -7.5 43.5 0
      vertex -7.5 28 4.4
      vertex -7.5 30.1354 4.70259
    endloop
  endfacet
  facet normal -1 0 0
    outer loop
      vertex -7.5 43.5 0
      vertex -7.5 25.8646 4.70259
      vertex -7.5 28 4.4
    endloop
  endfacet
  facet normal -1 0 0
    outer loop
      vertex -7.5 23.007 6.81844
      vertex -7.5 -22.8207 8
      vertex -7.5 22.8207 8
    endloop
  endfacet
  facet normal -1 0 0
    outer loop
      vertex -7.5 -23.007 6.81844
      vertex -7.5 23.007 6.81844
      vertex -7.5 24.0985 5.55804
    endloop
  endfacet
  facet normal -1 0 0
    outer loop
      vertex -7.5 -24.0985 5.55804
      vertex -7.5 24.0985 5.55804
      vertex -7.5 25.8646 4.70259
    endloop
  endfacet
  facet normal -1 0 0
    outer loop
      vertex -7.5 -25.8646 4.70259
      vertex -7.5 25.8646 4.70259
      vertex -7.5 43.5 0
    endloop
  endfacet
  facet normal -1 0 0
    outer loop
      vertex -7.5 23.007 6.81844
      vertex -7.5 -23.007 6.81844
      vertex -7.5 -22.8207 8
    endloop
  endfacet
  facet normal -1 0 0
    outer loop
      vertex -7.5 24.0985 5.55804
      vertex -7.5 -24.0985 5.55804
      vertex -7.5 -23.007 6.81844
    endloop
  endfacet
  facet normal -1 0 0
    outer loop
      vertex -7.5 25.8646 4.70259
      vertex -7.5 -25.8646 4.70259
      vertex -7.5 -24.0985 5.55804
    endloop
  endfacet
  facet normal -1 0 0
    outer loop
      vertex -7.5 -43.5 0
      vertex -7.5 -25.8646 4.70259
      vertex -7.5 43.5 0
    endloop
  endfacet
  facet normal -1 0 0
    outer loop
      vertex -7.5 -25.8646 4.70259
      vertex -7.5 -43.5 0
      vertex -7.5 -28 4.4
    endloop
  endfacet
  facet normal -1 0 0
    outer loop
      vertex -7.5 -43.5 0
      vertex -7.5 -30.1354 4.70259
      vertex -7.5 -28 4.4
    endloop
  endfacet
  facet normal -1 0 0
    outer loop
      vertex -7.5 -43.5 0
      vertex -7.5 -31.9015 5.55804
      vertex -7.5 -30.1354 4.70259
    endloop
  endfacet
  facet normal -1 0 0
    outer loop
      vertex -7.5 -43.5 0
      vertex -7.5 -32.993 6.81844
      vertex -7.5 -31.9015 5.55804
    endloop
  endfacet
  facet normal -1 0 0
    outer loop
      vertex -7.5 -43.5 8
      vertex -7.5 -32.993 6.81844
      vertex -7.5 -43.5 0
    endloop
  endfacet
  facet normal -1 0 0
    outer loop
      vertex -7.5 -32.993 6.81844
      vertex -7.5 -43.5 8
      vertex -7.5 -33.1793 8
    endloop
  endfacet
  facet normal 0 0.987797 0.155749
    outer loop
      vertex 7.5 23.007 6.81844
      vertex -7.5 22.8207 8
      vertex 7.5 22.8207 8
    endloop
  endfacet
  facet normal 0 0.987797 0.155749
    outer loop
      vertex -7.5 22.8207 8
      vertex 7.5 23.007 6.81844
      vertex -7.5 23.007 6.81844
    endloop
  endfacet
  facet normal -0.866019 -0.500011 0
    outer loop
      vertex 1.65 18 3.6
      vertex 0.825 19.4289 4.6
      vertex 0.825 19.4289 3.6
    endloop
  endfacet
  facet normal -0.866019 -0.500011 0
    outer loop
      vertex 0.825 19.4289 4.6
      vertex 1.65 18 3.6
      vertex 1.65 18 4.6
    endloop
  endfacet
  facet normal 0.866019 -0.500011 0
    outer loop
      vertex -1.65 18 4.6
      vertex -0.825 19.4289 3.6
      vertex -0.825 19.4289 4.6
    endloop
  endfacet
  facet normal 0.866019 -0.500011 0
    outer loop
      vertex -0.825 19.4289 3.6
      vertex -1.65 18 4.6
      vertex -1.65 18 3.6
    endloop
  endfacet
  facet normal 0 -1 0
    outer loop
      vertex -0.825 19.4289 3.6
      vertex 0.825 19.4289 4.6
      vertex -0.825 19.4289 4.6
    endloop
  endfacet
  facet normal 0 -1 -0
    outer loop
      vertex 0.825 19.4289 4.6
      vertex -0.825 19.4289 3.6
      vertex 0.825 19.4289 3.6
    endloop
  endfacet
  facet normal 0 0 1
    outer loop
      vertex 0.825 19.4289 3.6
      vertex 0.825 16.5711 3.6
      vertex 1.65 18 3.6
    endloop
  endfacet
  facet normal -0 0 1
    outer loop
      vertex -0.825 19.4289 3.6
      vertex 0.825 16.5711 3.6
      vertex 0.825 19.4289 3.6
    endloop
  endfacet
  facet normal 0 0 1
    outer loop
      vertex -0.825 19.4289 3.6
      vertex -0.825 16.5711 3.6
      vertex 0.825 16.5711 3.6
    endloop
  endfacet
  facet normal 0 -0 1
    outer loop
      vertex -0.825 16.5711 3.6
      vertex -0.825 19.4289 3.6
      vertex -1.65 18 3.6
    endloop
  endfacet
  facet normal 0 1 -0
    outer loop
      vertex 0.825 16.5711 3.6
      vertex -0.825 16.5711 4.6
      vertex 0.825 16.5711 4.6
    endloop
  endfacet
  facet normal 0 1 0
    outer loop
      vertex -0.825 16.5711 4.6
      vertex 0.825 16.5711 3.6
      vertex -0.825 16.5711 3.6
    endloop
  endfacet
  facet normal 0.866019 0.500011 0
    outer loop
      vertex -0.825 16.5711 4.6
      vertex -1.65 18 3.6
      vertex -1.65 18 4.6
    endloop
  endfacet
  facet normal 0.866019 0.500011 0
    outer loop
      vertex -1.65 18 3.6
      vertex -0.825 16.5711 4.6
      vertex -0.825 16.5711 3.6
    endloop
  endfacet
  facet normal -0.866019 0.500011 0
    outer loop
      vertex 0.825 16.5711 3.6
      vertex 1.65 18 4.6
      vertex 1.65 18 3.6
    endloop
  endfacet
  facet normal -0.866019 0.500011 0
    outer loop
      vertex 1.65 18 4.6
      vertex 0.825 16.5711 3.6
      vertex 0.825 16.5711 4.6
    endloop
  endfacet
  facet normal -0.951055 -0.309022 0
    outer loop
      vertex 3.15 18 0
      vertex 2.5484 19.8515 3.4
      vertex 2.5484 19.8515 0
    endloop
  endfacet
  facet normal -0.951055 -0.309022 0
    outer loop
      vertex 2.5484 19.8515 3.4
      vertex 3.15 18 0
      vertex 3.15 18 3.4
    endloop
  endfacet
  facet normal 0.951055 -0.309022 0
    outer loop
      vertex -3.15 18 3.4
      vertex -2.5484 19.8515 0
      vertex -2.5484 19.8515 3.4
    endloop
  endfacet
  facet normal 0.951055 -0.309022 0
    outer loop
      vertex -2.5484 19.8515 0
      vertex -3.15 18 3.4
      vertex -3.15 18 0
    endloop
  endfacet
  facet normal 0 -1 0
    outer loop
      vertex -0.973403 20.9958 0
      vertex 0.973403 20.9958 3.4
      vertex -0.973403 20.9958 3.4
    endloop
  endfacet
  facet normal 0 -1 -0
    outer loop
      vertex 0.973403 20.9958 3.4
      vertex -0.973403 20.9958 0
      vertex 0.973403 20.9958 0
    endloop
  endfacet
  facet normal -0.587784 -0.809018 0
    outer loop
      vertex 0.973403 20.9958 0
      vertex 2.5484 19.8515 3.4
      vertex 0.973403 20.9958 3.4
    endloop
  endfacet
  facet normal -0.587784 -0.809018 -0
    outer loop
      vertex 2.5484 19.8515 3.4
      vertex 0.973403 20.9958 0
      vertex 2.5484 19.8515 0
    endloop
  endfacet
  facet normal 0 0 -1
    outer loop
      vertex 2.5484 16.1485 3.4
      vertex 2.5484 19.8515 3.4
      vertex 3.15 18 3.4
    endloop
  endfacet
  facet normal 0 0 -1
    outer loop
      vertex 0.973403 15.0042 3.4
      vertex 2.5484 19.8515 3.4
      vertex 2.5484 16.1485 3.4
    endloop
  endfacet
  facet normal 0 0 -1
    outer loop
      vertex 0.973403 15.0042 3.4
      vertex 0.973403 20.9958 3.4
      vertex 2.5484 19.8515 3.4
    endloop
  endfacet
  facet normal 0 0 -1
    outer loop
      vertex -0.973403 15.0042 3.4
      vertex 0.973403 20.9958 3.4
      vertex 0.973403 15.0042 3.4
    endloop
  endfacet
  facet normal 0 0 -1
    outer loop
      vertex -0.973403 15.0042 3.4
      vertex -0.973403 20.9958 3.4
      vertex 0.973403 20.9958 3.4
    endloop
  endfacet
  facet normal 0 0 -1
    outer loop
      vertex -2.5484 16.1485 3.4
      vertex -0.973403 20.9958 3.4
      vertex -0.973403 15.0042 3.4
    endloop
  endfacet
  facet normal 0 0 -1
    outer loop
      vertex -2.5484 16.1485 3.4
      vertex -2.5484 19.8515 3.4
      vertex -0.973403 20.9958 3.4
    endloop
  endfacet
  facet normal 0 -0 -1
    outer loop
      vertex -2.5484 19.8515 3.4
      vertex -2.5484 16.1485 3.4
      vertex -3.15 18 3.4
    endloop
  endfacet
  facet normal 0.587784 -0.809018 0
    outer loop
      vertex -2.5484 19.8515 0
      vertex -0.973403 20.9958 3.4
      vertex -2.5484 19.8515 3.4
    endloop
  endfacet
  facet normal 0.587784 -0.809018 0
    outer loop
      vertex -0.973403 20.9958 3.4
      vertex -2.5484 19.8515 0
      vertex -0.973403 20.9958 0
    endloop
  endfacet
  facet normal 0 1 -0
    outer loop
      vertex 0.973403 15.0042 0
      vertex -0.973403 15.0042 3.4
      vertex 0.973403 15.0042 3.4
    endloop
  endfacet
  facet normal 0 1 0
    outer loop
      vertex -0.973403 15.0042 3.4
      vertex 0.973403 15.0042 0
      vertex -0.973403 15.0042 0
    endloop
  endfacet
  facet normal -0.587784 0.809018 0
    outer loop
      vertex 2.5484 16.1485 0
      vertex 0.973403 15.0042 3.4
      vertex 2.5484 16.1485 3.4
    endloop
  endfacet
  facet normal -0.587784 0.809018 0
    outer loop
      vertex 0.973403 15.0042 3.4
      vertex 2.5484 16.1485 0
      vertex 0.973403 15.0042 0
    endloop
  endfacet
  facet normal -0.951055 0.309022 0
    outer loop
      vertex 2.5484 16.1485 0
      vertex 3.15 18 3.4
      vertex 3.15 18 0
    endloop
  endfacet
  facet normal -0.951055 0.309022 0
    outer loop
      vertex 3.15 18 3.4
      vertex 2.5484 16.1485 0
      vertex 2.5484 16.1485 3.4
    endloop
  endfacet
  facet normal 0.951055 0.309022 0
    outer loop
      vertex -2.5484 16.1485 3.4
      vertex -3.15 18 0
      vertex -3.15 18 3.4
    endloop
  endfacet
  facet normal 0.951055 0.309022 0
    outer loop
      vertex -3.15 18 0
      vertex -2.5484 16.1485 3.4
      vertex -2.5484 16.1485 0
    endloop
  endfacet
  facet normal 0.587784 0.809018 -0
    outer loop
      vertex -0.973403 15.0042 0
      vertex -2.5484 16.1485 3.4
      vertex -0.973403 15.0042 3.4
    endloop
  endfacet
  facet normal 0.587784 0.809018 0
    outer loop
      vertex -2.5484 16.1485 3.4
      vertex -0.973403 15.0042 0
      vertex -2.5484 16.1485 0
    endloop
  endfacet
  facet normal -0.866027 -0.499997 0
    outer loop
      vertex 3.15 18 4.6
      vertex 1.575 20.728 8
      vertex 1.575 20.728 4.6
    endloop
  endfacet
  facet normal -0.866027 -0.499997 0
    outer loop
      vertex 1.575 20.728 8
      vertex 3.15 18 4.6
      vertex 3.15 18 8
    endloop
  endfacet
  facet normal 0.866027 -0.499997 0
    outer loop
      vertex -3.15 18 8
      vertex -1.575 20.728 4.6
      vertex -1.575 20.728 8
    endloop
  endfacet
  facet normal 0.866027 -0.499997 0
    outer loop
      vertex -1.575 20.728 4.6
      vertex -3.15 18 8
      vertex -3.15 18 4.6
    endloop
  endfacet
  facet normal 0 -1 0
    outer loop
      vertex -1.575 20.728 4.6
      vertex 1.575 20.728 8
      vertex -1.575 20.728 8
    endloop
  endfacet
  facet normal 0 -1 -0
    outer loop
      vertex 1.575 20.728 8
      vertex -1.575 20.728 4.6
      vertex 1.575 20.728 4.6
    endloop
  endfacet
  facet normal 0 0 1
    outer loop
      vertex 1.575 20.728 4.6
      vertex 1.65 18 4.6
      vertex 3.15 18 4.6
    endloop
  endfacet
  facet normal 0 0 1
    outer loop
      vertex 1.575 20.728 4.6
      vertex 0.825 19.4289 4.6
      vertex 1.65 18 4.6
    endloop
  endfacet
  facet normal 0 0 1
    outer loop
      vertex 1.575 20.728 4.6
      vertex -0.825 19.4289 4.6
      vertex 0.825 19.4289 4.6
    endloop
  endfacet
  facet normal -0 0 1
    outer loop
      vertex -1.575 20.728 4.6
      vertex -0.825 19.4289 4.6
      vertex 1.575 20.728 4.6
    endloop
  endfacet
  facet normal 0 0 1
    outer loop
      vertex -1.575 20.728 4.6
      vertex -1.65 18 4.6
      vertex -0.825 19.4289 4.6
    endloop
  endfacet
  facet normal 0 -0 1
    outer loop
      vertex -1.65 18 4.6
      vertex -1.575 20.728 4.6
      vertex -3.15 18 4.6
    endloop
  endfacet
  facet normal -0 0 1
    outer loop
      vertex 1.65 18 4.6
      vertex 1.575 15.272 4.6
      vertex 3.15 18 4.6
    endloop
  endfacet
  facet normal -0 0 1
    outer loop
      vertex 0.825 16.5711 4.6
      vertex 1.575 15.272 4.6
      vertex 1.65 18 4.6
    endloop
  endfacet
  facet normal -0 0 1
    outer loop
      vertex -0.825 16.5711 4.6
      vertex 1.575 15.272 4.6
      vertex 0.825 16.5711 4.6
    endloop
  endfacet
  facet normal 0 0 1
    outer loop
      vertex -0.825 16.5711 4.6
      vertex -1.575 15.272 4.6
      vertex 1.575 15.272 4.6
    endloop
  endfacet
  facet normal 0 0 1
    outer loop
      vertex -1.65 18 4.6
      vertex -1.575 15.272 4.6
      vertex -0.825 16.5711 4.6
    endloop
  endfacet
  facet normal 0 0 1
    outer loop
      vertex -1.575 15.272 4.6
      vertex -1.65 18 4.6
      vertex -3.15 18 4.6
    endloop
  endfacet
  facet normal 0 1 -0
    outer loop
      vertex 1.575 15.272 4.6
      vertex -1.575 15.272 8
      vertex 1.575 15.272 8
    endloop
  endfacet
  facet normal 0 1 0
    outer loop
      vertex -1.575 15.272 8
      vertex 1.575 15.272 4.6
      vertex -1.575 15.272 4.6
    endloop
  endfacet
  facet normal 0.866027 0.499997 0
    outer loop
      vertex -1.575 15.272 8
      vertex -3.15 18 4.6
      vertex -3.15 18 8
    endloop
  endfacet
  facet normal 0.866027 0.499997 0
    outer loop
      vertex -3.15 18 4.6
      vertex -1.575 15.272 8
      vertex -1.575 15.272 4.6
    endloop
  endfacet
  facet normal -0.866027 0.499997 0
    outer loop
      vertex 1.575 15.272 4.6
      vertex 3.15 18 8
      vertex 3.15 18 4.6
    endloop
  endfacet
  facet normal -0.866027 0.499997 0
    outer loop
      vertex 3.15 18 8
      vertex 1.575 15.272 4.6
      vertex 1.575 15.272 8
    endloop
  endfacet
  facet normal -0.866019 -0.500011 0
    outer loop
      vertex 1.65 -38 3.6
      vertex 0.825 -36.5711 4.6
      vertex 0.825 -36.5711 3.6
    endloop
  endfacet
  facet normal -0.866019 -0.500011 0
    outer loop
      vertex 0.825 -36.5711 4.6
      vertex 1.65 -38 3.6
      vertex 1.65 -38 4.6
    endloop
  endfacet
  facet normal 0.866019 -0.500011 0
    outer loop
      vertex -1.65 -38 4.6
      vertex -0.825 -36.5711 3.6
      vertex -0.825 -36.5711 4.6
    endloop
  endfacet
  facet normal 0.866019 -0.500011 0
    outer loop
      vertex -0.825 -36.5711 3.6
      vertex -1.65 -38 4.6
      vertex -1.65 -38 3.6
    endloop
  endfacet
  facet normal 0 -1 0
    outer loop
      vertex -0.825 -36.5711 3.6
      vertex 0.825 -36.5711 4.6
      vertex -0.825 -36.5711 4.6
    endloop
  endfacet
  facet normal 0 -1 -0
    outer loop
      vertex 0.825 -36.5711 4.6
      vertex -0.825 -36.5711 3.6
      vertex 0.825 -36.5711 3.6
    endloop
  endfacet
  facet normal -0.866019 0.500011 0
    outer loop
      vertex 0.825 -39.4289 3.6
      vertex 1.65 -38 4.6
      vertex 1.65 -38 3.6
    endloop
  endfacet
  facet normal -0.866019 0.500011 0
    outer loop
      vertex 1.65 -38 4.6
      vertex 0.825 -39.4289 3.6
      vertex 0.825 -39.4289 4.6
    endloop
  endfacet
  facet normal 0 0 1
    outer loop
      vertex 0.825 -36.5711 3.6
      vertex 0.825 -39.4289 3.6
      vertex 1.65 -38 3.6
    endloop
  endfacet
  facet normal -0 0 1
    outer loop
      vertex -0.825 -36.5711 3.6
      vertex 0.825 -39.4289 3.6
      vertex 0.825 -36.5711 3.6
    endloop
  endfacet
  facet normal 0 0 1
    outer loop
      vertex -0.825 -36.5711 3.6
      vertex -0.825 -39.4289 3.6
      vertex 0.825 -39.4289 3.6
    endloop
  endfacet
  facet normal 0 -0 1
    outer loop
      vertex -0.825 -39.4289 3.6
      vertex -0.825 -36.5711 3.6
      vertex -1.65 -38 3.6
    endloop
  endfacet
  facet normal 0 1 -0
    outer loop
      vertex 0.825 -39.4289 3.6
      vertex -0.825 -39.4289 4.6
      vertex 0.825 -39.4289 4.6
    endloop
  endfacet
  facet normal 0 1 0
    outer loop
      vertex -0.825 -39.4289 4.6
      vertex 0.825 -39.4289 3.6
      vertex -0.825 -39.4289 3.6
    endloop
  endfacet
  facet normal 0.866019 0.500011 0
    outer loop
      vertex -0.825 -39.4289 4.6
      vertex -1.65 -38 3.6
      vertex -1.65 -38 4.6
    endloop
  endfacet
  facet normal 0.866019 0.500011 0
    outer loop
      vertex -1.65 -38 3.6
      vertex -0.825 -39.4289 4.6
      vertex -0.825 -39.4289 3.6
    endloop
  endfacet
  facet normal -0.951055 -0.309022 0
    outer loop
      vertex 3.15 -38 0
      vertex 2.5484 -36.1485 3.4
      vertex 2.5484 -36.1485 0
    endloop
  endfacet
  facet normal -0.951055 -0.309022 0
    outer loop
      vertex 2.5484 -36.1485 3.4
      vertex 3.15 -38 0
      vertex 3.15 -38 3.4
    endloop
  endfacet
  facet normal 0.951055 -0.309022 0
    outer loop
      vertex -3.15 -38 3.4
      vertex -2.5484 -36.1485 0
      vertex -2.5484 -36.1485 3.4
    endloop
  endfacet
  facet normal 0.951055 -0.309022 0
    outer loop
      vertex -2.5484 -36.1485 0
      vertex -3.15 -38 3.4
      vertex -3.15 -38 0
    endloop
  endfacet
  facet normal 0 -1 0
    outer loop
      vertex -0.973403 -35.0042 0
      vertex 0.973403 -35.0042 3.4
      vertex -0.973403 -35.0042 3.4
    endloop
  endfacet
  facet normal 0 -1 -0
    outer loop
      vertex 0.973403 -35.0042 3.4
      vertex -0.973403 -35.0042 0
      vertex 0.973403 -35.0042 0
    endloop
  endfacet
  facet normal -0.587784 -0.809018 0
    outer loop
      vertex 0.973403 -35.0042 0
      vertex 2.5484 -36.1485 3.4
      vertex 0.973403 -35.0042 3.4
    endloop
  endfacet
  facet normal -0.587784 -0.809018 -0
    outer loop
      vertex 2.5484 -36.1485 3.4
      vertex 0.973403 -35.0042 0
      vertex 2.5484 -36.1485 0
    endloop
  endfacet
  facet normal 0 0 -1
    outer loop
      vertex 2.5484 -39.8515 3.4
      vertex 2.5484 -36.1485 3.4
      vertex 3.15 -38 3.4
    endloop
  endfacet
  facet normal 0 0 -1
    outer loop
      vertex 0.973403 -40.9958 3.4
      vertex 2.5484 -36.1485 3.4
      vertex 2.5484 -39.8515 3.4
    endloop
  endfacet
  facet normal 0 0 -1
    outer loop
      vertex 0.973403 -40.9958 3.4
      vertex 0.973403 -35.0042 3.4
      vertex 2.5484 -36.1485 3.4
    endloop
  endfacet
  facet normal 0 0 -1
    outer loop
      vertex -0.973403 -40.9958 3.4
      vertex 0.973403 -35.0042 3.4
      vertex 0.973403 -40.9958 3.4
    endloop
  endfacet
  facet normal 0 0 -1
    outer loop
      vertex -0.973403 -40.9958 3.4
      vertex -0.973403 -35.0042 3.4
      vertex 0.973403 -35.0042 3.4
    endloop
  endfacet
  facet normal 0 0 -1
    outer loop
      vertex -2.5484 -39.8515 3.4
      vertex -0.973403 -35.0042 3.4
      vertex -0.973403 -40.9958 3.4
    endloop
  endfacet
  facet normal 0 0 -1
    outer loop
      vertex -2.5484 -39.8515 3.4
      vertex -2.5484 -36.1485 3.4
      vertex -0.973403 -35.0042 3.4
    endloop
  endfacet
  facet normal 0 -0 -1
    outer loop
      vertex -2.5484 -36.1485 3.4
      vertex -2.5484 -39.8515 3.4
      vertex -3.15 -38 3.4
    endloop
  endfacet
  facet normal 0.587784 -0.809018 0
    outer loop
      vertex -2.5484 -36.1485 0
      vertex -0.973403 -35.0042 3.4
      vertex -2.5484 -36.1485 3.4
    endloop
  endfacet
  facet normal 0.587784 -0.809018 0
    outer loop
      vertex -0.973403 -35.0042 3.4
      vertex -2.5484 -36.1485 0
      vertex -0.973403 -35.0042 0
    endloop
  endfacet
  facet normal -0.951055 0.309022 0
    outer loop
      vertex 2.5484 -39.8515 0
      vertex 3.15 -38 3.4
      vertex 3.15 -38 0
    endloop
  endfacet
  facet normal -0.951055 0.309022 0
    outer loop
      vertex 3.15 -38 3.4
      vertex 2.5484 -39.8515 0
      vertex 2.5484 -39.8515 3.4
    endloop
  endfacet
  facet normal 0.951055 0.309022 0
    outer loop
      vertex -2.5484 -39.8515 3.4
      vertex -3.15 -38 0
      vertex -3.15 -38 3.4
    endloop
  endfacet
  facet normal 0.951055 0.309022 0
    outer loop
      vertex -3.15 -38 0
      vertex -2.5484 -39.8515 3.4
      vertex -2.5484 -39.8515 0
    endloop
  endfacet
  facet normal 0.587784 0.809018 -0
    outer loop
      vertex -0.973403 -40.9958 0
      vertex -2.5484 -39.8515 3.4
      vertex -0.973403 -40.9958 3.4
    endloop
  endfacet
  facet normal 0.587784 0.809018 0
    outer loop
      vertex -2.5484 -39.8515 3.4
      vertex -0.973403 -40.9958 0
      vertex -2.5484 -39.8515 0
    endloop
  endfacet
  facet normal -0.587784 0.809018 0
    outer loop
      vertex 2.5484 -39.8515 0
      vertex 0.973403 -40.9958 3.4
      vertex 2.5484 -39.8515 3.4
    endloop
  endfacet
  facet normal -0.587784 0.809018 0
    outer loop
      vertex 0.973403 -40.9958 3.4
      vertex 2.5484 -39.8515 0
      vertex 0.973403 -40.9958 0
    endloop
  endfacet
  facet normal 0 1 -0
    outer loop
      vertex 0.973403 -40.9958 0
      vertex -0.973403 -40.9958 3.4
      vertex 0.973403 -40.9958 3.4
    endloop
  endfacet
  facet normal 0 1 0
    outer loop
      vertex -0.973403 -40.9958 3.4
      vertex 0.973403 -40.9958 0
      vertex -0.973403 -40.9958 0
    endloop
  endfacet
  facet normal -0.866027 -0.499997 0
    outer loop
      vertex 3.15 -38 4.6
      vertex 1.575 -35.272 8
      vertex 1.575 -35.272 4.6
    endloop
  endfacet
  facet normal -0.866027 -0.499997 0
    outer loop
      vertex 1.575 -35.272 8
      vertex 3.15 -38 4.6
      vertex 3.15 -38 8
    endloop
  endfacet
  facet normal 0.866027 -0.499997 0
    outer loop
      vertex -3.15 -38 8
      vertex -1.575 -35.272 4.6
      vertex -1.575 -35.272 8
    endloop
  endfacet
  facet normal 0.866027 -0.499997 0
    outer loop
      vertex -1.575 -35.272 4.6
      vertex -3.15 -38 8
      vertex -3.15 -38 4.6
    endloop
  endfacet
  facet normal 0 -1 0
    outer loop
      vertex -1.575 -35.272 4.6
      vertex 1.575 -35.272 8
      vertex -1.575 -35.272 8
    endloop
  endfacet
  facet normal 0 -1 -0
    outer loop
      vertex 1.575 -35.272 8
      vertex -1.575 -35.272 4.6
      vertex 1.575 -35.272 4.6
    endloop
  endfacet
  facet normal -0.866027 0.499997 0
    outer loop
      vertex 1.575 -40.728 4.6
      vertex 3.15 -38 8
      vertex 3.15 -38 4.6
    endloop
  endfacet
  facet normal -0.866027 0.499997 0
    outer loop
      vertex 3.15 -38 8
      vertex 1.575 -40.728 4.6
      vertex 1.575 -40.728 8
    endloop
  endfacet
  facet normal 0 0 1
    outer loop
      vertex 1.575 -35.272 4.6
      vertex 1.65 -38 4.6
      vertex 3.15 -38 4.6
    endloop
  endfacet
  facet normal 0 0 1
    outer loop
      vertex 1.575 -35.272 4.6
      vertex 0.825 -36.5711 4.6
      vertex 1.65 -38 4.6
    endloop
  endfacet
  facet normal 0 0 1
    outer loop
      vertex 1.575 -35.272 4.6
      vertex -0.825 -36.5711 4.6
      vertex 0.825 -36.5711 4.6
    endloop
  endfacet
  facet normal -0 0 1
    outer loop
      vertex -1.575 -35.272 4.6
      vertex -0.825 -36.5711 4.6
      vertex 1.575 -35.272 4.6
    endloop
  endfacet
  facet normal 0 0 1
    outer loop
      vertex -1.575 -35.272 4.6
      vertex -1.65 -38 4.6
      vertex -0.825 -36.5711 4.6
    endloop
  endfacet
  facet normal 0 -0 1
    outer loop
      vertex -1.65 -38 4.6
      vertex -1.575 -35.272 4.6
      vertex -3.15 -38 4.6
    endloop
  endfacet
  facet normal -0 0 1
    outer loop
      vertex 1.65 -38 4.6
      vertex 1.575 -40.728 4.6
      vertex 3.15 -38 4.6
    endloop
  endfacet
  facet normal -0 0 1
    outer loop
      vertex 0.825 -39.4289 4.6
      vertex 1.575 -40.728 4.6
      vertex 1.65 -38 4.6
    endloop
  endfacet
  facet normal -0 0 1
    outer loop
      vertex -0.825 -39.4289 4.6
      vertex 1.575 -40.728 4.6
      vertex 0.825 -39.4289 4.6
    endloop
  endfacet
  facet normal 0 0 1
    outer loop
      vertex -0.825 -39.4289 4.6
      vertex -1.575 -40.728 4.6
      vertex 1.575 -40.728 4.6
    endloop
  endfacet
  facet normal 0 0 1
    outer loop
      vertex -1.65 -38 4.6
      vertex -1.575 -40.728 4.6
      vertex -0.825 -39.4289 4.6
    endloop
  endfacet
  facet normal 0 0 1
    outer loop
      vertex -1.575 -40.728 4.6
      vertex -1.65 -38 4.6
      vertex -3.15 -38 4.6
    endloop
  endfacet
  facet normal 0 1 -0
    outer loop
      vertex 1.575 -40.728 4.6
      vertex -1.575 -40.728 8
      vertex 1.575 -40.728 8
    endloop
  endfacet
  facet normal 0 1 0
    outer loop
      vertex -1.575 -40.728 8
      vertex 1.575 -40.728 4.6
      vertex -1.575 -40.728 4.6
    endloop
  endfacet
  facet normal 0.866027 0.499997 0
    outer loop
      vertex -1.575 -40.728 8
      vertex -3.15 -38 4.6
      vertex -3.15 -38 8
    endloop
  endfacet
  facet normal 0.866027 0.499997 0
    outer loop
      vertex -3.15 -38 4.6
      vertex -1.575 -40.728 8
      vertex -1.575 -40.728 4.6
    endloop
  endfacet
  facet normal 0 -0.1403 0.990109
    outer loop
      vertex -7.5 -25.8646 4.70259
      vertex 7.5 -28 4.4
      vertex 7.5 -25.8646 4.70259
    endloop
  endfacet
  facet normal 0 -0.1403 0.990109
    outer loop
      vertex 7.5 -28 4.4
      vertex -7.5 -25.8646 4.70259
      vertex -7.5 -28 4.4
    endloop
  endfacet
  facet normal 0 -0.987797 0.155749
    outer loop
      vertex -7.5 -23.007 6.81844
      vertex 7.5 -22.8207 8
      vertex -7.5 -22.8207 8
    endloop
  endfacet
  facet normal 0 -0.987797 0.155749
    outer loop
      vertex 7.5 -22.8207 8
      vertex -7.5 -23.007 6.81844
      vertex 7.5 -23.007 6.81844
    endloop
  endfacet
  facet normal -0 0.435927 0.899982
    outer loop
      vertex -7.5 -30.1354 4.70259
      vertex 7.5 -31.9015 5.55804
      vertex 7.5 -30.1354 4.70259
    endloop
  endfacet
  facet normal 0 0.435927 0.899982
    outer loop
      vertex 7.5 -31.9015 5.55804
      vertex -7.5 -30.1354 4.70259
      vertex -7.5 -31.9015 5.55804
    endloop
  endfacet
  facet normal 0 0.75594 0.654641
    outer loop
      vertex 7.5 -31.9015 5.55804
      vertex -7.5 -32.993 6.81844
      vertex 7.5 -32.993 6.81844
    endloop
  endfacet
  facet normal 0 0.75594 0.654641
    outer loop
      vertex -7.5 -32.993 6.81844
      vertex 7.5 -31.9015 5.55804
      vertex -7.5 -31.9015 5.55804
    endloop
  endfacet
  facet normal 0 0.987797 0.155749
    outer loop
      vertex 7.5 -32.993 6.81844
      vertex -7.5 -33.1793 8
      vertex 7.5 -33.1793 8
    endloop
  endfacet
  facet normal 0 0.987797 0.155749
    outer loop
      vertex -7.5 -33.1793 8
      vertex 7.5 -32.993 6.81844
      vertex -7.5 -32.993 6.81844
    endloop
  endfacet
  facet normal 0 -0.435927 0.899982
    outer loop
      vertex -7.5 -24.0985 5.55804
      vertex 7.5 -25.8646 4.70259
      vertex 7.5 -24.0985 5.55804
    endloop
  endfacet
  facet normal 0 -0.435927 0.899982
    outer loop
      vertex 7.5 -25.8646 4.70259
      vertex -7.5 -24.0985 5.55804
      vertex -7.5 -25.8646 4.70259
    endloop
  endfacet
  facet normal 0 -0.75594 0.654641
    outer loop
      vertex -7.5 -24.0985 5.55804
      vertex 7.5 -23.007 6.81844
      vertex -7.5 -23.007 6.81844
    endloop
  endfacet
  facet normal 0 -0.75594 0.654641
    outer loop
      vertex 7.5 -23.007 6.81844
      vertex -7.5 -24.0985 5.55804
      vertex 7.5 -24.0985 5.55804
    endloop
  endfacet
  facet normal -0 0.1403 0.990109
    outer loop
      vertex -7.5 -28 4.4
      vertex 7.5 -30.1354 4.70259
      vertex 7.5 -28 4.4
    endloop
  endfacet
  facet normal 0 0.1403 0.990109
    outer loop
      vertex 7.5 -30.1354 4.70259
      vertex -7.5 -28 4.4
      vertex -7.5 -30.1354 4.70259
    endloop
  endfacet
  facet normal -0.866019 -0.500011 0
    outer loop
      vertex 1.65 -18 3.6
      vertex 0.825 -16.5711 4.6
      vertex 0.825 -16.5711 3.6
    endloop
  endfacet
  facet normal -0.866019 -0.500011 0
    outer loop
      vertex 0.825 -16.5711 4.6
      vertex 1.65 -18 3.6
      vertex 1.65 -18 4.6
    endloop
  endfacet
  facet normal 0.866019 -0.500011 0
    outer loop
      vertex -1.65 -18 4.6
      vertex -0.825 -16.5711 3.6
      vertex -0.825 -16.5711 4.6
    endloop
  endfacet
  facet normal 0.866019 -0.500011 0
    outer loop
      vertex -0.825 -16.5711 3.6
      vertex -1.65 -18 4.6
      vertex -1.65 -18 3.6
    endloop
  endfacet
  facet normal 0 -1 0
    outer loop
      vertex -0.825 -16.5711 3.6
      vertex 0.825 -16.5711 4.6
      vertex -0.825 -16.5711 4.6
    endloop
  endfacet
  facet normal 0 -1 -0
    outer loop
      vertex 0.825 -16.5711 4.6
      vertex -0.825 -16.5711 3.6
      vertex 0.825 -16.5711 3.6
    endloop
  endfacet
  facet normal 0.866019 0.500011 0
    outer loop
      vertex -0.825 -19.4289 4.6
      vertex -1.65 -18 3.6
      vertex -1.65 -18 4.6
    endloop
  endfacet
  facet normal 0.866019 0.500011 0
    outer loop
      vertex -1.65 -18 3.6
      vertex -0.825 -19.4289 4.6
      vertex -0.825 -19.4289 3.6
    endloop
  endfacet
  facet normal 0 0 1
    outer loop
      vertex 0.825 -16.5711 3.6
      vertex 0.825 -19.4289 3.6
      vertex 1.65 -18 3.6
    endloop
  endfacet
  facet normal -0 0 1
    outer loop
      vertex -0.825 -16.5711 3.6
      vertex 0.825 -19.4289 3.6
      vertex 0.825 -16.5711 3.6
    endloop
  endfacet
  facet normal 0 0 1
    outer loop
      vertex -0.825 -16.5711 3.6
      vertex -0.825 -19.4289 3.6
      vertex 0.825 -19.4289 3.6
    endloop
  endfacet
  facet normal 0 -0 1
    outer loop
      vertex -0.825 -19.4289 3.6
      vertex -0.825 -16.5711 3.6
      vertex -1.65 -18 3.6
    endloop
  endfacet
  facet normal 0 1 -0
    outer loop
      vertex 0.825 -19.4289 3.6
      vertex -0.825 -19.4289 4.6
      vertex 0.825 -19.4289 4.6
    endloop
  endfacet
  facet normal 0 1 0
    outer loop
      vertex -0.825 -19.4289 4.6
      vertex 0.825 -19.4289 3.6
      vertex -0.825 -19.4289 3.6
    endloop
  endfacet
  facet normal -0.866019 0.500011 0
    outer loop
      vertex 0.825 -19.4289 3.6
      vertex 1.65 -18 4.6
      vertex 1.65 -18 3.6
    endloop
  endfacet
  facet normal -0.866019 0.500011 0
    outer loop
      vertex 1.65 -18 4.6
      vertex 0.825 -19.4289 3.6
      vertex 0.825 -19.4289 4.6
    endloop
  endfacet
  facet normal -0.951055 -0.309022 0
    outer loop
      vertex 3.15 -18 0
      vertex 2.5484 -16.1485 3.4
      vertex 2.5484 -16.1485 0
    endloop
  endfacet
  facet normal -0.951055 -0.309022 0
    outer loop
      vertex 2.5484 -16.1485 3.4
      vertex 3.15 -18 0
      vertex 3.15 -18 3.4
    endloop
  endfacet
  facet normal 0.951055 -0.309022 0
    outer loop
      vertex -3.15 -18 3.4
      vertex -2.5484 -16.1485 0
      vertex -2.5484 -16.1485 3.4
    endloop
  endfacet
  facet normal 0.951055 -0.309022 0
    outer loop
      vertex -2.5484 -16.1485 0
      vertex -3.15 -18 3.4
      vertex -3.15 -18 0
    endloop
  endfacet
  facet normal 0 -1 0
    outer loop
      vertex -0.973403 -15.0042 0
      vertex 0.973403 -15.0042 3.4
      vertex -0.973403 -15.0042 3.4
    endloop
  endfacet
  facet normal 0 -1 -0
    outer loop
      vertex 0.973403 -15.0042 3.4
      vertex -0.973403 -15.0042 0
      vertex 0.973403 -15.0042 0
    endloop
  endfacet
  facet normal -0.587784 -0.809018 0
    outer loop
      vertex 0.973403 -15.0042 0
      vertex 2.5484 -16.1485 3.4
      vertex 0.973403 -15.0042 3.4
    endloop
  endfacet
  facet normal -0.587784 -0.809018 -0
    outer loop
      vertex 2.5484 -16.1485 3.4
      vertex 0.973403 -15.0042 0
      vertex 2.5484 -16.1485 0
    endloop
  endfacet
  facet normal 0 0 -1
    outer loop
      vertex 2.5484 -19.8515 3.4
      vertex 2.5484 -16.1485 3.4
      vertex 3.15 -18 3.4
    endloop
  endfacet
  facet normal 0 0 -1
    outer loop
      vertex 0.973403 -20.9958 3.4
      vertex 2.5484 -16.1485 3.4
      vertex 2.5484 -19.8515 3.4
    endloop
  endfacet
  facet normal 0 0 -1
    outer loop
      vertex 0.973403 -20.9958 3.4
      vertex 0.973403 -15.0042 3.4
      vertex 2.5484 -16.1485 3.4
    endloop
  endfacet
  facet normal 0 0 -1
    outer loop
      vertex -0.973403 -20.9958 3.4
      vertex 0.973403 -15.0042 3.4
      vertex 0.973403 -20.9958 3.4
    endloop
  endfacet
  facet normal 0 0 -1
    outer loop
      vertex -0.973403 -20.9958 3.4
      vertex -0.973403 -15.0042 3.4
      vertex 0.973403 -15.0042 3.4
    endloop
  endfacet
  facet normal 0 0 -1
    outer loop
      vertex -2.5484 -19.8515 3.4
      vertex -0.973403 -15.0042 3.4
      vertex -0.973403 -20.9958 3.4
    endloop
  endfacet
  facet normal 0 0 -1
    outer loop
      vertex -2.5484 -19.8515 3.4
      vertex -2.5484 -16.1485 3.4
      vertex -0.973403 -15.0042 3.4
    endloop
  endfacet
  facet normal 0 -0 -1
    outer loop
      vertex -2.5484 -16.1485 3.4
      vertex -2.5484 -19.8515 3.4
      vertex -3.15 -18 3.4
    endloop
  endfacet
  facet normal 0.587784 -0.809018 0
    outer loop
      vertex -2.5484 -16.1485 0
      vertex -0.973403 -15.0042 3.4
      vertex -2.5484 -16.1485 3.4
    endloop
  endfacet
  facet normal 0.587784 -0.809018 0
    outer loop
      vertex -0.973403 -15.0042 3.4
      vertex -2.5484 -16.1485 0
      vertex -0.973403 -15.0042 0
    endloop
  endfacet
  facet normal -0.951055 0.309022 0
    outer loop
      vertex 2.5484 -19.8515 0
      vertex 3.15 -18 3.4
      vertex 3.15 -18 0
    endloop
  endfacet
  facet normal -0.951055 0.309022 0
    outer loop
      vertex 3.15 -18 3.4
      vertex 2.5484 -19.8515 0
      vertex 2.5484 -19.8515 3.4
    endloop
  endfacet
  facet normal 0.951055 0.309022 0
    outer loop
      vertex -2.5484 -19.8515 3.4
      vertex -3.15 -18 0
      vertex -3.15 -18 3.4
    endloop
  endfacet
  facet normal 0.951055 0.309022 0
    outer loop
      vertex -3.15 -18 0
      vertex -2.5484 -19.8515 3.4
      vertex -2.5484 -19.8515 0
    endloop
  endfacet
  facet normal -0.587784 0.809018 0
    outer loop
      vertex 2.5484 -19.8515 0
      vertex 0.973403 -20.9958 3.4
      vertex 2.5484 -19.8515 3.4
    endloop
  endfacet
  facet normal -0.587784 0.809018 0
    outer loop
      vertex 0.973403 -20.9958 3.4
      vertex 2.5484 -19.8515 0
      vertex 0.973403 -20.9958 0
    endloop
  endfacet
  facet normal 0 1 -0
    outer loop
      vertex 0.973403 -20.9958 0
      vertex -0.973403 -20.9958 3.4
      vertex 0.973403 -20.9958 3.4
    endloop
  endfacet
  facet normal 0 1 0
    outer loop
      vertex -0.973403 -20.9958 3.4
      vertex 0.973403 -20.9958 0
      vertex -0.973403 -20.9958 0
    endloop
  endfacet
  facet normal 0.587784 0.809018 -0
    outer loop
      vertex -0.973403 -20.9958 0
      vertex -2.5484 -19.8515 3.4
      vertex -0.973403 -20.9958 3.4
    endloop
  endfacet
  facet normal 0.587784 0.809018 0
    outer loop
      vertex -2.5484 -19.8515 3.4
      vertex -0.973403 -20.9958 0
      vertex -2.5484 -19.8515 0
    endloop
  endfacet
  facet normal -0.866027 -0.499997 0
    outer loop
      vertex 3.15 -18 4.6
      vertex 1.575 -15.272 8
      vertex 1.575 -15.272 4.6
    endloop
  endfacet
  facet normal -0.866027 -0.499997 0
    outer loop
      vertex 1.575 -15.272 8
      vertex 3.15 -18 4.6
      vertex 3.15 -18 8
    endloop
  endfacet
  facet normal 0.866027 -0.499997 0
    outer loop
      vertex -3.15 -18 8
      vertex -1.575 -15.272 4.6
      vertex -1.575 -15.272 8
    endloop
  endfacet
  facet normal 0.866027 -0.499997 0
    outer loop
      vertex -1.575 -15.272 4.6
      vertex -3.15 -18 8
      vertex -3.15 -18 4.6
    endloop
  endfacet
  facet normal 0 -1 0
    outer loop
      vertex -1.575 -15.272 4.6
      vertex 1.575 -15.272 8
      vertex -1.575 -15.272 8
    endloop
  endfacet
  facet normal 0 -1 -0
    outer loop
      vertex 1.575 -15.272 8
      vertex -1.575 -15.272 4.6
      vertex 1.575 -15.272 4.6
    endloop
  endfacet
  facet normal 0.866027 0.499997 0
    outer loop
      vertex -1.575 -20.728 8
      vertex -3.15 -18 4.6
      vertex -3.15 -18 8
    endloop
  endfacet
  facet normal 0.866027 0.499997 0
    outer loop
      vertex -3.15 -18 4.6
      vertex -1.575 -20.728 8
      vertex -1.575 -20.728 4.6
    endloop
  endfacet
  facet normal -0.866027 0.499997 0
    outer loop
      vertex 1.575 -20.728 4.6
      vertex 3.15 -18 8
      vertex 3.15 -18 4.6
    endloop
  endfacet
  facet normal -0.866027 0.499997 0
    outer loop
      vertex 3.15 -18 8
      vertex 1.575 -20.728 4.6
      vertex 1.575 -20.728 8
    endloop
  endfacet
  facet normal 0 0 1
    outer loop
      vertex 1.575 -15.272 4.6
      vertex 1.65 -18 4.6
      vertex 3.15 -18 4.6
    endloop
  endfacet
  facet normal 0 0 1
    outer loop
      vertex 1.575 -15.272 4.6
      vertex 0.825 -16.5711 4.6
      vertex 1.65 -18 4.6
    endloop
  endfacet
  facet normal 0 0 1
    outer loop
      vertex 1.575 -15.272 4.6
      vertex -0.825 -16.5711 4.6
      vertex 0.825 -16.5711 4.6
    endloop
  endfacet
  facet normal -0 0 1
    outer loop
      vertex -1.575 -15.272 4.6
      vertex -0.825 -16.5711 4.6
      vertex 1.575 -15.272 4.6
    endloop
  endfacet
  facet normal 0 0 1
    outer loop
      vertex -1.575 -15.272 4.6
      vertex -1.65 -18 4.6
      vertex -0.825 -16.5711 4.6
    endloop
  endfacet
  facet normal 0 -0 1
    outer loop
      vertex -1.65 -18 4.6
      vertex -1.575 -15.272 4.6
      vertex -3.15 -18 4.6
    endloop
  endfacet
  facet normal -0 0 1
    outer loop
      vertex 1.65 -18 4.6
      vertex 1.575 -20.728 4.6
      vertex 3.15 -18 4.6
    endloop
  endfacet
  facet normal -0 0 1
    outer loop
      vertex 0.825 -19.4289 4.6
      vertex 1.575 -20.728 4.6
      vertex 1.65 -18 4.6
    endloop
  endfacet
  facet normal -0 0 1
    outer loop
      vertex -0.825 -19.4289 4.6
      vertex 1.575 -20.728 4.6
      vertex 0.825 -19.4289 4.6
    endloop
  endfacet
  facet normal 0 0 1
    outer loop
      vertex -0.825 -19.4289 4.6
      vertex -1.575 -20.728 4.6
      vertex 1.575 -20.728 4.6
    endloop
  endfacet
  facet normal 0 0 1
    outer loop
      vertex -1.65 -18 4.6
      vertex -1.575 -20.728 4.6
      vertex -0.825 -19.4289 4.6
    endloop
  endfacet
  facet normal 0 0 1
    outer loop
      vertex -1.575 -20.728 4.6
      vertex -1.65 -18 4.6
      vertex -3.15 -18 4.6
    endloop
  endfacet
  facet normal 0 1 -0
    outer loop
      vertex 1.575 -20.728 4.6
      vertex -1.575 -20.728 8
      vertex 1.575 -20.728 8
    endloop
  endfacet
  facet normal 0 1 0
    outer loop
      vertex -1.575 -20.728 8
      vertex 1.575 -20.728 4.6
      vertex -1.575 -20.728 4.6
    endloop
  endfacet
  facet normal 0 0 1
    outer loop
      vertex 7.5 -33.1793 8
      vertex 3.15 -38 8
      vertex 7.5 -43.5 8
    endloop
  endfacet
  facet normal 0 0 1
    outer loop
      vertex 7.5 -33.1793 8
      vertex 1.575 -35.272 8
      vertex 3.15 -38 8
    endloop
  endfacet
  facet normal 0 0 1
    outer loop
      vertex 7.5 -33.1793 8
      vertex -1.575 -35.272 8
      vertex 1.575 -35.272 8
    endloop
  endfacet
  facet normal 0 0 1
    outer loop
      vertex -1.575 -35.272 8
      vertex -7.5 -33.1793 8
      vertex -3.15 -38 8
    endloop
  endfacet
  facet normal -0 0 1
    outer loop
      vertex -7.5 -33.1793 8
      vertex -1.575 -35.272 8
      vertex 7.5 -33.1793 8
    endloop
  endfacet
  facet normal -0 0 1
    outer loop
      vertex 1.575 -40.728 8
      vertex 7.5 -43.5 8
      vertex 3.15 -38 8
    endloop
  endfacet
  facet normal -0 0 1
    outer loop
      vertex -1.575 -40.728 8
      vertex 7.5 -43.5 8
      vertex 1.575 -40.728 8
    endloop
  endfacet
  facet normal 0 0 1
    outer loop
      vertex -7.5 -43.5 8
      vertex -3.15 -38 8
      vertex -7.5 -33.1793 8
    endloop
  endfacet
  facet normal 0 0 1
    outer loop
      vertex -1.575 -40.728 8
      vertex -7.5 -43.5 8
      vertex 7.5 -43.5 8
    endloop
  endfacet
  facet normal 0 0 1
    outer loop
      vertex -3.15 -38 8
      vertex -7.5 -43.5 8
      vertex -1.575 -40.728 8
    endloop
  endfacet
  facet normal 0 0 1
    outer loop
      vertex 7.5 43.5 8
      vertex 3.15 38 8
      vertex 7.5 33.1793 8
    endloop
  endfacet
  facet normal 0 0 1
    outer loop
      vertex 7.5 43.5 8
      vertex 1.575 40.728 8
      vertex 3.15 38 8
    endloop
  endfacet
  facet normal 0 0 1
    outer loop
      vertex 7.5 43.5 8
      vertex -1.575 40.728 8
      vertex 1.575 40.728 8
    endloop
  endfacet
  facet normal 0 0 1
    outer loop
      vertex -1.575 40.728 8
      vertex -7.5 43.5 8
      vertex -3.15 38 8
    endloop
  endfacet
  facet normal -0 0 1
    outer loop
      vertex -7.5 43.5 8
      vertex -1.575 40.728 8
      vertex 7.5 43.5 8
    endloop
  endfacet
  facet normal -0 0 1
    outer loop
      vertex 1.575 35.272 8
      vertex 7.5 33.1793 8
      vertex 3.15 38 8
    endloop
  endfacet
  facet normal -0 0 1
    outer loop
      vertex -1.575 35.272 8
      vertex 7.5 33.1793 8
      vertex 1.575 35.272 8
    endloop
  endfacet
  facet normal 0 0 1
    outer loop
      vertex -7.5 33.1793 8
      vertex -3.15 38 8
      vertex -7.5 43.5 8
    endloop
  endfacet
  facet normal 0 0 1
    outer loop
      vertex -1.575 35.272 8
      vertex -7.5 33.1793 8
      vertex 7.5 33.1793 8
    endloop
  endfacet
  facet normal 0 0 1
    outer loop
      vertex -3.15 38 8
      vertex -7.5 33.1793 8
      vertex -1.575 35.272 8
    endloop
  endfacet
  facet normal 0 0 1
    outer loop
      vertex 7.5 -22.8207 8
      vertex 2.5484 -1.85152 8
      vertex 3.15 -18 8
    endloop
  endfacet
  facet normal 0 0 1
    outer loop
      vertex 2.5484 -1.85152 8
      vertex 1.575 -15.272 8
      vertex 3.15 -18 8
    endloop
  endfacet
  facet normal -0 0 1
    outer loop
      vertex 0.973403 -2.99583 8
      vertex 1.575 -15.272 8
      vertex 2.5484 -1.85152 8
    endloop
  endfacet
  facet normal -0 0 1
    outer loop
      vertex -0.973403 -2.99583 8
      vertex 1.575 -15.272 8
      vertex 0.973403 -2.99583 8
    endloop
  endfacet
  facet normal 0 0 1
    outer loop
      vertex -0.973403 -2.99583 8
      vertex -1.575 -15.272 8
      vertex 1.575 -15.272 8
    endloop
  endfacet
  facet normal 0 0 1
    outer loop
      vertex -2.5484 -1.85152 8
      vertex -1.575 -15.272 8
      vertex -0.973403 -2.99583 8
    endloop
  endfacet
  facet normal 0 0 1
    outer loop
      vertex -7.5 -22.8207 8
      vertex -2.5484 -1.85152 8
      vertex -3.15 0 8
    endloop
  endfacet
  facet normal 0 0 1
    outer loop
      vertex -2.5484 -1.85152 8
      vertex -3.15 -18 8
      vertex -1.575 -15.272 8
    endloop
  endfacet
  facet normal 0 0 1
    outer loop
      vertex 7.5 22.8207 8
      vertex 2.5484 1.85152 8
      vertex 3.15 0 8
    endloop
  endfacet
  facet normal -0 0 1
    outer loop
      vertex 1.575 15.272 8
      vertex 2.5484 1.85152 8
      vertex 3.15 18 8
    endloop
  endfacet
  facet normal 0 0 1
    outer loop
      vertex 1.575 15.272 8
      vertex 0.973403 2.99583 8
      vertex 2.5484 1.85152 8
    endloop
  endfacet
  facet normal 0 0 1
    outer loop
      vertex 1.575 15.272 8
      vertex -0.973403 2.99583 8
      vertex 0.973403 2.99583 8
    endloop
  endfacet
  facet normal -0 0 1
    outer loop
      vertex -1.575 15.272 8
      vertex -0.973403 2.99583 8
      vertex 1.575 15.272 8
    endloop
  endfacet
  facet normal 0 0 1
    outer loop
      vertex -1.575 15.272 8
      vertex -2.5484 1.85152 8
      vertex -0.973403 2.99583 8
    endloop
  endfacet
  facet normal 0 0 1
    outer loop
      vertex -3.15 18 8
      vertex -2.5484 1.85152 8
      vertex -1.575 15.272 8
    endloop
  endfacet
  facet normal 0 0 1
    outer loop
      vertex -7.5 22.8207 8
      vertex -2.5484 1.85152 8
      vertex -3.15 18 8
    endloop
  endfacet
  facet normal 0 0 1
    outer loop
      vertex 2.5484 1.85152 8
      vertex 7.5 22.8207 8
      vertex 3.15 18 8
    endloop
  endfacet
  facet normal 0 0 1
    outer loop
      vertex 7.5 22.8207 8
      vertex 1.575 20.728 8
      vertex 3.15 18 8
    endloop
  endfacet
  facet normal 0 0 1
    outer loop
      vertex 7.5 22.8207 8
      vertex -1.575 20.728 8
      vertex 1.575 20.728 8
    endloop
  endfacet
  facet normal 0 0 1
    outer loop
      vertex -2.5484 1.85152 8
      vertex -7.5 22.8207 8
      vertex -3.15 0 8
    endloop
  endfacet
  facet normal 0 0 1
    outer loop
      vertex -7.5 -22.8207 8
      vertex -3.15 0 8
      vertex -7.5 22.8207 8
    endloop
  endfacet
  facet normal 0 0 1
    outer loop
      vertex -1.575 20.728 8
      vertex -7.5 22.8207 8
      vertex -3.15 18 8
    endloop
  endfacet
  facet normal -0 0 1
    outer loop
      vertex -7.5 22.8207 8
      vertex -1.575 20.728 8
      vertex 7.5 22.8207 8
    endloop
  endfacet
  facet normal 0 0 1
    outer loop
      vertex 7.5 22.8207 8
      vertex 3.15 0 8
      vertex 7.5 -22.8207 8
    endloop
  endfacet
  facet normal -0 0 1
    outer loop
      vertex 2.5484 -1.85152 8
      vertex 7.5 -22.8207 8
      vertex 3.15 0 8
    endloop
  endfacet
  facet normal -0 0 1
    outer loop
      vertex 1.575 -20.728 8
      vertex 7.5 -22.8207 8
      vertex 3.15 -18 8
    endloop
  endfacet
  facet normal -0 0 1
    outer loop
      vertex -1.575 -20.728 8
      vertex 7.5 -22.8207 8
      vertex 1.575 -20.728 8
    endloop
  endfacet
  facet normal 0 0 1
    outer loop
      vertex -1.575 -20.728 8
      vertex -7.5 -22.8207 8
      vertex 7.5 -22.8207 8
    endloop
  endfacet
  facet normal 0 0 1
    outer loop
      vertex -3.15 -18 8
      vertex -7.5 -22.8207 8
      vertex -1.575 -20.728 8
    endloop
  endfacet
  facet normal 0 0 1
    outer loop
      vertex -2.5484 -1.85152 8
      vertex -7.5 -22.8207 8
      vertex -3.15 -18 8
    endloop
  endfacet
  facet normal 1 0 0
    outer loop
      vertex 7.5 32.993 6.81844
      vertex 7.5 43.5 8
      vertex 7.5 33.1793 8
    endloop
  endfacet
  facet normal 1 0 0
    outer loop
      vertex 7.5 43.5 8
      vertex 7.5 32.993 6.81844
      vertex 7.5 43.5 0
    endloop
  endfacet
  facet normal 1 -0 0
    outer loop
      vertex 7.5 31.9015 5.55804
      vertex 7.5 43.5 0
      vertex 7.5 32.993 6.81844
    endloop
  endfacet
  facet normal 1 -0 0
    outer loop
      vertex 7.5 30.1354 4.70259
      vertex 7.5 43.5 0
      vertex 7.5 31.9015 5.55804
    endloop
  endfacet
  facet normal 1 -0 0
    outer loop
      vertex 7.5 28 4.4
      vertex 7.5 43.5 0
      vertex 7.5 30.1354 4.70259
    endloop
  endfacet
  facet normal 1 0 0
    outer loop
      vertex 7.5 25.8646 4.70259
      vertex 7.5 43.5 0
      vertex 7.5 28 4.4
    endloop
  endfacet
  facet normal 1 -0 0
    outer loop
      vertex 7.5 -22.8207 8
      vertex 7.5 23.007 6.81844
      vertex 7.5 22.8207 8
    endloop
  endfacet
  facet normal 1 0 0
    outer loop
      vertex 7.5 -23.007 6.81844
      vertex 7.5 23.007 6.81844
      vertex 7.5 -22.8207 8
    endloop
  endfacet
  facet normal 1 0 0
    outer loop
      vertex 7.5 23.007 6.81844
      vertex 7.5 -23.007 6.81844
      vertex 7.5 24.0985 5.55804
    endloop
  endfacet
  facet normal 1 0 0
    outer loop
      vertex 7.5 -24.0985 5.55804
      vertex 7.5 24.0985 5.55804
      vertex 7.5 -23.007 6.81844
    endloop
  endfacet
  facet normal 1 0 0
    outer loop
      vertex 7.5 24.0985 5.55804
      vertex 7.5 -24.0985 5.55804
      vertex 7.5 25.8646 4.70259
    endloop
  endfacet
  facet normal 1 0 0
    outer loop
      vertex 7.5 -25.8646 4.70259
      vertex 7.5 25.8646 4.70259
      vertex 7.5 -24.0985 5.55804
    endloop
  endfacet
  facet normal 1 0 0
    outer loop
      vertex 7.5 25.8646 4.70259
      vertex 7.5 -25.8646 4.70259
      vertex 7.5 43.5 0
    endloop
  endfacet
  facet normal 1 0 0
    outer loop
      vertex 7.5 -43.5 0
      vertex 7.5 -25.8646 4.70259
      vertex 7.5 -28 4.4
    endloop
  endfacet
  facet normal 1 -0 0
    outer loop
      vertex 7.5 -43.5 8
      vertex 7.5 -32.993 6.81844
      vertex 7.5 -33.1793 8
    endloop
  endfacet
  facet normal 1 0 0
    outer loop
      vertex 7.5 -43.5 0
      vertex 7.5 -32.993 6.81844
      vertex 7.5 -43.5 8
    endloop
  endfacet
  facet normal 1 0 0
    outer loop
      vertex 7.5 -32.993 6.81844
      vertex 7.5 -43.5 0
      vertex 7.5 -31.9015 5.55804
    endloop
  endfacet
  facet normal 1 0 0
    outer loop
      vertex 7.5 -25.8646 4.70259
      vertex 7.5 -43.5 0
      vertex 7.5 43.5 0
    endloop
  endfacet
  facet normal 1 0 0
    outer loop
      vertex 7.5 -30.1354 4.70259
      vertex 7.5 -43.5 0
      vertex 7.5 -28 4.4
    endloop
  endfacet
  facet normal 1 0 0
    outer loop
      vertex 7.5 -31.9015 5.55804
      vertex 7.5 -43.5 0
      vertex 7.5 -30.1354 4.70259
    endloop
  endfacet
  facet normal 0 0 -1
    outer loop
      vertex 2.5484 36.1485 0
      vertex 7.5 43.5 0
      vertex 2.5484 19.8515 0
    endloop
  endfacet
  facet normal 0 0 -1
    outer loop
      vertex 7.5 43.5 0
      vertex 2.5484 36.1485 0
      vertex 3.15 38 0
    endloop
  endfacet
  facet normal 0 0 -1
    outer loop
      vertex 0.973403 20.9958 0
      vertex 2.5484 36.1485 0
      vertex 2.5484 19.8515 0
    endloop
  endfacet
  facet normal 0 0 -1
    outer loop
      vertex 0.973403 20.9958 0
      vertex 0.973403 35.0042 0
      vertex 2.5484 36.1485 0
    endloop
  endfacet
  facet normal 0 0 -1
    outer loop
      vertex -0.973403 20.9958 0
      vertex 0.973403 35.0042 0
      vertex 0.973403 20.9958 0
    endloop
  endfacet
  facet normal 0 0 -1
    outer loop
      vertex -0.973403 20.9958 0
      vertex -0.973403 35.0042 0
      vertex 0.973403 35.0042 0
    endloop
  endfacet
  facet normal 0 0 -1
    outer loop
      vertex -2.5484 19.8515 0
      vertex -0.973403 35.0042 0
      vertex -0.973403 20.9958 0
    endloop
  endfacet
  facet normal 0 0 -1
    outer loop
      vertex -2.5484 19.8515 0
      vertex -2.5484 36.1485 0
      vertex -0.973403 35.0042 0
    endloop
  endfacet
  facet normal 0 0 -1
    outer loop
      vertex -7.5 43.5 0
      vertex -2.5484 19.8515 0
      vertex -3.15 18 0
    endloop
  endfacet
  facet normal 0 0 -1
    outer loop
      vertex -2.5484 19.8515 0
      vertex -7.5 43.5 0
      vertex -2.5484 36.1485 0
    endloop
  endfacet
  facet normal 0 0 -1
    outer loop
      vertex 2.5484 1.85152 0
      vertex 3.15 18 0
      vertex 3.15 0 0
    endloop
  endfacet
  facet normal 0 0 -1
    outer loop
      vertex 2.5484 1.85152 0
      vertex 2.5484 16.1485 0
      vertex 3.15 18 0
    endloop
  endfacet
  facet normal 0 0 -1
    outer loop
      vertex 0.973403 2.99583 0
      vertex 2.5484 16.1485 0
      vertex 2.5484 1.85152 0
    endloop
  endfacet
  facet normal 0 0 -1
    outer loop
      vertex 0.973403 2.99583 0
      vertex 0.973403 15.0042 0
      vertex 2.5484 16.1485 0
    endloop
  endfacet
  facet normal 0 0 -1
    outer loop
      vertex -0.973403 2.99583 0
      vertex 0.973403 15.0042 0
      vertex 0.973403 2.99583 0
    endloop
  endfacet
  facet normal 0 0 -1
    outer loop
      vertex -0.973403 2.99583 0
      vertex -0.973403 15.0042 0
      vertex 0.973403 15.0042 0
    endloop
  endfacet
  facet normal 0 0 -1
    outer loop
      vertex -2.5484 1.85152 0
      vertex -0.973403 15.0042 0
      vertex -0.973403 2.99583 0
    endloop
  endfacet
  facet normal 0 0 -1
    outer loop
      vertex -2.5484 1.85152 0
      vertex -2.5484 16.1485 0
      vertex -0.973403 15.0042 0
    endloop
  endfacet
  facet normal 0 0 -1
    outer loop
      vertex -3.15 0 0
      vertex -2.5484 16.1485 0
      vertex -2.5484 1.85152 0
    endloop
  endfacet
  facet normal -0 0 -1
    outer loop
      vertex -2.5484 16.1485 0
      vertex -3.15 0 0
      vertex -3.15 18 0
    endloop
  endfacet
  facet normal 0 0 -1
    outer loop
      vertex 2.5484 -16.1485 0
      vertex 3.15 0 0
      vertex 3.15 -18 0
    endloop
  endfacet
  facet normal 0 0 -1
    outer loop
      vertex 2.5484 -16.1485 0
      vertex 2.5484 -1.85152 0
      vertex 3.15 0 0
    endloop
  endfacet
  facet normal 0 0 -1
    outer loop
      vertex 0.973403 -15.0042 0
      vertex 2.5484 -1.85152 0
      vertex 2.5484 -16.1485 0
    endloop
  endfacet
  facet normal 0 0 -1
    outer loop
      vertex 0.973403 -15.0042 0
      vertex 0.973403 -2.99583 0
      vertex 2.5484 -1.85152 0
    endloop
  endfacet
  facet normal 0 0 -1
    outer loop
      vertex -0.973403 -15.0042 0
      vertex 0.973403 -2.99583 0
      vertex 0.973403 -15.0042 0
    endloop
  endfacet
  facet normal 0 0 -1
    outer loop
      vertex -0.973403 -15.0042 0
      vertex -0.973403 -2.99583 0
      vertex 0.973403 -2.99583 0
    endloop
  endfacet
  facet normal 0 0 -1
    outer loop
      vertex -2.5484 -16.1485 0
      vertex -0.973403 -2.99583 0
      vertex -0.973403 -15.0042 0
    endloop
  endfacet
  facet normal 0 0 -1
    outer loop
      vertex -2.5484 -16.1485 0
      vertex -2.5484 -1.85152 0
      vertex -0.973403 -2.99583 0
    endloop
  endfacet
  facet normal 0 0 -1
    outer loop
      vertex -3.15 -18 0
      vertex -2.5484 -1.85152 0
      vertex -2.5484 -16.1485 0
    endloop
  endfacet
  facet normal -0 0 -1
    outer loop
      vertex -2.5484 -1.85152 0
      vertex -3.15 -18 0
      vertex -3.15 0 0
    endloop
  endfacet
  facet normal 0 0 -1
    outer loop
      vertex 2.5484 -19.8515 0
      vertex 7.5 -43.5 0
      vertex 2.5484 -36.1485 0
    endloop
  endfacet
  facet normal 0 0 -1
    outer loop
      vertex 7.5 -43.5 0
      vertex 2.5484 -19.8515 0
      vertex 3.15 -18 0
    endloop
  endfacet
  facet normal 0 0 -1
    outer loop
      vertex 0.973403 -35.0042 0
      vertex 2.5484 -19.8515 0
      vertex 2.5484 -36.1485 0
    endloop
  endfacet
  facet normal 0 0 -1
    outer loop
      vertex 0.973403 -35.0042 0
      vertex 0.973403 -20.9958 0
      vertex 2.5484 -19.8515 0
    endloop
  endfacet
  facet normal 0 0 -1
    outer loop
      vertex -0.973403 -35.0042 0
      vertex 0.973403 -20.9958 0
      vertex 0.973403 -35.0042 0
    endloop
  endfacet
  facet normal 0 0 -1
    outer loop
      vertex -0.973403 -35.0042 0
      vertex -0.973403 -20.9958 0
      vertex 0.973403 -20.9958 0
    endloop
  endfacet
  facet normal 0 0 -1
    outer loop
      vertex -2.5484 -36.1485 0
      vertex -0.973403 -20.9958 0
      vertex -0.973403 -35.0042 0
    endloop
  endfacet
  facet normal 0 0 -1
    outer loop
      vertex -2.5484 -36.1485 0
      vertex -2.5484 -19.8515 0
      vertex -0.973403 -20.9958 0
    endloop
  endfacet
  facet normal 0 0 -1
    outer loop
      vertex -7.5 -43.5 0
      vertex -2.5484 -36.1485 0
      vertex -3.15 -38 0
    endloop
  endfacet
  facet normal -0 0 -1
    outer loop
      vertex -2.5484 -36.1485 0
      vertex -7.5 -43.5 0
      vertex -2.5484 -19.8515 0
    endloop
  endfacet
  facet normal 0 0 -1
    outer loop
      vertex 2.5484 -36.1485 0
      vertex 7.5 -43.5 0
      vertex 3.15 -38 0
    endloop
  endfacet
  facet normal 0 0 -1
    outer loop
      vertex 7.5 -43.5 0
      vertex 2.5484 -39.8515 0
      vertex 3.15 -38 0
    endloop
  endfacet
  facet normal 0 0 -1
    outer loop
      vertex 7.5 -43.5 0
      vertex 0.973403 -40.9958 0
      vertex 2.5484 -39.8515 0
    endloop
  endfacet
  facet normal 0 0 -1
    outer loop
      vertex 7.5 -43.5 0
      vertex -0.973403 -40.9958 0
      vertex 0.973403 -40.9958 0
    endloop
  endfacet
  facet normal -0 0 -1
    outer loop
      vertex -2.5484 -19.8515 0
      vertex -7.5 -43.5 0
      vertex -3.15 -18 0
    endloop
  endfacet
  facet normal -0 0 -1
    outer loop
      vertex -3.15 -18 0
      vertex -7.5 -43.5 0
      vertex -3.15 0 0
    endloop
  endfacet
  facet normal 0 0 -1
    outer loop
      vertex -7.5 43.5 0
      vertex -3.15 0 0
      vertex -7.5 -43.5 0
    endloop
  endfacet
  facet normal 0 0 -1
    outer loop
      vertex -3.15 0 0
      vertex -7.5 43.5 0
      vertex -3.15 18 0
    endloop
  endfacet
  facet normal -0 0 -1
    outer loop
      vertex -2.5484 -39.8515 0
      vertex -7.5 -43.5 0
      vertex -3.15 -38 0
    endloop
  endfacet
  facet normal -0 0 -1
    outer loop
      vertex -0.973403 -40.9958 0
      vertex -7.5 -43.5 0
      vertex -2.5484 -39.8515 0
    endloop
  endfacet
  facet normal 0 0 -1
    outer loop
      vertex -7.5 -43.5 0
      vertex -0.973403 -40.9958 0
      vertex 7.5 -43.5 0
    endloop
  endfacet
  facet normal 0 0 -1
    outer loop
      vertex 3.15 0 0
      vertex 7.5 -43.5 0
      vertex 3.15 -18 0
    endloop
  endfacet
  facet normal 0 0 -1
    outer loop
      vertex 7.5 -43.5 0
      vertex 3.15 0 0
      vertex 7.5 43.5 0
    endloop
  endfacet
  facet normal 0 0 -1
    outer loop
      vertex 3.15 18 0
      vertex 7.5 43.5 0
      vertex 3.15 0 0
    endloop
  endfacet
  facet normal 0 0 -1
    outer loop
      vertex 2.5484 19.8515 0
      vertex 7.5 43.5 0
      vertex 3.15 18 0
    endloop
  endfacet
  facet normal 0 0 -1
    outer loop
      vertex 2.5484 39.8515 0
      vertex 7.5 43.5 0
      vertex 3.15 38 0
    endloop
  endfacet
  facet normal 0 0 -1
    outer loop
      vertex 0.973403 40.9958 0
      vertex 7.5 43.5 0
      vertex 2.5484 39.8515 0
    endloop
  endfacet
  facet normal 0 0 -1
    outer loop
      vertex -0.973403 40.9958 0
      vertex 7.5 43.5 0
      vertex 0.973403 40.9958 0
    endloop
  endfacet
  facet normal 0 0 -1
    outer loop
      vertex -0.973403 40.9958 0
      vertex -7.5 43.5 0
      vertex 7.5 43.5 0
    endloop
  endfacet
  facet normal 0 0 -1
    outer loop
      vertex -2.5484 39.8515 0
      vertex -7.5 43.5 0
      vertex -0.973403 40.9958 0
    endloop
  endfacet
  facet normal 0 0 -1
    outer loop
      vertex -3.15 38 0
      vertex -7.5 43.5 0
      vertex -2.5484 39.8515 0
    endloop
  endfacet
  facet normal 0 0 -1
    outer loop
      vertex -2.5484 36.1485 0
      vertex -7.5 43.5 0
      vertex -3.15 38 0
    endloop
  endfacet
  facet normal 0 -1 0
    outer loop
      vertex -7.5 -43.5 0
      vertex 7.5 -43.5 8
      vertex -7.5 -43.5 8
    endloop
  endfacet
  facet normal 0 -1 -0
    outer loop
      vertex 7.5 -43.5 8
      vertex -7.5 -43.5 0
      vertex 7.5 -43.5 0
    endloop
  endfacet
  facet normal 0 1 -0
    outer loop
      vertex 7.5 43.5 0
      vertex -7.5 43.5 8
      vertex 7.5 43.5 8
    endloop
  endfacet
  facet normal 0 1 0
    outer loop
      vertex -7.5 43.5 8
      vertex 7.5 43.5 0
      vertex -7.5 43.5 0
    endloop
  endfacet
  facet normal -0.951056 -0.309019 0
    outer loop
      vertex 3.15 0 0
      vertex 2.5484 1.85152 8
      vertex 2.5484 1.85152 0
    endloop
  endfacet
  facet normal -0.951056 -0.309019 0
    outer loop
      vertex 2.5484 1.85152 8
      vertex 3.15 0 0
      vertex 3.15 0 8
    endloop
  endfacet
  facet normal 0.951056 -0.309019 0
    outer loop
      vertex -3.15 0 8
      vertex -2.5484 1.85152 0
      vertex -2.5484 1.85152 8
    endloop
  endfacet
  facet normal 0.951056 -0.309019 0
    outer loop
      vertex -2.5484 1.85152 0
      vertex -3.15 0 8
      vertex -3.15 0 0
    endloop
  endfacet
  facet normal 0 -1 0
    outer loop
      vertex -0.973403 2.99583 0
      vertex 0.973403 2.99583 8
      vertex -0.973403 2.99583 8
    endloop
  endfacet
  facet normal 0 -1 -0
    outer loop
      vertex 0.973403 2.99583 8
      vertex -0.973403 2.99583 0
      vertex 0.973403 2.99583 0
    endloop
  endfacet
  facet normal -0.587788 -0.809015 0
    outer loop
      vertex 0.973403 2.99583 0
      vertex 2.5484 1.85152 8
      vertex 0.973403 2.99583 8
    endloop
  endfacet
  facet normal -0.587788 -0.809015 -0
    outer loop
      vertex 2.5484 1.85152 8
      vertex 0.973403 2.99583 0
      vertex 2.5484 1.85152 0
    endloop
  endfacet
  facet normal 0.587788 -0.809015 0
    outer loop
      vertex -2.5484 1.85152 0
      vertex -0.973403 2.99583 8
      vertex -2.5484 1.85152 8
    endloop
  endfacet
  facet normal 0.587788 -0.809015 0
    outer loop
      vertex -0.973403 2.99583 8
      vertex -2.5484 1.85152 0
      vertex -0.973403 2.99583 0
    endloop
  endfacet
  facet normal -0.951056 0.309019 0
    outer loop
      vertex 2.5484 -1.85152 0
      vertex 3.15 0 8
      vertex 3.15 0 0
    endloop
  endfacet
  facet normal -0.951056 0.309019 0
    outer loop
      vertex 3.15 0 8
      vertex 2.5484 -1.85152 0
      vertex 2.5484 -1.85152 8
    endloop
  endfacet
  facet normal 0.951056 0.309019 0
    outer loop
      vertex -2.5484 -1.85152 8
      vertex -3.15 0 0
      vertex -3.15 0 8
    endloop
  endfacet
  facet normal 0.951056 0.309019 0
    outer loop
      vertex -3.15 0 0
      vertex -2.5484 -1.85152 8
      vertex -2.5484 -1.85152 0
    endloop
  endfacet
  facet normal -0.587788 0.809015 0
    outer loop
      vertex 2.5484 -1.85152 0
      vertex 0.973403 -2.99583 8
      vertex 2.5484 -1.85152 8
    endloop
  endfacet
  facet normal -0.587788 0.809015 0
    outer loop
      vertex 0.973403 -2.99583 8
      vertex 2.5484 -1.85152 0
      vertex 0.973403 -2.99583 0
    endloop
  endfacet
  facet normal 0.587788 0.809015 -0
    outer loop
      vertex -0.973403 -2.99583 0
      vertex -2.5484 -1.85152 8
      vertex -0.973403 -2.99583 8
    endloop
  endfacet
  facet normal 0.587788 0.809015 0
    outer loop
      vertex -2.5484 -1.85152 8
      vertex -0.973403 -2.99583 0
      vertex -2.5484 -1.85152 0
    endloop
  endfacet
  facet normal 0 1 -0
    outer loop
      vertex 0.973403 -2.99583 0
      vertex -0.973403 -2.99583 8
      vertex 0.973403 -2.99583 8
    endloop
  endfacet
  facet normal 0 1 0
    outer loop
      vertex -0.973403 -2.99583 8
      vertex 0.973403 -2.99583 0
      vertex -0.973403 -2.99583 0
    endloop
  endfacet
endsolid OpenSCAD_Model
