solid model
  facet normal 0 -0 1
    outer loop
      vertex -1 -65 3
      vertex 0 -75 3
      vertex 1 -65 3
    endloop
  endfacet
  facet normal 0 -0.114624 0.993409
    outer loop
      vertex -1 -65 3
      vertex 1 -65 3
      vertex 1.5 0 10.5
    endloop
  endfacet
  facet normal -1 0 0
    outer loop
      vertex -1.5 -60 3
      vertex -1.5 0 10.5
      vertex -1.5 0 3
    endloop
  endfacet
  facet normal 0 -0.114624 0.993409
    outer loop
      vertex -1.5 -65 3
      vertex -1 -65 3
      vertex -1.5 0 10.5
    endloop
  endfacet
  facet normal 0 0 -1
    outer loop
      vertex -1.5 -65 3
      vertex -1.5 -60 3
      vertex -1 -65 3
    endloop
  endfacet
  facet normal -1 0 0
    outer loop
      vertex -1.5 -65 3
      vertex -1.5 0 10.5
      vertex -1.5 -60 3
    endloop
  endfacet
  facet normal 0 -0.114624 0.993409
    outer loop
      vertex -1.5 0 10.5
      vertex -1 -65 3
      vertex 1.5 0 10.5
    endloop
  endfacet
  facet normal -1 0 0
    outer loop
      vertex -1.5 0 10.5
      vertex -1.5 70 10.5
      vertex -1.5 0.0547819 3
    endloop
  endfacet
  facet normal 0 0 1
    outer loop
      vertex -1.5 0 10.5
      vertex 1.5 0 10.5
      vertex -1.5 70 10.5
    endloop
  endfacet
  facet normal -1 0 0
    outer loop
      vertex -1.5 0 3
      vertex -1.5 0 10.5
      vertex -1.5 0.0547819 3
    endloop
  endfacet
  facet normal -0 0 -1
    outer loop
      vertex -1.5 0 3
      vertex -1.5 0.0547819 3
      vertex 1.5 0.0547819 3
    endloop
  endfacet
  facet normal 0 1 0
    outer loop
      vertex -1.5 0 3
      vertex 1.5 0 3
      vertex 7.5 0 0
    endloop
  endfacet
  facet normal 0 0 -1
    outer loop
      vertex -1.5 0 3
      vertex 1.5 0.0547819 3
      vertex 1.5 0 3
    endloop
  endfacet
  facet normal -1 0 0
    outer loop
      vertex -1.5 0.0547819 3
      vertex -1.5 70 10.5
      vertex -1.5 69.9452 3
    endloop
  endfacet
  facet normal -1 0 0
    outer loop
      vertex -1.5 69.9452 3
      vertex -1.5 70 10.5
      vertex -1.5 70 3
    endloop
  endfacet
  facet normal -0 0 -1
    outer loop
      vertex -1.5 69.9452 3
      vertex -1.5 70 3
      vertex 1.5 70 3
    endloop
  endfacet
  facet normal 0 1 0
    outer loop
      vertex -1.5 69.9452 3
      vertex 1.5 69.9452 3
      vertex 16.0453 69.9452 0
    endloop
  endfacet
  facet normal 0 0 -1
    outer loop
      vertex -1.5 69.9452 3
      vertex 1.5 70 3
      vertex 1.5 69.9452 3
    endloop
  endfacet
  facet normal -0 0 1
    outer loop
      vertex -1.5 70 10.5
      vertex 1.5 0 10.5
      vertex 1.5 70 10.5
    endloop
  endfacet
  facet normal 0 1 -0
    outer loop
      vertex -1.5 70 10.5
      vertex 1.5 70 10.5
      vertex 1.5 70 3
    endloop
  endfacet
  facet normal 0 1 0
    outer loop
      vertex -1.5 70 3
      vertex -1.5 70 10.5
      vertex 1.5 70 3
    endloop
  endfacet
  facet normal 0 -1 0
    outer loop
      vertex -16.0453 0.0547819 0
      vertex -1.5 0.0547819 3
      vertex -16.0453 0.0547819 3
    endloop
  endfacet
  facet normal 0 -1 -0
    outer loop
      vertex -16.0453 0.0547819 0
      vertex 1.5 0.0547819 3
      vertex -1.5 0.0547819 3
    endloop
  endfacet
  facet normal 0 -1 0
    outer loop
      vertex -16.0453 0.0547819 0
      vertex 16.0453 0.0547819 0
      vertex 1.5 0.0547819 3
    endloop
  endfacet
  facet normal 0 1 0
    outer loop
      vertex -16.0453 69.9452 0
      vertex -1.5 69.9452 3
      vertex 16.0453 69.9452 0
    endloop
  endfacet
  facet normal 0 1 0
    outer loop
      vertex -16.0453 69.9452 0
      vertex -16.0453 69.9452 3
      vertex -1.5 69.9452 3
    endloop
  endfacet
  facet normal -0.20791 -0.978148 -0
    outer loop
      vertex -18.0902 0.489435 0
      vertex -16.0453 0.0547819 0
      vertex -16.0453 0.0547819 3
    endloop
  endfacet
  facet normal -0.20791 -0.978148 0
    outer loop
      vertex -18.0902 0.489435 0
      vertex -16.0453 0.0547819 3
      vertex -18.0902 0.489435 3
    endloop
  endfacet
  facet normal -0.207886 0.978153 0
    outer loop
      vertex -18.0902 69.5106 0
      vertex -18.0902 69.5106 3
      vertex -16.0453 69.9452 0
    endloop
  endfacet
  facet normal -0.207886 0.978153 0
    outer loop
      vertex -18.0902 69.5106 3
      vertex -16.0453 69.9452 3
      vertex -16.0453 69.9452 0
    endloop
  endfacet
  facet normal -0.406744 -0.913542 -0
    outer loop
      vertex -20 1.33975 0
      vertex -18.0902 0.489435 0
      vertex -18.0902 0.489435 3
    endloop
  endfacet
  facet normal -0.406744 -0.913542 0
    outer loop
      vertex -20 1.33975 0
      vertex -18.0902 0.489435 3
      vertex -20 1.33975 3
    endloop
  endfacet
  facet normal -0.406738 0.913545 0
    outer loop
      vertex -20 68.6603 0
      vertex -20 68.6603 3
      vertex -18.0902 69.5106 0
    endloop
  endfacet
  facet normal -0.406738 0.913545 0
    outer loop
      vertex -20 68.6603 3
      vertex -18.0902 69.5106 3
      vertex -18.0902 69.5106 0
    endloop
  endfacet
  facet normal -0.587785 -0.809017 -0
    outer loop
      vertex -21.6913 2.56855 0
      vertex -20 1.33975 0
      vertex -20 1.33975 3
    endloop
  endfacet
  facet normal -0.587785 -0.809017 0
    outer loop
      vertex -21.6913 2.56855 0
      vertex -20 1.33975 3
      vertex -21.6913 2.56855 3
    endloop
  endfacet
  facet normal -0.587816 0.808995 0
    outer loop
      vertex -21.6913 67.4314 0
      vertex -21.6913 67.4314 3
      vertex -20 68.6603 0
    endloop
  endfacet
  facet normal -0.587816 0.808995 0
    outer loop
      vertex -21.6913 67.4314 3
      vertex -20 68.6603 3
      vertex -20 68.6603 0
    endloop
  endfacet
  facet normal -0.743137 -0.669139 0
    outer loop
      vertex -23.0902 4.12215 0
      vertex -21.6913 2.56855 0
      vertex -23.0902 4.12215 3
    endloop
  endfacet
  facet normal -0.743137 -0.669139 0
    outer loop
      vertex -23.0902 4.12215 3
      vertex -21.6913 2.56855 0
      vertex -21.6913 2.56855 3
    endloop
  endfacet
  facet normal -0.743116 0.669163 0
    outer loop
      vertex -23.0902 65.8779 0
      vertex -21.6913 67.4314 3
      vertex -21.6913 67.4314 0
    endloop
  endfacet
  facet normal -0.743116 0.669163 0
    outer loop
      vertex -23.0902 65.8779 0
      vertex -23.0902 65.8779 3
      vertex -21.6913 67.4314 3
    endloop
  endfacet
  facet normal -0.866021 -0.500007 0
    outer loop
      vertex -24.1355 5.93263 0
      vertex -23.0902 4.12215 0
      vertex -24.1355 5.93263 3
    endloop
  endfacet
  facet normal -0.866021 -0.500007 0
    outer loop
      vertex -24.1355 5.93263 3
      vertex -23.0902 4.12215 0
      vertex -23.0902 4.12215 3
    endloop
  endfacet
  facet normal -0.866024 0.500003 0
    outer loop
      vertex -24.1355 64.0674 0
      vertex -23.0902 65.8779 3
      vertex -23.0902 65.8779 0
    endloop
  endfacet
  facet normal -0.866024 0.500003 0
    outer loop
      vertex -24.1355 64.0674 0
      vertex -24.1355 64.0674 3
      vertex -23.0902 65.8779 3
    endloop
  endfacet
  facet normal -0.951062 0.309001 0
    outer loop
      vertex -24.7815 62.0791 0
      vertex -24.1355 64.0674 3
      vertex -24.1355 64.0674 0
    endloop
  endfacet
  facet normal -0.951062 0.309001 0
    outer loop
      vertex -24.7815 62.0791 0
      vertex -24.7815 62.0791 3
      vertex -24.1355 64.0674 3
    endloop
  endfacet
  facet normal -0.95106 -0.309008 0
    outer loop
      vertex -24.7815 7.92088 0
      vertex -24.1355 5.93263 0
      vertex -24.7815 7.92088 3
    endloop
  endfacet
  facet normal -0.95106 -0.309008 0
    outer loop
      vertex -24.7815 7.92088 3
      vertex -24.1355 5.93263 0
      vertex -24.1355 5.93263 3
    endloop
  endfacet
  facet normal 0 0 -1
    outer loop
      vertex -25 10 0
      vertex -16.0453 0.0547819 0
      vertex -18.0902 0.489435 0
    endloop
  endfacet
  facet normal 0 0 -1
    outer loop
      vertex -25 10 0
      vertex -18.0902 0.489435 0
      vertex -20 1.33975 0
    endloop
  endfacet
  facet normal 0 0 -1
    outer loop
      vertex -25 10 0
      vertex -20 1.33975 0
      vertex -21.6913 2.56855 0
    endloop
  endfacet
  facet normal 0 0 -1
    outer loop
      vertex -25 10 0
      vertex -21.6913 2.56855 0
      vertex -23.0902 4.12215 0
    endloop
  endfacet
  facet normal 0 0 -1
    outer loop
      vertex -25 10 0
      vertex -23.0902 4.12215 0
      vertex -24.1355 5.93263 0
    endloop
  endfacet
  facet normal 0 0 -1
    outer loop
      vertex -25 10 0
      vertex -24.1355 5.93263 0
      vertex -24.7815 7.92088 0
    endloop
  endfacet
  facet normal -0.994523 -0.104517 0
    outer loop
      vertex -25 10 0
      vertex -24.7815 7.92088 0
      vertex -25 10 3
    endloop
  endfacet
  facet normal -1 -0 0
    outer loop
      vertex -25 10 0
      vertex -25 10 3
      vertex -25 60 3
    endloop
  endfacet
  facet normal 0 0 -1
    outer loop
      vertex -25 10 0
      vertex -25 60 0
      vertex 25 60 0
    endloop
  endfacet
  facet normal -1 0 0
    outer loop
      vertex -25 10 0
      vertex -25 60 3
      vertex -25 60 0
    endloop
  endfacet
  facet normal 0 0 -1
    outer loop
      vertex -25 10 0
      vertex 16.0453 0.0547819 0
      vertex -16.0453 0.0547819 0
    endloop
  endfacet
  facet normal -0 0 -1
    outer loop
      vertex -25 10 0
      vertex 25 10 0
      vertex 16.0453 0.0547819 0
    endloop
  endfacet
  facet normal 0 0 -1
    outer loop
      vertex -25 10 0
      vertex 25 60 0
      vertex 25 10 0
    endloop
  endfacet
  facet normal -0 0 1
    outer loop
      vertex -25 10 3
      vertex -1.5 0.0547819 3
      vertex -25 60 3
    endloop
  endfacet
  facet normal 0 0 1
    outer loop
      vertex -25 10 3
      vertex -16.0453 0.0547819 3
      vertex -1.5 0.0547819 3
    endloop
  endfacet
  facet normal 0 0 1
    outer loop
      vertex -25 10 3
      vertex -18.0902 0.489435 3
      vertex -16.0453 0.0547819 3
    endloop
  endfacet
  facet normal 0 0 1
    outer loop
      vertex -25 10 3
      vertex -20 1.33975 3
      vertex -18.0902 0.489435 3
    endloop
  endfacet
  facet normal 0 0 1
    outer loop
      vertex -25 10 3
      vertex -21.6913 2.56855 3
      vertex -20 1.33975 3
    endloop
  endfacet
  facet normal 0 0 1
    outer loop
      vertex -25 10 3
      vertex -23.0902 4.12215 3
      vertex -21.6913 2.56855 3
    endloop
  endfacet
  facet normal 0 0 1
    outer loop
      vertex -25 10 3
      vertex -24.1355 5.93263 3
      vertex -23.0902 4.12215 3
    endloop
  endfacet
  facet normal -0.994523 -0.104517 0
    outer loop
      vertex -25 10 3
      vertex -24.7815 7.92088 0
      vertex -24.7815 7.92088 3
    endloop
  endfacet
  facet normal 0 0 1
    outer loop
      vertex -25 10 3
      vertex -24.7815 7.92088 3
      vertex -24.1355 5.93263 3
    endloop
  endfacet
  facet normal -0 0 -1
    outer loop
      vertex -25 60 0
      vertex -16.0453 69.9452 0
      vertex 16.0453 69.9452 0
    endloop
  endfacet
  facet normal 0 0 -1
    outer loop
      vertex -25 60 0
      vertex -18.0902 69.5106 0
      vertex -16.0453 69.9452 0
    endloop
  endfacet
  facet normal 0 0 -1
    outer loop
      vertex -25 60 0
      vertex -20 68.6603 0
      vertex -18.0902 69.5106 0
    endloop
  endfacet
  facet normal 0 0 -1
    outer loop
      vertex -25 60 0
      vertex -21.6913 67.4314 0
      vertex -20 68.6603 0
    endloop
  endfacet
  facet normal 0 0 -1
    outer loop
      vertex -25 60 0
      vertex -23.0902 65.8779 0
      vertex -21.6913 67.4314 0
    endloop
  endfacet
  facet normal 0 0 -1
    outer loop
      vertex -25 60 0
      vertex -24.1355 64.0674 0
      vertex -23.0902 65.8779 0
    endloop
  endfacet
  facet normal 0 0 -1
    outer loop
      vertex -25 60 0
      vertex -24.7815 62.0791 0
      vertex -24.1355 64.0674 0
    endloop
  endfacet
  facet normal -0.994523 0.104518 0
    outer loop
      vertex -25 60 0
      vertex -24.7815 62.0791 3
      vertex -24.7815 62.0791 0
    endloop
  endfacet
  facet normal -0.994523 0.104518 0
    outer loop
      vertex -25 60 0
      vertex -25 60 3
      vertex -24.7815 62.0791 3
    endloop
  endfacet
  facet normal 0 -0 -1
    outer loop
      vertex -25 60 0
      vertex 16.0453 69.9452 0
      vertex 25 60 0
    endloop
  endfacet
  facet normal 0 0 1
    outer loop
      vertex -25 60 3
      vertex -1.5 0.0547819 3
      vertex -1.5 69.9452 3
    endloop
  endfacet
  facet normal 0 0 1
    outer loop
      vertex -25 60 3
      vertex -1.5 69.9452 3
      vertex -16.0453 69.9452 3
    endloop
  endfacet
  facet normal 0 0 1
    outer loop
      vertex -25 60 3
      vertex -16.0453 69.9452 3
      vertex -18.0902 69.5106 3
    endloop
  endfacet
  facet normal 0 0 1
    outer loop
      vertex -25 60 3
      vertex -18.0902 69.5106 3
      vertex -20 68.6603 3
    endloop
  endfacet
  facet normal 0 0 1
    outer loop
      vertex -25 60 3
      vertex -20 68.6603 3
      vertex -21.6913 67.4314 3
    endloop
  endfacet
  facet normal 0 0 1
    outer loop
      vertex -25 60 3
      vertex -21.6913 67.4314 3
      vertex -23.0902 65.8779 3
    endloop
  endfacet
  facet normal 0 0 1
    outer loop
      vertex -25 60 3
      vertex -23.0902 65.8779 3
      vertex -24.1355 64.0674 3
    endloop
  endfacet
  facet normal 0 0 1
    outer loop
      vertex -25 60 3
      vertex -24.1355 64.0674 3
      vertex -24.7815 62.0791 3
    endloop
  endfacet
  facet normal -0.995037 -0.0995037 0
    outer loop
      vertex -7.5 0 0
      vertex -1 -65 3
      vertex -1.5 -60 3
    endloop
  endfacet
  facet normal -0.995037 -0.0995037 0
    outer loop
      vertex -7.5 0 0
      vertex -1.5 -60 3
      vertex -7.5 0 3
    endloop
  endfacet
  facet normal 0 1 0
    outer loop
      vertex -7.5 0 0
      vertex -1.5 0 3
      vertex 7.5 0 0
    endloop
  endfacet
  facet normal 0 1 0
    outer loop
      vertex -7.5 0 0
      vertex -7.5 0 3
      vertex -1.5 0 3
    endloop
  endfacet
  facet normal -0.995037 -0.0995037 0
    outer loop
      vertex -7.5 0 0
      vertex 0 -75 3
      vertex -1 -65 3
    endloop
  endfacet
  facet normal -0.983801 -0.0922313 0.153719
    outer loop
      vertex -7.5 0 0
      vertex 0 -80 0
      vertex 0 -75 3
    endloop
  endfacet
  facet normal -0 0 -1
    outer loop
      vertex -7.5 0 0
      vertex 7.5 0 0
      vertex 0 -80 0
    endloop
  endfacet
  facet normal 0 -0 1
    outer loop
      vertex -7.5 0 3
      vertex -1.5 -60 3
      vertex -1.5 0 3
    endloop
  endfacet
  facet normal 0.995037 -0.0995037 0
    outer loop
      vertex 0 -75 3
      vertex 7.5 0 0
      vertex 1 -65 3
    endloop
  endfacet
  facet normal 0.983801 -0.0922313 0.153719
    outer loop
      vertex 0 -80 0
      vertex 7.5 0 0
      vertex 0 -75 3
    endloop
  endfacet
  facet normal 0 0 -1
    outer loop
      vertex 1 -65 3
      vertex 1.5 -60 3
      vertex 1.5 -65 3
    endloop
  endfacet
  facet normal 0 -0.114624 0.993409
    outer loop
      vertex 1 -65 3
      vertex 1.5 -65 3
      vertex 1.5 0 10.5
    endloop
  endfacet
  facet normal 0.995037 -0.0995037 0
    outer loop
      vertex 1 -65 3
      vertex 7.5 0 0
      vertex 1.5 -60 3
    endloop
  endfacet
  facet normal 1 0 0
    outer loop
      vertex 1.5 -60 3
      vertex 1.5 0 3
      vertex 1.5 0 10.5
    endloop
  endfacet
  facet normal 0.995037 -0.0995037 0
    outer loop
      vertex 1.5 -60 3
      vertex 7.5 0 0
      vertex 7.5 0 3
    endloop
  endfacet
  facet normal 0 0 1
    outer loop
      vertex 1.5 -60 3
      vertex 7.5 0 3
      vertex 1.5 0 3
    endloop
  endfacet
  facet normal 1 0 -0
    outer loop
      vertex 1.5 -65 3
      vertex 1.5 -60 3
      vertex 1.5 0 10.5
    endloop
  endfacet
  facet normal 1 -0 0
    outer loop
      vertex 1.5 0 10.5
      vertex 1.5 0.0547819 3
      vertex 1.5 70 10.5
    endloop
  endfacet
  facet normal 1 0 0
    outer loop
      vertex 1.5 0 3
      vertex 1.5 0.0547819 3
      vertex 1.5 0 10.5
    endloop
  endfacet
  facet normal 0 1 -0
    outer loop
      vertex 1.5 0 3
      vertex 7.5 0 3
      vertex 7.5 0 0
    endloop
  endfacet
  facet normal 1 0 0
    outer loop
      vertex 1.5 0.0547819 3
      vertex 1.5 69.9452 3
      vertex 1.5 70 10.5
    endloop
  endfacet
  facet normal 0 -1 0
    outer loop
      vertex 1.5 0.0547819 3
      vertex 16.0453 0.0547819 0
      vertex 16.0453 0.0547819 3
    endloop
  endfacet
  facet normal 0 -0 1
    outer loop
      vertex 1.5 0.0547819 3
      vertex 16.0453 0.0547819 3
      vertex 25 10 3
    endloop
  endfacet
  facet normal 0 0 1
    outer loop
      vertex 1.5 0.0547819 3
      vertex 25 10 3
      vertex 1.5 69.9452 3
    endloop
  endfacet
  facet normal 1 0 0
    outer loop
      vertex 1.5 69.9452 3
      vertex 1.5 70 3
      vertex 1.5 70 10.5
    endloop
  endfacet
  facet normal 0 1 -0
    outer loop
      vertex 1.5 69.9452 3
      vertex 16.0453 69.9452 3
      vertex 16.0453 69.9452 0
    endloop
  endfacet
  facet normal 0 0 1
    outer loop
      vertex 1.5 69.9452 3
      vertex 25 10 3
      vertex 25 60 3
    endloop
  endfacet
  facet normal 0 0 1
    outer loop
      vertex 1.5 69.9452 3
      vertex 25 60 3
      vertex 16.0453 69.9452 3
    endloop
  endfacet
  facet normal 0.20791 -0.978148 0
    outer loop
      vertex 16.0453 0.0547819 0
      vertex 18.0902 0.489435 0
      vertex 18.0902 0.489435 3
    endloop
  endfacet
  facet normal 0.20791 -0.978148 0
    outer loop
      vertex 16.0453 0.0547819 0
      vertex 18.0902 0.489435 3
      vertex 16.0453 0.0547819 3
    endloop
  endfacet
  facet normal 0 0 -1
    outer loop
      vertex 16.0453 0.0547819 0
      vertex 20 1.33975 0
      vertex 18.0902 0.489435 0
    endloop
  endfacet
  facet normal 0 0 -1
    outer loop
      vertex 16.0453 0.0547819 0
      vertex 21.6913 2.56855 0
      vertex 20 1.33975 0
    endloop
  endfacet
  facet normal 0 0 -1
    outer loop
      vertex 16.0453 0.0547819 0
      vertex 23.0902 4.12215 0
      vertex 21.6913 2.56855 0
    endloop
  endfacet
  facet normal 0 0 -1
    outer loop
      vertex 16.0453 0.0547819 0
      vertex 24.1355 5.93263 0
      vertex 23.0902 4.12215 0
    endloop
  endfacet
  facet normal 0 0 -1
    outer loop
      vertex 16.0453 0.0547819 0
      vertex 24.7815 7.92088 0
      vertex 24.1355 5.93263 0
    endloop
  endfacet
  facet normal 0 0 -1
    outer loop
      vertex 16.0453 0.0547819 0
      vertex 25 10 0
      vertex 24.7815 7.92088 0
    endloop
  endfacet
  facet normal 0 0 1
    outer loop
      vertex 16.0453 0.0547819 3
      vertex 18.0902 0.489435 3
      vertex 20 1.33975 3
    endloop
  endfacet
  facet normal 0 0 1
    outer loop
      vertex 16.0453 0.0547819 3
      vertex 20 1.33975 3
      vertex 21.6913 2.56855 3
    endloop
  endfacet
  facet normal 0 0 1
    outer loop
      vertex 16.0453 0.0547819 3
      vertex 21.6913 2.56855 3
      vertex 23.0902 4.12215 3
    endloop
  endfacet
  facet normal 0 0 1
    outer loop
      vertex 16.0453 0.0547819 3
      vertex 23.0902 4.12215 3
      vertex 24.1355 5.93263 3
    endloop
  endfacet
  facet normal 0 0 1
    outer loop
      vertex 16.0453 0.0547819 3
      vertex 24.1355 5.93263 3
      vertex 24.7815 7.92088 3
    endloop
  endfacet
  facet normal 0 0 1
    outer loop
      vertex 16.0453 0.0547819 3
      vertex 24.7815 7.92088 3
      vertex 25 10 3
    endloop
  endfacet
  facet normal 0.207886 0.978153 0
    outer loop
      vertex 16.0453 69.9452 0
      vertex 16.0453 69.9452 3
      vertex 18.0902 69.5106 0
    endloop
  endfacet
  facet normal 0 0 -1
    outer loop
      vertex 16.0453 69.9452 0
      vertex 18.0902 69.5106 0
      vertex 20 68.6603 0
    endloop
  endfacet
  facet normal 0 0 -1
    outer loop
      vertex 16.0453 69.9452 0
      vertex 20 68.6603 0
      vertex 21.6913 67.4314 0
    endloop
  endfacet
  facet normal 0 0 -1
    outer loop
      vertex 16.0453 69.9452 0
      vertex 21.6913 67.4314 0
      vertex 23.0902 65.8779 0
    endloop
  endfacet
  facet normal 0 0 -1
    outer loop
      vertex 16.0453 69.9452 0
      vertex 23.0902 65.8779 0
      vertex 24.1355 64.0674 0
    endloop
  endfacet
  facet normal 0 0 -1
    outer loop
      vertex 16.0453 69.9452 0
      vertex 24.1355 64.0674 0
      vertex 24.7815 62.0791 0
    endloop
  endfacet
  facet normal 0 0 -1
    outer loop
      vertex 16.0453 69.9452 0
      vertex 24.7815 62.0791 0
      vertex 25 60 0
    endloop
  endfacet
  facet normal 0.207886 0.978153 -0
    outer loop
      vertex 16.0453 69.9452 3
      vertex 18.0902 69.5106 3
      vertex 18.0902 69.5106 0
    endloop
  endfacet
  facet normal 0 0 1
    outer loop
      vertex 16.0453 69.9452 3
      vertex 20 68.6603 3
      vertex 18.0902 69.5106 3
    endloop
  endfacet
  facet normal 0 0 1
    outer loop
      vertex 16.0453 69.9452 3
      vertex 21.6913 67.4314 3
      vertex 20 68.6603 3
    endloop
  endfacet
  facet normal 0 0 1
    outer loop
      vertex 16.0453 69.9452 3
      vertex 23.0902 65.8779 3
      vertex 21.6913 67.4314 3
    endloop
  endfacet
  facet normal 0 0 1
    outer loop
      vertex 16.0453 69.9452 3
      vertex 24.1355 64.0674 3
      vertex 23.0902 65.8779 3
    endloop
  endfacet
  facet normal 0 0 1
    outer loop
      vertex 16.0453 69.9452 3
      vertex 24.7815 62.0791 3
      vertex 24.1355 64.0674 3
    endloop
  endfacet
  facet normal 0 0 1
    outer loop
      vertex 16.0453 69.9452 3
      vertex 25 60 3
      vertex 24.7815 62.0791 3
    endloop
  endfacet
  facet normal 0.406744 -0.913542 0
    outer loop
      vertex 18.0902 0.489435 0
      vertex 20 1.33975 0
      vertex 20 1.33975 3
    endloop
  endfacet
  facet normal 0.406744 -0.913542 0
    outer loop
      vertex 18.0902 0.489435 0
      vertex 20 1.33975 3
      vertex 18.0902 0.489435 3
    endloop
  endfacet
  facet normal 0.406738 0.913545 0
    outer loop
      vertex 18.0902 69.5106 0
      vertex 18.0902 69.5106 3
      vertex 20 68.6603 0
    endloop
  endfacet
  facet normal 0.406738 0.913545 -0
    outer loop
      vertex 18.0902 69.5106 3
      vertex 20 68.6603 3
      vertex 20 68.6603 0
    endloop
  endfacet
  facet normal 0.587785 -0.809017 0
    outer loop
      vertex 20 1.33975 0
      vertex 21.6913 2.56855 0
      vertex 21.6913 2.56855 3
    endloop
  endfacet
  facet normal 0.587785 -0.809017 0
    outer loop
      vertex 20 1.33975 0
      vertex 21.6913 2.56855 3
      vertex 20 1.33975 3
    endloop
  endfacet
  facet normal 0.587816 0.808995 0
    outer loop
      vertex 20 68.6603 0
      vertex 20 68.6603 3
      vertex 21.6913 67.4314 0
    endloop
  endfacet
  facet normal 0.587816 0.808995 -0
    outer loop
      vertex 20 68.6603 3
      vertex 21.6913 67.4314 3
      vertex 21.6913 67.4314 0
    endloop
  endfacet
  facet normal 0.743137 -0.669139 0
    outer loop
      vertex 21.6913 2.56855 0
      vertex 23.0902 4.12215 0
      vertex 21.6913 2.56855 3
    endloop
  endfacet
  facet normal 0.743137 -0.669139 0
    outer loop
      vertex 21.6913 2.56855 3
      vertex 23.0902 4.12215 0
      vertex 23.0902 4.12215 3
    endloop
  endfacet
  facet normal 0.743116 0.669163 0
    outer loop
      vertex 21.6913 67.4314 0
      vertex 21.6913 67.4314 3
      vertex 23.0902 65.8779 3
    endloop
  endfacet
  facet normal 0.743116 0.669163 0
    outer loop
      vertex 21.6913 67.4314 0
      vertex 23.0902 65.8779 3
      vertex 23.0902 65.8779 0
    endloop
  endfacet
  facet normal 0.866021 -0.500007 0
    outer loop
      vertex 23.0902 4.12215 0
      vertex 24.1355 5.93263 0
      vertex 23.0902 4.12215 3
    endloop
  endfacet
  facet normal 0.866021 -0.500007 0
    outer loop
      vertex 23.0902 4.12215 3
      vertex 24.1355 5.93263 0
      vertex 24.1355 5.93263 3
    endloop
  endfacet
  facet normal 0.866024 0.500003 0
    outer loop
      vertex 23.0902 65.8779 0
      vertex 23.0902 65.8779 3
      vertex 24.1355 64.0674 3
    endloop
  endfacet
  facet normal 0.866024 0.500003 0
    outer loop
      vertex 23.0902 65.8779 0
      vertex 24.1355 64.0674 3
      vertex 24.1355 64.0674 0
    endloop
  endfacet
  facet normal 0.95106 -0.309008 0
    outer loop
      vertex 24.1355 5.93263 0
      vertex 24.7815 7.92088 0
      vertex 24.1355 5.93263 3
    endloop
  endfacet
  facet normal 0.95106 -0.309008 0
    outer loop
      vertex 24.1355 5.93263 3
      vertex 24.7815 7.92088 0
      vertex 24.7815 7.92088 3
    endloop
  endfacet
  facet normal 0.951062 0.309001 0
    outer loop
      vertex 24.1355 64.0674 0
      vertex 24.1355 64.0674 3
      vertex 24.7815 62.0791 3
    endloop
  endfacet
  facet normal 0.951062 0.309001 0
    outer loop
      vertex 24.1355 64.0674 0
      vertex 24.7815 62.0791 3
      vertex 24.7815 62.0791 0
    endloop
  endfacet
  facet normal 0.994523 0.104518 0
    outer loop
      vertex 24.7815 62.0791 0
      vertex 24.7815 62.0791 3
      vertex 25 60 3
    endloop
  endfacet
  facet normal 0.994523 0.104518 0
    outer loop
      vertex 24.7815 62.0791 0
      vertex 25 60 3
      vertex 25 60 0
    endloop
  endfacet
  facet normal 0.994523 -0.104517 0
    outer loop
      vertex 24.7815 7.92088 0
      vertex 25 10 0
      vertex 24.7815 7.92088 3
    endloop
  endfacet
  facet normal 0.994523 -0.104517 0
    outer loop
      vertex 24.7815 7.92088 3
      vertex 25 10 0
      vertex 25 10 3
    endloop
  endfacet
  facet normal 1 0 0
    outer loop
      vertex 25 10 0
      vertex 25 60 0
      vertex 25 10 3
    endloop
  endfacet
  facet normal 1 -0 0
    outer loop
      vertex 25 10 3
      vertex 25 60 0
      vertex 25 60 3
    endloop
  endfacet
endsolid model
