solid OpenSCAD_Model
  facet normal -0.951059 -0.309011 0
    outer loop
      vertex 7.25302 -12.8863 0
      vertex 7.11412 -12.4588 6
      vertex 7.11412 -12.4588 0
    endloop
  endfacet
  facet normal -0.951059 -0.309011 0
    outer loop
      vertex 7.11412 -12.4588 6
      vertex 7.25302 -12.8863 0
      vertex 7.25302 -12.8863 6
    endloop
  endfacet
  facet normal -0.994522 -0.104525 0
    outer loop
      vertex 7.3 -13.3333 0
      vertex 7.25302 -12.8863 6
      vertex 7.25302 -12.8863 0
    endloop
  endfacet
  facet normal -0.994522 -0.104525 0
    outer loop
      vertex 7.25302 -12.8863 6
      vertex 7.3 -13.3333 0
      vertex 7.3 -13.3333 6
    endloop
  endfacet
  facet normal 0.994522 0.104525 0
    outer loop
      vertex 3.04698 -13.7803 6
      vertex 3 -13.3333 0
      vertex 3 -13.3333 6
    endloop
  endfacet
  facet normal 0.994522 0.104525 0
    outer loop
      vertex 3 -13.3333 0
      vertex 3.04698 -13.7803 6
      vertex 3.04698 -13.7803 0
    endloop
  endfacet
  facet normal 0.208017 -0.978125 0
    outer loop
      vertex 4.48561 -11.2886 0
      vertex 4.92526 -11.1951 6
      vertex 4.48561 -11.2886 6
    endloop
  endfacet
  facet normal 0.208017 -0.978125 0
    outer loop
      vertex 4.92526 -11.1951 6
      vertex 4.48561 -11.2886 0
      vertex 4.92526 -11.1951 0
    endloop
  endfacet
  facet normal 0.866057 0.499946 0
    outer loop
      vertex 3.41061 -14.5971 6
      vertex 3.18588 -14.2078 0
      vertex 3.18588 -14.2078 6
    endloop
  endfacet
  facet normal 0.866057 0.499946 0
    outer loop
      vertex 3.18588 -14.2078 0
      vertex 3.41061 -14.5971 6
      vertex 3.41061 -14.5971 0
    endloop
  endfacet
  facet normal 0.208017 0.978125 -0
    outer loop
      vertex 4.92526 -15.4716 0
      vertex 4.48561 -15.3781 6
      vertex 4.92526 -15.4716 6
    endloop
  endfacet
  facet normal 0.208017 0.978125 0
    outer loop
      vertex 4.48561 -15.3781 6
      vertex 4.92526 -15.4716 0
      vertex 4.48561 -15.3781 0
    endloop
  endfacet
  facet normal -0.406708 -0.913558 0
    outer loop
      vertex 5.81439 -11.2886 0
      vertex 6.225 -11.4714 6
      vertex 5.81439 -11.2886 6
    endloop
  endfacet
  facet normal -0.406708 -0.913558 -0
    outer loop
      vertex 6.225 -11.4714 6
      vertex 5.81439 -11.2886 0
      vertex 6.225 -11.4714 0
    endloop
  endfacet
  facet normal 0.994522 -0.104525 0
    outer loop
      vertex 3 -13.3333 6
      vertex 3.04698 -12.8863 0
      vertex 3.04698 -12.8863 6
    endloop
  endfacet
  facet normal 0.994522 -0.104525 0
    outer loop
      vertex 3.04698 -12.8863 0
      vertex 3 -13.3333 6
      vertex 3 -13.3333 0
    endloop
  endfacet
  facet normal -0.406708 0.913558 0
    outer loop
      vertex 6.225 -15.1953 0
      vertex 5.81439 -15.3781 6
      vertex 6.225 -15.1953 6
    endloop
  endfacet
  facet normal -0.406708 0.913558 0
    outer loop
      vertex 5.81439 -15.3781 6
      vertex 6.225 -15.1953 0
      vertex 5.81439 -15.3781 0
    endloop
  endfacet
  facet normal -0.994522 0.104525 0
    outer loop
      vertex 7.25302 -13.7803 0
      vertex 7.3 -13.3333 6
      vertex 7.3 -13.3333 0
    endloop
  endfacet
  facet normal -0.994522 0.104525 0
    outer loop
      vertex 7.3 -13.3333 6
      vertex 7.25302 -13.7803 0
      vertex 7.25302 -13.7803 6
    endloop
  endfacet
  facet normal -0.866001 -0.500042 0
    outer loop
      vertex 7.11412 -12.4588 0
      vertex 6.88939 -12.0696 6
      vertex 6.88939 -12.0696 0
    endloop
  endfacet
  facet normal -0.866001 -0.500042 0
    outer loop
      vertex 6.88939 -12.0696 6
      vertex 7.11412 -12.4588 0
      vertex 7.11412 -12.4588 6
    endloop
  endfacet
  facet normal -0.208017 0.978125 0
    outer loop
      vertex 5.81439 -15.3781 0
      vertex 5.37474 -15.4716 6
      vertex 5.81439 -15.3781 6
    endloop
  endfacet
  facet normal -0.208017 0.978125 0
    outer loop
      vertex 5.37474 -15.4716 6
      vertex 5.81439 -15.3781 0
      vertex 5.37474 -15.4716 0
    endloop
  endfacet
  facet normal 0 -1 0
    outer loop
      vertex 4.92526 -11.1951 0
      vertex 5.37474 -11.1951 6
      vertex 4.92526 -11.1951 6
    endloop
  endfacet
  facet normal 0 -1 -0
    outer loop
      vertex 5.37474 -11.1951 6
      vertex 4.92526 -11.1951 0
      vertex 5.37474 -11.1951 0
    endloop
  endfacet
  facet normal 0.743117 -0.669161 0
    outer loop
      vertex 3.41061 -12.0696 6
      vertex 3.71137 -11.7356 0
      vertex 3.71137 -11.7356 6
    endloop
  endfacet
  facet normal 0.743117 -0.669161 0
    outer loop
      vertex 3.71137 -11.7356 0
      vertex 3.41061 -12.0696 6
      vertex 3.41061 -12.0696 0
    endloop
  endfacet
  facet normal 0.406708 -0.913558 0
    outer loop
      vertex 4.075 -11.4714 0
      vertex 4.48561 -11.2886 6
      vertex 4.075 -11.4714 6
    endloop
  endfacet
  facet normal 0.406708 -0.913558 0
    outer loop
      vertex 4.48561 -11.2886 6
      vertex 4.075 -11.4714 0
      vertex 4.48561 -11.2886 0
    endloop
  endfacet
  facet normal 0.587796 0.809009 -0
    outer loop
      vertex 4.075 -15.1953 0
      vertex 3.71137 -14.9311 6
      vertex 4.075 -15.1953 6
    endloop
  endfacet
  facet normal 0.587796 0.809009 0
    outer loop
      vertex 3.71137 -14.9311 6
      vertex 4.075 -15.1953 0
      vertex 3.71137 -14.9311 0
    endloop
  endfacet
  facet normal -0.587796 0.809009 0
    outer loop
      vertex 6.58863 -14.9311 0
      vertex 6.225 -15.1953 6
      vertex 6.58863 -14.9311 6
    endloop
  endfacet
  facet normal -0.587796 0.809009 0
    outer loop
      vertex 6.225 -15.1953 6
      vertex 6.58863 -14.9311 0
      vertex 6.225 -15.1953 0
    endloop
  endfacet
  facet normal -0.951059 0.309011 0
    outer loop
      vertex 7.11412 -14.2078 0
      vertex 7.25302 -13.7803 6
      vertex 7.25302 -13.7803 0
    endloop
  endfacet
  facet normal -0.951059 0.309011 0
    outer loop
      vertex 7.25302 -13.7803 6
      vertex 7.11412 -14.2078 0
      vertex 7.11412 -14.2078 6
    endloop
  endfacet
  facet normal 0.951059 0.309011 0
    outer loop
      vertex 3.18588 -14.2078 6
      vertex 3.04698 -13.7803 0
      vertex 3.04698 -13.7803 6
    endloop
  endfacet
  facet normal 0.951059 0.309011 0
    outer loop
      vertex 3.04698 -13.7803 0
      vertex 3.18588 -14.2078 6
      vertex 3.18588 -14.2078 0
    endloop
  endfacet
  facet normal 0.587796 -0.809009 0
    outer loop
      vertex 3.71137 -11.7356 0
      vertex 4.075 -11.4714 6
      vertex 3.71137 -11.7356 6
    endloop
  endfacet
  facet normal 0.587796 -0.809009 0
    outer loop
      vertex 4.075 -11.4714 6
      vertex 3.71137 -11.7356 0
      vertex 4.075 -11.4714 0
    endloop
  endfacet
  facet normal 0.406708 0.913558 -0
    outer loop
      vertex 4.48561 -15.3781 0
      vertex 4.075 -15.1953 6
      vertex 4.48561 -15.3781 6
    endloop
  endfacet
  facet normal 0.406708 0.913558 0
    outer loop
      vertex 4.075 -15.1953 6
      vertex 4.48561 -15.3781 0
      vertex 4.075 -15.1953 0
    endloop
  endfacet
  facet normal -0.587796 -0.809009 0
    outer loop
      vertex 6.225 -11.4714 0
      vertex 6.58863 -11.7356 6
      vertex 6.225 -11.4714 6
    endloop
  endfacet
  facet normal -0.587796 -0.809009 -0
    outer loop
      vertex 6.58863 -11.7356 6
      vertex 6.225 -11.4714 0
      vertex 6.58863 -11.7356 0
    endloop
  endfacet
  facet normal -0.208017 -0.978125 0
    outer loop
      vertex 5.37474 -11.1951 0
      vertex 5.81439 -11.2886 6
      vertex 5.37474 -11.1951 6
    endloop
  endfacet
  facet normal -0.208017 -0.978125 -0
    outer loop
      vertex 5.81439 -11.2886 6
      vertex 5.37474 -11.1951 0
      vertex 5.81439 -11.2886 0
    endloop
  endfacet
  facet normal -0.743117 -0.669161 0
    outer loop
      vertex 6.88939 -12.0696 0
      vertex 6.58863 -11.7356 6
      vertex 6.58863 -11.7356 0
    endloop
  endfacet
  facet normal -0.743117 -0.669161 0
    outer loop
      vertex 6.58863 -11.7356 6
      vertex 6.88939 -12.0696 0
      vertex 6.88939 -12.0696 6
    endloop
  endfacet
  facet normal -0.743117 0.669161 0
    outer loop
      vertex 6.58863 -14.9311 0
      vertex 6.88939 -14.5971 6
      vertex 6.88939 -14.5971 0
    endloop
  endfacet
  facet normal -0.743117 0.669161 0
    outer loop
      vertex 6.88939 -14.5971 6
      vertex 6.58863 -14.9311 0
      vertex 6.58863 -14.9311 6
    endloop
  endfacet
  facet normal 0 1 -0
    outer loop
      vertex 5.37474 -15.4716 0
      vertex 4.92526 -15.4716 6
      vertex 5.37474 -15.4716 6
    endloop
  endfacet
  facet normal 0 1 0
    outer loop
      vertex 4.92526 -15.4716 6
      vertex 5.37474 -15.4716 0
      vertex 4.92526 -15.4716 0
    endloop
  endfacet
  facet normal 0.866001 -0.500042 0
    outer loop
      vertex 3.18588 -12.4588 6
      vertex 3.41061 -12.0696 0
      vertex 3.41061 -12.0696 6
    endloop
  endfacet
  facet normal 0.866001 -0.500042 0
    outer loop
      vertex 3.41061 -12.0696 0
      vertex 3.18588 -12.4588 6
      vertex 3.18588 -12.4588 0
    endloop
  endfacet
  facet normal -0.866057 0.499946 0
    outer loop
      vertex 6.88939 -14.5971 0
      vertex 7.11412 -14.2078 6
      vertex 7.11412 -14.2078 0
    endloop
  endfacet
  facet normal -0.866057 0.499946 0
    outer loop
      vertex 7.11412 -14.2078 6
      vertex 6.88939 -14.5971 0
      vertex 6.88939 -14.5971 6
    endloop
  endfacet
  facet normal 0.743117 0.669161 0
    outer loop
      vertex 3.71137 -14.9311 6
      vertex 3.41061 -14.5971 0
      vertex 3.41061 -14.5971 6
    endloop
  endfacet
  facet normal 0.743117 0.669161 0
    outer loop
      vertex 3.41061 -14.5971 0
      vertex 3.71137 -14.9311 6
      vertex 3.71137 -14.9311 0
    endloop
  endfacet
  facet normal 0.951059 -0.309011 0
    outer loop
      vertex 3.04698 -12.8863 6
      vertex 3.18588 -12.4588 0
      vertex 3.18588 -12.4588 6
    endloop
  endfacet
  facet normal 0.951059 -0.309011 0
    outer loop
      vertex 3.18588 -12.4588 0
      vertex 3.04698 -12.8863 6
      vertex 3.04698 -12.8863 0
    endloop
  endfacet
  facet normal -0.951059 -0.309011 0
    outer loop
      vertex 7.25302 13.7803 0
      vertex 7.11412 14.2078 6
      vertex 7.11412 14.2078 0
    endloop
  endfacet
  facet normal -0.951059 -0.309011 0
    outer loop
      vertex 7.11412 14.2078 6
      vertex 7.25302 13.7803 0
      vertex 7.25302 13.7803 6
    endloop
  endfacet
  facet normal -0.994522 -0.104525 0
    outer loop
      vertex 7.3 13.3333 0
      vertex 7.25302 13.7803 6
      vertex 7.25302 13.7803 0
    endloop
  endfacet
  facet normal -0.994522 -0.104525 0
    outer loop
      vertex 7.25302 13.7803 6
      vertex 7.3 13.3333 0
      vertex 7.3 13.3333 6
    endloop
  endfacet
  facet normal -0.866057 -0.499946 0
    outer loop
      vertex 7.11412 14.2078 0
      vertex 6.88939 14.5971 6
      vertex 6.88939 14.5971 0
    endloop
  endfacet
  facet normal -0.866057 -0.499946 0
    outer loop
      vertex 6.88939 14.5971 6
      vertex 7.11412 14.2078 0
      vertex 7.11412 14.2078 6
    endloop
  endfacet
  facet normal -0.743117 0.669161 0
    outer loop
      vertex 6.58863 11.7356 0
      vertex 6.88939 12.0696 6
      vertex 6.88939 12.0696 0
    endloop
  endfacet
  facet normal -0.743117 0.669161 0
    outer loop
      vertex 6.88939 12.0696 6
      vertex 6.58863 11.7356 0
      vertex 6.58863 11.7356 6
    endloop
  endfacet
  facet normal -0.587796 -0.809009 0
    outer loop
      vertex 6.225 15.1953 0
      vertex 6.58863 14.9311 6
      vertex 6.225 15.1953 6
    endloop
  endfacet
  facet normal -0.587796 -0.809009 -0
    outer loop
      vertex 6.58863 14.9311 6
      vertex 6.225 15.1953 0
      vertex 6.58863 14.9311 0
    endloop
  endfacet
  facet normal -0.951059 0.309011 0
    outer loop
      vertex 7.11412 12.4588 0
      vertex 7.25302 12.8863 6
      vertex 7.25302 12.8863 0
    endloop
  endfacet
  facet normal -0.951059 0.309011 0
    outer loop
      vertex 7.25302 12.8863 6
      vertex 7.11412 12.4588 0
      vertex 7.11412 12.4588 6
    endloop
  endfacet
  facet normal 0.406708 -0.913558 0
    outer loop
      vertex 4.075 15.1953 0
      vertex 4.48561 15.3781 6
      vertex 4.075 15.1953 6
    endloop
  endfacet
  facet normal 0.406708 -0.913558 0
    outer loop
      vertex 4.48561 15.3781 6
      vertex 4.075 15.1953 0
      vertex 4.48561 15.3781 0
    endloop
  endfacet
  facet normal -0.208017 -0.978125 0
    outer loop
      vertex 5.37474 15.4716 0
      vertex 5.81439 15.3781 6
      vertex 5.37474 15.4716 6
    endloop
  endfacet
  facet normal -0.208017 -0.978125 -0
    outer loop
      vertex 5.81439 15.3781 6
      vertex 5.37474 15.4716 0
      vertex 5.81439 15.3781 0
    endloop
  endfacet
  facet normal 0 1 -0
    outer loop
      vertex 5.37474 11.1951 0
      vertex 4.92526 11.1951 6
      vertex 5.37474 11.1951 6
    endloop
  endfacet
  facet normal 0 1 0
    outer loop
      vertex 4.92526 11.1951 6
      vertex 5.37474 11.1951 0
      vertex 4.92526 11.1951 0
    endloop
  endfacet
  facet normal 0.866057 -0.499946 0
    outer loop
      vertex 3.18588 14.2078 6
      vertex 3.41061 14.5971 0
      vertex 3.41061 14.5971 6
    endloop
  endfacet
  facet normal 0.866057 -0.499946 0
    outer loop
      vertex 3.41061 14.5971 0
      vertex 3.18588 14.2078 6
      vertex 3.18588 14.2078 0
    endloop
  endfacet
  facet normal 0.994522 0.104525 0
    outer loop
      vertex 3.04698 12.8863 6
      vertex 3 13.3333 0
      vertex 3 13.3333 6
    endloop
  endfacet
  facet normal 0.994522 0.104525 0
    outer loop
      vertex 3 13.3333 0
      vertex 3.04698 12.8863 6
      vertex 3.04698 12.8863 0
    endloop
  endfacet
  facet normal -0.406708 0.913558 0
    outer loop
      vertex 6.225 11.4714 0
      vertex 5.81439 11.2886 6
      vertex 6.225 11.4714 6
    endloop
  endfacet
  facet normal -0.406708 0.913558 0
    outer loop
      vertex 5.81439 11.2886 6
      vertex 6.225 11.4714 0
      vertex 5.81439 11.2886 0
    endloop
  endfacet
  facet normal 0.743117 -0.669161 0
    outer loop
      vertex 3.41061 14.5971 6
      vertex 3.71137 14.9311 0
      vertex 3.71137 14.9311 6
    endloop
  endfacet
  facet normal 0.743117 -0.669161 0
    outer loop
      vertex 3.71137 14.9311 0
      vertex 3.41061 14.5971 6
      vertex 3.41061 14.5971 0
    endloop
  endfacet
  facet normal 0.208017 -0.978125 0
    outer loop
      vertex 4.48561 15.3781 0
      vertex 4.92526 15.4716 6
      vertex 4.48561 15.3781 6
    endloop
  endfacet
  facet normal 0.208017 -0.978125 0
    outer loop
      vertex 4.92526 15.4716 6
      vertex 4.48561 15.3781 0
      vertex 4.92526 15.4716 0
    endloop
  endfacet
  facet normal -0.866001 0.500042 0
    outer loop
      vertex 6.88939 12.0696 0
      vertex 7.11412 12.4588 6
      vertex 7.11412 12.4588 0
    endloop
  endfacet
  facet normal -0.866001 0.500042 0
    outer loop
      vertex 7.11412 12.4588 6
      vertex 6.88939 12.0696 0
      vertex 6.88939 12.0696 6
    endloop
  endfacet
  facet normal 0.866001 0.500042 0
    outer loop
      vertex 3.41061 12.0696 6
      vertex 3.18588 12.4588 0
      vertex 3.18588 12.4588 6
    endloop
  endfacet
  facet normal 0.866001 0.500042 0
    outer loop
      vertex 3.18588 12.4588 0
      vertex 3.41061 12.0696 6
      vertex 3.41061 12.0696 0
    endloop
  endfacet
  facet normal -0.743117 -0.669161 0
    outer loop
      vertex 6.88939 14.5971 0
      vertex 6.58863 14.9311 6
      vertex 6.58863 14.9311 0
    endloop
  endfacet
  facet normal -0.743117 -0.669161 0
    outer loop
      vertex 6.58863 14.9311 6
      vertex 6.88939 14.5971 0
      vertex 6.88939 14.5971 6
    endloop
  endfacet
  facet normal 0.743117 0.669161 0
    outer loop
      vertex 3.71137 11.7356 6
      vertex 3.41061 12.0696 0
      vertex 3.41061 12.0696 6
    endloop
  endfacet
  facet normal 0.743117 0.669161 0
    outer loop
      vertex 3.41061 12.0696 0
      vertex 3.71137 11.7356 6
      vertex 3.71137 11.7356 0
    endloop
  endfacet
  facet normal 0.587796 0.809009 -0
    outer loop
      vertex 4.075 11.4714 0
      vertex 3.71137 11.7356 6
      vertex 4.075 11.4714 6
    endloop
  endfacet
  facet normal 0.587796 0.809009 0
    outer loop
      vertex 3.71137 11.7356 6
      vertex 4.075 11.4714 0
      vertex 3.71137 11.7356 0
    endloop
  endfacet
  facet normal 0.587796 -0.809009 0
    outer loop
      vertex 3.71137 14.9311 0
      vertex 4.075 15.1953 6
      vertex 3.71137 14.9311 6
    endloop
  endfacet
  facet normal 0.587796 -0.809009 0
    outer loop
      vertex 4.075 15.1953 6
      vertex 3.71137 14.9311 0
      vertex 4.075 15.1953 0
    endloop
  endfacet
  facet normal -0.208017 0.978125 0
    outer loop
      vertex 5.81439 11.2886 0
      vertex 5.37474 11.1951 6
      vertex 5.81439 11.2886 6
    endloop
  endfacet
  facet normal -0.208017 0.978125 0
    outer loop
      vertex 5.37474 11.1951 6
      vertex 5.81439 11.2886 0
      vertex 5.37474 11.1951 0
    endloop
  endfacet
  facet normal -0.587796 0.809009 0
    outer loop
      vertex 6.58863 11.7356 0
      vertex 6.225 11.4714 6
      vertex 6.58863 11.7356 6
    endloop
  endfacet
  facet normal -0.587796 0.809009 0
    outer loop
      vertex 6.225 11.4714 6
      vertex 6.58863 11.7356 0
      vertex 6.225 11.4714 0
    endloop
  endfacet
  facet normal -0.994522 0.104525 0
    outer loop
      vertex 7.25302 12.8863 0
      vertex 7.3 13.3333 6
      vertex 7.3 13.3333 0
    endloop
  endfacet
  facet normal -0.994522 0.104525 0
    outer loop
      vertex 7.3 13.3333 6
      vertex 7.25302 12.8863 0
      vertex 7.25302 12.8863 6
    endloop
  endfacet
  facet normal -0.406708 -0.913558 0
    outer loop
      vertex 5.81439 15.3781 0
      vertex 6.225 15.1953 6
      vertex 5.81439 15.3781 6
    endloop
  endfacet
  facet normal -0.406708 -0.913558 -0
    outer loop
      vertex 6.225 15.1953 6
      vertex 5.81439 15.3781 0
      vertex 6.225 15.1953 0
    endloop
  endfacet
  facet normal 0.951059 0.309011 0
    outer loop
      vertex 3.18588 12.4588 6
      vertex 3.04698 12.8863 0
      vertex 3.04698 12.8863 6
    endloop
  endfacet
  facet normal 0.951059 0.309011 0
    outer loop
      vertex 3.04698 12.8863 0
      vertex 3.18588 12.4588 6
      vertex 3.18588 12.4588 0
    endloop
  endfacet
  facet normal 0.951059 -0.309011 0
    outer loop
      vertex 3.04698 13.7803 6
      vertex 3.18588 14.2078 0
      vertex 3.18588 14.2078 6
    endloop
  endfacet
  facet normal 0.951059 -0.309011 0
    outer loop
      vertex 3.18588 14.2078 0
      vertex 3.04698 13.7803 6
      vertex 3.04698 13.7803 0
    endloop
  endfacet
  facet normal 0.406708 0.913558 -0
    outer loop
      vertex 4.48561 11.2886 0
      vertex 4.075 11.4714 6
      vertex 4.48561 11.2886 6
    endloop
  endfacet
  facet normal 0.406708 0.913558 0
    outer loop
      vertex 4.075 11.4714 6
      vertex 4.48561 11.2886 0
      vertex 4.075 11.4714 0
    endloop
  endfacet
  facet normal 0.208017 0.978125 -0
    outer loop
      vertex 4.92526 11.1951 0
      vertex 4.48561 11.2886 6
      vertex 4.92526 11.1951 6
    endloop
  endfacet
  facet normal 0.208017 0.978125 0
    outer loop
      vertex 4.48561 11.2886 6
      vertex 4.92526 11.1951 0
      vertex 4.48561 11.2886 0
    endloop
  endfacet
  facet normal 0 -1 0
    outer loop
      vertex 4.92526 15.4716 0
      vertex 5.37474 15.4716 6
      vertex 4.92526 15.4716 6
    endloop
  endfacet
  facet normal 0 -1 -0
    outer loop
      vertex 5.37474 15.4716 6
      vertex 4.92526 15.4716 0
      vertex 5.37474 15.4716 0
    endloop
  endfacet
  facet normal 0.994522 -0.104525 0
    outer loop
      vertex 3 13.3333 6
      vertex 3.04698 13.7803 0
      vertex 3.04698 13.7803 6
    endloop
  endfacet
  facet normal 0.994522 -0.104525 0
    outer loop
      vertex 3.04698 13.7803 0
      vertex 3 13.3333 6
      vertex 3 13.3333 0
    endloop
  endfacet
  facet normal -0.587828 0.808986 0
    outer loop
      vertex 47.8886 -14.9311 0
      vertex 47.525 -15.1953 6
      vertex 47.8886 -14.9311 6
    endloop
  endfacet
  facet normal -0.587828 0.808986 0
    outer loop
      vertex 47.525 -15.1953 6
      vertex 47.8886 -14.9311 0
      vertex 47.525 -15.1953 0
    endloop
  endfacet
  facet normal 0.207994 -0.97813 0
    outer loop
      vertex 45.7856 -11.2886 0
      vertex 46.2253 -11.1951 6
      vertex 45.7856 -11.2886 6
    endloop
  endfacet
  facet normal 0.207994 -0.97813 0
    outer loop
      vertex 46.2253 -11.1951 6
      vertex 45.7856 -11.2886 0
      vertex 46.2253 -11.1951 0
    endloop
  endfacet
  facet normal -0.406716 0.913554 0
    outer loop
      vertex 47.525 -15.1953 0
      vertex 47.1144 -15.3781 6
      vertex 47.525 -15.1953 6
    endloop
  endfacet
  facet normal -0.406716 0.913554 0
    outer loop
      vertex 47.1144 -15.3781 6
      vertex 47.525 -15.1953 0
      vertex 47.1144 -15.3781 0
    endloop
  endfacet
  facet normal 0.743073 -0.669211 0
    outer loop
      vertex 44.7106 -12.0696 6
      vertex 45.0114 -11.7356 0
      vertex 45.0114 -11.7356 6
    endloop
  endfacet
  facet normal 0.743073 -0.669211 0
    outer loop
      vertex 45.0114 -11.7356 0
      vertex 44.7106 -12.0696 6
      vertex 44.7106 -12.0696 0
    endloop
  endfacet
  facet normal -0.994518 0.104569 0
    outer loop
      vertex 48.553 -13.7803 0
      vertex 48.6 -13.3333 6
      vertex 48.6 -13.3333 0
    endloop
  endfacet
  facet normal -0.994518 0.104569 0
    outer loop
      vertex 48.6 -13.3333 6
      vertex 48.553 -13.7803 0
      vertex 48.553 -13.7803 6
    endloop
  endfacet
  facet normal -0.866086 0.499896 0
    outer loop
      vertex 48.1894 -14.5971 0
      vertex 48.4141 -14.2078 6
      vertex 48.4141 -14.2078 0
    endloop
  endfacet
  facet normal -0.866086 0.499896 0
    outer loop
      vertex 48.4141 -14.2078 6
      vertex 48.1894 -14.5971 0
      vertex 48.1894 -14.5971 6
    endloop
  endfacet
  facet normal -0.86603 -0.499992 0
    outer loop
      vertex 48.4141 -12.4588 0
      vertex 48.1894 -12.0696 6
      vertex 48.1894 -12.0696 0
    endloop
  endfacet
  facet normal -0.86603 -0.499992 0
    outer loop
      vertex 48.1894 -12.0696 6
      vertex 48.4141 -12.4588 0
      vertex 48.4141 -12.4588 6
    endloop
  endfacet
  facet normal 0 -1 0
    outer loop
      vertex 46.2253 -11.1951 0
      vertex 46.6747 -11.1951 6
      vertex 46.2253 -11.1951 6
    endloop
  endfacet
  facet normal 0 -1 -0
    outer loop
      vertex 46.6747 -11.1951 6
      vertex 46.2253 -11.1951 0
      vertex 46.6747 -11.1951 0
    endloop
  endfacet
  facet normal 0.207994 0.97813 -0
    outer loop
      vertex 46.2253 -15.4716 0
      vertex 45.7856 -15.3781 6
      vertex 46.2253 -15.4716 6
    endloop
  endfacet
  facet normal 0.207994 0.97813 0
    outer loop
      vertex 45.7856 -15.3781 6
      vertex 46.2253 -15.4716 0
      vertex 45.7856 -15.3781 0
    endloop
  endfacet
  facet normal -0.994518 -0.104569 0
    outer loop
      vertex 48.6 -13.3333 0
      vertex 48.553 -12.8863 6
      vertex 48.553 -12.8863 0
    endloop
  endfacet
  facet normal -0.994518 -0.104569 0
    outer loop
      vertex 48.553 -12.8863 6
      vertex 48.6 -13.3333 0
      vertex 48.6 -13.3333 6
    endloop
  endfacet
  facet normal -0.743073 0.669211 0
    outer loop
      vertex 47.8886 -14.9311 0
      vertex 48.1894 -14.5971 6
      vertex 48.1894 -14.5971 0
    endloop
  endfacet
  facet normal -0.743073 0.669211 0
    outer loop
      vertex 48.1894 -14.5971 6
      vertex 47.8886 -14.9311 0
      vertex 47.8886 -14.9311 6
    endloop
  endfacet
  facet normal 0.951059 -0.309011 0
    outer loop
      vertex 44.347 -12.8863 6
      vertex 44.4859 -12.4588 0
      vertex 44.4859 -12.4588 6
    endloop
  endfacet
  facet normal 0.951059 -0.309011 0
    outer loop
      vertex 44.4859 -12.4588 0
      vertex 44.347 -12.8863 6
      vertex 44.347 -12.8863 0
    endloop
  endfacet
  facet normal 0.86603 -0.499992 0
    outer loop
      vertex 44.4859 -12.4588 6
      vertex 44.7106 -12.0696 0
      vertex 44.7106 -12.0696 6
    endloop
  endfacet
  facet normal 0.86603 -0.499992 0
    outer loop
      vertex 44.7106 -12.0696 0
      vertex 44.4859 -12.4588 6
      vertex 44.4859 -12.4588 0
    endloop
  endfacet
  facet normal -0.951059 -0.309011 0
    outer loop
      vertex 48.553 -12.8863 0
      vertex 48.4141 -12.4588 6
      vertex 48.4141 -12.4588 0
    endloop
  endfacet
  facet normal -0.951059 -0.309011 0
    outer loop
      vertex 48.4141 -12.4588 6
      vertex 48.553 -12.8863 0
      vertex 48.553 -12.8863 6
    endloop
  endfacet
  facet normal -0.951059 0.309011 0
    outer loop
      vertex 48.4141 -14.2078 0
      vertex 48.553 -13.7803 6
      vertex 48.553 -13.7803 0
    endloop
  endfacet
  facet normal -0.951059 0.309011 0
    outer loop
      vertex 48.553 -13.7803 6
      vertex 48.4141 -14.2078 0
      vertex 48.4141 -14.2078 6
    endloop
  endfacet
  facet normal 0.587828 -0.808986 0
    outer loop
      vertex 45.0114 -11.7356 0
      vertex 45.375 -11.4714 6
      vertex 45.0114 -11.7356 6
    endloop
  endfacet
  facet normal 0.587828 -0.808986 0
    outer loop
      vertex 45.375 -11.4714 6
      vertex 45.0114 -11.7356 0
      vertex 45.375 -11.4714 0
    endloop
  endfacet
  facet normal 0.406716 -0.913554 0
    outer loop
      vertex 45.375 -11.4714 0
      vertex 45.7856 -11.2886 6
      vertex 45.375 -11.4714 6
    endloop
  endfacet
  facet normal 0.406716 -0.913554 0
    outer loop
      vertex 45.7856 -11.2886 6
      vertex 45.375 -11.4714 0
      vertex 45.7856 -11.2886 0
    endloop
  endfacet
  facet normal -0.406716 -0.913554 0
    outer loop
      vertex 47.1144 -11.2886 0
      vertex 47.525 -11.4714 6
      vertex 47.1144 -11.2886 6
    endloop
  endfacet
  facet normal -0.406716 -0.913554 -0
    outer loop
      vertex 47.525 -11.4714 6
      vertex 47.1144 -11.2886 0
      vertex 47.525 -11.4714 0
    endloop
  endfacet
  facet normal 0 1 -0
    outer loop
      vertex 46.6747 -15.4716 0
      vertex 46.2253 -15.4716 6
      vertex 46.6747 -15.4716 6
    endloop
  endfacet
  facet normal 0 1 0
    outer loop
      vertex 46.2253 -15.4716 6
      vertex 46.6747 -15.4716 0
      vertex 46.2253 -15.4716 0
    endloop
  endfacet
  facet normal -0.587828 -0.808986 0
    outer loop
      vertex 47.525 -11.4714 0
      vertex 47.8886 -11.7356 6
      vertex 47.525 -11.4714 6
    endloop
  endfacet
  facet normal -0.587828 -0.808986 -0
    outer loop
      vertex 47.8886 -11.7356 6
      vertex 47.525 -11.4714 0
      vertex 47.8886 -11.7356 0
    endloop
  endfacet
  facet normal 0.994518 -0.104569 0
    outer loop
      vertex 44.3 -13.3333 6
      vertex 44.347 -12.8863 0
      vertex 44.347 -12.8863 6
    endloop
  endfacet
  facet normal 0.994518 -0.104569 0
    outer loop
      vertex 44.347 -12.8863 0
      vertex 44.3 -13.3333 6
      vertex 44.3 -13.3333 0
    endloop
  endfacet
  facet normal 0.406716 0.913554 -0
    outer loop
      vertex 45.7856 -15.3781 0
      vertex 45.375 -15.1953 6
      vertex 45.7856 -15.3781 6
    endloop
  endfacet
  facet normal 0.406716 0.913554 0
    outer loop
      vertex 45.375 -15.1953 6
      vertex 45.7856 -15.3781 0
      vertex 45.375 -15.1953 0
    endloop
  endfacet
  facet normal -0.207994 -0.97813 0
    outer loop
      vertex 46.6747 -11.1951 0
      vertex 47.1144 -11.2886 6
      vertex 46.6747 -11.1951 6
    endloop
  endfacet
  facet normal -0.207994 -0.97813 -0
    outer loop
      vertex 47.1144 -11.2886 6
      vertex 46.6747 -11.1951 0
      vertex 47.1144 -11.2886 0
    endloop
  endfacet
  facet normal -0.743073 -0.669211 0
    outer loop
      vertex 48.1894 -12.0696 0
      vertex 47.8886 -11.7356 6
      vertex 47.8886 -11.7356 0
    endloop
  endfacet
  facet normal -0.743073 -0.669211 0
    outer loop
      vertex 47.8886 -11.7356 6
      vertex 48.1894 -12.0696 0
      vertex 48.1894 -12.0696 6
    endloop
  endfacet
  facet normal 0.587828 0.808986 -0
    outer loop
      vertex 45.375 -15.1953 0
      vertex 45.0114 -14.9311 6
      vertex 45.375 -15.1953 6
    endloop
  endfacet
  facet normal 0.587828 0.808986 0
    outer loop
      vertex 45.0114 -14.9311 6
      vertex 45.375 -15.1953 0
      vertex 45.0114 -14.9311 0
    endloop
  endfacet
  facet normal 0.994518 0.104569 0
    outer loop
      vertex 44.347 -13.7803 6
      vertex 44.3 -13.3333 0
      vertex 44.3 -13.3333 6
    endloop
  endfacet
  facet normal 0.994518 0.104569 0
    outer loop
      vertex 44.3 -13.3333 0
      vertex 44.347 -13.7803 6
      vertex 44.347 -13.7803 0
    endloop
  endfacet
  facet normal 0.866086 0.499896 0
    outer loop
      vertex 44.7106 -14.5971 6
      vertex 44.4859 -14.2078 0
      vertex 44.4859 -14.2078 6
    endloop
  endfacet
  facet normal 0.866086 0.499896 0
    outer loop
      vertex 44.4859 -14.2078 0
      vertex 44.7106 -14.5971 6
      vertex 44.7106 -14.5971 0
    endloop
  endfacet
  facet normal 0.743073 0.669211 0
    outer loop
      vertex 45.0114 -14.9311 6
      vertex 44.7106 -14.5971 0
      vertex 44.7106 -14.5971 6
    endloop
  endfacet
  facet normal 0.743073 0.669211 0
    outer loop
      vertex 44.7106 -14.5971 0
      vertex 45.0114 -14.9311 6
      vertex 45.0114 -14.9311 0
    endloop
  endfacet
  facet normal -0.207994 0.97813 0
    outer loop
      vertex 47.1144 -15.3781 0
      vertex 46.6747 -15.4716 6
      vertex 47.1144 -15.3781 6
    endloop
  endfacet
  facet normal -0.207994 0.97813 0
    outer loop
      vertex 46.6747 -15.4716 6
      vertex 47.1144 -15.3781 0
      vertex 46.6747 -15.4716 0
    endloop
  endfacet
  facet normal 0.951059 0.309011 0
    outer loop
      vertex 44.4859 -14.2078 6
      vertex 44.347 -13.7803 0
      vertex 44.347 -13.7803 6
    endloop
  endfacet
  facet normal 0.951059 0.309011 0
    outer loop
      vertex 44.347 -13.7803 0
      vertex 44.4859 -14.2078 6
      vertex 44.4859 -14.2078 0
    endloop
  endfacet
  facet normal 0 1 -0
    outer loop
      vertex 46.6747 11.1951 0
      vertex 46.2253 11.1951 6
      vertex 46.6747 11.1951 6
    endloop
  endfacet
  facet normal 0 1 0
    outer loop
      vertex 46.2253 11.1951 6
      vertex 46.6747 11.1951 0
      vertex 46.2253 11.1951 0
    endloop
  endfacet
  facet normal -0.951059 -0.309011 0
    outer loop
      vertex 48.553 13.7803 0
      vertex 48.4141 14.2078 6
      vertex 48.4141 14.2078 0
    endloop
  endfacet
  facet normal -0.951059 -0.309011 0
    outer loop
      vertex 48.4141 14.2078 6
      vertex 48.553 13.7803 0
      vertex 48.553 13.7803 6
    endloop
  endfacet
  facet normal -0.994518 -0.104569 0
    outer loop
      vertex 48.6 13.3333 0
      vertex 48.553 13.7803 6
      vertex 48.553 13.7803 0
    endloop
  endfacet
  facet normal -0.994518 -0.104569 0
    outer loop
      vertex 48.553 13.7803 6
      vertex 48.6 13.3333 0
      vertex 48.6 13.3333 6
    endloop
  endfacet
  facet normal -0.866086 -0.499896 0
    outer loop
      vertex 48.4141 14.2078 0
      vertex 48.1894 14.5971 6
      vertex 48.1894 14.5971 0
    endloop
  endfacet
  facet normal -0.866086 -0.499896 0
    outer loop
      vertex 48.1894 14.5971 6
      vertex 48.4141 14.2078 0
      vertex 48.4141 14.2078 6
    endloop
  endfacet
  facet normal -0.587828 0.808986 0
    outer loop
      vertex 47.8886 11.7356 0
      vertex 47.525 11.4714 6
      vertex 47.8886 11.7356 6
    endloop
  endfacet
  facet normal -0.587828 0.808986 0
    outer loop
      vertex 47.525 11.4714 6
      vertex 47.8886 11.7356 0
      vertex 47.525 11.4714 0
    endloop
  endfacet
  facet normal -0.406716 -0.913554 0
    outer loop
      vertex 47.1144 15.3781 0
      vertex 47.525 15.1953 6
      vertex 47.1144 15.3781 6
    endloop
  endfacet
  facet normal -0.406716 -0.913554 -0
    outer loop
      vertex 47.525 15.1953 6
      vertex 47.1144 15.3781 0
      vertex 47.525 15.1953 0
    endloop
  endfacet
  facet normal 0.866086 -0.499896 0
    outer loop
      vertex 44.4859 14.2078 6
      vertex 44.7106 14.5971 0
      vertex 44.7106 14.5971 6
    endloop
  endfacet
  facet normal 0.866086 -0.499896 0
    outer loop
      vertex 44.7106 14.5971 0
      vertex 44.4859 14.2078 6
      vertex 44.4859 14.2078 0
    endloop
  endfacet
  facet normal 0.994518 -0.104569 0
    outer loop
      vertex 44.3 13.3333 6
      vertex 44.347 13.7803 0
      vertex 44.347 13.7803 6
    endloop
  endfacet
  facet normal 0.994518 -0.104569 0
    outer loop
      vertex 44.347 13.7803 0
      vertex 44.3 13.3333 6
      vertex 44.3 13.3333 0
    endloop
  endfacet
  facet normal 0.587828 -0.808986 0
    outer loop
      vertex 45.0114 14.9311 0
      vertex 45.375 15.1953 6
      vertex 45.0114 14.9311 6
    endloop
  endfacet
  facet normal 0.587828 -0.808986 0
    outer loop
      vertex 45.375 15.1953 6
      vertex 45.0114 14.9311 0
      vertex 45.375 15.1953 0
    endloop
  endfacet
  facet normal -0.743073 -0.669211 0
    outer loop
      vertex 48.1894 14.5971 0
      vertex 47.8886 14.9311 6
      vertex 47.8886 14.9311 0
    endloop
  endfacet
  facet normal -0.743073 -0.669211 0
    outer loop
      vertex 47.8886 14.9311 6
      vertex 48.1894 14.5971 0
      vertex 48.1894 14.5971 6
    endloop
  endfacet
  facet normal -0.207994 0.97813 0
    outer loop
      vertex 47.1144 11.2886 0
      vertex 46.6747 11.1951 6
      vertex 47.1144 11.2886 6
    endloop
  endfacet
  facet normal -0.207994 0.97813 0
    outer loop
      vertex 46.6747 11.1951 6
      vertex 47.1144 11.2886 0
      vertex 46.6747 11.1951 0
    endloop
  endfacet
  facet normal -0.86603 0.499992 0
    outer loop
      vertex 48.1894 12.0696 0
      vertex 48.4141 12.4588 6
      vertex 48.4141 12.4588 0
    endloop
  endfacet
  facet normal -0.86603 0.499992 0
    outer loop
      vertex 48.4141 12.4588 6
      vertex 48.1894 12.0696 0
      vertex 48.1894 12.0696 6
    endloop
  endfacet
  facet normal 0.587828 0.808986 -0
    outer loop
      vertex 45.375 11.4714 0
      vertex 45.0114 11.7356 6
      vertex 45.375 11.4714 6
    endloop
  endfacet
  facet normal 0.587828 0.808986 0
    outer loop
      vertex 45.0114 11.7356 6
      vertex 45.375 11.4714 0
      vertex 45.0114 11.7356 0
    endloop
  endfacet
  facet normal -0.994518 0.104569 0
    outer loop
      vertex 48.553 12.8863 0
      vertex 48.6 13.3333 6
      vertex 48.6 13.3333 0
    endloop
  endfacet
  facet normal -0.994518 0.104569 0
    outer loop
      vertex 48.6 13.3333 6
      vertex 48.553 12.8863 0
      vertex 48.553 12.8863 6
    endloop
  endfacet
  facet normal -0.951059 0.309011 0
    outer loop
      vertex 48.4141 12.4588 0
      vertex 48.553 12.8863 6
      vertex 48.553 12.8863 0
    endloop
  endfacet
  facet normal -0.951059 0.309011 0
    outer loop
      vertex 48.553 12.8863 6
      vertex 48.4141 12.4588 0
      vertex 48.4141 12.4588 6
    endloop
  endfacet
  facet normal 0 -1 0
    outer loop
      vertex 46.2253 15.4716 0
      vertex 46.6747 15.4716 6
      vertex 46.2253 15.4716 6
    endloop
  endfacet
  facet normal 0 -1 -0
    outer loop
      vertex 46.6747 15.4716 6
      vertex 46.2253 15.4716 0
      vertex 46.6747 15.4716 0
    endloop
  endfacet
  facet normal 0.406716 0.913554 -0
    outer loop
      vertex 45.7856 11.2886 0
      vertex 45.375 11.4714 6
      vertex 45.7856 11.2886 6
    endloop
  endfacet
  facet normal 0.406716 0.913554 0
    outer loop
      vertex 45.375 11.4714 6
      vertex 45.7856 11.2886 0
      vertex 45.375 11.4714 0
    endloop
  endfacet
  facet normal 0.951059 0.309011 0
    outer loop
      vertex 44.4859 12.4588 6
      vertex 44.347 12.8863 0
      vertex 44.347 12.8863 6
    endloop
  endfacet
  facet normal 0.951059 0.309011 0
    outer loop
      vertex 44.347 12.8863 0
      vertex 44.4859 12.4588 6
      vertex 44.4859 12.4588 0
    endloop
  endfacet
  facet normal 0.406716 -0.913554 0
    outer loop
      vertex 45.375 15.1953 0
      vertex 45.7856 15.3781 6
      vertex 45.375 15.1953 6
    endloop
  endfacet
  facet normal 0.406716 -0.913554 0
    outer loop
      vertex 45.7856 15.3781 6
      vertex 45.375 15.1953 0
      vertex 45.7856 15.3781 0
    endloop
  endfacet
  facet normal 0.207994 0.97813 -0
    outer loop
      vertex 46.2253 11.1951 0
      vertex 45.7856 11.2886 6
      vertex 46.2253 11.1951 6
    endloop
  endfacet
  facet normal 0.207994 0.97813 0
    outer loop
      vertex 45.7856 11.2886 6
      vertex 46.2253 11.1951 0
      vertex 45.7856 11.2886 0
    endloop
  endfacet
  facet normal 0.743073 -0.669211 0
    outer loop
      vertex 44.7106 14.5971 6
      vertex 45.0114 14.9311 0
      vertex 45.0114 14.9311 6
    endloop
  endfacet
  facet normal 0.743073 -0.669211 0
    outer loop
      vertex 45.0114 14.9311 0
      vertex 44.7106 14.5971 6
      vertex 44.7106 14.5971 0
    endloop
  endfacet
  facet normal -0.207994 -0.97813 0
    outer loop
      vertex 46.6747 15.4716 0
      vertex 47.1144 15.3781 6
      vertex 46.6747 15.4716 6
    endloop
  endfacet
  facet normal -0.207994 -0.97813 -0
    outer loop
      vertex 47.1144 15.3781 6
      vertex 46.6747 15.4716 0
      vertex 47.1144 15.3781 0
    endloop
  endfacet
  facet normal -0.587828 -0.808986 0
    outer loop
      vertex 47.525 15.1953 0
      vertex 47.8886 14.9311 6
      vertex 47.525 15.1953 6
    endloop
  endfacet
  facet normal -0.587828 -0.808986 -0
    outer loop
      vertex 47.8886 14.9311 6
      vertex 47.525 15.1953 0
      vertex 47.8886 14.9311 0
    endloop
  endfacet
  facet normal 0.207994 -0.97813 0
    outer loop
      vertex 45.7856 15.3781 0
      vertex 46.2253 15.4716 6
      vertex 45.7856 15.3781 6
    endloop
  endfacet
  facet normal 0.207994 -0.97813 0
    outer loop
      vertex 46.2253 15.4716 6
      vertex 45.7856 15.3781 0
      vertex 46.2253 15.4716 0
    endloop
  endfacet
  facet normal 0.743073 0.669211 0
    outer loop
      vertex 45.0114 11.7356 6
      vertex 44.7106 12.0696 0
      vertex 44.7106 12.0696 6
    endloop
  endfacet
  facet normal 0.743073 0.669211 0
    outer loop
      vertex 44.7106 12.0696 0
      vertex 45.0114 11.7356 6
      vertex 45.0114 11.7356 0
    endloop
  endfacet
  facet normal 0.86603 0.499992 0
    outer loop
      vertex 44.7106 12.0696 6
      vertex 44.4859 12.4588 0
      vertex 44.4859 12.4588 6
    endloop
  endfacet
  facet normal 0.86603 0.499992 0
    outer loop
      vertex 44.4859 12.4588 0
      vertex 44.7106 12.0696 6
      vertex 44.7106 12.0696 0
    endloop
  endfacet
  facet normal -0.406716 0.913554 0
    outer loop
      vertex 47.525 11.4714 0
      vertex 47.1144 11.2886 6
      vertex 47.525 11.4714 6
    endloop
  endfacet
  facet normal -0.406716 0.913554 0
    outer loop
      vertex 47.1144 11.2886 6
      vertex 47.525 11.4714 0
      vertex 47.1144 11.2886 0
    endloop
  endfacet
  facet normal -0.743073 0.669211 0
    outer loop
      vertex 47.8886 11.7356 0
      vertex 48.1894 12.0696 6
      vertex 48.1894 12.0696 0
    endloop
  endfacet
  facet normal -0.743073 0.669211 0
    outer loop
      vertex 48.1894 12.0696 6
      vertex 47.8886 11.7356 0
      vertex 47.8886 11.7356 6
    endloop
  endfacet
  facet normal 0.994518 0.104569 0
    outer loop
      vertex 44.347 12.8863 6
      vertex 44.3 13.3333 0
      vertex 44.3 13.3333 6
    endloop
  endfacet
  facet normal 0.994518 0.104569 0
    outer loop
      vertex 44.3 13.3333 0
      vertex 44.347 12.8863 6
      vertex 44.347 12.8863 0
    endloop
  endfacet
  facet normal 0.951059 -0.309011 0
    outer loop
      vertex 44.347 13.7803 6
      vertex 44.4859 14.2078 0
      vertex 44.4859 14.2078 6
    endloop
  endfacet
  facet normal 0.951059 -0.309011 0
    outer loop
      vertex 44.4859 14.2078 0
      vertex 44.347 13.7803 6
      vertex 44.347 13.7803 0
    endloop
  endfacet
  facet normal 1 -0 0
    outer loop
      vertex 51.6 -20 6
      vertex 51.6 20 0
      vertex 51.6 20 6
    endloop
  endfacet
  facet normal 1 0 0
    outer loop
      vertex 51.6 20 0
      vertex 51.6 -20 6
      vertex 51.6 -20 0
    endloop
  endfacet
  facet normal 0 0 1
    outer loop
      vertex 6.88939 12.0696 6
      vertex 44.7106 12.0696 6
      vertex 7.11412 12.4588 6
    endloop
  endfacet
  facet normal 0 0 1
    outer loop
      vertex 44.7106 -12.0696 6
      vertex 7.25302 -12.8863 6
      vertex 7.3 -13.3333 6
    endloop
  endfacet
  facet normal 0 0 1
    outer loop
      vertex 44.7106 12.0696 6
      vertex 6.88939 12.0696 6
      vertex 44.7106 -12.0696 6
    endloop
  endfacet
  facet normal 0 0 1
    outer loop
      vertex 44.7106 -12.0696 6
      vertex 7.11412 -12.4588 6
      vertex 7.25302 -12.8863 6
    endloop
  endfacet
  facet normal 0 0 1
    outer loop
      vertex 6.88939 -12.0696 6
      vertex 44.7106 -12.0696 6
      vertex 6.88939 12.0696 6
    endloop
  endfacet
  facet normal 0 0 1
    outer loop
      vertex 44.7106 -12.0696 6
      vertex 6.88939 -12.0696 6
      vertex 7.11412 -12.4588 6
    endloop
  endfacet
  facet normal -0 0 1
    outer loop
      vertex 6.58863 11.7356 6
      vertex 6.88939 -12.0696 6
      vertex 6.88939 12.0696 6
    endloop
  endfacet
  facet normal 0 0 1
    outer loop
      vertex 6.58863 11.7356 6
      vertex 6.58863 -11.7356 6
      vertex 6.88939 -12.0696 6
    endloop
  endfacet
  facet normal -0 0 1
    outer loop
      vertex 6.225 11.4714 6
      vertex 6.58863 -11.7356 6
      vertex 6.58863 11.7356 6
    endloop
  endfacet
  facet normal 0 0 1
    outer loop
      vertex 6.225 11.4714 6
      vertex 6.225 -11.4714 6
      vertex 6.58863 -11.7356 6
    endloop
  endfacet
  facet normal -0 0 1
    outer loop
      vertex 5.81439 11.2886 6
      vertex 6.225 -11.4714 6
      vertex 6.225 11.4714 6
    endloop
  endfacet
  facet normal 0 0 1
    outer loop
      vertex 5.81439 11.2886 6
      vertex 5.81439 -11.2886 6
      vertex 6.225 -11.4714 6
    endloop
  endfacet
  facet normal -0 0 1
    outer loop
      vertex 5.37474 11.1951 6
      vertex 5.81439 -11.2886 6
      vertex 5.81439 11.2886 6
    endloop
  endfacet
  facet normal 0 0 1
    outer loop
      vertex 5.37474 11.1951 6
      vertex 5.37474 -11.1951 6
      vertex 5.81439 -11.2886 6
    endloop
  endfacet
  facet normal -0 0 1
    outer loop
      vertex 4.92526 11.1951 6
      vertex 5.37474 -11.1951 6
      vertex 5.37474 11.1951 6
    endloop
  endfacet
  facet normal 0 0 1
    outer loop
      vertex 4.92526 11.1951 6
      vertex 4.92526 -11.1951 6
      vertex 5.37474 -11.1951 6
    endloop
  endfacet
  facet normal 0 0 1
    outer loop
      vertex 4.48561 11.2886 6
      vertex 4.92526 -11.1951 6
      vertex 4.92526 11.1951 6
    endloop
  endfacet
  facet normal 0 0 1
    outer loop
      vertex 4.48561 11.2886 6
      vertex 4.48561 -11.2886 6
      vertex 4.92526 -11.1951 6
    endloop
  endfacet
  facet normal 0 0 1
    outer loop
      vertex 4.075 11.4714 6
      vertex 4.48561 -11.2886 6
      vertex 4.48561 11.2886 6
    endloop
  endfacet
  facet normal 0 0 1
    outer loop
      vertex 4.075 11.4714 6
      vertex 4.075 -11.4714 6
      vertex 4.48561 -11.2886 6
    endloop
  endfacet
  facet normal 0 0 1
    outer loop
      vertex 3.71137 11.7356 6
      vertex 4.075 -11.4714 6
      vertex 4.075 11.4714 6
    endloop
  endfacet
  facet normal 0 0 1
    outer loop
      vertex 3.71137 11.7356 6
      vertex 3.71137 -11.7356 6
      vertex 4.075 -11.4714 6
    endloop
  endfacet
  facet normal 0 0 1
    outer loop
      vertex 3.41061 12.0696 6
      vertex 3.71137 -11.7356 6
      vertex 3.71137 11.7356 6
    endloop
  endfacet
  facet normal 0 0 1
    outer loop
      vertex 3.41061 12.0696 6
      vertex 3.41061 -12.0696 6
      vertex 3.71137 -11.7356 6
    endloop
  endfacet
  facet normal 0 0 1
    outer loop
      vertex 3.18588 12.4588 6
      vertex 3.41061 -12.0696 6
      vertex 3.41061 12.0696 6
    endloop
  endfacet
  facet normal 0 0 1
    outer loop
      vertex 3.18588 12.4588 6
      vertex 3.18588 -12.4588 6
      vertex 3.41061 -12.0696 6
    endloop
  endfacet
  facet normal 0 0 1
    outer loop
      vertex 3.04698 12.8863 6
      vertex 3.18588 -12.4588 6
      vertex 3.18588 12.4588 6
    endloop
  endfacet
  facet normal 0 0 1
    outer loop
      vertex 3.04698 12.8863 6
      vertex 3.04698 -12.8863 6
      vertex 3.18588 -12.4588 6
    endloop
  endfacet
  facet normal 0 0 1
    outer loop
      vertex 1 20 6
      vertex 3.04698 12.8863 6
      vertex 3 13.3333 6
    endloop
  endfacet
  facet normal 0 0 1
    outer loop
      vertex 3.04698 12.8863 6
      vertex 1 20 6
      vertex 3.04698 -12.8863 6
    endloop
  endfacet
  facet normal -0 0 1
    outer loop
      vertex 48.553 -12.8863 6
      vertex 51.6 -20 6
      vertex 48.553 12.8863 6
    endloop
  endfacet
  facet normal 0 0 1
    outer loop
      vertex 51.6 -20 6
      vertex 48.553 -12.8863 6
      vertex 48.6 -13.3333 6
    endloop
  endfacet
  facet normal -0 0 1
    outer loop
      vertex 48.4141 12.4588 6
      vertex 48.553 -12.8863 6
      vertex 48.553 12.8863 6
    endloop
  endfacet
  facet normal 0 0 1
    outer loop
      vertex 48.4141 12.4588 6
      vertex 48.4141 -12.4588 6
      vertex 48.553 -12.8863 6
    endloop
  endfacet
  facet normal -0 0 1
    outer loop
      vertex 48.1894 12.0696 6
      vertex 48.4141 -12.4588 6
      vertex 48.4141 12.4588 6
    endloop
  endfacet
  facet normal 0 0 1
    outer loop
      vertex 48.1894 12.0696 6
      vertex 48.1894 -12.0696 6
      vertex 48.4141 -12.4588 6
    endloop
  endfacet
  facet normal -0 0 1
    outer loop
      vertex 47.8886 11.7356 6
      vertex 48.1894 -12.0696 6
      vertex 48.1894 12.0696 6
    endloop
  endfacet
  facet normal 0 0 1
    outer loop
      vertex 47.8886 11.7356 6
      vertex 47.8886 -11.7356 6
      vertex 48.1894 -12.0696 6
    endloop
  endfacet
  facet normal -0 0 1
    outer loop
      vertex 47.525 11.4714 6
      vertex 47.8886 -11.7356 6
      vertex 47.8886 11.7356 6
    endloop
  endfacet
  facet normal 0 0 1
    outer loop
      vertex 47.525 11.4714 6
      vertex 47.525 -11.4714 6
      vertex 47.8886 -11.7356 6
    endloop
  endfacet
  facet normal -0 0 1
    outer loop
      vertex 47.1144 11.2886 6
      vertex 47.525 -11.4714 6
      vertex 47.525 11.4714 6
    endloop
  endfacet
  facet normal 0 0 1
    outer loop
      vertex 47.1144 11.2886 6
      vertex 47.1144 -11.2886 6
      vertex 47.525 -11.4714 6
    endloop
  endfacet
  facet normal -0 0 1
    outer loop
      vertex 46.6747 11.1951 6
      vertex 47.1144 -11.2886 6
      vertex 47.1144 11.2886 6
    endloop
  endfacet
  facet normal 0 0 1
    outer loop
      vertex 46.6747 11.1951 6
      vertex 46.6747 -11.1951 6
      vertex 47.1144 -11.2886 6
    endloop
  endfacet
  facet normal -0 0 1
    outer loop
      vertex 46.2253 11.1951 6
      vertex 46.6747 -11.1951 6
      vertex 46.6747 11.1951 6
    endloop
  endfacet
  facet normal 0 0 1
    outer loop
      vertex 46.2253 11.1951 6
      vertex 46.2253 -11.1951 6
      vertex 46.6747 -11.1951 6
    endloop
  endfacet
  facet normal 0 0 1
    outer loop
      vertex 45.7856 11.2886 6
      vertex 46.2253 -11.1951 6
      vertex 46.2253 11.1951 6
    endloop
  endfacet
  facet normal 0 0 1
    outer loop
      vertex 45.7856 11.2886 6
      vertex 45.7856 -11.2886 6
      vertex 46.2253 -11.1951 6
    endloop
  endfacet
  facet normal 0 0 1
    outer loop
      vertex 45.375 11.4714 6
      vertex 45.7856 -11.2886 6
      vertex 45.7856 11.2886 6
    endloop
  endfacet
  facet normal 0 0 1
    outer loop
      vertex 45.375 11.4714 6
      vertex 45.375 -11.4714 6
      vertex 45.7856 -11.2886 6
    endloop
  endfacet
  facet normal 0 0 1
    outer loop
      vertex 45.0114 11.7356 6
      vertex 45.375 -11.4714 6
      vertex 45.375 11.4714 6
    endloop
  endfacet
  facet normal 0 0 1
    outer loop
      vertex 45.0114 11.7356 6
      vertex 45.0114 -11.7356 6
      vertex 45.375 -11.4714 6
    endloop
  endfacet
  facet normal 0 0 1
    outer loop
      vertex 44.7106 12.0696 6
      vertex 45.0114 -11.7356 6
      vertex 45.0114 11.7356 6
    endloop
  endfacet
  facet normal 0 0 1
    outer loop
      vertex 44.7106 12.0696 6
      vertex 44.7106 -12.0696 6
      vertex 45.0114 -11.7356 6
    endloop
  endfacet
  facet normal 0 0 1
    outer loop
      vertex 44.347 12.8863 6
      vertex 7.25302 12.8863 6
      vertex 44.4859 12.4588 6
    endloop
  endfacet
  facet normal 0 0 1
    outer loop
      vertex 7.11412 12.4588 6
      vertex 44.4859 12.4588 6
      vertex 7.25302 12.8863 6
    endloop
  endfacet
  facet normal 0 0 1
    outer loop
      vertex 7.25302 12.8863 6
      vertex 44.347 12.8863 6
      vertex 7.3 13.3333 6
    endloop
  endfacet
  facet normal 0 0 1
    outer loop
      vertex 44.4859 12.4588 6
      vertex 7.11412 12.4588 6
      vertex 44.7106 12.0696 6
    endloop
  endfacet
  facet normal -0 0 1
    outer loop
      vertex 7.3 13.3333 6
      vertex 44.347 12.8863 6
      vertex 44.3 13.3333 6
    endloop
  endfacet
  facet normal 0 0 1
    outer loop
      vertex 44.7106 -12.0696 6
      vertex 7.3 -13.3333 6
      vertex 44.4859 -12.4588 6
    endloop
  endfacet
  facet normal 0 0 1
    outer loop
      vertex 48.553 12.8863 6
      vertex 51.6 20 6
      vertex 48.6 13.3333 6
    endloop
  endfacet
  facet normal 0 0 1
    outer loop
      vertex 51.6 20 6
      vertex 48.553 13.7803 6
      vertex 48.6 13.3333 6
    endloop
  endfacet
  facet normal 0 0 1
    outer loop
      vertex 51.6 20 6
      vertex 48.4141 14.2078 6
      vertex 48.553 13.7803 6
    endloop
  endfacet
  facet normal 0 0 1
    outer loop
      vertex 51.6 20 6
      vertex 48.1894 14.5971 6
      vertex 48.4141 14.2078 6
    endloop
  endfacet
  facet normal 0 0 1
    outer loop
      vertex 51.6 20 6
      vertex 47.8886 14.9311 6
      vertex 48.1894 14.5971 6
    endloop
  endfacet
  facet normal 0 0 1
    outer loop
      vertex 51.6 20 6
      vertex 47.525 15.1953 6
      vertex 47.8886 14.9311 6
    endloop
  endfacet
  facet normal 0 0 1
    outer loop
      vertex 51.6 20 6
      vertex 47.1144 15.3781 6
      vertex 47.525 15.1953 6
    endloop
  endfacet
  facet normal 0 0 1
    outer loop
      vertex 51.6 20 6
      vertex 46.6747 15.4716 6
      vertex 47.1144 15.3781 6
    endloop
  endfacet
  facet normal 0 0 1
    outer loop
      vertex 51.6 20 6
      vertex 46.2253 15.4716 6
      vertex 46.6747 15.4716 6
    endloop
  endfacet
  facet normal 0 0 1
    outer loop
      vertex 51.6 20 6
      vertex 45.7856 15.3781 6
      vertex 46.2253 15.4716 6
    endloop
  endfacet
  facet normal 0 0 1
    outer loop
      vertex 51.6 20 6
      vertex 45.375 15.1953 6
      vertex 45.7856 15.3781 6
    endloop
  endfacet
  facet normal -0 0 1
    outer loop
      vertex 1 20 6
      vertex 45.375 15.1953 6
      vertex 51.6 20 6
    endloop
  endfacet
  facet normal 0 0 1
    outer loop
      vertex 44.4859 -12.4588 6
      vertex 7.3 -13.3333 6
      vertex 44.347 -12.8863 6
    endloop
  endfacet
  facet normal 0 0 1
    outer loop
      vertex 44.347 13.7803 6
      vertex 7.3 13.3333 6
      vertex 44.3 13.3333 6
    endloop
  endfacet
  facet normal 0 0 1
    outer loop
      vertex 7.25302 13.7803 6
      vertex 44.347 13.7803 6
      vertex 44.4859 14.2078 6
    endloop
  endfacet
  facet normal 0 0 1
    outer loop
      vertex 7.11412 14.2078 6
      vertex 44.4859 14.2078 6
      vertex 44.7106 14.5971 6
    endloop
  endfacet
  facet normal 0 0 1
    outer loop
      vertex 6.88939 14.5971 6
      vertex 44.7106 14.5971 6
      vertex 45.0114 14.9311 6
    endloop
  endfacet
  facet normal 0 0 1
    outer loop
      vertex 45.375 15.1953 6
      vertex 1 20 6
      vertex 45.0114 14.9311 6
    endloop
  endfacet
  facet normal 0 0 1
    outer loop
      vertex 44.347 13.7803 6
      vertex 7.25302 13.7803 6
      vertex 7.3 13.3333 6
    endloop
  endfacet
  facet normal 0 0 1
    outer loop
      vertex 44.4859 14.2078 6
      vertex 7.11412 14.2078 6
      vertex 7.25302 13.7803 6
    endloop
  endfacet
  facet normal 0 0 1
    outer loop
      vertex 44.7106 14.5971 6
      vertex 6.88939 14.5971 6
      vertex 7.11412 14.2078 6
    endloop
  endfacet
  facet normal 0 0 1
    outer loop
      vertex 45.0114 14.9311 6
      vertex 6.58863 14.9311 6
      vertex 6.88939 14.5971 6
    endloop
  endfacet
  facet normal 0 0 1
    outer loop
      vertex 45.0114 14.9311 6
      vertex 6.225 15.1953 6
      vertex 6.58863 14.9311 6
    endloop
  endfacet
  facet normal 0 0 1
    outer loop
      vertex 45.0114 14.9311 6
      vertex 1 20 6
      vertex 6.225 15.1953 6
    endloop
  endfacet
  facet normal 0 0 1
    outer loop
      vertex 6.225 15.1953 6
      vertex 1 20 6
      vertex 5.81439 15.3781 6
    endloop
  endfacet
  facet normal 0 0 1
    outer loop
      vertex 5.81439 15.3781 6
      vertex 1 20 6
      vertex 5.37474 15.4716 6
    endloop
  endfacet
  facet normal 0 0 1
    outer loop
      vertex 1 -20 6
      vertex 3.04698 -12.8863 6
      vertex 1 20 6
    endloop
  endfacet
  facet normal 0 0 1
    outer loop
      vertex 3.04698 13.7803 6
      vertex 1 20 6
      vertex 3 13.3333 6
    endloop
  endfacet
  facet normal 0 0 1
    outer loop
      vertex 3.18588 14.2078 6
      vertex 1 20 6
      vertex 3.04698 13.7803 6
    endloop
  endfacet
  facet normal 0 0 1
    outer loop
      vertex 3.41061 14.5971 6
      vertex 1 20 6
      vertex 3.18588 14.2078 6
    endloop
  endfacet
  facet normal 0 0 1
    outer loop
      vertex 3.71137 14.9311 6
      vertex 1 20 6
      vertex 3.41061 14.5971 6
    endloop
  endfacet
  facet normal 0 0 1
    outer loop
      vertex 4.075 15.1953 6
      vertex 1 20 6
      vertex 3.71137 14.9311 6
    endloop
  endfacet
  facet normal 0 0 1
    outer loop
      vertex 4.48561 15.3781 6
      vertex 1 20 6
      vertex 4.075 15.1953 6
    endloop
  endfacet
  facet normal 0 0 1
    outer loop
      vertex 4.92526 15.4716 6
      vertex 1 20 6
      vertex 4.48561 15.3781 6
    endloop
  endfacet
  facet normal 0 0 1
    outer loop
      vertex 5.37474 15.4716 6
      vertex 1 20 6
      vertex 4.92526 15.4716 6
    endloop
  endfacet
  facet normal 0 0 1
    outer loop
      vertex 51.6 20 6
      vertex 48.553 12.8863 6
      vertex 51.6 -20 6
    endloop
  endfacet
  facet normal -0 0 1
    outer loop
      vertex 48.553 -13.7803 6
      vertex 51.6 -20 6
      vertex 48.6 -13.3333 6
    endloop
  endfacet
  facet normal -0 0 1
    outer loop
      vertex 48.4141 -14.2078 6
      vertex 51.6 -20 6
      vertex 48.553 -13.7803 6
    endloop
  endfacet
  facet normal -0 0 1
    outer loop
      vertex 48.1894 -14.5971 6
      vertex 51.6 -20 6
      vertex 48.4141 -14.2078 6
    endloop
  endfacet
  facet normal -0 0 1
    outer loop
      vertex 47.8886 -14.9311 6
      vertex 51.6 -20 6
      vertex 48.1894 -14.5971 6
    endloop
  endfacet
  facet normal -0 0 1
    outer loop
      vertex 47.525 -15.1953 6
      vertex 51.6 -20 6
      vertex 47.8886 -14.9311 6
    endloop
  endfacet
  facet normal -0 0 1
    outer loop
      vertex 47.1144 -15.3781 6
      vertex 51.6 -20 6
      vertex 47.525 -15.1953 6
    endloop
  endfacet
  facet normal -0 0 1
    outer loop
      vertex 46.6747 -15.4716 6
      vertex 51.6 -20 6
      vertex 47.1144 -15.3781 6
    endloop
  endfacet
  facet normal -0 0 1
    outer loop
      vertex 46.2253 -15.4716 6
      vertex 51.6 -20 6
      vertex 46.6747 -15.4716 6
    endloop
  endfacet
  facet normal 0 0 1
    outer loop
      vertex 45.7856 -15.3781 6
      vertex 51.6 -20 6
      vertex 46.2253 -15.4716 6
    endloop
  endfacet
  facet normal 0 0 1
    outer loop
      vertex 45.375 -15.1953 6
      vertex 51.6 -20 6
      vertex 45.7856 -15.3781 6
    endloop
  endfacet
  facet normal 0 0 1
    outer loop
      vertex 1 -20 6
      vertex 45.375 -15.1953 6
      vertex 45.0114 -14.9311 6
    endloop
  endfacet
  facet normal 0 0 1
    outer loop
      vertex 44.347 -12.8863 6
      vertex 7.3 -13.3333 6
      vertex 44.3 -13.3333 6
    endloop
  endfacet
  facet normal 0 0 1
    outer loop
      vertex 44.3 -13.3333 6
      vertex 7.3 -13.3333 6
      vertex 44.347 -13.7803 6
    endloop
  endfacet
  facet normal 0 0 1
    outer loop
      vertex 7.25302 -13.7803 6
      vertex 44.347 -13.7803 6
      vertex 7.3 -13.3333 6
    endloop
  endfacet
  facet normal 0 0 1
    outer loop
      vertex 44.347 -13.7803 6
      vertex 7.25302 -13.7803 6
      vertex 44.4859 -14.2078 6
    endloop
  endfacet
  facet normal 0 0 1
    outer loop
      vertex 7.11412 -14.2078 6
      vertex 44.4859 -14.2078 6
      vertex 7.25302 -13.7803 6
    endloop
  endfacet
  facet normal 0 0 1
    outer loop
      vertex 44.4859 -14.2078 6
      vertex 7.11412 -14.2078 6
      vertex 44.7106 -14.5971 6
    endloop
  endfacet
  facet normal 0 0 1
    outer loop
      vertex 6.88939 -14.5971 6
      vertex 44.7106 -14.5971 6
      vertex 7.11412 -14.2078 6
    endloop
  endfacet
  facet normal 0 0 1
    outer loop
      vertex 44.7106 -14.5971 6
      vertex 6.88939 -14.5971 6
      vertex 45.0114 -14.9311 6
    endloop
  endfacet
  facet normal 0 0 1
    outer loop
      vertex 6.58863 -14.9311 6
      vertex 45.0114 -14.9311 6
      vertex 6.88939 -14.5971 6
    endloop
  endfacet
  facet normal 0 0 1
    outer loop
      vertex 6.225 -15.1953 6
      vertex 45.0114 -14.9311 6
      vertex 6.58863 -14.9311 6
    endloop
  endfacet
  facet normal 0 0 1
    outer loop
      vertex 1 -20 6
      vertex 45.0114 -14.9311 6
      vertex 6.225 -15.1953 6
    endloop
  endfacet
  facet normal 0 0 1
    outer loop
      vertex 1 -20 6
      vertex 6.225 -15.1953 6
      vertex 5.81439 -15.3781 6
    endloop
  endfacet
  facet normal 0 0 1
    outer loop
      vertex 1 -20 6
      vertex 5.81439 -15.3781 6
      vertex 5.37474 -15.4716 6
    endloop
  endfacet
  facet normal 0 0 1
    outer loop
      vertex 1 -20 6
      vertex 5.37474 -15.4716 6
      vertex 4.92526 -15.4716 6
    endloop
  endfacet
  facet normal 0 0 1
    outer loop
      vertex 45.375 -15.1953 6
      vertex 1 -20 6
      vertex 51.6 -20 6
    endloop
  endfacet
  facet normal 0 0 1
    outer loop
      vertex 4.48561 -15.3781 6
      vertex 1 -20 6
      vertex 4.92526 -15.4716 6
    endloop
  endfacet
  facet normal 0 0 1
    outer loop
      vertex 4.075 -15.1953 6
      vertex 1 -20 6
      vertex 4.48561 -15.3781 6
    endloop
  endfacet
  facet normal 0 0 1
    outer loop
      vertex 3.71137 -14.9311 6
      vertex 1 -20 6
      vertex 4.075 -15.1953 6
    endloop
  endfacet
  facet normal 0 0 1
    outer loop
      vertex 3.41061 -14.5971 6
      vertex 1 -20 6
      vertex 3.71137 -14.9311 6
    endloop
  endfacet
  facet normal 0 0 1
    outer loop
      vertex 3.18588 -14.2078 6
      vertex 1 -20 6
      vertex 3.41061 -14.5971 6
    endloop
  endfacet
  facet normal 0 0 1
    outer loop
      vertex 3.04698 -13.7803 6
      vertex 1 -20 6
      vertex 3.18588 -14.2078 6
    endloop
  endfacet
  facet normal 0 0 1
    outer loop
      vertex 3 -13.3333 6
      vertex 1 -20 6
      vertex 3.04698 -13.7803 6
    endloop
  endfacet
  facet normal 0 0 1
    outer loop
      vertex 3.04698 -12.8863 6
      vertex 1 -20 6
      vertex 3 -13.3333 6
    endloop
  endfacet
  facet normal 0 0 -1
    outer loop
      vertex 6.88939 -12.0696 0
      vertex 44.7106 -12.0696 0
      vertex 7.11412 -12.4588 0
    endloop
  endfacet
  facet normal 0 0 -1
    outer loop
      vertex 44.7106 12.0696 0
      vertex 7.25302 12.8863 0
      vertex 7.3 13.3333 0
    endloop
  endfacet
  facet normal 0 0 -1
    outer loop
      vertex 44.7106 -12.0696 0
      vertex 6.88939 -12.0696 0
      vertex 44.7106 12.0696 0
    endloop
  endfacet
  facet normal 0 0 -1
    outer loop
      vertex 44.7106 12.0696 0
      vertex 7.11412 12.4588 0
      vertex 7.25302 12.8863 0
    endloop
  endfacet
  facet normal 0 0 -1
    outer loop
      vertex 6.88939 12.0696 0
      vertex 44.7106 12.0696 0
      vertex 6.88939 -12.0696 0
    endloop
  endfacet
  facet normal 0 0 -1
    outer loop
      vertex 44.7106 12.0696 0
      vertex 6.88939 12.0696 0
      vertex 7.11412 12.4588 0
    endloop
  endfacet
  facet normal 0 0 -1
    outer loop
      vertex 6.58863 -11.7356 0
      vertex 6.88939 12.0696 0
      vertex 6.88939 -12.0696 0
    endloop
  endfacet
  facet normal 0 0 -1
    outer loop
      vertex 6.58863 -11.7356 0
      vertex 6.58863 11.7356 0
      vertex 6.88939 12.0696 0
    endloop
  endfacet
  facet normal 0 0 -1
    outer loop
      vertex 6.225 -11.4714 0
      vertex 6.58863 11.7356 0
      vertex 6.58863 -11.7356 0
    endloop
  endfacet
  facet normal 0 0 -1
    outer loop
      vertex 6.225 -11.4714 0
      vertex 6.225 11.4714 0
      vertex 6.58863 11.7356 0
    endloop
  endfacet
  facet normal 0 0 -1
    outer loop
      vertex 5.81439 -11.2886 0
      vertex 6.225 11.4714 0
      vertex 6.225 -11.4714 0
    endloop
  endfacet
  facet normal 0 0 -1
    outer loop
      vertex 5.81439 -11.2886 0
      vertex 5.81439 11.2886 0
      vertex 6.225 11.4714 0
    endloop
  endfacet
  facet normal 0 0 -1
    outer loop
      vertex 5.37474 -11.1951 0
      vertex 5.81439 11.2886 0
      vertex 5.81439 -11.2886 0
    endloop
  endfacet
  facet normal 0 0 -1
    outer loop
      vertex 5.37474 -11.1951 0
      vertex 5.37474 11.1951 0
      vertex 5.81439 11.2886 0
    endloop
  endfacet
  facet normal 0 0 -1
    outer loop
      vertex 4.92526 -11.1951 0
      vertex 5.37474 11.1951 0
      vertex 5.37474 -11.1951 0
    endloop
  endfacet
  facet normal 0 0 -1
    outer loop
      vertex 4.92526 -11.1951 0
      vertex 4.92526 11.1951 0
      vertex 5.37474 11.1951 0
    endloop
  endfacet
  facet normal 0 0 -1
    outer loop
      vertex 4.48561 -11.2886 0
      vertex 4.92526 11.1951 0
      vertex 4.92526 -11.1951 0
    endloop
  endfacet
  facet normal 0 0 -1
    outer loop
      vertex 4.48561 -11.2886 0
      vertex 4.48561 11.2886 0
      vertex 4.92526 11.1951 0
    endloop
  endfacet
  facet normal 0 0 -1
    outer loop
      vertex 4.075 -11.4714 0
      vertex 4.48561 11.2886 0
      vertex 4.48561 -11.2886 0
    endloop
  endfacet
  facet normal 0 0 -1
    outer loop
      vertex 4.075 -11.4714 0
      vertex 4.075 11.4714 0
      vertex 4.48561 11.2886 0
    endloop
  endfacet
  facet normal 0 0 -1
    outer loop
      vertex 3.71137 -11.7356 0
      vertex 4.075 11.4714 0
      vertex 4.075 -11.4714 0
    endloop
  endfacet
  facet normal 0 0 -1
    outer loop
      vertex 3.71137 -11.7356 0
      vertex 3.71137 11.7356 0
      vertex 4.075 11.4714 0
    endloop
  endfacet
  facet normal 0 0 -1
    outer loop
      vertex 3.41061 -12.0696 0
      vertex 3.71137 11.7356 0
      vertex 3.71137 -11.7356 0
    endloop
  endfacet
  facet normal 0 0 -1
    outer loop
      vertex 3.41061 -12.0696 0
      vertex 3.41061 12.0696 0
      vertex 3.71137 11.7356 0
    endloop
  endfacet
  facet normal 0 0 -1
    outer loop
      vertex 3.18588 -12.4588 0
      vertex 3.41061 12.0696 0
      vertex 3.41061 -12.0696 0
    endloop
  endfacet
  facet normal 0 0 -1
    outer loop
      vertex 3.18588 -12.4588 0
      vertex 3.18588 12.4588 0
      vertex 3.41061 12.0696 0
    endloop
  endfacet
  facet normal 0 0 -1
    outer loop
      vertex 3.04698 -12.8863 0
      vertex 3.18588 12.4588 0
      vertex 3.18588 -12.4588 0
    endloop
  endfacet
  facet normal 0 0 -1
    outer loop
      vertex 3.04698 -12.8863 0
      vertex 3.04698 12.8863 0
      vertex 3.18588 12.4588 0
    endloop
  endfacet
  facet normal 0 0 -1
    outer loop
      vertex 1 -20 0
      vertex 3.04698 -12.8863 0
      vertex 3 -13.3333 0
    endloop
  endfacet
  facet normal -0 0 -1
    outer loop
      vertex 3.04698 -12.8863 0
      vertex 1 -20 0
      vertex 3.04698 12.8863 0
    endloop
  endfacet
  facet normal 0 0 -1
    outer loop
      vertex 48.553 12.8863 0
      vertex 51.6 20 0
      vertex 48.553 -12.8863 0
    endloop
  endfacet
  facet normal 0 0 -1
    outer loop
      vertex 51.6 20 0
      vertex 48.553 12.8863 0
      vertex 48.6 13.3333 0
    endloop
  endfacet
  facet normal 0 0 -1
    outer loop
      vertex 48.4141 -12.4588 0
      vertex 48.553 12.8863 0
      vertex 48.553 -12.8863 0
    endloop
  endfacet
  facet normal 0 0 -1
    outer loop
      vertex 48.4141 -12.4588 0
      vertex 48.4141 12.4588 0
      vertex 48.553 12.8863 0
    endloop
  endfacet
  facet normal 0 0 -1
    outer loop
      vertex 48.1894 -12.0696 0
      vertex 48.4141 12.4588 0
      vertex 48.4141 -12.4588 0
    endloop
  endfacet
  facet normal 0 0 -1
    outer loop
      vertex 48.1894 -12.0696 0
      vertex 48.1894 12.0696 0
      vertex 48.4141 12.4588 0
    endloop
  endfacet
  facet normal 0 0 -1
    outer loop
      vertex 47.8886 -11.7356 0
      vertex 48.1894 12.0696 0
      vertex 48.1894 -12.0696 0
    endloop
  endfacet
  facet normal 0 0 -1
    outer loop
      vertex 47.8886 -11.7356 0
      vertex 47.8886 11.7356 0
      vertex 48.1894 12.0696 0
    endloop
  endfacet
  facet normal 0 0 -1
    outer loop
      vertex 47.525 -11.4714 0
      vertex 47.8886 11.7356 0
      vertex 47.8886 -11.7356 0
    endloop
  endfacet
  facet normal 0 0 -1
    outer loop
      vertex 47.525 -11.4714 0
      vertex 47.525 11.4714 0
      vertex 47.8886 11.7356 0
    endloop
  endfacet
  facet normal 0 0 -1
    outer loop
      vertex 47.1144 -11.2886 0
      vertex 47.525 11.4714 0
      vertex 47.525 -11.4714 0
    endloop
  endfacet
  facet normal 0 0 -1
    outer loop
      vertex 47.1144 -11.2886 0
      vertex 47.1144 11.2886 0
      vertex 47.525 11.4714 0
    endloop
  endfacet
  facet normal 0 0 -1
    outer loop
      vertex 46.6747 -11.1951 0
      vertex 47.1144 11.2886 0
      vertex 47.1144 -11.2886 0
    endloop
  endfacet
  facet normal 0 0 -1
    outer loop
      vertex 46.6747 -11.1951 0
      vertex 46.6747 11.1951 0
      vertex 47.1144 11.2886 0
    endloop
  endfacet
  facet normal 0 0 -1
    outer loop
      vertex 46.2253 -11.1951 0
      vertex 46.6747 11.1951 0
      vertex 46.6747 -11.1951 0
    endloop
  endfacet
  facet normal 0 0 -1
    outer loop
      vertex 46.2253 -11.1951 0
      vertex 46.2253 11.1951 0
      vertex 46.6747 11.1951 0
    endloop
  endfacet
  facet normal 0 0 -1
    outer loop
      vertex 45.7856 -11.2886 0
      vertex 46.2253 11.1951 0
      vertex 46.2253 -11.1951 0
    endloop
  endfacet
  facet normal 0 0 -1
    outer loop
      vertex 45.7856 -11.2886 0
      vertex 45.7856 11.2886 0
      vertex 46.2253 11.1951 0
    endloop
  endfacet
  facet normal 0 0 -1
    outer loop
      vertex 45.375 -11.4714 0
      vertex 45.7856 11.2886 0
      vertex 45.7856 -11.2886 0
    endloop
  endfacet
  facet normal 0 0 -1
    outer loop
      vertex 45.375 -11.4714 0
      vertex 45.375 11.4714 0
      vertex 45.7856 11.2886 0
    endloop
  endfacet
  facet normal 0 0 -1
    outer loop
      vertex 45.0114 -11.7356 0
      vertex 45.375 11.4714 0
      vertex 45.375 -11.4714 0
    endloop
  endfacet
  facet normal 0 0 -1
    outer loop
      vertex 45.0114 -11.7356 0
      vertex 45.0114 11.7356 0
      vertex 45.375 11.4714 0
    endloop
  endfacet
  facet normal 0 0 -1
    outer loop
      vertex 44.7106 -12.0696 0
      vertex 45.0114 11.7356 0
      vertex 45.0114 -11.7356 0
    endloop
  endfacet
  facet normal 0 0 -1
    outer loop
      vertex 44.7106 -12.0696 0
      vertex 44.7106 12.0696 0
      vertex 45.0114 11.7356 0
    endloop
  endfacet
  facet normal 0 0 -1
    outer loop
      vertex 44.347 -12.8863 0
      vertex 7.25302 -12.8863 0
      vertex 44.4859 -12.4588 0
    endloop
  endfacet
  facet normal 0 0 -1
    outer loop
      vertex 7.11412 -12.4588 0
      vertex 44.4859 -12.4588 0
      vertex 7.25302 -12.8863 0
    endloop
  endfacet
  facet normal 0 0 -1
    outer loop
      vertex 7.25302 -12.8863 0
      vertex 44.347 -12.8863 0
      vertex 7.3 -13.3333 0
    endloop
  endfacet
  facet normal 0 0 -1
    outer loop
      vertex 44.4859 -12.4588 0
      vertex 7.11412 -12.4588 0
      vertex 44.7106 -12.0696 0
    endloop
  endfacet
  facet normal 0 0 -1
    outer loop
      vertex 7.3 -13.3333 0
      vertex 44.347 -12.8863 0
      vertex 44.3 -13.3333 0
    endloop
  endfacet
  facet normal 0 0 -1
    outer loop
      vertex 44.7106 12.0696 0
      vertex 7.3 13.3333 0
      vertex 44.4859 12.4588 0
    endloop
  endfacet
  facet normal 0 0 -1
    outer loop
      vertex 48.553 -12.8863 0
      vertex 51.6 -20 0
      vertex 48.6 -13.3333 0
    endloop
  endfacet
  facet normal 0 0 -1
    outer loop
      vertex 51.6 -20 0
      vertex 48.553 -13.7803 0
      vertex 48.6 -13.3333 0
    endloop
  endfacet
  facet normal 0 0 -1
    outer loop
      vertex 51.6 -20 0
      vertex 48.4141 -14.2078 0
      vertex 48.553 -13.7803 0
    endloop
  endfacet
  facet normal 0 0 -1
    outer loop
      vertex 51.6 -20 0
      vertex 48.1894 -14.5971 0
      vertex 48.4141 -14.2078 0
    endloop
  endfacet
  facet normal 0 0 -1
    outer loop
      vertex 51.6 -20 0
      vertex 47.8886 -14.9311 0
      vertex 48.1894 -14.5971 0
    endloop
  endfacet
  facet normal 0 0 -1
    outer loop
      vertex 51.6 -20 0
      vertex 47.525 -15.1953 0
      vertex 47.8886 -14.9311 0
    endloop
  endfacet
  facet normal 0 0 -1
    outer loop
      vertex 51.6 -20 0
      vertex 47.1144 -15.3781 0
      vertex 47.525 -15.1953 0
    endloop
  endfacet
  facet normal 0 0 -1
    outer loop
      vertex 51.6 -20 0
      vertex 46.6747 -15.4716 0
      vertex 47.1144 -15.3781 0
    endloop
  endfacet
  facet normal 0 0 -1
    outer loop
      vertex 51.6 -20 0
      vertex 46.2253 -15.4716 0
      vertex 46.6747 -15.4716 0
    endloop
  endfacet
  facet normal 0 0 -1
    outer loop
      vertex 51.6 -20 0
      vertex 45.7856 -15.3781 0
      vertex 46.2253 -15.4716 0
    endloop
  endfacet
  facet normal 0 0 -1
    outer loop
      vertex 51.6 -20 0
      vertex 45.375 -15.1953 0
      vertex 45.7856 -15.3781 0
    endloop
  endfacet
  facet normal 0 0 -1
    outer loop
      vertex 1 -20 0
      vertex 45.375 -15.1953 0
      vertex 51.6 -20 0
    endloop
  endfacet
  facet normal 0 0 -1
    outer loop
      vertex 44.4859 12.4588 0
      vertex 7.3 13.3333 0
      vertex 44.347 12.8863 0
    endloop
  endfacet
  facet normal 0 0 -1
    outer loop
      vertex 44.347 -13.7803 0
      vertex 7.3 -13.3333 0
      vertex 44.3 -13.3333 0
    endloop
  endfacet
  facet normal 0 0 -1
    outer loop
      vertex 7.25302 -13.7803 0
      vertex 44.347 -13.7803 0
      vertex 44.4859 -14.2078 0
    endloop
  endfacet
  facet normal 0 0 -1
    outer loop
      vertex 7.11412 -14.2078 0
      vertex 44.4859 -14.2078 0
      vertex 44.7106 -14.5971 0
    endloop
  endfacet
  facet normal 0 0 -1
    outer loop
      vertex 6.88939 -14.5971 0
      vertex 44.7106 -14.5971 0
      vertex 45.0114 -14.9311 0
    endloop
  endfacet
  facet normal -0 0 -1
    outer loop
      vertex 45.375 -15.1953 0
      vertex 1 -20 0
      vertex 45.0114 -14.9311 0
    endloop
  endfacet
  facet normal 0 0 -1
    outer loop
      vertex 44.347 -13.7803 0
      vertex 7.25302 -13.7803 0
      vertex 7.3 -13.3333 0
    endloop
  endfacet
  facet normal 0 0 -1
    outer loop
      vertex 44.4859 -14.2078 0
      vertex 7.11412 -14.2078 0
      vertex 7.25302 -13.7803 0
    endloop
  endfacet
  facet normal 0 0 -1
    outer loop
      vertex 44.7106 -14.5971 0
      vertex 6.88939 -14.5971 0
      vertex 7.11412 -14.2078 0
    endloop
  endfacet
  facet normal 0 0 -1
    outer loop
      vertex 45.0114 -14.9311 0
      vertex 6.58863 -14.9311 0
      vertex 6.88939 -14.5971 0
    endloop
  endfacet
  facet normal -0 0 -1
    outer loop
      vertex 45.0114 -14.9311 0
      vertex 6.225 -15.1953 0
      vertex 6.58863 -14.9311 0
    endloop
  endfacet
  facet normal 0 0 -1
    outer loop
      vertex 45.0114 -14.9311 0
      vertex 1 -20 0
      vertex 6.225 -15.1953 0
    endloop
  endfacet
  facet normal 0 0 -1
    outer loop
      vertex 6.225 -15.1953 0
      vertex 1 -20 0
      vertex 5.81439 -15.3781 0
    endloop
  endfacet
  facet normal 0 0 -1
    outer loop
      vertex 5.81439 -15.3781 0
      vertex 1 -20 0
      vertex 5.37474 -15.4716 0
    endloop
  endfacet
  facet normal 0 0 -1
    outer loop
      vertex 1 20 0
      vertex 3.04698 12.8863 0
      vertex 1 -20 0
    endloop
  endfacet
  facet normal -0 0 -1
    outer loop
      vertex 3.04698 -13.7803 0
      vertex 1 -20 0
      vertex 3 -13.3333 0
    endloop
  endfacet
  facet normal -0 0 -1
    outer loop
      vertex 3.18588 -14.2078 0
      vertex 1 -20 0
      vertex 3.04698 -13.7803 0
    endloop
  endfacet
  facet normal -0 0 -1
    outer loop
      vertex 3.41061 -14.5971 0
      vertex 1 -20 0
      vertex 3.18588 -14.2078 0
    endloop
  endfacet
  facet normal -0 0 -1
    outer loop
      vertex 3.71137 -14.9311 0
      vertex 1 -20 0
      vertex 3.41061 -14.5971 0
    endloop
  endfacet
  facet normal -0 0 -1
    outer loop
      vertex 4.075 -15.1953 0
      vertex 1 -20 0
      vertex 3.71137 -14.9311 0
    endloop
  endfacet
  facet normal -0 0 -1
    outer loop
      vertex 4.48561 -15.3781 0
      vertex 1 -20 0
      vertex 4.075 -15.1953 0
    endloop
  endfacet
  facet normal -0 0 -1
    outer loop
      vertex 4.92526 -15.4716 0
      vertex 1 -20 0
      vertex 4.48561 -15.3781 0
    endloop
  endfacet
  facet normal -0 0 -1
    outer loop
      vertex 5.37474 -15.4716 0
      vertex 1 -20 0
      vertex 4.92526 -15.4716 0
    endloop
  endfacet
  facet normal 0 0 -1
    outer loop
      vertex 51.6 -20 0
      vertex 48.553 -12.8863 0
      vertex 51.6 20 0
    endloop
  endfacet
  facet normal 0 0 -1
    outer loop
      vertex 48.553 13.7803 0
      vertex 51.6 20 0
      vertex 48.6 13.3333 0
    endloop
  endfacet
  facet normal 0 0 -1
    outer loop
      vertex 48.4141 14.2078 0
      vertex 51.6 20 0
      vertex 48.553 13.7803 0
    endloop
  endfacet
  facet normal 0 0 -1
    outer loop
      vertex 48.1894 14.5971 0
      vertex 51.6 20 0
      vertex 48.4141 14.2078 0
    endloop
  endfacet
  facet normal 0 0 -1
    outer loop
      vertex 47.8886 14.9311 0
      vertex 51.6 20 0
      vertex 48.1894 14.5971 0
    endloop
  endfacet
  facet normal 0 0 -1
    outer loop
      vertex 47.525 15.1953 0
      vertex 51.6 20 0
      vertex 47.8886 14.9311 0
    endloop
  endfacet
  facet normal 0 0 -1
    outer loop
      vertex 47.1144 15.3781 0
      vertex 51.6 20 0
      vertex 47.525 15.1953 0
    endloop
  endfacet
  facet normal 0 0 -1
    outer loop
      vertex 46.6747 15.4716 0
      vertex 51.6 20 0
      vertex 47.1144 15.3781 0
    endloop
  endfacet
  facet normal 0 0 -1
    outer loop
      vertex 46.2253 15.4716 0
      vertex 51.6 20 0
      vertex 46.6747 15.4716 0
    endloop
  endfacet
  facet normal 0 0 -1
    outer loop
      vertex 45.7856 15.3781 0
      vertex 51.6 20 0
      vertex 46.2253 15.4716 0
    endloop
  endfacet
  facet normal 0 0 -1
    outer loop
      vertex 45.375 15.1953 0
      vertex 51.6 20 0
      vertex 45.7856 15.3781 0
    endloop
  endfacet
  facet normal 0 0 -1
    outer loop
      vertex 1 20 0
      vertex 45.375 15.1953 0
      vertex 45.0114 14.9311 0
    endloop
  endfacet
  facet normal 0 0 -1
    outer loop
      vertex 44.347 12.8863 0
      vertex 7.3 13.3333 0
      vertex 44.3 13.3333 0
    endloop
  endfacet
  facet normal 0 0 -1
    outer loop
      vertex 44.3 13.3333 0
      vertex 7.3 13.3333 0
      vertex 44.347 13.7803 0
    endloop
  endfacet
  facet normal 0 0 -1
    outer loop
      vertex 7.25302 13.7803 0
      vertex 44.347 13.7803 0
      vertex 7.3 13.3333 0
    endloop
  endfacet
  facet normal 0 0 -1
    outer loop
      vertex 44.347 13.7803 0
      vertex 7.25302 13.7803 0
      vertex 44.4859 14.2078 0
    endloop
  endfacet
  facet normal 0 0 -1
    outer loop
      vertex 7.11412 14.2078 0
      vertex 44.4859 14.2078 0
      vertex 7.25302 13.7803 0
    endloop
  endfacet
  facet normal 0 0 -1
    outer loop
      vertex 44.4859 14.2078 0
      vertex 7.11412 14.2078 0
      vertex 44.7106 14.5971 0
    endloop
  endfacet
  facet normal 0 0 -1
    outer loop
      vertex 6.88939 14.5971 0
      vertex 44.7106 14.5971 0
      vertex 7.11412 14.2078 0
    endloop
  endfacet
  facet normal 0 0 -1
    outer loop
      vertex 44.7106 14.5971 0
      vertex 6.88939 14.5971 0
      vertex 45.0114 14.9311 0
    endloop
  endfacet
  facet normal 0 0 -1
    outer loop
      vertex 6.58863 14.9311 0
      vertex 45.0114 14.9311 0
      vertex 6.88939 14.5971 0
    endloop
  endfacet
  facet normal 0 0 -1
    outer loop
      vertex 6.225 15.1953 0
      vertex 45.0114 14.9311 0
      vertex 6.58863 14.9311 0
    endloop
  endfacet
  facet normal 0 0 -1
    outer loop
      vertex 1 20 0
      vertex 45.0114 14.9311 0
      vertex 6.225 15.1953 0
    endloop
  endfacet
  facet normal 0 0 -1
    outer loop
      vertex 1 20 0
      vertex 6.225 15.1953 0
      vertex 5.81439 15.3781 0
    endloop
  endfacet
  facet normal 0 0 -1
    outer loop
      vertex 1 20 0
      vertex 5.81439 15.3781 0
      vertex 5.37474 15.4716 0
    endloop
  endfacet
  facet normal 0 0 -1
    outer loop
      vertex 1 20 0
      vertex 5.37474 15.4716 0
      vertex 4.92526 15.4716 0
    endloop
  endfacet
  facet normal 0 0 -1
    outer loop
      vertex 45.375 15.1953 0
      vertex 1 20 0
      vertex 51.6 20 0
    endloop
  endfacet
  facet normal 0 0 -1
    outer loop
      vertex 4.48561 15.3781 0
      vertex 1 20 0
      vertex 4.92526 15.4716 0
    endloop
  endfacet
  facet normal 0 0 -1
    outer loop
      vertex 4.075 15.1953 0
      vertex 1 20 0
      vertex 4.48561 15.3781 0
    endloop
  endfacet
  facet normal 0 0 -1
    outer loop
      vertex 3.71137 14.9311 0
      vertex 1 20 0
      vertex 4.075 15.1953 0
    endloop
  endfacet
  facet normal 0 0 -1
    outer loop
      vertex 3.41061 14.5971 0
      vertex 1 20 0
      vertex 3.71137 14.9311 0
    endloop
  endfacet
  facet normal 0 0 -1
    outer loop
      vertex 3.18588 14.2078 0
      vertex 1 20 0
      vertex 3.41061 14.5971 0
    endloop
  endfacet
  facet normal 0 0 -1
    outer loop
      vertex 3.04698 13.7803 0
      vertex 1 20 0
      vertex 3.18588 14.2078 0
    endloop
  endfacet
  facet normal 0 0 -1
    outer loop
      vertex 3 13.3333 0
      vertex 1 20 0
      vertex 3.04698 13.7803 0
    endloop
  endfacet
  facet normal 0 0 -1
    outer loop
      vertex 3.04698 12.8863 0
      vertex 1 20 0
      vertex 3 13.3333 0
    endloop
  endfacet
  facet normal -1 0 0
    outer loop
      vertex 1 -20 0
      vertex 1 20 6
      vertex 1 20 0
    endloop
  endfacet
  facet normal -1 -0 0
    outer loop
      vertex 1 20 6
      vertex 1 -20 0
      vertex 1 -20 6
    endloop
  endfacet
  facet normal 0 1 -0
    outer loop
      vertex 51.6 20 0
      vertex 1 20 6
      vertex 51.6 20 6
    endloop
  endfacet
  facet normal 0 1 0
    outer loop
      vertex 1 20 6
      vertex 51.6 20 0
      vertex 1 20 0
    endloop
  endfacet
  facet normal 0 -1 0
    outer loop
      vertex 1 -20 0
      vertex 51.6 -20 6
      vertex 1 -20 6
    endloop
  endfacet
  facet normal 0 -1 -0
    outer loop
      vertex 51.6 -20 6
      vertex 1 -20 0
      vertex 51.6 -20 0
    endloop
  endfacet
endsolid OpenSCAD_Model
